<svg fill="currentcolor" viewBox="0 0 29.104166 29.104167" xmlns="http://www.w3.org/2000/svg"><g transform="matrix(.08943605 0 0 .08943605 38.14281 14.379388)"><path d="m-378.55975 45.081673 37.8789-53.1823998c.7297-.92237 1.1809-1.17959 1.7073-1.21129s1.078-.0445 1.7349.49416l1.5777 1.29084c.4698.38405 1.3257 1.20009 1.5791 1.10953.2789-.0997.2207-.98305.07-1.61153l-1.004-5.6653302c-.1153-.76487-.086-1.33747.069-1.88777.1664-.59078.4827-1.31902.7912-1.76959l34.7296-49.195158c.2881-.384461.7111-.831021 1.1075-.972051.4204-.149569 1.3218-.16807 1.8635-.0524l6.9664 1.741601c.546.133329 1.875.338479 2.1165.140568.2856-.234069-.3358-1.154258-.631-1.523599l-4.3541-5.788269c-.4983-.697261-.5009-1.16531-.5009-1.74259 0-.61071.1336-1.33312.4497-1.84306l2.7149-4.40523s.2443-.58669.8731-.58669.9197.58669.9197.58669l18.199 29.23404s.2286.29918.2063.8984c-.022.599218-.3892 1.223719-.3892 1.223719l-34.6282 60.794059h53.1314l-1.3851-23.18129s-.098-.77051.4712-.90713c.5692-.13663.8355.59351.8355.59351l23.8713 52.12263c.1294.34126.3058.67302.2168.93918-.1038.31028-.4278.2833-.8023.26824h-91.3243s-.7181-.0215-1.156.23133c-.4642.26799-.7466.71996-.7466.71996l-21.1637 31.54434s-.3455.4578-.3468 1.10934c0 .65153.3206 1.29503.3206 1.29503l8.2598 14.3064s.2948.46566.121.76673c-.1738.30108-.8165.25527-.8165.25527h-16.1866s-.8265.0343-1.19-.15162c-.3635-.18595-.7053-.71918-.7053-.71918l-25.2533-42.15703c-.3244-.56201-.5878-1.08984-.6392-1.63008-.043-.45186.1683-1.1021.4406-1.48226z"/><path d="m-264.13445-49.316915s-.7782-1.195851-.7916-2.334181c-.013-1.13832.7393-2.13482.7393-2.13482l17.7924-27.462119s.4552-.7927 1.2002-.7927 1.2146.75611 1.2146.75611l47.1989 64.724688s.7813.96137.8694 1.82107c.088.85969-.284 1.50846-.284 1.50846l-4.7199 9.1104902s-.6908 1.27317-.5261 1.4866c.1646.21343 1.514-.20601 1.514-.20601l9.0739-2.8173s.6083-.24785 1.4378-.1461c.8296.10175 1.1966.58516 1.1966.58516l37.8416 51.4151898s.6669.87626.6946 1.3712c.028.49494-.5283 1.59844-.5283 1.59844l-22.4872 41.38868s-.3827.74266-.6644.92194c-.2818.17928-1.0259.15375-1.0259.15375l-16.2892-.25612s-1.217-.00027-1.3417-.23758.4709-1.14546.4709-1.14546l7.0689-11.06429s.7773-1.1907.6461-2.02409c-.1312-.8334-.9534-2.17625-.9534-2.17625z"/><path d="m-290.51975-92.041585s-.5799-1.04142-.4153-1.30363c.1647-.26222 1.4031-.26966 1.4031-.26966l44.0523.2927s1.4415-.003 1.6132.29059c.1716.29389-.5832 1.47272-.5832 1.47272l-22.178 35.117689s-.6558 1.01338-.9912 1.01338-1.0212-1.01338-1.0212-1.01338z"/><path d="m-385.11475 51.132883s.5187-.96288.7862-.93799c.2676.0249.8192 1.08732.8192 1.08732l24.6635 41.3373s.6246 1.02878.4677 1.29883c-.1568.27006-1.4085.32151-1.4085.32151l-49.9692 3.18841s-1.6379.14792-1.8806-.073c-.2427-.22089.4246-1.25241.4246-1.25241z"/><path d="m-144.09006 51.333023s-.55329-.94335-.81978-.90873c-.26652.0346-.77912 1.11644-.77912 1.11644l-23.14129 42.20828s-.5866 1.05084-.4201 1.315c.1665.26417 1.4193.26999 1.4193.26999l50.05219 1.36607s1.64222.0882 1.87672-.14145c.23439-.22959-.4699-1.23612-.4699-1.23612z"/></g></svg>
