<svg viewBox="0 0 313.356 179.25074" xmlns="http://www.w3.org/2000/svg"><path d="m310.498 82.22631-109.632-79.9289962c-3.046-2.47400001-6.376-2.95000001-9.993-1.42700001-3.613 1.52500001-5.427 4.28300001-5.427 8.28200001v43.9540002h-176.31c-2.666 0-4.856.855-6.567 2.568-1.71 1.712-2.569 3.902-2.569 6.566v54.815996c0 2.663.855 4.853 2.568 6.563 1.715 1.712 3.905 2.567 6.567 2.567h176.313v43.953c0 3.812 1.817 6.57 5.428 8.278 3.62 1.529 6.95.951 9.996-1.708l109.632-81.077c1.903-1.902 2.852-4.182 2.852-6.849 0-2.468-.955-4.654-2.858-6.557z" fill="#fff"/></svg>
