<svg viewBox="0 0 957.5 568.75" xmlns="http://www.w3.org/2000/svg" xmlns:xlink="http://www.w3.org/1999/xlink"><clipPath id="a"><path d="m0 .398438h7660v4539.999962h-7660z"/></clipPath><g clip-path="url(#a)" transform="matrix(.125 0 0 -.125 0 568.75)"><path d="m6261.6 2796.42h-3.98c-61.6 973.59-871.21 1743.98-1860 1743.98-912.82 0-1672.03-656.02-1832.82-1521.6-20.82.82-42.42 1.6-63.2 1.6-680 0-1253.59-450.39-1440.82-1068.79-28.79 2.38-58.4 3.99-87.971 3.99-536.789 0-972.809-435.2-972.809-972.819 0-537.582 435.199-972.7693 971.988-972.7693h5288.792c769.61 0 1392.81 623.9763 1392.81 1392.7683 0 768.83-622.38 1393.64-1391.99 1393.64z"/></g></svg>
