<svg fill="currentcolor" viewBox="0 0 29.104166 29.104167" xmlns="http://www.w3.org/2000/svg"><path d="m-240.21337 46.056528c-.0832-.0051-.16628-.0042-.24987.0032-1.33729.117563-1.36461 1.545487-2.05524 1.896904-.69065.351407-2.11679-.172848-2.11679.375594 0 .911504.6107 2.587931 1.58444 3.995282 1.09341-.664172 2.25993-1.063655 3.47292-1.063655 1.21297 0 2.37951.399483 3.47292 1.063655.97377-1.407351 1.73331-3.418866 1.73331-4.330371 0-.879907-1.367.06079-2.414-.214625-.98154-.258203-2.17982-1.649833-3.42769-1.725939zm.63546 7.092611c-6.16365 0-11.15996 10.199846-11.15996 14.08317 0 3.883351 4.99631 5.279347 11.15996 5.279347 6.16366 0 11.16049-1.395996 11.16049-5.279347 0-3.883324-4.99683-14.08317-11.16049-14.08317zm.5171 3.899016c.0675.0033.14584.01319.24514.02735.23691.03345.60127.136393.80957.228828.35092.155593.42456.222442 1.00368.916891.79171.949425.80209 1.007127.25461 1.378753-.21113.143419-.42059.247455-.46607.231457-.0452-.01589-.14767.01509-.22778.06943-.1699.115355-.54935.01966-.60389-.152553-.0199-.06273-.10169-.127491-.18148-.145187-.0799-.01697-.27258-.158454-.4282-.314048-.27396-.273857-.29405-.280881-.63546-.223564-.19394.03205-.43491.05387-.53551.04471-.10068-.0083-.26742.0422-.37033.112048-.10297.06984-.22382.113709-.26933.09785-.0478-.0167-.394.182042-.82168.472382-.66254.449733-.74079.520842-.75697.684381-.0102.100268-.0522.205347-.0932.233035-.0413.02785-.0857.156443-.1.285641-.0143.129226-.0656.294295-.11362.367176-.0895.13561-.0191.745601.10573.895323.0382.04574.075.152673.0842.237245.0121.12629.0502.159813.21094.187798.10779.01885.2807.0026.38453-.03788.29088-.110749.80541-.279088.95634-.246712.0746.01589.28289-.02235.46292-.08574.32845-.115732 1.31061-.211655 1.43714-.05997.11341.212531.076.250749.0689.362442 0 0 .17181.264348.0258.42662-.21361.09122-.40242.06628-.40242.06628-.22139.03666-.92939.202741-1.10731.193583-.17792-.0095-.36245.0089-.40979.04103-.0475.03227-.22382.07538-.39137.09574-.16761.02047-.35241.06982-.41085.109417-.0585.0397-.1498.06874-.20305.06365-.053-.0046-.23403.0621-.4019.148343-.24119.123894-.30269.187772-.30983.305632-.009.275689.0466.341013.16149.478696.0656.07806.0978.262182.0757.42925-.0226.161114-.0257.311006-.007.332984.0421.05055.79825-.08595 1.18727-.214099.51093-.168386 1.46096-.356063 1.83062-.322989.20577.01831.46544-.0183.61494-.0868.33775-.154785.60075-.04542.62284.258813.0188.260687-.32006.511237-.76434.564969-.20753.02505-.4162.112306-.6544.274068-.27331.185435-.67949.315863-.83535.288795-.11883-.02074-.27545.01698-.38822.09363-.10401.07059-.23328.122396-.28774.117306-.16041-.01805-.56027.242539-.59916.390322-.0264.100625.003.152555.10573.196214.0779.03262.20304.132949.27828.223041.14987.179782.48362.37002.63124.360866.0517-.0035.30311.09356.55866.215676.25551.122008.51405.22742.57444.23251.0603.0059.2058.04422.32351.08574.30044.10601.80751-.07594 1.03525-.37191.10889-.1414.27725-.269364.48133-.364548.30453-.142208 1.25948-.779959 2.03946-1.362446.35719-.266773.40014-.282269.65439-.231984.22024.04347.32232.114076.53552.369808.40206.482106.46402.866592.2204 1.364023-.0966.197098-1.83368 1.395382-1.95897 1.3514-.0454-.01589-.2658.09538-.49027.247765-.41919.284685-.85451.415812-1.03735.31247-.0556-.03152-.1804.0049-.30143.08679-.22153.150396-.35466.144002-1.1131-.05313-.64993-.168199-1.52572-.247215-1.84798-.165176-.0794.01993-.23025-.01105-.33562-.06943-.10524-.05842-.3299-.175915-.49921-.260919-.25522-.128119-.41738-.285391-.94845-.922148-.39245-.470659-.67096-.858394-.71963-1.00211-.074-.217083-.0971-.234697-.31509-.236717-.1293 0-.27921.02696-.33246.06208-.14527.0958-1.03053.246331-1.13888.185166-.0522-.02962-.14395-.02067-.20358.01999-.27857.189125-.92961-.148554-.99264-.51447-.0532-.310028.55027-.634982 1.3614-.733827.26006-.03165.70941-.136652.70227-.24724-.0139-.334753-.0822-.677415-.19674-.985802-.11584-.312342-.13513-.33561-.23935-.291951-.0624.02612-.53892.157116-.59285.152025-.054-.0057-.15531.02882-.22515.07627-.0699.04783-.26589.06544-.43556.0405-.22045-.03253-.36473-.007-.50605.0889-.26099.177169-.60638.08452-.67123-.180432-.10169-.415042.79736-.947328 1.57234-.860603l.82273-.158863.16465-.85587c.0972-.585476.24158-1.145412.33298-1.291956.0887-.1421.18234-.309277.20831-.371385.0259-.06219.0888-.179565.13992-.260391.05-.08094.0774-.253421.0573-.383482-.021-.137441.0343-.35479.13257-.519729.11719-.19683.21432-.298211.82062-.710156h.003c.20213-.137306.46068-.308912.79537-.53025 1.23627-.817425 1.47443-.95534 1.63283-.944244.11344.008.33741-.07586.57655-.216201.27033-.15864.37358-.20576.57601-.195689z" transform="translate(254.12973 -44.730402)"/></svg>
