<svg height="884.52704" viewBox="0 0 189.05368 234.03112" width="714.53363" xmlns="http://www.w3.org/2000/svg"><g transform="translate(37.074462 -25.832898)"><path d="m488.21484 75.996094-12.36328 9.943359 3.13867 16.248047-7.22461 11.48828 11.31641 5.98047 26.61719 65.07813-31.08008-61.45118-9.31836-4.25976-7.68555 10.5s-18.61626-3.54047-32.50585-5.99219l-11.14454 8.96289.47852.57227-.92383-.21289-7.10937 5.71484 16.19336 74.62109-40.60547 42.47461 23.91601 29.77149c32.86039-7.96124 92.79262-5.86226 104.76563 10.5 18.4145 25.1913 22.51058 86.27657.56445 114.57812l13.50195 98.84766c12.67265-7.21814 24.87004-18.63117 32.6875-30.31641 12.73474-19.0354-1.91559-61.11904 3.96289-78.53125 5.87853-17.41221 15.04598-45.41978 21.72852-71.32031 24.51628-95.18656-21.46497-197.11909-98.91016-253.197266zm-15.05468 12.107422-34.52149 27.763674 19.0586 4.01758c3.31596-4.57578 14.79687-18.97266 14.79687-18.97266zm-80.09571 64.416014-13.60156 10.93945-144.64258 80.01368-113.97851 83.32031c9.0296 31.08377 20.3022 63.78158 27.75195 82.70508 8.23925 20.92902-6.55333 63.80779 8.7793 82.64257 8.03229 9.86699 29.5319 27.59179 49.77734 27.33985 20.24563-.2521 58.18176-3.59775 59.54688 38.39258-.25388 4.21459-.1984 5.41975 3.45312 6.74414 2.45494.88906 4.95934 1.72041 7.50195 2.50976 3.49078 1.10997 5.27224.37391 5.32813-2.78906 1.64917-8.22954 3.21289-27.15234 3.21289-27.15234s3.53109 20.82098 3.57226 27.05664c.0257 5.64586 1.53365 6.68247 7.68555 7.94336 4.27776.87371 8.63801 1.63534 13.08399 2.27343 6.79872 1.14142 7.86796.123 7.90039-4.69726 1.74549-8.73385 3.12695-33.01563 3.12695-33.01563s3.476 25.74064 3.5 32.2793c0 7.96887 1.90339 7.14536 7.41016 7.51953 4.87243.28347 9.80766.45195 14.81054.4961 5.61237.0189 6.60299-.99811 6.54688-5.93164 1.77163-8.90692 3.10937-34.81055 3.10937-34.81055l3.66407 34.74609s1.90836 5.52694 6.46484 5.4961c4.51264-.23622 10.92821-.56357 15.32031-.9961 3.59989-.46046 6.58452-1.19329 6.40821-7.54883 1.73824-8.67923 3.15429-32.13281 3.15429-32.13281s3.58057 24.86576 3.62891 31.37305c.42262 5.12523 1.35146 6.16026 8.02539 4.85742 4.89675-.95924 9.68102-2.06416 14.34375-3.32422 4.16126-1.12951 4.69841-2.38568 4.77344-6.30078 1.64402-8.20706 3.20898-27.01758 3.20898-27.01758s3.49804 18.46135 3.53516 24.54688c.0265 3.70401.50264 4.54556 3.23437 4.09765 1.53782-.55517 7.57032-1.93448 9.07227-2.52734 4.11231-.99606 3.31282-2.9403 2.99609-6.35938-4.93587-53.84942 38.04611-41.70468 56.57422-42.90234 5.96009-.38528 12.37684-2.51931 18.75195-5.86328l-19.7539-92.92969c-.4862.39081-.97932.77196-1.48438 1.13672-31.32416 22.58668-60.86507-9.75175-86.94922-25.6543-26.10058-15.90236-42.70863-64.14372-32.10937-86.11328 2.27424-4.72135 8.44734-9.05276 16.89844-12.71289l-23.93946-23.14453-40.97265 106.35742-52.72266 51.81641 44.32812-57.5332-10.99218-2.09766c-4.90432 10.24207-11.45917 19.2497-19.28125 25.06836-24.52747 18.24121-50.98788 53.1311-84.23633 33.49219-12.37216-7.30538-20.36965-22.07685-24.5625-39.26172l-27.63867 16.27929s12.27905-8.96963 26.91211-19.52929c-6.04767-28.39843-2.13545-62.3397 9.35937-80.14649 16.32032-25.30579 111.74687-20.42052 124.28906.48828 6.94304 11.56645 6.31307 31.8971.22071 50.84375 1.01206.062 10.18359.9961 10.18359.9961l34.96485-92.90625 45.19335-52.20899zm-36.51757 237.94922v.002c.14154-.004.28465.003.43164.0156.0811-.0151.14098.0113.22265 0 .0757.0113.14301-.0151.22461 0 1.17536-.11414 2.18775.35119 2.90039 1.51562 1.41482 1.09372 2.73043 2.61329 3.59571 4.39258 2.94922 5.95279 27.59132 79.74096 23.64648 91.57031-3.0364 9.13603-21.9152-2.88234-30.37109-8.82422-8.4448 5.94188-27.33926 17.96569-30.38086 8.82422-3.93962-11.83479 20.68874-85.61207 23.65429-91.57031.88139-1.77384 2.20389-3.29192 3.61328-4.39648.61899-1.01889 1.47207-1.50141 2.4629-1.5293z" fill="#f2f2f2" stroke-width="1.066667" transform="matrix(.26458333 0 0 .26458333 -35.751546 31.566034)"/><path d="m139.73773 192.90541c-.61151.00003-1.094.129-1.44639.38806-.3524.25913-.71755.57644-1.09361.9525-1.50579 1.36372-2.85764 2.62209-4.05694 3.77472-1.19933 1.15271-2.21067 2.36398-3.03389 3.63361-.82324 1.26969-1.44627 2.68091-1.86972 4.23333-.42348 1.55248-.635 3.41068-.635 5.57389 0 1.69387.0942 3.08119.28222 4.16278.18805 1.08164.51695 1.98718.98778 2.71639.47083.72923 1.11703 1.36384 1.94028 1.905.82321.54119 1.87076 1.16493 3.13972 1.86972.33014.23543.77639.51723 1.34055.84667.56411.32944 1.12847.65907 1.69334.98778.56484.32873 1.04659.62286 1.44639.88194.39976.25911.59969.41125.59972.45861l.635 1.27v7.47889c-.0933 0-.30559.0355-.635.10583-.32947.0703-.54173.0826-.635.0353-.37612-.046-.97595-.18793-1.79917-.42333-.82324-.2354-1.7049-.49403-2.64583-.77611-.94096-.28206-1.83419-.54071-2.68111-.77611-.84692-.23541-1.43519-.42376-1.76389-.56445-.23543.28135-.41148.62329-.52917 1.02306-.11771.39977-.18799.82284-.21167 1.27-.0237.44715-.0237.87023 0 1.27s.0353.6939.0353.88194v.635c0 .28279.0116.60009.0353.9525s.0353.66972.0353.9525v.635c.56413.84692 1.32842 1.51703 2.29305 2.01084.96461.49377 2.01072.88208 3.13973 1.16416 1.12897.28205 2.25837.47041 3.38666.56445 1.12824.094 2.11639.14111 2.96334.14111 1.88185 0 3.38655-.43542 4.51555-1.30528 1.12895-.8699 1.99904-1.97541 2.61056-3.31611.61146-1.34073.99977-2.81063 1.16416-4.40972.16434-1.5991.24692-3.15087.24695-4.65667-.00003-1.64646-.0587-3.31631-.17639-5.00944-.49217-2.87427-.0954-4.40301-2.50472-5.43278-.65891-.28206-1.36452-.59936-2.11667-.9525-.75221-.35312-1.45782-.68202-2.11667-.98778-.6589-.30573-1.10515-.52959-1.34055-.67028-.89287-.4708-1.74047-1.12934-2.54-1.97555-.79956-.84619-1.19947-1.95098-1.19945-3.31612-.00002-.46936.0355-1.1286.10584-1.97555.0703-.8469.21158-1.66988.42333-2.46945.21172-.79953.54133-1.50512.98778-2.11666.44642-.61147 1.02235-.9172 1.72861-.91722.0933.00002.30553.0116.635.0353.32941.0237.51706.0599.56444.10584l6.985 3.81c.37606-1.27034.58762-2.34036.635-3.21028.0473-.86987.0705-1.91669.0706-3.13972-.00003-.23538-.0116-.65846-.0353-1.27-.0237-.61147-.0353-1.03455-.0353-1.27-.28281-.42342-.81167-.96458-1.5875-1.62278-.77588-.65812-1.63437-1.29345-2.57527-1.905-.94096-.61146-1.89363-1.14032-2.8575-1.5875-.96393-.4471-1.79849-.67025-2.50473-.67028zm-22.02216.44978c-.48921.00005-.87342.10145-1.15534.30869-.28194.20732-.57226.46646-.87314.76728-1.20463 1.09099-2.28608 2.09415-3.24555 3.01625-.95944.92219-1.76677 1.89473-2.42534 2.91042-.65859 1.01577-1.16055 2.14474-1.4993 3.38666-.33878 1.24201-.51153 2.72328-.51153 4.45384 0 1.35509.0789 2.46845.22931 3.33375.15042.86529.41707 1.58623.79375 2.16958.37665.58338.89363 1.09285 1.55222 1.52575.65856.43296 1.48957.93548 2.50472 1.4993.26411.18836.62465.41558 1.07597.67912.45131.26356.90631.52197 1.3582.78491.45186.26301.83552.49829 1.15533.70556.31982.20729.47625.33254.47625.37041l.51153 1.01426v5.97958c-.0747 0-.24799.0319-.51153.0882s-.42807.0643-.50269.0265c-.30088-.0367-.77899-.14681-1.43759-.33513-.65859-.18833-1.36392-.40054-2.11666-.6262-.75275-.22564-1.47442-.42901-2.15195-.61736-.67753-.18833-1.14813-.33723-1.41111-.44978-.18832.22507-.32915.49158-.42333.81139-.0941.31981-.14862.66534-.16756 1.02306-.0189.35771-.0189.6944 0 1.01422.0189.31984.0265.55513.0265.70555v.50273c0 .22622.008.48536.0265.76727.0189.28194.0353.53224.0353.75847v.51153c.4513.67753 1.06273 1.21012 1.83444 1.60514.77168.39506 1.61034.70923 2.51353.93486.9032.22567 1.80495.37457 2.70758.44981.90261.0752 1.68606.11464 2.36361.11464 1.50549 0 2.71278-.34479 3.61598-1.0407.90317-.6959 1.60099-1.58208 2.09019-2.65463.48921-1.07259.80338-2.2485.93486-3.52778.13149-1.27929.19403-2.52601.19403-3.73064 0-1.31716-.047-2.64951-.14111-4.00403-.39443-2.30347-.0718-3.52321-2.002-4.34797-.52713-.22564-1.09161-.47597-1.69333-.75847-.60176-.28248-1.16626-.54915-1.69334-.79375-.5271-.24461-.88764-.42543-1.07597-.53801-.7143-.37662-1.38884-.9017-2.02847-1.57866-.63966-.67694-.96133-1.56255-.96133-2.65467 0-.3755.0319-.90111.0882-1.57866.0563-.67751.16575-1.3359.33514-1.97556.16939-.63963.42779-1.2041.78494-1.69333.35713-.48918.81963-.732 1.38464-.73203.0747.00003.24796.008.51153.0265.26354.0189.4119.0515.4498.0882l5.59156 3.04275c.30085-1.01628.46479-1.87054.5027-2.56647.0379-.69588.0617-1.53509.0617-2.51353-.00003-.1883-.008-.52502-.0265-1.01425-.0189-.48917-.0353-.82586-.0353-1.01422-.22626-.33875-.64934-.7699-1.27-1.29647-.62072-.52649-1.3022-1.03652-2.05494-1.52575-.75278-.48918-1.51311-.91226-2.28423-1.27-.77114-.35769-1.44585-.53795-2.01083-.538zm-106.856393.0617c-2.1818857.15048-4.4085087.28307-6.6851397.4145-2.276628.13154-4.45702199.16287-6.526387.0882l-1.014222.51153c0 .63968.0076 1.59591.02653 2.87514.01892 1.27931.03528 2.76883.03528 4.46264v5.13291 5.13292c0 1.65597-.01638 3.13047-.03528 4.40972-.01892 1.27932-.02653 2.23551-.02653 2.87514 0 .33878-.01495.94215-.05292 1.808-.0379.86586-.08484 1.7909-.141112 2.76931-.05627.97841-.111308 1.89518-.167582 2.76047-.05628.86529-.103209 1.46922-.141113 1.808-.04411 1.74419-.0423 3.50734.114443 5.11562l13.088281-.0356s.03192-.18028.08819-.538c.05628-.35772.111281-.7808.167584-1.27.05625-.4892.10318-.99173.14111-1.49931.03787-.50757.07789-.92241.114639-1.26116 0-.0758.0073-.27991.02653-.59972.01892-.31982.02653-.57015.02653-.75847 0-.11256.0076-.25395.02653-.42334.01892-.16939.01156-.34965-.02653-.538-.03791-.18833-.09237-.34476-.167556-.47625-.07524-.13149-.209719-.21785-.396891-.25575-.188325 0-.485589.008-.899583.0265-.413991.0189-.884005.0265-1.41111.0265-.489204 0-.944203-.007-1.358196-.0265-.413991-.0189-.711256-.0265-.899584-.0265-.22507-.0367-.539834-.11619-.93486-.2293-.395026-.11312-.590918-.20645-.590889-.28223v-10.16c-.000029 0 .180819-.0231.537972-.0794.357153-.0562.780796-.11128 1.27-.16755.489204-.0563.982332-.10321 1.490501-.14111.508141-.0379.93122-.0767 1.27-.11467.188299.00003.533824-.0246 1.023057-.0617.489175-.0373.827024-.0529 1.014222-.0529v-6.32356c-.187198.00003-.470014-.008-.846667-.0265-.376682-.0189-.78472-.0428-1.217086-.0617-.432363-.0189-.831596-.034-1.208249-.0529-.376682-.0189-.643326-.0265-.79375-.0265-.07468.00003-.231677-.0243-.47625-.0617-.244631-.0373-.511273-.0923-.79375-.16756-.282503-.0752-.556683-.17661-.820221-.30869-.263541-.13202-.413033-.28903-.449779-.47625v-.45861c-.000029-.18715-.0076-.40669-.02653-.67028-.01892-.26351-.02653-.49073-.02653-.67908v-.44981c-.000029-.0757-.01638-.34242-.03528-.79375-.01892-.45127.0054-.93689.06172-1.46403.05628-.52705.157678-1.01399.308695-1.44639.150989-.4323.394377-.64377.732001-.6438h6.6057777v-7.10847zm96.237783 0c-2.18189.15048-4.40851.28307-6.68514.4145-2.276629.13154-4.448219.16287-6.517559.0882l-1.01425.51153c0 .63968.008 1.59591.0265 2.87514.0189 1.27931.0265 2.76883.0265 4.46264v5.13291 5.13292c0 1.65597-.008 3.13047-.0265 4.40972-.0189 1.27932-.0265 2.23551-.0265 2.87514 0 .33878-.0237.94215-.0617 1.808-.0379.86586-.0849 1.7909-.14111 2.76931-.0563.97841-.11131 1.89518-.16759 2.76047-.0563.86529-.10321 1.46922-.14111 1.808-.24635 2.17503-.29625 2.86916-.5934 5.08h13.804959s.0232-.18028.0794-.538.11128-.7808.16755-1.27c.0563-.4892.10321-.99173.14112-1.49931.0379-.50757.0779-.92241.11466-1.26116-.00003-.0758.008-.27991.0265-.59972.0189-.31982.0352-.57015.0353-.75847-.00003-.11256.007-.25395.0265-.42334.0189-.16939.0113-.34965-.0265-.538-.0379-.18833-.10121-.34476-.17639-.47625-.0752-.13149-.20089-.21785-.38806-.25575-.18835 0-.49442.008-.90841.0265-.41399.0189-.88401.0265-1.41111.0265-.48921 0-.9354-.007-1.34937-.0265-.41399-.0189-.72009-.0265-.90841-.0265-.22507-.0367-.531-.11619-.92603-.2293-.395049-.11312-.599749-.20645-.599719-.28223v-10.16c-.00003 0 .18082-.0231.537969-.0794.35715-.0562.7808-.11128 1.27-.16755.4892-.0563.99114-.10321 1.49931-.14111.50814-.0379.93122-.0767 1.27-.11467.18832.00003.52501-.0246 1.01425-.0617.48917-.0373.82702-.0529 1.01422-.0529v-6.32356c-.1872.00003-.47001-.008-.84667-.0265-.37668-.0189-.77591-.0428-1.20825-.0617-.43236-.0189-.84043-.034-1.21708-.0529-.37668-.0189-.64333-.0265-.79375-.0265-.0746.00003-.23168-.0243-.47625-.0617-.24463-.0373-.51128-.0923-.79375-.16756-.28251-.0752-.54785-.17661-.811389-.30869-.26357-.13202-.42187-.28903-.45861-.47625v-.45861c-.00003-.18715-.008-.40669-.0265-.67028-.0189-.26351-.0265-.49073-.0265-.67908v-.44981c0-.0757-.008-.34242-.0265-.79375-.0189-.45127-.003-.93689.0529-1.46403.0563-.52705.15765-1.01399.30867-1.44639.15101-.4323.403199-.64377.740829-.6438h6.59694v-7.10847zm-141.525589.053c0 4.13989.08187 8.26708.246945 12.38251.165072 4.11547.353427 8.23106.564444 12.34722.211018 4.11618.410944 8.24337.599723 12.3825.18875 4.13912.282222 8.27935.282222 12.41778h5.997222s.569214-.0632.991306-.22527c0 0 .137414-.42517.278694-1.04473l.776111-19.19111c.14066-.0474.434792-.0937.881945-.14112.447124-.0473.952782-.0945 1.516944-.14111.564106-.0466 1.140065-.10603 1.728611-.17639.588518-.0703 1.070272-.129 1.446389-.17639h.987778c.469364 0 .869273-.0232 1.199444-.0706v21.80167h8.8194173c-.000028-3.71498-.211582-7.32562-.635-10.83028-.423503-3.50467-.713401-7.09069-.8555-10.75972v-10.16c-.000028-.33015-.01496-.95245-.06172-1.86973-.04668-.91722-.106088-1.88146-.176389-2.89277-.02004-1.06164.01044-1.8883.01524-2.93311.138063-1.87145.162419-2.44515.231817-3.66384.141365-.75215.235543-1.51644.282222-2.29305.04662-.77654.05822-1.48215.03528-2.11667-.02314-.63444-.03531-1.09302-.03528-1.37583h-7.2759993c-.09333.00002-.16781.36443-.238139 1.09361-.07036.72926-.140632 1.70507-.211667 2.92805-.07106 1.22304-.118166 2.61036-.141111 4.16278-.02314 1.55248-.03531 3.12815-.03528 4.72722v6.20889c-.801003.00003-1.928989-.024-3.386667-.0705-1.457706-.0466-2.821855-.1169-4.092222-.21167.04736-.65885.08213-1.28188.105834-1.86972.02371-.58779.03528-.95293.03528-1.09361v-17.14501zm92.630583.44978c-.03674.00006-.08427.11834-.14111.34398-.05684.22569-.11131.49911-.167555.83783-.05628.3388-.103802.68433-.141113 1.02305-.03734.33881-.06175.62163-.06175.84667 0 .15048-.0076.39328-.02653.73203-.01892.33878-.03398.683-.05292 1.04069-.01892.35775-.04279.71078-.06172 1.0495-.01892.33881-.02653.58161-.02653.73203h5.759085v19.30575c-.293484 1.89284-.383175 2.44884-.564446 4.06578v4.05694 1.02306c0 .4892.0076.9904.02653 1.51694.01892.52652.02653 1.03655.02653 1.52575v1.01425c.112549.0379.340331.0848.679112.14112.338751.0562.699881.11127 1.07597.16755.37609.0563.728361.10321 1.067144.14111.33878.0379.59041.0617.74083.0617.11255 0 .30841-.0237.59092-.0617.28248-.0379.58725-.0848.92603-.14111.33875-.0563.65292-.11131.93486-.16755.28191-.0563.47836-.10324.59091-.14112.0379-.15045.0843-.44021.14111-.87314.0568-.43293.11129-.89543.16756-1.38463.0563-.48921.10377-.95231.14111-1.38467.0373-.43234.0617-.7377.0618-.92603-.00003-.63965.008-1.72167.0265-3.24555.0189-1.52389.0265-3.15423.0265-4.88598-.00003-1.73058-.008-3.35328-.0265-4.87717-.0189-1.52385-.0265-2.60589-.0265-3.24555.18291-.95473.28471-1.48096.47625-2.2313-.0183-.58336-.0265-1.19479-.0265-1.83445 0-.63963.008-1.25163.0265-1.83444.0183-.58279.0265-.99083.0265-1.21709 0-.33875.0237-.77741.0617-1.32291.0379-.54546.0848-1.0705.14111-1.5787.0562-.50811.11128-.9556.16756-1.33172.0563-.37606.10321-.56442.14111-.56444h3.55425v-6.37648zm19.482167 0-1.01425.51153c0 .63968.008 1.59591.0265 2.87514.0189 1.27931.0353 2.76883.0353 4.46264v5.13291 5.13292c0 1.65597-.0164 3.13047-.0353 4.40972-.0189 1.27932-.0265 2.23551-.0265 2.87514 0 .33878-.0149.94215-.0529 1.808-.0379.86586-.0848 1.7909-.14111 2.76931-.0563.97841-.11128 1.89518-.16755 2.76047-.0563.86529-.10324 1.46922-.14111 1.808-.10462 1.63762-.12469 2.38139-.17066 4.83054l14.22005.02c-.00003 0 .0319-.16394.0882-.50272.0563-.33875.11072-.75432.16755-1.24353.0568-.4892.10378-.99923.14112-1.52577.0373-.52652.0767-.95767.11466-1.29645-.00002-.0758.007-.27107.0265-.59091.0189-.31982.0265-.57896.0265-.76728-.00003-.11255.008-.25394.0265-.42334-.0395-.40989-.0545-.70493-.0785-1.10331-.83834-.0425-1.25803-.0175-1.83534-.0257-.69591.0942-1.30734.14111-1.83445.14111-.4892 0-.9442-.007-1.35819-.0265-.41399-.0189-.71126-.0265-.89959-.0265-.22507-.0368-.53983-.11619-.93486-.22931-.39502-.11311-.59091-.20644-.59088-.28222v-18.28272-.45861c-.00003-.18715-.008-.40669-.0265-.67028-.0189-.26351-.0265-.49073-.0265-.67909v-.4498c-.00003-.0379.055-.3276.16755-.87311.11255-.54545.22953-1.22826.36161-2.03731.13206-.80899.26538-1.66322.39686-2.56644.13149-.90317.22595-1.74989.28223-2.54.0563-.79006.0563-1.44842 0-1.97556-.0563-.52707-.19827-.79372-.42334-.79375zm-47.739667.22931-7.902223.10583c-.0379.00006-.116782.20416-.229304.59972-.112548.39565-.206444.70101-.28222.92606-.03791.11371-.08484.29399-.141113.53797-.05627.24407-.111308.49496-.167556.75847-.05627.2636-.103235.52274-.14111.76731-.0379.24463-.05295.40047-.05292.47625l-2.037305 3.83644c-.112551.52714-.199504 1.04468-.255752 1.55222-.05627.50761-.111307.97071-.167582 1.38467-.05628.41399-.0957.75071-.114638 1.01422-.01892.2636-.02653.42074-.02653.45861-.451329 1.95685-.850561 3.67284-1.208278 5.1594-.357717 1.48657-.710748 2.84333-1.049499 4.06574-.33878 1.22245-.675471 2.39088-1.014251 3.50134-.338751 1.11046-.675471 2.28639-1.014222 3.52778-.338781 1.24138-.70739 2.61318-1.102445 4.11866-.395025 1.50552-.833712 3.27784-1.322917 5.30931l8.572501 1.29647.511526-4.348c-.000026-.15042.03943-.39325.114639-.732.07521-.33878.169672-.76936.282223-1.29647.527106-.0746 1.146046-.15407 1.860915-.22931.714841-.0752 1.318768-.1535 1.807972-.2293h1.181804c.640787 0 1.229106-.0149 1.755085-.0529.07578.79008.145232 1.5818.220472 2.37245.07521.79064.169672 1.50348.282223 2.14311.112522.63965.245843 1.15719.396888 1.55222.15099.39505.339344.59092.564444.59092h1.640416c.827956 0 1.627153-.047 2.39889-.14111.771681-.0942 1.759826-.29005 2.963333-.59092-.000029-.82796-.0714-1.71413-.202861-2.65464-.131516-.94051-.287922-1.89673-.47625-2.87514-.188354-.97841-.376711-1.94287-.564444-2.88397-.187764-.94107-.361103-1.80284-.511529-2.59292-.565007-3.04775-1.12141-6.04294-1.666859-8.9782-.545508-2.93519-1.063048-5.94543-1.552223-9.03111-.300906-1.65591-.583155-3.18411-.846667-4.59491-.263567-1.41075-.426945-3.01783-.502722-4.82425zm9.092861.78494-.511529.51153c-.0379.0368-.08484.46101-.14111 1.27-.05627.80905-.110744 1.85917-.167585 3.15736-.05684 1.29825-.127619 2.75641-.202832 4.37445-.07524 1.61806-.137782 3.24899-.194027 4.88597-.05628 1.637-.11131 3.21217-.167584 4.73602-.05627 1.52392-.103209 2.83259-.141111 3.92467 0 .48921-.0076 1.31284-.02653 2.46061-.01892 1.1478-.05086 2.39378-.08819 3.74828-.03731 1.3545-.06043 2.7351-.07936 4.1275-.01892 1.3924-.03528 2.59199-.03528 3.60714v1.808h6.835056v-17.78h2.54c.07578.33878.177178.86383.308695 1.57867.131458.71486.280386 1.52216.449778 2.42536.169389.90319.342138 1.86015.511527 2.8575.169389.99734.333333 1.9455.502721 2.84866.169363.9032.318292 1.7105.449779 2.42537.131487.71484.241694 1.23991.3175 1.57866.07465.41343.192193.94655.361611 1.60514.169363.6586.31019 1.21556.423334 1.66689.113085.4513.191402.71795.229306.79375h6.261804c-.000027-1.46761-.19589-2.91829-.590915-4.348-.395055-1.42971-.818134-2.84844-1.27-4.25978-.451895-1.41133-.874975-2.81449-1.27-4.20689-.395055-1.39237-.590918-2.80359-.590889-4.23333-.000029-.11252.156406-.29337.47625-.53797.319786-.2446.672817-.53436 1.049499-.87314.376653-.33875.720852-.73798 1.040693-1.20825.319816-.47024.485056-.99605.485085-1.56106-.000029-2.48274-.118335-4.89771-.343972-7.24958-.225665-2.35181-.452882-4.7106-.679085-7.082-.03793-.22505-.06852-.50789-.105833-.84667-.03734-.33875-.0843-.66793-.14111-.98777-.05687-.31979-.120142-.60204-.17639-.84667-.0563-.24457-.07939-.37039-.07939-.37042h-15.24zm5.582696 5.59153h3.554248c.338751.00003.590381.25092.740833.75847.150427.50761.252392 1.07959.308669 1.71978.05627.64025.07129 1.24361.05292 1.808-.01833.56445-.02653.91053-.02653 1.02306 0 .22625-.0076.57045-.02653 1.04069-.01892.47027-.02653.72176-.02653.75847l-1.023057 1.01422h-3.554222v-8.12269zm-19.870196 9.81603c.262946.00003.545762.20472.846667.59972.300847.39506.503653.73869.61736 1.04069.03787.1872.101148.59586.17639 1.21709.07518.62128.153331 1.33412.246944 2.14314.09356.80901.188044 1.65577.282223 2.54.09415.88425.179943 1.68345.255749 2.39889-.414557 0-.899613-.0149-1.464027-.0529-.564417-.0379-1.12141-.0692-1.666862-.0882-.545507-.0189-1.016085-.0509-1.41111-.0882-.395055-.0373-.645949-.0529-.758471-.0529h-.17639c.226203-1.16673.492872-2.32706.793748-3.47486.30085-1.14777.598707-2.18231.899583-3.10444.30085-.92214.575593-1.66689.820195-2.23134.244602-.56438.424294-.84663.538001-.84666z" fill="#bc2929" opacity=".99"/><g fill="#1a1a1a" transform="matrix(.28222222199 0 0 .28222222199 -40.28869498169 148.86247853912)"><path d="m246.47656 319.14258v10.34375h8.51758l3.49805 10.79883-26.00977 40.30664h12.77735l18.55664-27.37891 12.16797 30.72461 19.16406-6.08398-3.04102-9.42969-8.82226 2.73828-20.68555-52.01953zm180.92578 3.0957c-1.79674.00006-3.61725.43791-5.46289 1.3125-2.62395 1.21418-4.61641 2.79288-5.97656 4.73633-1.36015 1.94355-2.04101 4.27388-2.04101 6.99414v42.33594l13.62695.21679v-40.87695l36.65039 36.14063c1.79816 1.74929 3.63178 3.07429 5.50195 3.97265 1.87006.89837 3.82532 1.34571 5.86524 1.34571.97094 0 2.01693-.14425 3.13476-.43555 1.1177-.2913 2.13644-.6793 3.0586-1.16406 2.57494-1.45725 4.42195-3.29161 5.53906-5.50196 1.11694-2.21033 1.6757-4.91845 1.67578-8.125v-39.63867h-13.69922v40.43945l-36.65039-36.43359c-1.74932-1.69884-3.57029-3.00997-5.46484-3.93359-1.8946-.92352-3.81433-1.38471-5.75782-1.38477zm-260.53515 1.09375c-2.52612.00005-4.96788.30314-7.32422.91016-2.35637.60711-4.45709 1.71318-6.30274 3.3164-1.84566 1.60333-3.31564 3.40095-4.4082 5.39258-1.09256 1.99172-1.63867 3.81343-1.63867 5.46485v21.71289c0 2.42827.42595 4.57716 1.27539 6.44726.84944 1.87012 2.14914 3.7057 3.89844 5.50391 1.99241 2.03986 4.22594 3.47115 6.70312 4.29687 2.08877.68045 4.75967 1.02149 8.01367 1.02149h36.21485c3.69125 0 6.67984-.36439 8.96289-1.09375 2.76915-.87465 5.15009-2.47865 7.14258-4.81055 1.60245-1.84565 2.74209-3.58198 3.42187-5.20898.67963-1.62698 1.01946-3.53408 1.01953-5.72071v-17.33984h-38.0332v14.0625h24.19141v6.11914h-49.18555v-26.44922h63.24805v-13.625zm225.20898 0v54.72266h15.08399v-54.72266zm121.89844 0c-2.52612.00005-4.96788.30314-7.32422.91016-2.35638.60711-4.4571 1.71318-6.30273 3.3164-1.84567 1.60333-3.31564 3.40095-4.40821 5.39258-1.09257 1.99172-1.63868 3.81343-1.63867 5.46485v21.71289c-.00001 2.42827.42595 4.57716 1.27539 6.44726.84945 1.87012 2.14914 3.7057 3.89844 5.50391 1.99241 2.03986 4.22593 3.47115 6.70312 4.29687 2.08876.68045 4.76162 1.02149 8.01563 1.02149h36.21484c3.69125 0 6.67789-.36439 8.96094-1.09375 2.76915-.87465 5.15009-2.47865 7.14258-4.81055 1.60245-1.84565 2.74209-3.58198 3.42187-5.20898.67962-1.62698 1.01945-3.53408 1.01953-5.72071v-17.33984h-38.0332v14.0625h24.19141v6.11914h-49.18555v-26.44922h63.24805v-13.625zm-142.38867.0742c-3.1577.00006-5.87921.92198-8.16211 2.76758-2.08884 1.70042-3.78769 4.12953-5.09961 7.28711l-13.33594 31.83984-12.16797-30.23828c-1.45728-3.59342-3.42518-6.3631-5.90234-8.30664-2.76925-2.18657-6.0721-3.27924-9.91016-3.2793-3.4482.34102-6.26531 1.77473-8.45117 4.30078-2.18588 2.52615-3.2793 5.5381-3.2793 9.03516v40.80469l13.04297.36328v-39.71289l12.67774 27.83594c1.7967 3.93444 3.76461 6.89774 5.90234 8.88867 2.76918 2.57502 6.0234 3.86328 9.76367 3.86328 2.42821-.29204 4.52967-1.22662 6.30274-2.80469 1.77296-1.57806 3.80094-4.87023 6.08398-9.875l12.89649-28.41601v39.85742h13.04492v-39.12891c-.00009-4.13007-1.19154-7.62851-3.57227-10.49414-2.52618-3.05973-5.80327-4.58783-9.83398-4.58789z"/><path d="m246.47656 319.14258v10.34375h8.51758l3.49805 10.79883-26.00977 40.30664h12.77735l18.55664-27.37891 12.16797 30.72461 19.16406-6.08398-3.04102-9.42969-8.82226 2.73828-20.68555-52.01953zm180.92578 3.0957c-1.79674.00006-3.61725.43791-5.46289 1.3125-2.62395 1.21418-4.61641 2.79288-5.97656 4.73633-1.36015 1.94355-2.04101 4.27388-2.04101 6.99414v42.33594l13.62695.21679v-40.87695l36.65039 36.14063c1.79816 1.74929 3.63178 3.07429 5.50195 3.97265 1.87006.89837 3.82532 1.34571 5.86524 1.34571.97094 0 2.01693-.14425 3.13476-.43555 1.1177-.2913 2.13644-.6793 3.0586-1.16406 2.57494-1.45725 4.42195-3.29161 5.53906-5.50196 1.11694-2.21033 1.6757-4.91845 1.67578-8.125v-39.63867h-13.69922v40.43945l-36.65039-36.43359c-1.74932-1.69884-3.57029-3.00997-5.46484-3.93359-1.8946-.92352-3.81433-1.38471-5.75782-1.38477zm-260.53515 1.09375c-2.52612.00005-4.96788.30314-7.32422.91016-2.35637.60711-4.45709 1.71318-6.30274 3.3164-1.84566 1.60333-3.31564 3.40095-4.4082 5.39258-1.09256 1.99172-1.63867 3.81343-1.63867 5.46485v21.71289c0 2.42827.42595 4.57716 1.27539 6.44726.84944 1.87012 2.14914 3.7057 3.89844 5.50391 1.99241 2.03986 4.22594 3.47115 6.70312 4.29687 2.08877.68045 4.75967 1.02149 8.01367 1.02149h36.21485c3.69125 0 6.67984-.36439 8.96289-1.09375 2.76915-.87465 5.15009-2.47865 7.14258-4.81055 1.60245-1.84565 2.74209-3.58198 3.42187-5.20898.67963-1.62698 1.01946-3.53408 1.01953-5.72071v-17.33984h-38.0332v14.0625h24.19141v6.11914h-49.18555v-26.44922h63.24805v-13.625zm225.20898 0v54.72266h15.08399v-54.72266zm121.89844 0c-2.52612.00005-4.96788.30314-7.32422.91016-2.35638.60711-4.4571 1.71318-6.30273 3.3164-1.84567 1.60333-3.31564 3.40095-4.40821 5.39258-1.09257 1.99172-1.63868 3.81343-1.63867 5.46485v21.71289c-.00001 2.42827.42595 4.57716 1.27539 6.44726.84945 1.87012 2.14914 3.7057 3.89844 5.50391 1.99241 2.03986 4.22593 3.47115 6.70312 4.29687 2.08876.68045 4.76162 1.02149 8.01563 1.02149h36.21484c3.69125 0 6.67789-.36439 8.96094-1.09375 2.76915-.87465 5.15009-2.47865 7.14258-4.81055 1.60245-1.84565 2.74209-3.58198 3.42187-5.20898.67962-1.62698 1.01945-3.53408 1.01953-5.72071v-17.33984h-38.0332v14.0625h24.19141v6.11914h-49.18555v-26.44922h63.24805v-13.625zm-142.38867.0742c-3.1577.00006-5.87921.92198-8.16211 2.76758-2.08884 1.70042-3.78769 4.12953-5.09961 7.28711l-13.33594 31.83984-12.16797-30.23828c-1.45728-3.59342-3.42518-6.3631-5.90234-8.30664-2.76925-2.18657-6.0721-3.27924-9.91016-3.2793-3.4482.34102-6.26531 1.77473-8.45117 4.30078-2.18588 2.52615-3.2793 5.5381-3.2793 9.03516v40.80469l13.04297.36328v-39.71289l12.67774 27.83594c1.7967 3.93444 3.76461 6.89774 5.90234 8.88867 2.76918 2.57502 6.0234 3.86328 9.76367 3.86328 2.42821-.29204 4.52967-1.22662 6.30274-2.80469 1.77296-1.57806 3.80094-4.87023 6.08398-9.875l12.89649-28.41601v39.85742h13.04492v-39.12891c-.00009-4.13007-1.19154-7.62851-3.57227-10.49414-2.52618-3.05973-5.80327-4.58783-9.83398-4.58789z"/></g><path d="m139.73773 192.90541c-.61151.00003-1.094.129-1.44639.38806-.3524.25913-.71755.57644-1.09361.9525-1.50579 1.36372-2.85764 2.62209-4.05694 3.77472-1.19933 1.15271-2.21067 2.36398-3.03389 3.63361-.82324 1.26969-1.44627 2.68091-1.86972 4.23333-.42348 1.55248-.635 3.41068-.635 5.57389 0 1.69387.0942 3.08119.28222 4.16278.18805 1.08164.51695 1.98718.98778 2.71639.47083.72923 1.11703 1.36384 1.94028 1.905.82321.54119 1.87076 1.16493 3.13972 1.86972.33014.23543.77639.51723 1.34055.84667.56411.32944 1.12847.65907 1.69334.98778.56484.32873 1.04659.62286 1.44639.88194.39976.25911.59969.41125.59972.45861l.635 1.27v7.47889c-.0933 0-.30559.0355-.635.10583-.32947.0703-.54173.0826-.635.0353-.37612-.046-.97595-.18793-1.79917-.42333-.82324-.2354-1.7049-.49403-2.64583-.77611-.94096-.28206-1.83419-.54071-2.68111-.77611-.84692-.23541-1.43519-.42376-1.76389-.56445-.23543.28135-.41148.62329-.52917 1.02306-.11771.39977-.18799.82284-.21167 1.27-.0237.44715-.0237.87023 0 1.27s.0353.6939.0353.88194v.635c0 .28279.0116.60009.0353.9525s.0353.66972.0353.9525v.635c.56413.84692 1.32842 1.51703 2.29305 2.01084.96461.49377 2.01072.88208 3.13973 1.16416 1.12897.28205 2.25837.47041 3.38666.56445 1.12824.094 2.11639.14111 2.96334.14111 1.88185 0 3.38655-.43542 4.51555-1.30528 1.12895-.8699 1.99904-1.97541 2.61056-3.31611.61146-1.34073.99977-2.81063 1.16416-4.40972.16434-1.5991.24692-3.15087.24695-4.65667-.00003-1.64646-.0587-3.31631-.17639-5.00944-.49217-2.87427-.0954-4.40301-2.50472-5.43278-.65891-.28206-1.36452-.59936-2.11667-.9525-.75221-.35312-1.45782-.68202-2.11667-.98778-.6589-.30573-1.10515-.52959-1.34055-.67028-.89287-.4708-1.74047-1.12934-2.54-1.97555-.79956-.84619-1.19947-1.95098-1.19945-3.31612-.00002-.46936.0355-1.1286.10584-1.97555.0703-.8469.21158-1.66988.42333-2.46945.21172-.79953.54133-1.50512.98778-2.11666.44642-.61147 1.02235-.9172 1.72861-.91722.0933.00002.30553.0116.635.0353.32941.0237.51706.0599.56444.10584l6.985 3.81c.37606-1.27034.58762-2.34036.635-3.21028.0473-.86987.0705-1.91669.0706-3.13972-.00003-.23538-.0116-.65846-.0353-1.27-.0237-.61147-.0353-1.03455-.0353-1.27-.28281-.42342-.81167-.96458-1.5875-1.62278-.77588-.65812-1.63437-1.29345-2.57527-1.905-.94096-.61146-1.89363-1.14032-2.8575-1.5875-.96393-.4471-1.79849-.67025-2.50473-.67028zm-22.02216.44978c-.48921.00005-.87342.10145-1.15534.30869-.28194.20732-.57226.46646-.87314.76728-1.20463 1.09099-2.28608 2.09415-3.24555 3.01625-.95944.92219-1.76677 1.89473-2.42534 2.91042-.65859 1.01577-1.16055 2.14474-1.4993 3.38666-.33878 1.24201-.51153 2.72328-.51153 4.45384 0 1.35509.0789 2.46845.22931 3.33375.15042.86529.41707 1.58623.79375 2.16958.37665.58338.89363 1.09285 1.55222 1.52575.65856.43296 1.48957.93548 2.50472 1.4993.26411.18836.62465.41558 1.07597.67912.45131.26356.90631.52197 1.3582.78491.45186.26301.83552.49829 1.15533.70556.31982.20729.47625.33254.47625.37041l.51153 1.01426v5.97958c-.0747 0-.24799.0319-.51153.0882s-.42807.0643-.50269.0265c-.30088-.0367-.77899-.14681-1.43759-.33513-.65859-.18833-1.36392-.40054-2.11666-.6262-.75275-.22564-1.47442-.42901-2.15195-.61736-.67753-.18833-1.14813-.33723-1.41111-.44978-.18832.22507-.32915.49158-.42333.81139-.0941.31981-.14862.66534-.16756 1.02306-.0189.35771-.0189.6944 0 1.01422.0189.31984.0265.55513.0265.70555v.50273c0 .22622.008.48536.0265.76727.0189.28194.0353.53224.0353.75847v.51153c.4513.67753 1.06273 1.21012 1.83444 1.60514.77168.39506 1.61034.70923 2.51353.93486.9032.22567 1.80495.37457 2.70758.44981.90261.0752 1.68606.11464 2.36361.11464 1.50549 0 2.71278-.34479 3.61598-1.0407.90317-.6959 1.60099-1.58208 2.09019-2.65463.48921-1.07259.80338-2.2485.93486-3.52778.13149-1.27929.19403-2.52601.19403-3.73064 0-1.31716-.047-2.64951-.14111-4.00403-.39443-2.30347-.0718-3.52321-2.002-4.34797-.52713-.22564-1.09161-.47597-1.69333-.75847-.60176-.28248-1.16626-.54915-1.69334-.79375-.5271-.24461-.88764-.42543-1.07597-.53801-.7143-.37662-1.38884-.9017-2.02847-1.57866-.63966-.67694-.96133-1.56255-.96133-2.65467 0-.3755.0319-.90111.0882-1.57866.0563-.67751.16575-1.3359.33514-1.97556.16939-.63963.42779-1.2041.78494-1.69333.35713-.48918.81963-.732 1.38464-.73203.0747.00003.24796.008.51153.0265.26354.0189.4119.0515.4498.0882l5.59156 3.04275c.30085-1.01628.46479-1.87054.5027-2.56647.0379-.69588.0617-1.53509.0617-2.51353-.00003-.1883-.008-.52502-.0265-1.01425-.0189-.48917-.0353-.82586-.0353-1.01422-.22626-.33875-.64934-.7699-1.27-1.29647-.62072-.52649-1.3022-1.03652-2.05494-1.52575-.75278-.48918-1.51311-.91226-2.28423-1.27-.77114-.35769-1.44585-.53795-2.01083-.538zm-106.856393.0617c-2.1818857.15048-4.4085087.28307-6.6851397.4145-2.276628.13154-4.45702199.16287-6.526387.0882l-1.014222.51153c0 .63968.0076 1.59591.02653 2.87514.01892 1.27931.03528 2.76883.03528 4.46264v5.13291 5.13292c0 1.65597-.01638 3.13047-.03528 4.40972-.01892 1.27932-.02653 2.23551-.02653 2.87514 0 .33878-.01495.94215-.05292 1.808-.0379.86586-.08484 1.7909-.141112 2.76931-.05627.97841-.111308 1.89518-.167582 2.76047-.05628.86529-.103209 1.46922-.141113 1.808-.04411 1.74419-.0423 3.50734.114443 5.11562l13.088281-.0356s.03192-.18028.08819-.538c.05628-.35772.111281-.7808.167584-1.27.05625-.4892.10318-.99173.14111-1.49931.03787-.50757.07789-.92241.114639-1.26116 0-.0758.0073-.27991.02653-.59972.01892-.31982.02653-.57015.02653-.75847 0-.11256.0076-.25395.02653-.42334.01892-.16939.01156-.34965-.02653-.538-.03791-.18833-.09237-.34476-.167556-.47625-.07524-.13149-.209719-.21785-.396891-.25575-.188325 0-.485589.008-.899583.0265-.413991.0189-.884005.0265-1.41111.0265-.489204 0-.944203-.007-1.358196-.0265-.413991-.0189-.711256-.0265-.899584-.0265-.22507-.0367-.539834-.11619-.93486-.2293-.395026-.11312-.590918-.20645-.590889-.28223v-10.16c-.000029 0 .180819-.0231.537972-.0794.357153-.0562.780796-.11128 1.27-.16755.489204-.0563.982332-.10321 1.490501-.14111.508141-.0379.93122-.0767 1.27-.11467.188299.00003.533824-.0246 1.023057-.0617.489175-.0373.827024-.0529 1.014222-.0529v-6.32356c-.187198.00003-.470014-.008-.846667-.0265-.376682-.0189-.78472-.0428-1.217086-.0617-.432363-.0189-.831596-.034-1.208249-.0529-.376682-.0189-.643326-.0265-.79375-.0265-.07468.00003-.231677-.0243-.47625-.0617-.244631-.0373-.511273-.0923-.79375-.16756-.282503-.0752-.556683-.17661-.820221-.30869-.263541-.13202-.413033-.28903-.449779-.47625v-.45861c-.000029-.18715-.0076-.40669-.02653-.67028-.01892-.26351-.02653-.49073-.02653-.67908v-.44981c-.000029-.0757-.01638-.34242-.03528-.79375-.01892-.45127.0054-.93689.06172-1.46403.05628-.52705.157678-1.01399.308695-1.44639.150989-.4323.394377-.64377.732001-.6438h6.6057777v-7.10847zm96.237783 0c-2.18189.15048-4.40851.28307-6.68514.4145-2.276629.13154-4.448219.16287-6.517559.0882l-1.01425.51153c0 .63968.008 1.59591.0265 2.87514.0189 1.27931.0265 2.76883.0265 4.46264v5.13291 5.13292c0 1.65597-.008 3.13047-.0265 4.40972-.0189 1.27932-.0265 2.23551-.0265 2.87514 0 .33878-.0237.94215-.0617 1.808-.0379.86586-.0849 1.7909-.14111 2.76931-.0563.97841-.11131 1.89518-.16759 2.76047-.0563.86529-.10321 1.46922-.14111 1.808-.24635 2.17503-.29625 2.86916-.5934 5.08h13.804959s.0232-.18028.0794-.538.11128-.7808.16755-1.27c.0563-.4892.10321-.99173.14112-1.49931.0379-.50757.0779-.92241.11466-1.26116-.00003-.0758.008-.27991.0265-.59972.0189-.31982.0352-.57015.0353-.75847-.00003-.11256.007-.25395.0265-.42334.0189-.16939.0113-.34965-.0265-.538-.0379-.18833-.10121-.34476-.17639-.47625-.0752-.13149-.20089-.21785-.38806-.25575-.18835 0-.49442.008-.90841.0265-.41399.0189-.88401.0265-1.41111.0265-.48921 0-.9354-.007-1.34937-.0265-.41399-.0189-.72009-.0265-.90841-.0265-.22507-.0367-.531-.11619-.92603-.2293-.395049-.11312-.599749-.20645-.599719-.28223v-10.16c-.00003 0 .18082-.0231.537969-.0794.35715-.0562.7808-.11128 1.27-.16755.4892-.0563.99114-.10321 1.49931-.14111.50814-.0379.93122-.0767 1.27-.11467.18832.00003.52501-.0246 1.01425-.0617.48917-.0373.82702-.0529 1.01422-.0529v-6.32356c-.1872.00003-.47001-.008-.84667-.0265-.37668-.0189-.77591-.0428-1.20825-.0617-.43236-.0189-.84043-.034-1.21708-.0529-.37668-.0189-.64333-.0265-.79375-.0265-.0746.00003-.23168-.0243-.47625-.0617-.24463-.0373-.51128-.0923-.79375-.16756-.28251-.0752-.54785-.17661-.811389-.30869-.26357-.13202-.42187-.28903-.45861-.47625v-.45861c-.00003-.18715-.008-.40669-.0265-.67028-.0189-.26351-.0265-.49073-.0265-.67908v-.44981c0-.0757-.008-.34242-.0265-.79375-.0189-.45127-.003-.93689.0529-1.46403.0563-.52705.15765-1.01399.30867-1.44639.15101-.4323.403199-.64377.740829-.6438h6.59694v-7.10847zm-141.525589.053c0 4.13989.08187 8.26708.246945 12.38251.165072 4.11547.353427 8.23106.564444 12.34722.211018 4.11618.410944 8.24337.599723 12.3825.18875 4.13912.282222 8.27935.282222 12.41778h5.997222s.569214-.0632.991306-.22527c0 0 .137414-.42517.278694-1.04473l.776111-19.19111c.14066-.0474.434792-.0937.881945-.14112.447124-.0473.952782-.0945 1.516944-.14111.564106-.0466 1.140065-.10603 1.728611-.17639.588518-.0703 1.070272-.129 1.446389-.17639h.987778c.469364 0 .869273-.0232 1.199444-.0706v21.80167h8.8194173c-.000028-3.71498-.211582-7.32562-.635-10.83028-.423503-3.50467-.713401-7.09069-.8555-10.75972v-10.16c-.000028-.33015-.01496-.95245-.06172-1.86973-.04668-.91722-.106088-1.88146-.176389-2.89277-.02004-1.06164.01044-1.8883.01524-2.93311.138063-1.87145.162419-2.44515.231817-3.66384.141365-.75215.235543-1.51644.282222-2.29305.04662-.77654.05822-1.48215.03528-2.11667-.02314-.63444-.03531-1.09302-.03528-1.37583h-7.2759993c-.09333.00002-.16781.36443-.238139 1.09361-.07036.72926-.140632 1.70507-.211667 2.92805-.07106 1.22304-.118166 2.61036-.141111 4.16278-.02314 1.55248-.03531 3.12815-.03528 4.72722v6.20889c-.801003.00003-1.928989-.024-3.386667-.0705-1.457706-.0466-2.821855-.1169-4.092222-.21167.04736-.65885.08213-1.28188.105834-1.86972.02371-.58779.03528-.95293.03528-1.09361v-17.14501zm92.630583.44978c-.03674.00006-.08427.11834-.14111.34398-.05684.22569-.11131.49911-.167555.83783-.05628.3388-.103802.68433-.141113 1.02305-.03734.33881-.06175.62163-.06175.84667 0 .15048-.0076.39328-.02653.73203-.01892.33878-.03398.683-.05292 1.04069-.01892.35775-.04279.71078-.06172 1.0495-.01892.33881-.02653.58161-.02653.73203h5.759085v19.30575c-.293484 1.89284-.383175 2.44884-.564446 4.06578v4.05694 1.02306c0 .4892.0076.9904.02653 1.51694.01892.52652.02653 1.03655.02653 1.52575v1.01425c.112549.0379.340331.0848.679112.14112.338751.0562.699881.11127 1.07597.16755.37609.0563.728361.10321 1.067144.14111.33878.0379.59041.0617.74083.0617.11255 0 .30841-.0237.59092-.0617.28248-.0379.58725-.0848.92603-.14111.33875-.0563.65292-.11131.93486-.16755.28191-.0563.47836-.10324.59091-.14112.0379-.15045.0843-.44021.14111-.87314.0568-.43293.11129-.89543.16756-1.38463.0563-.48921.10377-.95231.14111-1.38467.0373-.43234.0617-.7377.0618-.92603-.00003-.63965.008-1.72167.0265-3.24555.0189-1.52389.0265-3.15423.0265-4.88598-.00003-1.73058-.008-3.35328-.0265-4.87717-.0189-1.52385-.0265-2.60589-.0265-3.24555.18291-.95473.28471-1.48096.47625-2.2313-.0183-.58336-.0265-1.19479-.0265-1.83445 0-.63963.008-1.25163.0265-1.83444.0183-.58279.0265-.99083.0265-1.21709 0-.33875.0237-.77741.0617-1.32291.0379-.54546.0848-1.0705.14111-1.5787.0562-.50811.11128-.9556.16756-1.33172.0563-.37606.10321-.56442.14111-.56444h3.55425v-6.37648zm19.482167 0-1.01425.51153c0 .63968.008 1.59591.0265 2.87514.0189 1.27931.0353 2.76883.0353 4.46264v5.13291 5.13292c0 1.65597-.0164 3.13047-.0353 4.40972-.0189 1.27932-.0265 2.23551-.0265 2.87514 0 .33878-.0149.94215-.0529 1.808-.0379.86586-.0848 1.7909-.14111 2.76931-.0563.97841-.11128 1.89518-.16755 2.76047-.0563.86529-.10324 1.46922-.14111 1.808-.10462 1.63762-.12469 2.38139-.17066 4.83054l14.22005.02c-.00003 0 .0319-.16394.0882-.50272.0563-.33875.11072-.75432.16755-1.24353.0568-.4892.10378-.99923.14112-1.52577.0373-.52652.0767-.95767.11466-1.29645-.00002-.0758.007-.27107.0265-.59091.0189-.31982.0265-.57896.0265-.76728-.00003-.11255.008-.25394.0265-.42334-.0395-.40989-.0545-.70493-.0785-1.10331-.83834-.0425-1.25803-.0175-1.83534-.0257-.69591.0942-1.30734.14111-1.83445.14111-.4892 0-.9442-.007-1.35819-.0265-.41399-.0189-.71126-.0265-.89959-.0265-.22507-.0368-.53983-.11619-.93486-.22931-.39502-.11311-.59091-.20644-.59088-.28222v-18.28272-.45861c-.00003-.18715-.008-.40669-.0265-.67028-.0189-.26351-.0265-.49073-.0265-.67909v-.4498c-.00003-.0379.055-.3276.16755-.87311.11255-.54545.22953-1.22826.36161-2.03731.13206-.80899.26538-1.66322.39686-2.56644.13149-.90317.22595-1.74989.28223-2.54.0563-.79006.0563-1.44842 0-1.97556-.0563-.52707-.19827-.79372-.42334-.79375zm-47.739667.22931-7.902223.10583c-.0379.00006-.116782.20416-.229304.59972-.112548.39565-.206444.70101-.28222.92606-.03791.11371-.08484.29399-.141113.53797-.05627.24407-.111308.49496-.167556.75847-.05627.2636-.103235.52274-.14111.76731-.0379.24463-.05295.40047-.05292.47625l-2.037305 3.83644c-.112551.52714-.199504 1.04468-.255752 1.55222-.05627.50761-.111307.97071-.167582 1.38467-.05628.41399-.0957.75071-.114638 1.01422-.01892.2636-.02653.42074-.02653.45861-.451329 1.95685-.850561 3.67284-1.208278 5.1594-.357717 1.48657-.710748 2.84333-1.049499 4.06574-.33878 1.22245-.675471 2.39088-1.014251 3.50134-.338751 1.11046-.675471 2.28639-1.014222 3.52778-.338781 1.24138-.70739 2.61318-1.102445 4.11866-.395025 1.50552-.833712 3.27784-1.322917 5.30931l8.572501 1.29647.511526-4.348c-.000026-.15042.03943-.39325.114639-.732.07521-.33878.169672-.76936.282223-1.29647.527106-.0746 1.146046-.15407 1.860915-.22931.714841-.0752 1.318768-.1535 1.807972-.2293h1.181804c.640787 0 1.229106-.0149 1.755085-.0529.07578.79008.145232 1.5818.220472 2.37245.07521.79064.169672 1.50348.282223 2.14311.112522.63965.245843 1.15719.396888 1.55222.15099.39505.339344.59092.564444.59092h1.640416c.827956 0 1.627153-.047 2.39889-.14111.771681-.0942 1.759826-.29005 2.963333-.59092-.000029-.82796-.0714-1.71413-.202861-2.65464-.131516-.94051-.287922-1.89673-.47625-2.87514-.188354-.97841-.376711-1.94287-.564444-2.88397-.187764-.94107-.361103-1.80284-.511529-2.59292-.565007-3.04775-1.12141-6.04294-1.666859-8.9782-.545508-2.93519-1.063048-5.94543-1.552223-9.03111-.300906-1.65591-.583155-3.18411-.846667-4.59491-.263567-1.41075-.426945-3.01783-.502722-4.82425zm9.092861.78494-.511529.51153c-.0379.0368-.08484.46101-.14111 1.27-.05627.80905-.110744 1.85917-.167585 3.15736-.05684 1.29825-.127619 2.75641-.202832 4.37445-.07524 1.61806-.137782 3.24899-.194027 4.88597-.05628 1.637-.11131 3.21217-.167584 4.73602-.05627 1.52392-.103209 2.83259-.141111 3.92467 0 .48921-.0076 1.31284-.02653 2.46061-.01892 1.1478-.05086 2.39378-.08819 3.74828-.03731 1.3545-.06043 2.7351-.07936 4.1275-.01892 1.3924-.03528 2.59199-.03528 3.60714v1.808h6.835056v-17.78h2.54c.07578.33878.177178.86383.308695 1.57867.131458.71486.280386 1.52216.449778 2.42536.169389.90319.342138 1.86015.511527 2.8575.169389.99734.333333 1.9455.502721 2.84866.169363.9032.318292 1.7105.449779 2.42537.131487.71484.241694 1.23991.3175 1.57866.07465.41343.192193.94655.361611 1.60514.169363.6586.31019 1.21556.423334 1.66689.113085.4513.191402.71795.229306.79375h6.261804c-.000027-1.46761-.19589-2.91829-.590915-4.348-.395055-1.42971-.818134-2.84844-1.27-4.25978-.451895-1.41133-.874975-2.81449-1.27-4.20689-.395055-1.39237-.590918-2.80359-.590889-4.23333-.000029-.11252.156406-.29337.47625-.53797.319786-.2446.672817-.53436 1.049499-.87314.376653-.33875.720852-.73798 1.040693-1.20825.319816-.47024.485056-.99605.485085-1.56106-.000029-2.48274-.118335-4.89771-.343972-7.24958-.225665-2.35181-.452882-4.7106-.679085-7.082-.03793-.22505-.06852-.50789-.105833-.84667-.03734-.33875-.0843-.66793-.14111-.98777-.05687-.31979-.120142-.60204-.17639-.84667-.0563-.24457-.07939-.37039-.07939-.37042h-15.24zm5.582696 5.59153h3.554248c.338751.00003.590381.25092.740833.75847.150427.50761.252392 1.07959.308669 1.71978.05627.64025.07129 1.24361.05292 1.808-.01833.56445-.02653.91053-.02653 1.02306 0 .22625-.0076.57045-.02653 1.04069-.01892.47027-.02653.72176-.02653.75847l-1.023057 1.01422h-3.554222v-8.12269zm-19.870196 9.81603c.262946.00003.545762.20472.846667.59972.300847.39506.503653.73869.61736 1.04069.03787.1872.101148.59586.17639 1.21709.07518.62128.153331 1.33412.246944 2.14314.09356.80901.188044 1.65577.282223 2.54.09415.88425.179943 1.68345.255749 2.39889-.414557 0-.899613-.0149-1.464027-.0529-.564417-.0379-1.12141-.0692-1.666862-.0882-.545507-.0189-1.016085-.0509-1.41111-.0882-.395055-.0373-.645949-.0529-.758471-.0529h-.17639c.226203-1.16673.492872-2.32706.793748-3.47486.30085-1.14777.598707-2.18231.899583-3.10444.30085-.92214.575593-1.66689.820195-2.23134.244602-.56438.424294-.84663.538001-.84666z" fill="#bc2929" opacity=".99"/><g fill="#f2f2f2" transform="matrix(.28222222199 0 0 .28222222199 -40.28869498169 148.86247853912)"><path d="m246.47656 319.14258v10.34375h8.51758l3.49805 10.79883-26.00977 40.30664h12.77735l18.55664-27.37891 12.16797 30.72461 19.16406-6.08398-3.04102-9.42969-8.82226 2.73828-20.68555-52.01953zm180.92578 3.0957c-1.79674.00006-3.61725.43791-5.46289 1.3125-2.62395 1.21418-4.61641 2.79288-5.97656 4.73633-1.36015 1.94355-2.04101 4.27388-2.04101 6.99414v42.33594l13.62695.21679v-40.87695l36.65039 36.14063c1.79816 1.74929 3.63178 3.07429 5.50195 3.97265 1.87006.89837 3.82532 1.34571 5.86524 1.34571.97094 0 2.01693-.14425 3.13476-.43555 1.1177-.2913 2.13644-.6793 3.0586-1.16406 2.57494-1.45725 4.42195-3.29161 5.53906-5.50196 1.11694-2.21033 1.6757-4.91845 1.67578-8.125v-39.63867h-13.69922v40.43945l-36.65039-36.43359c-1.74932-1.69884-3.57029-3.00997-5.46484-3.93359-1.8946-.92352-3.81433-1.38471-5.75782-1.38477zm-260.53515 1.09375c-2.52612.00005-4.96788.30314-7.32422.91016-2.35637.60711-4.45709 1.71318-6.30274 3.3164-1.84566 1.60333-3.31564 3.40095-4.4082 5.39258-1.09256 1.99172-1.63867 3.81343-1.63867 5.46485v21.71289c0 2.42827.42595 4.57716 1.27539 6.44726.84944 1.87012 2.14914 3.7057 3.89844 5.50391 1.99241 2.03986 4.22594 3.47115 6.70312 4.29687 2.08877.68045 4.75967 1.02149 8.01367 1.02149h36.21485c3.69125 0 6.67984-.36439 8.96289-1.09375 2.76915-.87465 5.15009-2.47865 7.14258-4.81055 1.60245-1.84565 2.74209-3.58198 3.42187-5.20898.67963-1.62698 1.01946-3.53408 1.01953-5.72071v-17.33984h-38.0332v14.0625h24.19141v6.11914h-49.18555v-26.44922h63.24805v-13.625zm225.20898 0v54.72266h15.08399v-54.72266zm121.89844 0c-2.52612.00005-4.96788.30314-7.32422.91016-2.35638.60711-4.4571 1.71318-6.30273 3.3164-1.84567 1.60333-3.31564 3.40095-4.40821 5.39258-1.09257 1.99172-1.63868 3.81343-1.63867 5.46485v21.71289c-.00001 2.42827.42595 4.57716 1.27539 6.44726.84945 1.87012 2.14914 3.7057 3.89844 5.50391 1.99241 2.03986 4.22593 3.47115 6.70312 4.29687 2.08876.68045 4.76162 1.02149 8.01563 1.02149h36.21484c3.69125 0 6.67789-.36439 8.96094-1.09375 2.76915-.87465 5.15009-2.47865 7.14258-4.81055 1.60245-1.84565 2.74209-3.58198 3.42187-5.20898.67962-1.62698 1.01945-3.53408 1.01953-5.72071v-17.33984h-38.0332v14.0625h24.19141v6.11914h-49.18555v-26.44922h63.24805v-13.625zm-142.38867.0742c-3.1577.00006-5.87921.92198-8.16211 2.76758-2.08884 1.70042-3.78769 4.12953-5.09961 7.28711l-13.33594 31.83984-12.16797-30.23828c-1.45728-3.59342-3.42518-6.3631-5.90234-8.30664-2.76925-2.18657-6.0721-3.27924-9.91016-3.2793-3.4482.34102-6.26531 1.77473-8.45117 4.30078-2.18588 2.52615-3.2793 5.5381-3.2793 9.03516v40.80469l13.04297.36328v-39.71289l12.67774 27.83594c1.7967 3.93444 3.76461 6.89774 5.90234 8.88867 2.76918 2.57502 6.0234 3.86328 9.76367 3.86328 2.42821-.29204 4.52967-1.22662 6.30274-2.80469 1.77296-1.57806 3.80094-4.87023 6.08398-9.875l12.89649-28.41601v39.85742h13.04492v-39.12891c-.00009-4.13007-1.19154-7.62851-3.57227-10.49414-2.52618-3.05973-5.80327-4.58783-9.83398-4.58789z"/><path d="m246.47656 319.14258v10.34375h8.51758l3.49805 10.79883-26.00977 40.30664h12.77735l18.55664-27.37891 12.16797 30.72461 19.16406-6.08398-3.04102-9.42969-8.82226 2.73828-20.68555-52.01953zm180.92578 3.0957c-1.79674.00006-3.61725.43791-5.46289 1.3125-2.62395 1.21418-4.61641 2.79288-5.97656 4.73633-1.36015 1.94355-2.04101 4.27388-2.04101 6.99414v42.33594l13.62695.21679v-40.87695l36.65039 36.14063c1.79816 1.74929 3.63178 3.07429 5.50195 3.97265 1.87006.89837 3.82532 1.34571 5.86524 1.34571.97094 0 2.01693-.14425 3.13476-.43555 1.1177-.2913 2.13644-.6793 3.0586-1.16406 2.57494-1.45725 4.42195-3.29161 5.53906-5.50196 1.11694-2.21033 1.6757-4.91845 1.67578-8.125v-39.63867h-13.69922v40.43945l-36.65039-36.43359c-1.74932-1.69884-3.57029-3.00997-5.46484-3.93359-1.8946-.92352-3.81433-1.38471-5.75782-1.38477zm-260.53515 1.09375c-2.52612.00005-4.96788.30314-7.32422.91016-2.35637.60711-4.45709 1.71318-6.30274 3.3164-1.84566 1.60333-3.31564 3.40095-4.4082 5.39258-1.09256 1.99172-1.63867 3.81343-1.63867 5.46485v21.71289c0 2.42827.42595 4.57716 1.27539 6.44726.84944 1.87012 2.14914 3.7057 3.89844 5.50391 1.99241 2.03986 4.22594 3.47115 6.70312 4.29687 2.08877.68045 4.75967 1.02149 8.01367 1.02149h36.21485c3.69125 0 6.67984-.36439 8.96289-1.09375 2.76915-.87465 5.15009-2.47865 7.14258-4.81055 1.60245-1.84565 2.74209-3.58198 3.42187-5.20898.67963-1.62698 1.01946-3.53408 1.01953-5.72071v-17.33984h-38.0332v14.0625h24.19141v6.11914h-49.18555v-26.44922h63.24805v-13.625zm225.20898 0v54.72266h15.08399v-54.72266zm121.89844 0c-2.52612.00005-4.96788.30314-7.32422.91016-2.35638.60711-4.4571 1.71318-6.30273 3.3164-1.84567 1.60333-3.31564 3.40095-4.40821 5.39258-1.09257 1.99172-1.63868 3.81343-1.63867 5.46485v21.71289c-.00001 2.42827.42595 4.57716 1.27539 6.44726.84945 1.87012 2.14914 3.7057 3.89844 5.50391 1.99241 2.03986 4.22593 3.47115 6.70312 4.29687 2.08876.68045 4.76162 1.02149 8.01563 1.02149h36.21484c3.69125 0 6.67789-.36439 8.96094-1.09375 2.76915-.87465 5.15009-2.47865 7.14258-4.81055 1.60245-1.84565 2.74209-3.58198 3.42187-5.20898.67962-1.62698 1.01945-3.53408 1.01953-5.72071v-17.33984h-38.0332v14.0625h24.19141v6.11914h-49.18555v-26.44922h63.24805v-13.625zm-142.38867.0742c-3.1577.00006-5.87921.92198-8.16211 2.76758-2.08884 1.70042-3.78769 4.12953-5.09961 7.28711l-13.33594 31.83984-12.16797-30.23828c-1.45728-3.59342-3.42518-6.3631-5.90234-8.30664-2.76925-2.18657-6.0721-3.27924-9.91016-3.2793-3.4482.34102-6.26531 1.77473-8.45117 4.30078-2.18588 2.52615-3.2793 5.5381-3.2793 9.03516v40.80469l13.04297.36328v-39.71289l12.67774 27.83594c1.7967 3.93444 3.76461 6.89774 5.90234 8.88867 2.76918 2.57502 6.0234 3.86328 9.76367 3.86328 2.42821-.29204 4.52967-1.22662 6.30274-2.80469 1.77296-1.57806 3.80094-4.87023 6.08398-9.875l12.89649-28.41601v39.85742h13.04492v-39.12891c-.00009-4.13007-1.19154-7.62851-3.57227-10.49414-2.52618-3.05973-5.80327-4.58783-9.83398-4.58789z"/></g><path d="m-15.916061 125.20254c-7.756478-59.230452 3.441461-113.090434 59.703236-92.093319 16.359247-5.280754 28.891819-5.949885 36.537191 8.963231l-8.560965 14.494414-78.2011767 44.619204s-2.9708444 12.13531-3.3946253 23.35406z" fill="#bc2929"/><path d="m-5.2762273 115.09241 30.3731293-21.893298 37.279219-20.333774 29.451353-23.355023-3.819848-3.309704-1.701543.28563-5.793906-6.571853-29.555255 23.241001-26.043798 14.955-33.5495387 21.952481 1.6815757 5.41532-.036864 2.90924z" fill="#e6e6e6"/><path d="m85.474609 337.8457a10.164054 10.164054 0 0 0 -9.738281 7.27735 26.182604 26.182604 0 0 0 -1.90625.90625 8.8088473 8.8088473 0 0 0 -3.261719-.63282 8.8088473 8.8088473 0 0 0 -8.810547 8.8086 8.8088473 8.8088473 0 0 0 .791016 3.62109 26.182604 26.182604 0 0 0 -2.59375 11.29102 26.182604 26.182604 0 0 0 .08203 1.99219 13.745673 13.745673 0 0 0 -3.3125 8.9414 13.745673 13.745673 0 0 0 13.746094 13.7461 13.745673 13.745673 0 0 0 4.818359-.87891 26.182604 26.182604 0 0 0 3.636719 1.3457 9.002448 9.002448 0 0 0 7.710938 4.37305 9.002448 9.002448 0 0 0 5.423828-1.82813 7.55044 7.55044 0 0 0 5.126953 2.02149 7.55044 7.55044 0 0 0 7.550781-7.55078 7.55044 7.55044 0 0 0 -.35937-2.26953 9.6800519 9.6800519 0 0 0 3.65039.7207 9.6800519 9.6800519 0 0 0 9.67968-9.67969 9.6800519 9.6800519 0 0 0 -5.5-8.7168 26.182604 26.182604 0 0 0 .11133-2.21679 26.182604 26.182604 0 0 0 -.41406-4.59961 7.9376428 7.9376428 0 0 0 1.93164-5.18164 7.9376428 7.9376428 0 0 0 -7.84375-7.9336 6.5824354 6.5824354 0 0 0 .29297-1.93945 6.5824354 6.5824354 0 0 0 -6.582033-6.58398 6.5824354 6.5824354 0 0 0 -4.4375 1.73242 26.182604 26.182604 0 0 0 -.255859-.0937 10.164054 10.164054 0 0 0 -9.53711-6.67188z" fill="#e6e6e6" transform="matrix(.26458333 0 0 .26458333 -35.751546 31.566034)"/><path d="m-6.0794135 115.5944 31.1763155-22.395288 37.279219-20.333774 30.957327-24.559802-3.819848-3.309704-1.701543.28563-5.793906-6.571853-31.061229 24.44578-26.043798 14.955-34.3527249 22.454471 1.6815757 5.41532-.036864 2.90924z" fill="#f2f2f2"/></g></svg>