<svg viewBox="0 0 29.104166 29.104167" xmlns="http://www.w3.org/2000/svg"><path d="m-249.50293 46.053319-.53099 1.105751.0201.922066-.20497-.594234-1.37216 2.539941-.0414 1.311331-.22564.307152-.0408.799206c-.1789-.276344-.30266-.616376-.20496-1.20854l-.3692.737167v11.184622l.26701 9.353871.73718-7.141153.28708 1.392832.24571-2.43776.16362.922067.10216-.14354.12346 1.699984.24572-2.601372.24573.737775.14354-6.26896 9.09537-9.095375-1.76202 1.2499.88071-.942139-.59363.327833-.0414-.184901-.83995.369192-1.45427 1.372153.94214-1.024249c-.21845.0067-.41195-.03012-.57356-.122861-.49856.325059-.95052.394642-1.39283.409942l-3.9127 3.58487zm9.94505 3.375641-.55044 1.162315-.0118.963426-.27248-.190982-.0118-.382573-1.4415 1.257807v3.074569l-.25788.0067-.0219 5.722776.31567.308977.0297.639852.66966 1.493188.22748-1.198807.0517 2.735789 1.27301 7.299899v-17.963285h4.44247l.94701-.206187-.54557-.360068 2.54358-.308978.12347-.515166 5.36515-1.089936h-12.06717l1.48529.39717-1.89766.07359.28708.294381-.28708.139283-.39657.94153zm6.52381 6.685593-4.64865.0073-1.346.728044.32357.301679-.52915.235382v.84604h4.12619l-.059-.360678 1.37519-.889831-.69824-.0073.27187-.271876.82415-.169087zm-14.70867.856379-1.63064 1.55766 5.69601 7.58759-.13564-.585111c-.27517-.435226-.51459-.884696-.6064-1.3904-.1437-.240399-.25817-.480357-.30289-.720745l.50178.459818-.13624-.533413-.0833-.459817-.25119-.564431.57537.459817c-.008-.23834.16822-.135486.32358-.07299l-.0207-.992621zm15.57539 4.149301-.002.0012c-.0247-.0012-.0449.002-.0615.0079-.0671.02515-.0742.0432-.0554.141716l.0213.112517-.31629-.000608c-.17395-.000354-.41812-.02229-.54252-.04866-.36111-.07648-.56007-.06409-.77428.04866-.3086.162317-.95899.630255-1.15683.832049-.17362.176889-.18506.197374-.15328.279174.0437.114927-.0106.220618-.26397.514558-.18456.21467-.19027.227445-.16908.356419.0291.174334.19572.649514.28282.805288.0659.118557.17688.180535.24632.137458.02-.01164.0511.01884.0699.06934.0329.08596.027.23788-.0201.49631-.0229.127632.0344.205654.13685.186116.0777-.01481.089-.126234.0408-.385005-.0494-.262585-.0197-.514189.0627-.535846.0306-.0082.0801-.06788.10945-.1332.0295-.06529.0884-.162602.13199-.21592l.0791-.0967.0681.07238c.11958.127221.20829.09688.30716-.106439.0601-.122724.13804-.217288.24633-.298029.10886-.08123.15814-.140745.15814-.19159 0-.0605.0179-.0742.0967-.0742.053 0 .16649-.04313.25241-.09609.19114-.117605.50768-.238218.75967-.290123.16596-.03413.19519-.03269.24816.0152.0329.02995.0768.04397.0979.03102.046-.02807.0949.03971.0955.131983 0 .03661.0222.09507.0481.129552.047.06073.0481.06026.0681-.01093.0297-.105921.0962-.08899.18915.04805.10216.150517.1024.176262.001.150839-.0977-.0243-.0965-.03172-.0165.304112.0838.348023.0824.534512-.001.652623-.0565.07192-.0609.119978-.0444.222611.0196.122596.008.148305-.17395.399602-.10757.147546-.20193.289167-.20193.31506-.0165.11408.007.166918.0979.218352.0789.04731.0956.06811.0791.151448-.0376.187328-.0522.215386-.10274.195849-.0298-.0114-.10628.02738-.19099.0967-.12722.104441-.14111.129743-.14111.25667 0 .125338-.015.153292-.13745.259103-.0755.06529-.20919.151201-.29864.190984-.17479.07825-.25417.175209-.43731.53706-.0685.134589-.10627.26921-.11799.381965-.007.09577-.0331.212122-.059.258495-.0471.08042-.0459.07541-.0468-.115562-.002-.241554-.0426-.282923-.0968-.09793-.0212.0749-.0706.160969-.10945.190982-.0541.04212-.0728.09982-.0857.253021l-.0165.19889-.18428.0048c-.22351.0062-.31183.06957-.25181.181858.0176.03919.0294.107062.0176.15084l-.0201.07968-.11075-.06873-.11074-.06873-.0644.10705c-.0848.13852-.0824.155705.0176.155705.0601.000001.0836.01454.0717.05657-.008.04249-.0434.05657-.1399.05657-.11817 0-.13099.0065-.11921.08089.007.06241-.0246.109425-.13989.205581-.11806.102359-.14604.13849-.12955.201929.0261.10377-.035.211603-.26945.476848-.10874.122548-.19707.242136-.19707.265793 0 .02354-.033.06489-.0742.09184-.0416.0269-.10968.111047-.15326.186724-.066.121006-.0784.176289-.0778.460426.001.294764.0681.670656.10345.573554.0246-.06791.10627-.04548.13806.03832.0374.09834.1639.166345.36859.197065.11403.01719.16096.03955.17273.08333.022.0842.0665.07663.27552-.04927.1004-.06048.22184-.123531.27127-.139892.0542-.01789.0959-.06005.10769-.105827.0189-.08004.18415-.15134.23476-.100961.0146.01459-.0619.123539-.16908.242074-.1071.118534-.19523.237859-.19523.264577 0 .04311.0106.04306.0954-.000608.053-.02696.10322-.06361.11498-.0815.0317-.05108.0813-.03809.0602.01581-.0306.07991.0665.05597.19828-.04866.0668-.05331.13748-.0967.1563-.0967.0238 0 .0235-.01105-.001-.03528-.0259-.02566-.0553-.02488-.10581.0025-.0393.02095-.0933.02945-.12043.01886-.0387-.01498-.0188-.05243.0931-.172128.0784-.0841.18987-.222155.24755-.306544.0978-.143121.23087-.217507.18733-.105228-.0315.08391.0645.05331.10345-.03285.0294-.06509.0533-.07732.11674-.06144.0577.01459.11121-.0049.19949-.07177.11415-.0871.22045-.1037.28282-.04379.0148.01466-.0316.104499-.10333.198889-.0715.09441-.11982.176582-.11982.182467.0198.01974.20376-.08735.29438-.170911.0482-.04438.11934-.08089.15935-.08089.0396 0 .1091-.02893.15388-.06447.0454-.03555.1145-.06447.15571-.06447.0407 0 .19356-.01725.33938-.03831l.26458-.03832.12165.105827c.10287.09016.13826.103958.23477.08819.0628-.01023.18349-.06185.26822-.114351.0845-.05253.2573-.128735.3844-.169694l.23114-.07481.059.07359c.0885.108837.13581.393235.12286.743857l-.0118.312019.0882.01035c.13299.01544.1801-.107979.10945-.292555-.0624-.164519-.0658-.254831-.0165-.46955.0336-.145568.0462-.161575.15327-.187941.0928-.02289.1335-.05941.19706-.176992.0443-.08146.12339-.19788.17517-.258495.13959-.164295.22305-.369482.18186-.447044-.0188-.03456-.0341-.139381-.0341-.23295 0-.147712.014-.184113.10346-.276742.0832-.086.11391-.156985.15509-.364934.0282-.142003.0409-.257887.028-.257887-.0127 0-.14641.04339-.29741.09671-.15101.05331-.29076.09671-.3096.09671-.0636 0-.0354-.09119.0504-.158746l.0845-.0669-.0924.000607c-.0513.000472-.18751.03369-.30168.07359-.18867.06579-.21071.08321-.23659.184901-.0355.137484-.027.129007-.16423.159962-.0963.02177-.12292.01386-.17942-.0517-.0406-.04661-.10228-.07664-.15753-.07664-.0833 0-.1462.02632-.41056.172736-.093.05061-.0988.05035-.14111-.01152-.0753-.110424-.35556-.08435-1.11.102794-.22633.05626-.4219.09218-.43366.08028-.041-.04103.0475-.167876.32296-.464075.15207-.163425.30085-.345247.33027-.403861.0299-.05863.0935-.150438.14293-.203755.0494-.05329.0989-.137291.11074-.186724.0129-.05241.0531-.101889.0967-.118603.0829-.03148.3366-.43912.45983-.738993.0789-.190294.0997-.406594.0444-.440961-.0176-.01093-.0316-.07029-.0316-.131377 0-.09287.0341-.146212.20862-.326008.1782-.183515.22613-.216116.33088-.222001.10874-.0062.13786-.0282.26214-.197065.0769-.104416.16781-.202954.20193-.21896.0859-.03836.0836-.16123 0-.217136-.0671-.04412-.0667-.04485.0299-.237816.0959-.194237.16483-.545059.16483-.84239 0-.112481-.0173-.158285-.0809-.213486-.0989-.0859-.10098-.152234-.0118-.266401.0589-.07544.0633-.0978.028-.163004-.0329-.06225-.032-.103241.0117-.229909.0636-.188941.0687-.25933.0121-.215311-.0696.05449-.18239.06843-.21652.02676-.0421-.05073-.0106-.08272.0809-.08272.0875 0 .0983-.0269.12773-.297421.031-.290386-.00096-.342726-.21836-.355203-.1304-.0075-.16969-.0212-.16969-.06204 0-.02896-.0329-.07994-.0718-.113128-.0394-.03315-.0978-.13314-.13076-.222002-.0493-.13334-.072-.160335-.13199-.153273-.0489.0054-.15095-.05987-.31749-.20193-.13523-.11535-.26598-.209836-.28952-.209836-.0235 0-.0438-.01446-.0438-.03224s.0368-.03224.0815-.03224c.12088 0 .0977-.05186-.0651-.14719-.19102-.111987-.36236-.17768-.46711-.180035zm1.46703 2.785664h.002c.027.000236.0573.01559.0961.04501.0576.04634.0578.04858-.0118.122253-.0918.09874-.0885.151448.0118.151448.0447 0 .0815.01344.0815.0298 0 .07027-.0415.126606-.0815.111306-.027-.01035-.0542.01129-.0542.05839-.007.04744-.0361.07927-.0784.08515-.1436.02048-.18733-.339585-.0638-.527938.0341-.05096.0627-.07571.0979-.07541zm-3.92364.368584c-.0247.0027-.0473.02308-.059.05839-.008.04331.005.05629.0481.04805.0329-.0062.0602-.03325.0602-.0596 0-.0346-.024-.04919-.0487-.04684zm4.02339 1.679912c-.0695-.0025-.12483.07629-.0931.159964h-.00062c.0277.07368.0929.05772.14233-.03467.0383-.06991.0383-.08714.00062-.110083-.0165-.0098-.0328-.01465-.0493-.0152zm-.37832.240249c-.0612 0-.11309.132173-.0767.192199.0118.01883.041.03406.0657.03406.0469 0 .14597-.08467.14597-.124686 0-.04343-.0773-.100961-.13502-.100961zm.87767 3.617714c.0742 0 .0909.122364.0261.187333-.0648.065-.0906.04414-.0906-.0742 0-.09145.0127-.113128.0644-.113128zm-4.64683 2.0339c-.0247-.000707-.0587.01058-.10216.03406-.0695.03738-.0837.15964-.0237.21896.0212.0213.0542.03832.0742.03832.066 0 .11309-.07646.11309-.183683 0-.07144-.019-.106474-.0615-.10765zm-.40689.07055c-.04.0044-.0767.04025-.0767.09063 0 .07757.0714.08631.13016.01581.0235-.0359.0259-.05912 0-.08455-.0118-.0133-.0267-.01954-.042-.0219-.004-.000445-.007-.000157-.0118 0z" transform="translate(254.12973 -44.730402)"/></svg>
