<svg height="110" viewBox="0 0 29.104166 29.104167" width="110" xmlns="http://www.w3.org/2000/svg"><g fill="#fff" transform="matrix(.1921144 0 0 .1921144 66.96058 3.468368)"><path d="m-314.34417 66.207991-26.45834 60.346199h136.00824l-26.45886-60.346199h-16.83255c-1.02113 1.51673-2.05161 3.04067-3.11454 4.58579h11.62256l15.0032 44.864439h-96.44785l15.0027-44.864439h11.63907c-1.06278-1.54496-2.09299-3.06922-3.11401-4.58579z"/><g transform="translate(-469.88622 1514.2018)"><path d="m744.89844-5887.6953c-78.89729-.0002-142.85651 63.9582-142.85742 142.8555.0619 25.1209 13.10063 60.6164 19.38086 71.4941 87.70598 151.9112 115.04 163.7305 123.50195 163.7305s35.796-11.8193 123.50195-163.7305c6.27908-10.8757 19.28359-46.3778 19.33008-71.4941-.00091-78.8973-63.96013-142.8557-142.85742-142.8555zm0 36.1289c58.94351-.0001 106.72669 47.7831 106.72656 106.7266.00008 58.9435-47.78309 106.7266-106.72656 106.7265-58.94347.0001-106.72664-47.783-106.72656-106.7265-.00013-58.9435 47.78305-106.7267 106.72656-106.7266z" transform="matrix(.26458333 0 0 .26458333 0 32.416658)"/><path d="m177.63709-1504.2114v6.4836 6.4836h6.48354 6.48354v-6.4836-6.4836h-6.48354zm12.96708 12.9672v6.4832h-6.48354v6.4833 6.4837 6.4836h6.48354v-6.4836h6.48354 6.48354v6.4836h6.48352v-6.4836-6.4837-6.4833h-6.48352v-6.4832h-6.48354zm12.96708 0h6.48352 6.48356v-6.4836-6.4836h-6.48356-6.48352v6.4836z"/></g></g></svg>