<?xml version="1.0" standalone="no"?>
<!DOCTYPE svg PUBLIC "-//W3C//DTD SVG 20010904//EN"
 "http://www.w3.org/TR/2001/REC-SVG-20010904/DTD/svg10.dtd">
<svg version="1.0" xmlns="http://www.w3.org/2000/svg"
 width="592.000000pt" height="592.000000pt" viewBox="0 0 592.000000 592.000000"
 preserveAspectRatio="xMidYMid meet">
<metadata>
Created by potrace 1.14, written by Peter Selinger 2001-2017
</metadata>
<g transform="translate(0.000000,592.000000) scale(0.100000,-0.100000)"
fill="#000000" stroke="none">
<path d="M2635 5845 c-159 -41 -436 -101 -615 -135 -316 -59 -326 -62 -360
-94 -252 -233 -374 -356 -604 -609 -149 -165 -276 -309 -283 -321 -6 -11 -84
-190 -173 -396 l-163 -374 -23 -393 -23 -394 34 -137 c18 -75 61 -249 94 -387
49 -202 82 -309 171 -555 l111 -305 15 -375 15 -375 103 -100 c84 -81 108
-111 127 -157 12 -32 27 -58 33 -58 6 0 119 -13 252 -30 237 -28 242 -30 395
-86 85 -31 159 -63 164 -70 6 -7 31 -78 55 -158 l43 -145 156 -62 c143 -56
173 -64 359 -94 l204 -34 336 69 337 68 220 6 c121 4 248 9 283 12 l62 6 21
47 c11 25 54 125 96 221 41 96 81 180 89 186 8 6 91 14 203 18 l188 6 121 54
121 54 80 -11 c45 -6 82 -9 84 -6 2 2 39 47 83 99 44 52 87 106 96 120 9 14
51 145 93 292 l76 266 -47 161 -47 161 60 163 c42 111 89 274 151 517 l90 355
6 360 6 360 -119 392 -119 392 -224 333 -224 333 -130 87 -129 86 -225 270
-225 269 -65 6 c-36 4 -111 7 -168 7 -96 0 -114 4 -265 51 -189 59 -389 94
-582 102 l-130 6 -290 -74z m533 -295 c62 -91 118 -176 125 -190 10 -19 11
-61 7 -167 -4 -79 -10 -146 -14 -150 -4 -5 -13 0 -20 10 -22 29 -43 21 -38
-15 4 -28 2 -30 -17 -25 -14 3 -21 1 -21 -9 0 -20 -13 -17 -46 8 -26 21 -27
21 -20 3 17 -41 18 -55 5 -55 -7 0 -10 -3 -6 -6 3 -3 -3 -22 -13 -41 -10 -19
-16 -41 -13 -49 3 -8 3 -14 1 -14 -3 0 -256 -102 -564 -226 -307 -124 -566
-226 -574 -226 -16 -1 -839 357 -854 372 -22 22 272 327 429 446 437 331 928
506 1405 500 l115 -1 113 -165z m168 50 c137 -28 161 -35 146 -44 -22 -13
-184 -66 -191 -61 -4 2 -29 31 -55 64 -45 59 -46 61 -23 61 14 0 69 -9 123
-20z m578 -151 c505 -227 948 -666 1207 -1194 171 -349 249 -674 250 -1035 1
-322 -39 -514 -223 -1080 l-70 -215 5 -135 c4 -74 11 -189 17 -255 11 -129 2
-244 -24 -306 -22 -52 -98 -149 -167 -213 -62 -58 -177 -141 -185 -134 -2 3
-34 225 -71 494 l-67 489 27 42 c130 206 157 614 60 913 -32 98 -85 193 -126
224 -47 36 -147 71 -262 92 -136 25 -496 25 -637 1 -54 -9 -102 -17 -108 -17
-10 0 -240 282 -240 295 0 4 90 101 200 215 l200 208 -85 394 c-47 216 -85
402 -85 412 0 15 6 17 43 11 l42 -7 -24 25 c-21 24 -23 29 -11 57 7 16 16 30
19 30 4 0 108 -18 230 -41 123 -22 224 -39 225 -37 1 2 17 23 36 48 19 25 35
47 37 49 2 3 25 -6 51 -18 l48 -23 124 -248 c68 -137 126 -248 127 -246 2 1
-45 121 -104 265 l-107 262 -58 31 -58 31 16 25 c59 91 58 83 39 190 -24 136
-34 145 -35 32 0 -59 -5 -105 -14 -121 -9 -19 -108 -149 -141 -187 -1 -1 -89
16 -196 39 -145 30 -199 46 -213 61 -20 22 -40 93 -30 109 3 6 -5 7 -21 3 -20
-5 -30 -2 -40 13 -7 11 -32 25 -55 33 -48 16 -45 8 -59 197 -7 92 -16 154 -26
173 -15 28 -14 31 2 37 10 4 79 30 153 59 l135 52 80 -30 c44 -16 120 -47 169
-69z m-2261 -1056 c-1 -7 -391 -753 -397 -760 0 -1 -149 -46 -331 -101 l-330
-100 -3 45 c-7 100 45 355 113 554 68 198 231 497 351 646 l34 42 283 -158
c155 -87 281 -163 280 -168z m1557 213 c0 -6 5 -5 12 2 19 19 28 14 40 -19 10
-29 11 -30 25 -10 17 26 40 27 47 4 9 -30 175 -667 178 -685 2 -10 -85 -118
-221 -276 l-225 -260 -173 -457 c-94 -252 -176 -462 -180 -466 -4 -4 -29 -5
-56 -2 -38 5 -46 9 -43 22 43 138 53 326 23 423 -23 75 -55 111 -130 147 -131
62 -316 94 -552 94 -316 0 -523 -63 -592 -180 -34 -59 -70 -158 -89 -247 -29
-133 -29 -383 -1 -529 1 -6 -27 -32 -63 -60 -36 -27 -76 -58 -90 -69 l-25 -20
35 20 c19 11 59 34 88 51 29 17 56 31 60 31 4 0 14 -21 20 -47 25 -92 90 -210
150 -271 78 -80 152 -114 258 -120 156 -8 244 38 541 286 195 163 221 189 278
288 27 45 43 63 54 60 9 -2 33 -7 54 -11 20 -3 37 -8 37 -11 0 -4 -333 -440
-389 -509 -9 -11 93 86 227 215 l243 235 204 528 c112 291 206 531 209 534 6
6 236 -216 236 -227 0 -3 -20 -16 -44 -27 -121 -59 -151 -122 -144 -302 6
-130 33 -231 96 -356 74 -149 148 -233 282 -322 41 -28 125 -85 185 -128 275
-193 444 -229 609 -130 47 28 56 31 60 17 3 -10 46 -210 96 -447 50 -236 93
-438 96 -448 4 -13 -7 -23 -53 -45 -56 -26 -67 -27 -268 -32 -245 -7 -285 -18
-356 -98 -55 -64 -74 -130 -74 -272 l0 -114 -63 -19 c-34 -10 -68 -17 -75 -14
-9 3 -18 45 -26 115 -7 60 -16 115 -20 121 -4 5 -12 -42 -19 -107 -16 -149
-19 -158 -50 -171 -51 -19 -150 -41 -191 -41 -48 0 -45 -8 -62 165 -13 134
-28 183 -29 95 -1 -104 -25 -259 -43 -277 -12 -12 -41 -17 -119 -21 -138 -6
-142 -2 -158 163 -15 148 -28 197 -30 110 -2 -107 -25 -266 -41 -276 -20 -15
-250 -3 -260 13 -4 6 -11 46 -14 88 -4 41 -12 116 -19 165 l-12 90 -7 -90
c-13 -170 -27 -244 -47 -250 -22 -7 -195 22 -230 38 -29 14 -34 33 -51 192
-14 123 -20 117 -38 -39 -6 -54 -14 -103 -17 -108 -9 -14 -76 -4 -121 18 l-38
19 -7 82 c-9 109 -44 189 -110 248 -84 76 -205 105 -433 105 -167 0 -281 42
-427 158 -88 70 -132 124 -162 195 -20 49 -21 68 -21 372 l-1 320 -66 175
c-125 333 -261 773 -298 970 -20 102 -41 340 -33 365 2 6 161 55 353 109 193
55 355 103 360 106 5 3 111 188 236 410 124 223 227 406 229 408 2 2 49 -24
105 -58 l102 -60 602 223 601 223 37 -40 c21 -21 38 -44 38 -50z"/>
<path d="M2971 2042 c-52 -52 -230 -631 -261 -849 -11 -84 -2 -120 33 -128 30
-8 109 22 199 75 l69 42 38 -25 c56 -37 152 -84 188 -91 56 -13 73 5 73 76 0
151 -197 831 -261 899 -34 36 -43 36 -78 1z"/>
</g>
</svg>
