<svg viewBox="0 0 121.46077 155.14329" xmlns="http://www.w3.org/2000/svg"><g transform="translate(-39.434563 -36.979248)"><g clip-rule="evenodd" fill-rule="evenodd" transform="matrix(.26458333 0 0 .26458333 39.214059 36.97957)"><path d="m382.58 23.688c-.868 3.069-4.324 5.555-7 7-3.426 1.851-7.495 1.744-11 3-3.211 1.151-6.479 4.082-10 5-2.839.74-7.125.154-11 1-5.51 1.203-10.901 4.37-20 3-1.977-3.356-5.048-5.619-7-9-9.07-1.07-11.603 4.397-20 4-2.019-7.352 4.572-6.095 10-6 5.484-2.322 12.396-3.501 19-6 2.1-.794 3.381-2.535 5-3 3.246-.933 7.826.094 11-1 1.844-.635 3.306-2.629 5-3 4.696-1.027 13.263-1.866 20-2 6.12-.122 15.16-.906 16 7z" fill="none"/><path d="m230.58 34.688c-1.677 4.269-8.017 5.75-9 11-1.104 5.894 2.704 9.034 4 15 9.1 8.567 15.113 20.22 25 28-22.796 2.794-27.608-21.056-43-29-.777-.89-1.075-2.258-1-4-8.474-3.859-13.437-11.23-20-17 6.634-6.056 17.091-1.517 27-2 5.63-.274 10.78-1.875 17-2z" fill="none"/><path d="m261.58 39.688c-.591 4.591.311 7.689 2 10-6.843 2.98-22.596 4.912-30 1 8.49-8.407 15.72-12.004 28-11z" fill="none"/><path d="m305.58 47.688c-2.104 2.896-1.68 8.32-6 9-.994 11.673-10.97 14.363-11 27 5.51.51 8.357-1.643 8-7 8.402-6.264 7.883-21.451 17-27 14.876 4.526 32.017 1.816 47-1-12.476 13.525-25.433 26.567-38 40-19.181 6.801-37.835 5.728-62 4-.597-14.07-11.438-17.895-18-26 18.724-2.276 37.229-4.771 48-15 4.802.135 9.098-.235 10-4z" fill="none"/><path d="m406.58 76.688c-2.885 6.628-12.751 6.125-20 8-3.116.806-6.222 1.164-10 2-5.207 1.152-16.167 4.042-25 1 12.16-9.198 36.68-11.282 55-11z" fill="none"/><path d="m113.58 127.69h3c1.102 4.238 1.182 8.307 0 12 .756 2.177 3.932 7.038 0 8-5.02-3.22-4.11-13.41-3-20z"/><path d="m81.581 135.69c-4.529 6.804-10.863 11.804-14 20-7.134 1.8-7.909-2.757-11-5 1.217-11 17.398-32.17 25-15z"/><path d="m130.58 137.69c-2.492.841-5.357 1.309-9 1-5.85-12.24 11.11-13.05 9-1z"/><path d="m86.581 161.69c-3.817.484-6.383-.284-8-2-.351-12.71 15.434-8.67 8 2z"/><path d="m99.581 159.69c-2.582 4.674-7.998 7.593-12 12-2.433 2.679-4.599 10.215-10 7 1.817-4.546 6.996-11.213 11-15 2.086-1.97 6.017-3.74 11-4z"/><path d="m414.58 169.69c7.215-.881 9.704 2.962 13 6-1.019 10.397-11.643 16.245-19 17 3.548-5.452 11.246-6.754 12-15-3.16-1.5-7.44-1.89-6-8z" fill="none"/><path d="m42.581 196.69c-.802-3.469 1.489-3.844 1-7-4.97-2.886-10.939.757-17 0 .16-10.01 26.119-8.944 24 2-.595 3.07-2.645 5.01-8 5z"/><path d="m49.581 334.69c10.315 2 21.602 3.791 34 6v5c-9.686-.157-27.382-1.12-34-5z"/><path d="m83.581 353.69c-4.176 4.639-12.241.728-17 0-3.244-.496-7.254-.514-11-1-.12-2.88-4.265-1.735-4-5 .804-.529 1.624-1.043 3-1 7.406 3.21 24.004-.18 29 7z"/><path d="m138.58 469.69c-4.155 3.043-5.987.555-10-1-4.32-8.63 12.81-9.74 10 1z" fill="none"/><path d="m144.58 464.69c4.557-1.224 3.923 2.743 8 2 .664 5.33-.582 8.751-4 10-8.6-2.11-9.97-6.31-4-12z" fill="none"/><path d="m347.58 470.69c.729 2.729-1.987 2.013-2 4-3.988.988-3.012-2.988-7-2-1.44-8.92 6.86-5.23 9-2z" fill="none"/><path d="m165.58 469.69c1.292 4.958-2.42 4.913-2 9-16.53 3.55-6.44-16.6 2-9z" fill="none"/><path d="m178.58 474.69c-.112 4.592-5.377 8.11-10 5-.64-7.05 6.74-10.14 10-5z" fill="none"/><path d="m335.58 477.69c-3.362 4.215-9.42-2.042-8-5 3.62-2.64 7.26 1.61 8 5z" fill="none"/><path d="m185.58 474.69c1.479.521 2.521 1.479 4 2-.738 3.595-1.983 6.684-7 6-1.21-4.88 2.26-5.08 3-8z" fill="#fff"/><g fill="none"><path d="m304.58 477.69v4c-3.121 2.392-8.632.489-8-4 3.09.16 5.65-2.36 8 0z"/><path d="m140.58 477.69c3.078.589 7.078.256 7 4-3.11 3-9.49-1.4-7-4z"/><path d="m322.58 486.69c-3.57-1.096-5.904-3.43-7-7 5.31-5.44 15.25 4.5 7 7z"/><path d="m357.58 486.69c-1.419-.086-2.832-.165-3 1-5.03-.636-7.226-4.107-9-8 5.53-2.86 10.44 2.64 12 7z"/><path d="m277.58 484.69c1.019 4.353-2.068 4.598-3 7-3.86-2.807-8.885-4.448-12-8 3.44-6.78 10.4.08 15 1z"/><path d="m295.58 490.69c-4.674-.66-7.34-3.326-8-8 5.78-2.69 10.4 2.77 8 8z"/><path d="m160.58 484.69c-.529.804-1.043 1.623-1 3-3.657-.343-7.896-.104-8-4 3.25-1.65 6.19-.39 9 1z"/><path d="m336.58 483.69h5c.211 2.913 3.923 4.959 2 7-1.907 1.877-1.81-.594-5 0 .99-3.99-2.99-3.01-2-7z"/><path d="m172.58 486.69c1.207 4.206-1.615 4.385-2 7-2.356.022-2.944-1.723-6-1-1.72-6.14 4.02-8.74 8-6z"/><path d="m315.58 492.69c-4.55 3.228-11.47-3.207-10-6 4.62-2.82 10.09.91 10 6z"/><path d="m183.58 487.69c1.374 6.431-4.668 10.159-8 6 2.32-2.35 3.28-6.06 8-6z"/><path d="m191.58 487.69c3.3 2.406-1.273 5.314-2 7-3.3-2.41 1.27-5.32 2-7z"/><path d="m335.58 495.69c-3.891 2.65-8.929-.657-8-6 3.11-1.87 8.86.73 8 6z"/><path d="m280.58 489.69c5.078.978 8.646 3.978 7 9-5.382.382-7.73-2.27-9-6 2.14.47 1.9-1.43 2-3z"/><path d="m121.58 493.69c.649 3.649-.674 5.326-2 7-3.812-.188-6.58-1.42-7-5 1.65-5.24 4.69-3.14 9-2z"/><path d="m138.58 494.69c-.777.89-1.075 2.258-1 4-1.419-.086-2.832-.165-3 1-2.824-.843-2.755-4.578-6-5 1.27-4.96 7.6-2.19 10 0z"/><path d="m358.58 491.69c2.933 1.734 5.764 3.569 6 8-5.187.854-6.765-1.902-8-5-.55-2.22 1.91-1.43 2-3z"/><path d="m299.58 492.69c4.317.349 6.651 2.683 7 7-3.17 2.37-10.85-2.35-7-7z"/><path d="m369.58 554.69c-3.815.148-4.815-2.518-8-3 1.809-6.858 7.973-9.36 13-13 .502-4.426 3.291-9.256 4-13 .385-2.029-1.979-2.317-2-3-.099-3.081 5.696-9.708 8-13 4.492-6.42 7.819-15.444 18-17 5.099 4.678 6.936 14.702 3 24-.319.755-2.722 1.299-3 2-1.101 2.773-.303 3.454-2 6-.547.82-1.559 1.337-2 2-2.876 4.319-1.884 4.103-5 7-3.168 2.945-10.534 7.623-16 10-1.3 5.03-5.36 7.3-8 11z"/><path d="m152.58 494.69c2.122 4.502-1.032 11.358-8 10-1.483-1.184-1.556-3.777-3-5 2.22-3.11 6.33-4.34 11-5z"/><path d="m325.58 504.69h-5c.757-3.757-2.617-3.383-4-5 1.18-7.71 10.83-2.05 9 5z"/><path d="m353.58 502.69c-3.95-.05-5.95-2.05-6-6 2.35-1.62 6.06 2.09 6 6z"/><path d="m165.58 497.69c-.04 6.985-3.954 11.904-10 10-1.98-4.45 3.28-14.26 10-10z"/><path d="m124.58 500.69c3.237-1.67 6.999-1.677 8 2 1.95 7.16-17.73 3.02-8-2z"/><path d="m301.58 505.69c.745 3.078-2.745 1.922-2 5-3.944-2.389-9.395-3.272-9-10 5.21-2.71 5.98 4.52 11 5z"/><path d="m177.58 501.69c-1.951 5.684-5.072 10.47-11 7 2.98-3.05 4.51-10.52 11-7z"/><path d="m107.58 501.69h4c2.017 2.369 2.899 6.959 0 9-2.043-.957-3.957-2.043-6-3 1.39-1.28.61-4.72 2-6z"/><path d="m311.58 504.69c2.59 1.41 6.767 1.233 6 6-3.988.549-3.012.549-7 0-.43-3.87-1.09-3.56 1-6z"/><path d="m138.58 505.69c1.907.426 1.81 2.857 5 2 .649 3.649-.674 5.326-2 7-3.705.039-5.797-1.536-8-3 1.04-2.63 3.97-3.37 5-6z"/><path d="m329.58 506.69c4.365.635 6.273 3.727 7 8-3.91 4.72-12.04-4.02-7-8z"/><path d="m124.58 512.69c-.34 3.326-3.788 3.545-5 6-2.323-.677-2.677-3.323-5-4 .22-6.58 7.74-7.45 10-2z"/><path d="m101.58 510.69c2.263 1.07 4.397 2.27 6 4 .114 3.448-4.114 2.552-4 6-2.932-.734-4.3-3.033-6-5 .678-2.33 3.32-2.68 4-5z"/><path d="m157.58 513.69c-1.578 2.423-3.578 4.423-6 6-2.409.409-2.174-1.826-5-1-.7-7.15 6.87-8.02 11-5z"/><path d="m304.58 511.69c1.313 1.02 3.687.98 5 2v5c-4.56-.15-9.16-3.82-5-7z"/><path d="m320.58 513.69c2.951 1.382 4.049 4.618 7 6-.354 1.313-1.761 1.573-2 3-3.89-1.75-6.43-4.45-5-9z"/><path d="m168.58 516.69c-1.62 4.018-4.113 6.769-9 5 .73-4.33 5.17-9.66 9-5z"/><path d="m136.58 519.69c-1.096 3.57-3.429 5.904-7 7-1.077-2.257-3.753-2.913-5-5 2.05-7.2 7.48-6.03 12-2z"/><path d="m114.58 520.69c.725 3.059-1.725 2.941-1 6-6.159 1.646-7.413-1.922-5-7 3.87-.43 3.56-1.1 6 1z"/><path d="m94.581 520.69c3.629-.962.84 4.493 4 4-.707 3.595-4.693 1.406-6 0 .013-1.99 2.729-1.27 2-4z"/><path d="m319.58 530.69c-4.643-.357-6.594-3.406-8-7 3.85-3.68 8.69.52 8 7z"/><path d="m148.58 525.69c-.73 4.037-4.916 6.161-9 4 .04-5.73 6.16-8.95 9-4z"/><path d="m126.58 530.69c-1.431 5.183-7.945 4.152-11 1 .92-5.97 8.82-5.79 11-1z"/><path d="m160.58 528.69c-.844 3.014-5.638 5.632-9 3 .65-4.07 6.22-6.75 9-3z"/><path d="m101.58 528.69h3c1.151 1.182 1.132 3.535 1 6-2.599-.599-3.599.401-3 3-4.643-1.59-3.957-5.82-1-9z"/><path d="m138.58 534.69c.479 3.146-1.424 3.909-2 6-4.557 1.223-3.923-2.743-8-2 1.02-3.39 6.29-6.47 10-4z"/><path d="m112.58 535.69c2.097 1.902 5.275 2.725 5 7-3.332.335-4.436 2.897-9 2 .368-1.701-.78-1.887-2-2 1.11-3.22 3.76-4.91 6-7z"/><path d="m148.58 538.69c-.102 2.545-3.727 2.362-5 1 .1-2.55 3.73-2.36 5-1z"/><path d="m128.58 544.69c-.758 2.575-3.192 3.475-7 3v-3c1.34-1.43 5.67-1.43 7 0z"/><path d="m371.58 564.69c-2.236 6.764-4.21 13.79-15 12-8.92-9.61 7.7-24.41 15-12z"/></g><path d="m314.58 581.69c-3.196 3.463-11.544 5.438-18 4-7.087-1.578-17.839-2.304-30-2-2.035.051-1.958 1.622-4 2-7.837 1.451-25.316-.861-37 0-9.844.726-18.573 1.064-30 0-16.784-1.563-36.863-2.413-36-21 19.626-.654 48.677 5.562 76 4 7.121-.407 14.314-1.77 21-2 9.183-.316 17.805-.653 26 0 12.01.96 30.55.81 32 15z"/><path d="m311.58 12.688c-4.55 6.124-20.634 9.362-21 23-2.359 8.308-12.565 8.768-19 13-4.727-2.94-3.817-11.516-5-18-8.409-6.805-21.354-7.068-34-6-15.781 1.333-34.57 5.282-51 4 .21-4.79 7.782-2.218 9-6 17.679-1.321 30.478-7.522 48-9 3.512 2.822 7.745 4.921 11 8 16.73-1.252 45.38-9.001 62-9z" fill="none"/><path d="m40.581 83.688c.782 4.802-2.251 14.401-3 21-11.326-2.92.076-16.76 3-21.002z" fill="none"/><path d="m399.58 163.69c2.037 7.296 9.133 9.534 12 16-2.159 7.84-11.398 8.602-11 19 .354 1.313 1.761 1.573 2 3 13.788.938 17.503-12.913 28-12-.699 13.354-22.778 13.849-25 29 11.578 2.568 17.62-18.62 30-12-3.468 7.865-15.309 7.358-15 19 8.047-.324 14.03-10.987 23-4-1.726 4.792-3.598 1.034-8 1-5.416 3.251-10.609 6.724-13 13-.049 3.382 2.328 4.338 4 6 3.891-.776 8.187-1.146 10-4 5.098 1.259 4.555 6.37 6 11 2.585 8.283 4.111 12.954 5 25 1.054 14.293 3.608 28.437 2 46-.305 3.326-1.4 7.062-2 13-.736 7.284-3.65 12.557-6 20-1.226 3.883-1.935 8.252-3 11-.396 1.022-2.757 1.456-3 2-.598 1.335.728 3.744 0 5-1.605 2.77-6.489 6.525-6 13-2.846 1.821-3.647 5.686-7 7-.885 3.587-3.139 8.408-5 12-.362.7-2.057-.483-2 1 .22 5.697-14.819 16.135-21 22-1.294 1.228-1.821 4.069-3 5-1.456 1.149-7.854 3.649-10 5-3.028 1.906-5.745 3.354-8 6-6.815 1.185-12.359 3.641-16 8-12.071 1.435-23.475 9.438-37 11-2.297.266-5.562-.438-8 0-4.112.737-7.931 3.326-12 4-3.289.545-6.722-.234-10 0-9.331.666-16.706 2.799-26 2-.416-.036-4.837.052-5 0-1.073-.343-.692-1.873-2-2-8.835-.855-19.546 2.463-27-4-18.191-1.185-32.437-2.998-48-10-1.21-.544-1.871-2.629-3-3-3.053-1.004-6.227.135-9-1-1.099-.45-2.486-2.283-4-3-3.979-1.885-10.479-3.638-15-6-2.092-1.094-4.028-3.933-6-5-5.322-2.881-11.821-4.84-17-9-5.416-4.351-15.157-9.56-22-14-.553-4.113-2.866-6.468-3-11-2.322-1.345-5.678-1.655-8-3-.798-1.868-1.671-3.662-2-6-9.823-1.844-9.395-13.938-16-19-1.068-5.735 1.392-7.941 2-12-8.491-.021-16.928-1.207-27-2-6.368-7.722-16.204-10.649-20-19-.617-1.358.385-3.545 0-5-3.258-12.323-1.673-26.533 5-36 7.973-11.311 22.605-20.181 31-24-3.191 11.043-20.762 13.627-23 24-3.603 16.697 17.952 10.778 28 17-9.106 4.366-16.594.336-26 3-1.604 12.606 11.195 11.861 22 15 4.072 1.183 10.234 7.063 17 6-1.428-11.653-14.926-6.188-21-14 2.205-5.903 11.228-1.478 17-2 5.421-13.098-10.809-13.184-16-19 2.365-4.302 2.672-10.661 6-14-2.757-8.059.434-10.031 0-20 .441-2.892 2.108-4.559 5-5v-7c4.295-5.038 8.71-9.956 11-17 .169-2.503-1.536-3.13-3-4 3.033-6.264 6.6-10.622 11-16 6.265-7.657 13.912-17.853 20-27 3.926-5.899 8.301-13.441 15-18 1.02-1.314.98-3.686 2-5 12.372-10.628 22.267-23.733 34-35 5.167.167 4.62-5.38 10-5 5.751-9.249 15.46-14.54 22-23 4.426-1.574 7.605-4.395 11-7 13.56 6.567 28.187 10.869 50 12 19.431 1.008 40.748 4.591 55 0 3.85-1.24 7.33-6.127 11-6 4.879.17 8.133 7.416 13 11 1.161.855 3.729 1.214 5 2 1.618 1 2.564 2.179 4 3 3.496 2.001 7.498 2.912 9 4 2.538 1.839 3.658 5.095 6 7 3.31 2.693 7.237 3.567 10 6 1.071.943.53 2.716 2 4 .663.58 3.422.347 4 1 .9 1.017.048 3.082 1 4 6.02 5.8 13.45 10.12 19 16zm-150 28c-5.2 10.984 5.572 17.649 7 28-9.277 2.39-15.288 8.045-26 9-7.28-7.387-3.717-25.617-16-28-5.452 12.436 9.21 19.422 9 33-2.084 4.008-6.681 3.528-10 6-5.438 4.049-8.224 11.244-14 15-10.263 34.056 19.179 51.843 49 46 6.248 9.418 6.671 24.662 11 36-13.508 9.897-31.255-16.903-44-14-7.022 1.6-8.415 10.157-5 17 12.038 10.066 29.252 11.457 51 10 9.19 6.653.973 30.1 16 30 5.339-10.318-5.699-18.043-5-30 8.669-1.181 17.815-4.711 29-6 4.408 9.258 3.517 23.816 11 30 8.822-2.169 1.832-8.413 4-16-4.47-4.939-5.678-13.577-7-19 3.451-1.216 3.345-5.989 9-5 2.946-6.763 8.338-6.594 12-11 1.157-1.392 1.933-6.246 4-9 1.16-1.546 3.393-1.664 4-3 2.295-5.049 3.404-12.763 4-17 1.826-12.99-5.949-18.184-14-23-11.227-6.717-30.003-10.038-46-8-6.24-8.76-8.144-21.857-13-32 24.399-10.445 28.758 13.027 51 9 2.018-3.649 7.85-3.483 6-11-1.119-4.547-8.232-3.101-8-9-20.424-4.929-30.872-6.212-53-3-5.095-6.905-8.112-15.888-11-25zm-200 149c6.618 3.88 24.314 4.843 34 5v-5c-12.398-2.209-23.685-4-34-6zm5 6c-1.376-.043-2.196.471-3 1-.265 3.265 3.88 2.12 4 5 3.746.486 7.756.504 11 1 4.759.728 12.824 4.639 17 0-4.996-7.18-21.594-3.79-29-7zm57.999 24c8.23 2.959 13.547-11.091 10-17-8.44.56-10.45 7.55-10 17zm97 36c7.153.819 9.008-3.658 11-8-.309-2.358-3.473-1.86-3-5-6 1.29-11 5.63-8 13zm-60 4c4.737-2.534 7.514-10.921 4-16-7.44-1.18-12.08 13.98-4 16z" fill="none"/><path d="m325.58 11.688c-4.574 5.092-10.824 8.509-18 11 2.271 3.797 6.859.974 10 0 10.258-3.18 22.734-11.702 36-14 6.067-1.051 11.081-1.037 19-1 1.721.008 4.771-.358 6 0 9.046 2.633 15.726 14.593 9 25-12.57563 16.405996-40.72772 36.497895-49 50 20.8287-6.788331 42.83299-16.031548 67-15 8.187.427 19.036 2.838 18 12-13.25347 26.78764-65.11538 16.789778-84 20-3.986.319-7.389.055-9-2 3.5131 5.66807 13.50645 10.23214 19 13 20.553 14.447 40.773 29.226 56 49 9.314 2.019 16.998 5.669 25 9 3.549 8.829 1.548 17.075 8 23 1.069 3.736-2.483 2.85-2 6 1.748 2.918 4.738 4.595 7 7 .769 3.769-1.22 4.78-1 8 3.09 2.91 8.597 3.403 10 8-.1 5.9-4.745 7.255-7 11 30.56238 69.88337 6.47122 142.10125-19 178-25.41346 29.63143-44.45329 41.21475-76 54 9.4 12.266 19.512 23.822 24 41 8.12629-7.98297 19.36515-21.03745 28-21 14.93384 2.7601 13.80336 21.37395 12 31-6.03536 23.94564-21.71942 30.41598-40 43 6.604 11.861-3.355 21.09-8 28-16.671 1.59-26.694-11.005-35-21-29.43431-27.86654-61.07414-51.32527-89-81-10.822-1.912-25.722-4.853-36-4-11.14904 35.64706-51.18129 66.81548-80 76 3.133 8.149 13.369 9.496 16 19 .541 1.955.78271 5.32457-3 7-29.86403 4.86918-43.841498-15.91944-60-35-12.559-11.226-2.967-29.345 6-38 1.076-19.925 14.266571-28.26914 25-38 11.25726-15.727 4.78657-23.65219-7-33-19.737566-20.37749-45.635321-47.01517-51.515229-70.01015-25.48847-8.33476-43.7404439-61.65138-9-86 2.859311-22.79244 15.183417-39.95003 22.515229-58.98985-1.758-4.242-6.102-5.898-9-9-8.338-1.031-14.642 2.536-21 1-8.915805-2.72011-20.315761-21.03893-20-27 .437-4.891 5.553-8.7 8-13-34.69612-28.78738-25.6241383-57.83544 0-72-.146-7.277 5.025-17.544 8-25 16.2-8.312 27.385-26.371 53-22 10.246 8.088 27.404 9.262 40 15 1.408 2.592 3.383 4.617 5 7 2.847-1.869 8.71.159 11 2 .101 3.101-1.223 4.777-2 7-12.188-4.834-18.652.176-29 4-1.958-1.869-.309-3.663 0-6-4.276 1.492-15.638 9.063-24 4-6.461.81-10.667 7.768-17 3-4.954 4.046-6.266 11.734-17 10-4.35 5.983-4.326 16.341-12 19-17.507-2.958-35.015 9.731-28 25 4.381-4.953 4.366-14.3 16-12 .562 6.438 3.172 10.828 9 12-.599 9.918 9.085 11.498 6 21-1.121 2.879-7.319.681-8 4 3.884 3.783 13.236 2.097 14 9-7.023 2.647-10.309-5.084-19-2-4.464 1.584-7.171 7.88-7 12 .577 13.876 36.438 27.28 37 6 6.794-1.127 3.027 8.306 4 13 1.088 3.246 4.893 3.774 7 6 19.199017-29.24862 51.93636-55.93782 71-85 .504-4.616-3.476-7.821-7-12-5.413 1.587-11.579 2.421-19 2-.939-3.728-3.777-5.556-3-11 4.11-4.062 14.508-.694 17-4-1.672-4.995-10.01371-7.069286-8.53571-15.214286 11.85949.457861 24.42196 24.232246 25.53571 35.214286 22.929-10.071 39.852-26.148 65-34 14.203 8.433 33.994 9.842 55 12 12.1496 1.7888 53.61507 3.54971 60-7-36.88 9.68822-71.32951 5.62167-110-6-17.29573-20.808729-37.98981-39.133797-53-59-1.36-6.027-1.05446-7.610538 2-12 24.603-3.38 49.4-14.37 79-16 1.846 3.487 4.109 6.558 7 9 15.129-1.379 28.771-9.043 44-11 12.62-1.623 25.23-1.254 30 10.998zm-76 10c-3.255-3.079-7.488-5.178-11-8-12.33943 3.05446-56.13691 6.74999-57 15 16.43 1.282 35.219-2.667 51-4 12.646-1.068 25.591-.805 34 6 1.183 6.484.273 15.06 5 18 6.435-4.232 16.641-4.692 19-13 .366-13.638 16.45-16.876 21-23-16.62-.001-45.27 7.748-62 9zm117-5c-14.17158.539868-29.49105 4.40069-41 9-6.604 2.499-13.516 3.678-19 6-5.428-.095-12.019-1.352-10 6 8.397.397 10.93-5.07 20-4 1.952 3.381 5.023 5.644 7 9 15.28541-1.970031 39.65911-5.629221 52-12 2.676-1.445 6.132-3.931 7-7-.84-7.906-9.88-7.122-16-7zm-153 20c-9.909.483-20.366-4.056-27 2 20.9235 16.459495 45.57937 51.523153 64 50-9.887-7.78-15.9-19.433-25-28-1.296-5.966-5.104-9.106-4-15 .983-5.25 7.323-6.731 9-11-6.22.125-11.37 1.726-17 2zm20 14c7.404 3.912 23.157 1.98 30-1-1.689-2.311-2.591-5.409-2-10-12.28-1.004-19.51 2.593-28 11zm67-3c-10 4-40.30538 15.17579-58 19 6.562 8.105 17.403 11.93 18 26 24.165 1.728 42.819 2.801 62-4 12.567-13.433 25.524-26.475 38-40-14.983 2.816-32.124 5.526-47 1-11.98403 8.044388-12.74447 34.923913-25 34 4.79075-15.90725 9.12564-24.352091 17-36zm51 40c13.25257 5.565248 44.79384 5.073245 55-11-18.32-.282-42.84 1.802-55 11zm-314 17.002c.749-6.599 3.782-16.198 3-21-2.924 4.24-14.326 18.08-3 21zm289 1c-3.67-.127-7.15 4.76-11 6-14.252 4.591-35.569 1.008-55 0-21.813-1.131-36.44-5.433-50-12-3.395 2.605-6.574 5.426-11 7-47.50731 35.27693-75.1954 71.86074-103 113-8.34545 13.32276-20.261864 33.09495-22.484771 44.20178.681243 13.33333-1.631627 27.57442-7.515229 38.79822 5.191 5.816 21.421 5.902 16 19-5.772.522-14.795-3.903-17 2 6.074 7.812 19.572 2.347 21 14-6.766 1.063-12.928-4.817-17-6-10.805-3.139-23.604-2.394-22-15 9.406-2.664 16.894 1.366 26-3-10.048-6.222-31.603-.303-28-17 2.238-10.373 19.809-12.957 23-24-8.395 3.819-23.027 12.689-31 24-6.673 9.467-8.258 23.677-5 36 .385 1.455-.617 3.642 0 5 3.796 8.351 13.632 11.278 20 19 10.072.793 18.509 1.979 27 2-.608 4.059-3.068 6.265-2 12 1.954045 18.23881 13.706852 28.03046 29 39 82.4189 59.00349 215.15348 78.40963 288 16 23.27067-20.31824 37.99611-44.53185 47-73 12.1087-31.9349 9.43344-72.81916 1-104-1.445-4.63-.902-9.741-6-11-1.813 2.854-6.109 3.224-10 4-1.672-1.662-4.049-2.618-4-6 2.391-6.276 7.584-9.749 13-13 4.402.034 6.274 3.792 8-1-8.97-6.987-14.953 3.676-23 4-.309-11.642 11.532-11.135 15-19-12.38-6.62-18.422 14.568-30 12 2.222-15.151 24.301-15.646 25-29-10.497-.913-14.212 12.938-28 12-.239-1.427-1.646-1.687-2-3-.398-10.398 8.841-11.16 11-19-24.956-25.32564-55.46702-57.9548-85-74zm94 72c-.754 8.246-8.452 9.548-12 15 7.357-.755 17.981-6.603 19-17-3.296-3.038-5.785-6.881-13-6-1.44 6.11 2.84 6.5 6 8zm-28.51786 355.01786c8.26012-9.93596 19.92745-28.45582 9.625-38.41072-16.80886 7.71827-31.23973 36.15091-36.10714 51.39286 3.185.482 4.185 3.148 8 3 5.87387-5.97593 12.20878-10.07772 18.48214-15.98214zm-38.74383 42.21437c10.79 1.79 12.23862-6.49869 14.47462-13.26269-7.3-12.41-23.39462 3.65269-14.47462 13.26269z"/></g><path d="m90.847257 84.999665c-3.531111 2.399404-4.098679 2.990591-4.781185 4.136983-.572046.960752-.895831 2.228786-.773241 3.029337.116083.757662-.03427 1.762321-.330981 2.233832-.298077.471094-.665389 1.153089-.815972 1.515337-.15058.36182-.696351 1.336174-1.212828 2.163918-.532174.853557-1.371976 4.112958-1.938186 7.523068l-.961297 4.98536-4.790681.92672c-4.514207-.5051-9.75006 2.59401-9.157916 5.01133.37805 1.54317 2.387998 2.08456 3.908066 1.05259.823169-.55872 1.665862-.70714 2.949789-.51748.988602.14535 2.130183.0414 2.537233-.23709.40707-.27627.996827-.47625 1.310717-.44327.314071.031 3.089137-.73292 3.452189-.88549.607123-.25461.719201-.11853 1.394142 1.70069.666646 1.79634 1.064577 3.78928 1.14653 5.73909.02742.64428-2.577255 1.25588-4.091941 1.44009-4.724656.57522-8.239215 2.46958-7.929278 4.2753.365827 2.13127 4.161257 4.09698 5.78384 2.99542.347661-.23606.881094-.28863 1.185283-.11647.631001.35667 5.78744-.52058 6.633961-1.07858.310646-.20514 1.181329-.36697 1.9346-.35976 1.269863.01 1.403693.11236 1.834597 1.37709.284711.83705 1.908176 3.09654 4.194237 5.83786 3.092962 3.70897 4.036205 4.62641 5.522637 5.37264.985847.49481 2.294688 1.17814 2.907928 1.51843.6133.34018 1.49353.5216 1.95624.40409 1.87683-.47831 6.97646-.0206 10.76213.96177 4.41746 1.14825 5.19252 1.18547 6.48286.30926.70492-.47832 1.43395-.68861 1.75785-.50512 1.0648.60201 3.59874-.16081 6.04014-1.81892 1.30758-.88754 2.59336-1.5376 2.85738-1.44462.73006.25668 10.84823-6.72251 11.41045-7.87047 1.41887-2.89728 1.05682-5.1377-1.28485-7.94582-1.24213-1.48945-1.83668-1.89953-3.11947-2.15269-1.48091-.29276-1.73099-.20411-3.81148 1.34988-4.54314 3.39259-10.10435 7.10867-11.87808 7.93706-1.18842.55459-2.17028 1.29762-2.80425 2.12126-1.32667 1.72388-4.28001 2.78564-6.0301 2.16817-.6855-.24224-1.53403-.46698-1.88516-.50098-.35133-.031-1.85616-.64325-3.34455-1.35402-1.48839-.71128-2.95255-1.27618-3.25351-1.25628-.85995.0515-2.80467-1.05435-3.67781-2.10137-.4376-.52471-1.166457-1.1093-1.620194-1.29927-.607817-.25463-.770727-.5546-.616607-1.14104.22644-.86076 2.555491-2.37784 3.489771-2.27342.31613.031 1.07039-.27318 1.67628-.68448.65682-.44635 1.57048-.66592 2.26267-.54531.90749.15771 3.27183-.60201 4.86367-1.68222 1.3875-.9422 2.60266-1.45153 3.8113-1.59781 2.58775-.31337 4.56187-1.77181 4.45242-3.29025-.12796-1.77201-1.6613-2.40916-3.62867-1.50759-.87058.39893-2.382.61232-3.58059.50511-2.15314-.19276-7.68613.90302-10.66212 1.88396-2.265594.74633-6.670182 1.53936-6.91559 1.24505-.106315-.12781-.09251-.99888.03083-1.93736.127245-.97311-.06167-2.04807-.441344-2.50278-.669156-.802-.993059-1.18195-.93947-2.78759.02392-.68654.401123-1.0593 1.806279-1.78088.97763-.50202 2.030413-.89064 2.339603-.86384.309164.031.841104-.1402 1.181991-.37111.34093-.23091 1.418264-.51748 2.394201-.63603.97593-.11855 2.00071-.36903 2.27714-.55666.27626-.18761 1.35044-.29584 2.38698-.2412 1.03648.0515 5.16119-.91128 6.451-1.12475 0 0 1.10138.14225 2.34544-.38864.85115-.94529-.14967-2.48267-.14967-2.48267.0228-.65047.25592-.87519-.4033-2.11322-.73692-.88344-6.45624-.32471-8.36926.34944-1.04835.36905-2.26115.5948-2.69554.50202-.87914-.18863-3.876131.79169-5.570217 1.43678-.605075.22988-1.613749.32885-2.241514.21958-.935925-.16287-1.156634-.35976-1.227577-1.09526-.04797-.49276-.268143-1.11486-.490356-1.38113-.727309-.87208-1.137127-4.423737-.615801-5.213654.280242-.424717.577987-1.388141.660818-2.140858.08226-.752514.345709-1.501421.58461-1.663572.238778-.161832.482476-.773133.541319-1.357203.09596-.952491.551933-1.364424 4.410577-3.983987 2.491191-1.691205 4.505311-2.85069 4.783151-2.75276.26392.09278.97044-.163904 1.57005-.571106.59958-.407182 1.57018-.700972 2.15654-.652521.58644.05154 1.99012-.07216 3.11963-.258742 1.98869-.333992 2.1058-.292758 3.70165 1.302261.90599.906126 2.02849 1.728843 2.49384 1.828418.46498.103047.94141.480371 1.05793.846322.31762 1.003004 2.52618 1.561517 3.51593.88962.46613-.316476 1.06366-.498933 1.32734-.406157.26392.0928 1.48593-.514389 2.71595-1.34937 3.18859-2.16468 3.12724-2.49795-1.48433-8.027894-3.3731-4.044913-3.80154-4.436426-5.84558-5.342639-1.21299-.538098-3.33449-1.137429-4.71439-1.332361-2.3135-.326776-2.68601-.250493-4.78558.98136-1.39299.817457-2.69596 1.3069-3.35676 1.260099-.92257-.06185-2.3101.737051-9.510609 5.498193-1.949593 1.289272-3.455852 2.290321-4.632891 3.090151z"/></g></svg>
