<?xml version="1.0" encoding="UTF-8" standalone="no"?>
<!-- Created with Inkscape (http://www.inkscape.org/) -->

<svg
   xmlns:dc="http://purl.org/dc/elements/1.1/"
   xmlns:cc="http://creativecommons.org/ns#"
   xmlns:rdf="http://www.w3.org/1999/02/22-rdf-syntax-ns#"
   xmlns:svg="http://www.w3.org/2000/svg"
   xmlns="http://www.w3.org/2000/svg"
   xmlns:xlink="http://www.w3.org/1999/xlink"
   xmlns:sodipodi="http://sodipodi.sourceforge.net/DTD/sodipodi-0.dtd"
   xmlns:inkscape="http://www.inkscape.org/namespaces/inkscape"
   width="765.75"
   height="299.07999"
   id="svg3029"
   version="1.1"
   inkscape:version="0.48.3.1 r9886"
   sodipodi:docname="Logo-HG-Vecto-noir.svg">
  <defs
     id="defs3031">
    <linearGradient
       id="linearGradient3882">
      <stop
         style="stop-color:#b9b9b9;stop-opacity:1;"
         offset="0"
         id="stop3884" />
      <stop
         style="stop-color:#ffffff;stop-opacity:1;"
         offset="1"
         id="stop3886" />
    </linearGradient>
    <linearGradient
       inkscape:collect="always"
       xlink:href="#linearGradient9950"
       id="linearGradient9984"
       x1="500"
       y1="372.77158"
       x2="500"
       y2="555.20514"
       gradientUnits="userSpaceOnUse" />
    <linearGradient
       id="linearGradient9950">
      <stop
         id="stop9958"
         offset="0"
         style="stop-color:#ff4300;stop-opacity:1;" />
      <stop
         style="stop-color:#ad0000;stop-opacity:1;"
         offset="1"
         id="stop9954" />
    </linearGradient>
    <linearGradient
       gradientTransform="translate(0.75000024,-0.794063)"
       y2="555.20514"
       x2="500"
       y1="372.77158"
       x1="500"
       gradientUnits="userSpaceOnUse"
       id="linearGradient3027"
       xlink:href="#linearGradient9950"
       inkscape:collect="always" />
    <linearGradient
       inkscape:collect="always"
       xlink:href="#linearGradient3882"
       id="linearGradient3888"
       x1="498.56201"
       y1="538.54523"
       x2="498.56201"
       y2="467.35513"
       gradientUnits="userSpaceOnUse" />
    <filter
       id="filter4610"
       inkscape:label="Drop Shadow"
       color-interpolation-filters="sRGB">
      <feFlood
         id="feFlood4612"
         flood-opacity="0.55"
         flood-color="rgb(0,0,0)"
         result="flood" />
      <feComposite
         id="feComposite4614"
         in2="SourceGraphic"
         in="flood"
         operator="in"
         result="composite1" />
      <feGaussianBlur
         id="feGaussianBlur4616"
         stdDeviation="5"
         result="blur" />
      <feOffset
         id="feOffset4618"
         dx="0"
         dy="3"
         result="offset" />
      <feComposite
         id="feComposite4620"
         in2="offset"
         in="SourceGraphic"
         operator="over"
         result="composite2" />
    </filter>
    <linearGradient
       inkscape:collect="always"
       xlink:href="#linearGradient3882"
       id="linearGradient4622"
       gradientUnits="userSpaceOnUse"
       x1="498.56201"
       y1="538.54523"
       x2="498.56201"
       y2="467.35513" />
    <linearGradient
       inkscape:collect="always"
       xlink:href="#linearGradient3882"
       id="linearGradient4624"
       gradientUnits="userSpaceOnUse"
       x1="498.56201"
       y1="538.54523"
       x2="498.56201"
       y2="467.35513" />
    <linearGradient
       inkscape:collect="always"
       xlink:href="#linearGradient3882"
       id="linearGradient4626"
       gradientUnits="userSpaceOnUse"
       x1="498.56201"
       y1="538.54523"
       x2="498.56201"
       y2="467.35513" />
    <linearGradient
       inkscape:collect="always"
       xlink:href="#linearGradient3882"
       id="linearGradient4628"
       gradientUnits="userSpaceOnUse"
       x1="498.56201"
       y1="538.54523"
       x2="498.56201"
       y2="467.35513" />
    <linearGradient
       inkscape:collect="always"
       xlink:href="#linearGradient3882"
       id="linearGradient4630"
       gradientUnits="userSpaceOnUse"
       x1="498.56201"
       y1="538.54523"
       x2="498.56201"
       y2="467.35513" />
    <linearGradient
       inkscape:collect="always"
       xlink:href="#linearGradient3882"
       id="linearGradient4632"
       gradientUnits="userSpaceOnUse"
       x1="498.56201"
       y1="538.54523"
       x2="498.56201"
       y2="467.35513" />
    <linearGradient
       inkscape:collect="always"
       xlink:href="#linearGradient3882"
       id="linearGradient4634"
       gradientUnits="userSpaceOnUse"
       x1="498.56201"
       y1="538.54523"
       x2="498.56201"
       y2="467.35513" />
    <linearGradient
       inkscape:collect="always"
       xlink:href="#linearGradient3882"
       id="linearGradient4636"
       gradientUnits="userSpaceOnUse"
       x1="498.56201"
       y1="538.54523"
       x2="498.56201"
       y2="467.35513" />
  </defs>
  <sodipodi:namedview
     id="base"
     pagecolor="#ffffff"
     bordercolor="#666666"
     borderopacity="1.0"
     inkscape:pageopacity="0.0"
     inkscape:pageshadow="2"
     inkscape:zoom="1"
     inkscape:cx="476.7372"
     inkscape:cy="120.84237"
     inkscape:document-units="px"
     inkscape:current-layer="layer1"
     showgrid="false"
     showguides="true"
     inkscape:guide-bbox="true"
     inkscape:window-width="1920"
     inkscape:window-height="1018"
     inkscape:window-x="1358"
     inkscape:window-y="-8"
     inkscape:window-maximized="1"
     height="500px"
     fit-margin-top="30"
     fit-margin-left="0"
     fit-margin-right="0"
     fit-margin-bottom="10">
    <sodipodi:guide
       orientation="1,0"
       position="382.87499,-97.688712"
       id="guide3054" />
    <sodipodi:guide
       orientation="0,1"
       position="454.30356,73.739871"
       id="guide3056" />
  </sodipodi:namedview>
  <metadata
     id="metadata3034">
    <rdf:RDF>
      <cc:Work
         rdf:about="">
        <dc:format>image/svg+xml</dc:format>
        <dc:type
           rdf:resource="http://purl.org/dc/dcmitype/StillImage" />
        <dc:title></dc:title>
      </cc:Work>
    </rdf:RDF>
  </metadata>
  <g
     inkscape:label="Calque 1"
     inkscape:groupmode="layer"
     id="layer1"
     transform="translate(-117.12501,-327.02218)">
    <g
       id="g4466"
       style="filter:url(#filter4610)">
      <path
         id="path4464"
         style="font-size:250px;font-style:normal;font-variant:normal;font-weight:normal;font-stretch:normal;text-align:center;line-height:125%;letter-spacing:0px;word-spacing:0px;writing-mode:lr-tb;text-anchor:middle;opacity:0.98999999;fill:#000000;fill-opacity:1;stroke:none;font-family:Grim Ghost;-inkscape-font-specification:Grim Ghost"
         d="m 785.06251,378.61218 c -2.16679,1.7e-4 -3.87636,0.45711 -5.125,1.375 -1.24872,0.91825 -2.54243,2.04257 -3.875,3.375 -5.33552,4.83212 -10.12545,9.29089 -14.375,13.375 -4.24959,4.08442 -7.83304,8.37635 -10.75,12.875 -2.91698,4.49894 -5.12455,9.49934 -6.625,15 -1.50045,5.50092 -2.25,12.08512 -2.25,19.75 0,6.0019 0.3337,10.9176 1,14.75 0.6663,3.8326 1.83171,7.04127 3.5,9.625 1.66829,2.58391 3.95802,4.83256 6.875,6.75 2.91696,1.9176 6.62872,4.12772 11.125,6.625 1.16981,0.83422 2.75107,1.83277 4.75,3 1.99887,1.16737 3.99852,2.33531 6,3.5 2.00141,1.16482 3.70844,2.207 5.125,3.125 1.41648,0.91814 2.12496,1.45722 2.125,1.625 l 2.25,4.5 0,26.5 c -0.33065,3e-5 -1.08274,0.12581 -2.25,0.375 -1.16734,0.24926 -1.91944,0.29288 -2.25,0.125 -1.33264,-0.16273 -3.45807,-0.66582 -6.375,-1.5 -2.91701,-0.83411 -6.04098,-1.75051 -9.375,-2.75 -3.33407,-0.99941 -6.49912,-1.91582 -9.5,-2.75 -3.00091,-0.83411 -5.08526,-1.5015 -6.25,-2 -0.83416,0.99695 -1.45794,2.20852 -1.875,3.625 -0.41708,1.41656 -0.66608,2.91567 -0.75,4.5 -0.0839,1.58441 -0.0839,3.0835 0,4.5 0.0839,1.41655 0.125,2.45873 0.125,3.125 l 0,2.25 c 0,1.00201 0.0411,2.12635 0.125,3.375 0.0839,1.2487 0.125,2.37302 0.125,3.375 l 0,2.25 c 1.9989,3.00091 4.70702,5.37533 8.125,7.125 3.41795,1.74968 7.12463,3.12556 11.125,4.125 4.00032,0.99946 8.00217,1.66686 12,2 3.99777,0.33316 7.49906,0.5 10.5,0.5 6.66804,0 11.99959,-1.54273 16,-4.625 4.00027,-3.08227 7.08318,-6.99942 9.25,-11.75 2.16667,-4.75055 3.54254,-9.95888 4.125,-15.625 0.58229,-5.66606 0.87492,-11.16447 0.875,-16.5 -8e-5,-5.83389 -0.208,-11.75069 -0.625,-17.75 -0.41715,-5.99917 -1.70833,-11.74659 -3.875,-17.25 -0.99698,-0.33053 -2.66547,-1.00046 -5,-2 -2.33466,-0.99936 -4.83486,-2.12369 -7.5,-3.375 -2.66526,-1.25113 -5.16547,-2.41653 -7.5,-3.5 -2.33465,-1.08328 -3.9159,-1.87645 -4.75,-2.375 -3.1637,-1.6682 -6.167,-4.00155 -9,-7 -2.83309,-2.99825 -4.25003,-6.91286 -4.25,-11.75 -3e-5,-1.6631 0.12574,-3.99898 0.375,-7 0.24919,-3.00077 0.74974,-5.91683 1.5,-8.75 0.75018,-2.83292 1.91813,-5.33311 3.5,-7.5 1.58178,-2.16661 3.62251,-3.24986 6.125,-3.25 0.33056,1.4e-4 1.08265,0.0412 2.25,0.125 1.16724,0.0841 1.83211,0.21238 2,0.375 l 24.75,13.5 c 1.33252,-4.50121 2.08208,-8.29259 2.25,-11.375 0.16777,-3.08213 0.24992,-6.79136 0.25,-11.125 -8e-5,-0.834 -0.0411,-2.3331 -0.125,-4.5 -0.084,-2.16659 -0.12508,-3.6657 -0.125,-4.5 -1.00207,-1.50029 -2.87595,-3.41779 -5.625,-5.75 -2.74919,-2.33189 -5.79103,-4.58308 -9.125,-6.75 -3.33411,-2.16657 -6.70963,-4.04045 -10.125,-5.625 -3.41548,-1.58419 -6.37261,-2.37483 -8.875,-2.375 z m -75.03125,1.59375 c -1.73343,1.4e-4 -3.09484,0.35944 -4.09375,1.09375 -0.99897,0.7346 -2.0277,1.65281 -3.09375,2.71875 -4.26842,3.86569 -8.10036,7.42022 -11.5,10.6875 -3.39967,3.26754 -6.26019,6.71358 -8.59375,10.3125 -2.33359,3.59916 -4.11214,7.59948 -5.3125,12 -1.20036,4.40074 -1.8125,9.64935 -1.8125,15.78125 0,4.80152 0.27946,8.74658 0.8125,11.8125 0.53303,3.06608 1.47786,5.62051 2.8125,7.6875 1.33463,2.06712 3.16641,3.8723 5.5,5.40625 2.33356,1.53408 5.27798,3.31468 8.875,5.3125 0.93586,0.66738 2.21336,1.47247 3.8125,2.40625 1.5991,0.9339 3.21132,1.8495 4.8125,2.78125 1.60113,0.93185 2.9605,1.76559 4.09375,2.5 1.13319,0.7345 1.68747,1.17827 1.6875,1.3125 l 1.8125,3.59375 0,21.1875 c -0.26452,3e-5 -0.8787,0.11313 -1.8125,0.3125 -0.93387,0.19941 -1.51679,0.22801 -1.78125,0.0937 -1.06611,-0.13018 -2.76021,-0.52016 -5.09375,-1.1875 -2.33361,-0.66729 -4.83279,-1.41916 -7.5,-2.21875 -2.66726,-0.79953 -5.2243,-1.52015 -7.625,-2.1875 -2.40073,-0.66728 -4.06821,-1.19495 -5,-1.59375 -0.66733,0.79756 -1.16634,1.74181 -1.5,2.875 -0.33366,1.13325 -0.52662,2.35753 -0.59375,3.625 -0.0671,1.26752 -0.0671,2.46055 0,3.59375 0.0671,1.13324 0.0937,1.96698 0.0937,2.5 l 0,1.78125 c 0,0.80161 0.0266,1.71983 0.0937,2.71875 0.0671,0.99896 0.125,1.88592 0.125,2.6875 l 0,1.8125 c 1.59912,2.40072 3.76561,4.28777 6.5,5.6875 2.73436,1.39974 5.70596,2.51294 8.90625,3.3125 3.20026,0.79956 6.39548,1.32723 9.59375,1.59375 3.19821,0.26652 5.97425,0.40625 8.375,0.40625 5.33443,0 9.61218,-1.22168 12.8125,-3.6875 3.20022,-2.46581 5.67279,-5.60579 7.40625,-9.40625 1.73333,-3.80044 2.84653,-7.96711 3.3125,-12.5 0.46583,-4.53285 0.68744,-8.95032 0.6875,-13.21875 -6e-5,-4.66711 -0.1664,-9.38805 -0.5,-14.1875 -0.33372,-4.79934 -1.36041,-9.40977 -3.09375,-13.8125 -0.79758,-0.26442 -2.13238,-0.79412 -4,-1.59375 -1.86773,-0.79949 -3.86789,-1.68646 -6,-2.6875 -2.13221,-1.00091 -4.13237,-1.94572 -6,-2.8125 -1.86772,-0.86662 -3.14522,-1.50741 -3.8125,-1.90625 -2.53096,-1.33456 -4.92109,-3.19499 -7.1875,-5.59375 -2.26646,-2.39859 -3.40628,-5.53654 -3.40625,-9.40625 -3e-5,-1.33048 0.11313,-3.19294 0.3125,-5.59375 0.19935,-2.40061 0.58729,-4.73346 1.1875,-7 0.60015,-2.26633 1.51576,-4.2665 2.78125,-6 1.26543,-1.73329 2.90426,-2.59364 4.90625,-2.59375 0.26445,1.1e-4 0.87862,0.0267 1.8125,0.0937 0.9338,0.0673 1.45943,0.1824 1.59375,0.3125 l 19.8126,10.78135 c 1.06602,-3.60097 1.64691,-6.62782 1.78125,-9.09375 0.13422,-2.46571 0.21869,-5.43934 0.21875,-8.90625 -6e-5,-0.6672 -0.0266,-1.86023 -0.0937,-3.59375 -0.0672,-1.73328 -0.12506,-2.9263 -0.125,-3.59375 -0.80165,-1.20023 -2.30076,-2.72798 -4.5,-4.59375 -2.19936,-1.8655 -4.61407,-3.67272 -7.28125,-5.40625 -2.66729,-1.73327 -5.36145,-3.23236 -8.09375,-4.5 -2.73238,-1.26735 -5.12308,-1.90611 -7.125,-1.90625 z m -378.625,0.21875 c -7.73117,0.53319 -15.62073,1.00299 -23.6875,1.46875 -8.06684,0.46604 -15.79266,0.57713 -23.125,0.3125 l -3.59375,1.8125 c -10e-6,2.26657 0.0267,5.65476 0.0937,10.1875 0.0671,4.533 0.125,9.81083 0.125,15.8125 l 0,18.1875 0,18.1875 c 0,5.86758 -0.0579,11.09219 -0.125,15.625 -0.0671,4.53294 -0.0938,7.92111 -0.0937,10.1875 -10e-6,1.20041 -0.0533,3.33826 -0.1875,6.40625 -0.13428,3.06807 -0.30062,6.34574 -0.5,9.8125 -0.19938,3.46683 -0.39437,6.71527 -0.59375,9.78125 -0.19939,3.06602 -0.36573,5.20591 -0.5,6.40625 -0.26856,0.26451 -0.65911,0.82082 -1.125,1.6875 -0.46591,0.86671 -0.6875,1.50343 -0.6875,1.90625 0,0.66733 -0.0266,1.66742 -0.0937,3 -0.0671,1.33262 -0.18026,2.77849 -0.3125,4.3125 -0.13224,1.53402 -0.21411,2.94865 -0.28125,4.28125 -0.0671,1.3326 -0.125,2.27946 -0.125,2.8125 l 49.40625,0 c -5e-5,0 0.11303,-0.63876 0.3125,-1.90625 0.19933,-1.2675 0.39432,-2.76659 0.59375,-4.5 0.19933,-1.73339 0.36567,-3.51399 0.5,-5.3125 0.13423,-1.79849 0.27599,-3.26838 0.40625,-4.46875 -5e-5,-0.26854 0.0265,-0.99176 0.0937,-2.125 0.0671,-1.1332 0.0937,-2.02016 0.0937,-2.6875 -6e-5,-0.39874 0.0265,-0.8998 0.0937,-1.5 0.0671,-0.60016 0.0405,-1.2389 -0.0937,-1.90625 -0.13433,-0.66729 -0.32728,-1.22158 -0.59375,-1.6875 -0.26657,-0.46588 -0.74305,-0.77195 -1.40625,-0.90625 -0.66737,2e-5 -1.72067,0.0266 -3.1875,0.0937 -1.46692,0.0672 -3.13237,0.0938 -5,0.0937 -1.73344,3e-5 -3.34566,-0.0265 -4.8125,-0.0937 -1.46692,-0.0671 -2.52021,-0.0937 -3.1875,-0.0937 -0.79756,-0.13018 -1.9128,-0.41168 -3.3125,-0.8125 -1.39977,-0.40077 -2.09378,-0.73142 -2.09375,-1 l 0,-36 c -3e-5,7e-5 0.64076,-0.0818 1.90625,-0.28125 1.26543,-0.19931 2.76657,-0.3943 4.5,-0.59375 1.73336,-0.19932 3.48068,-0.36566 5.28125,-0.5 1.8005,-0.13421 3.29959,-0.27191 4.5,-0.40625 0.66727,6e-5 1.89156,-0.0865 3.625,-0.21875 1.73335,-0.13217 2.93045,-0.18743 3.59375,-0.1875 l 0,-22.40625 c -0.6633,9e-5 -1.66542,-0.0265 -3,-0.0937 -1.33469,-0.067 -2.78057,-0.15152 -4.3125,-0.21875 -1.53203,-0.067 -2.94665,-0.12027 -4.28125,-0.1875 -1.33467,-0.067 -2.2795,-0.0937 -2.8125,-0.0937 -0.26453,9e-5 -0.82084,-0.0864 -1.6875,-0.21875 -0.86673,-0.13215 -1.81156,-0.32714 -2.8125,-0.59375 -1.00101,-0.26643 -1.97245,-0.62573 -2.90625,-1.09375 -0.93387,-0.46785 -1.46357,-1.02416 -1.59375,-1.6875 l 0,-1.625 c -3e-5,-0.66315 -0.0266,-1.44106 -0.0937,-2.375 -0.0672,-0.93374 -0.0938,-1.73883 -0.0937,-2.40625 l 0,-1.59375 c -3e-5,-0.26845 -0.0579,-1.21328 -0.125,-2.8125 -0.0672,-1.59902 0.0194,-3.31972 0.21875,-5.1875 0.19935,-1.86756 0.55865,-3.5929 1.09375,-5.125 0.53505,-1.53186 1.39743,-2.28113 2.59375,-2.28125 l 23.40625,0 0,-25.1875 z m 341,0 c -7.73117,0.53319 -15.62073,1.00299 -23.6875,1.46875 -8.06684,0.46604 -15.76141,0.57713 -23.09375,0.3125 l -3.59375,1.8125 c 0,2.26657 0.0266,5.65476 0.0937,10.1875 0.0671,4.533 0.0937,9.81083 0.0937,15.8125 l 0,18.1875 0,18.1875 c -10e-6,5.86758 -0.0266,11.09219 -0.0937,15.625 -0.0671,4.53294 -0.0937,7.92111 -0.0937,10.1875 0,1.20041 -0.0844,3.33826 -0.21875,6.40625 -0.13429,3.06807 -0.30063,6.34574 -0.5,9.8125 -0.19939,3.46683 -0.39437,6.71527 -0.59375,9.78125 -0.19938,3.06602 -0.36572,5.20591 -0.5,6.40625 -0.26855,0.26451 -0.62785,0.82082 -1.09375,1.6875 -0.4659,0.86671 -0.71875,1.50343 -0.71875,1.90625 0,0.66733 -0.0266,1.66742 -0.0937,3 -0.0671,1.33262 -0.14901,2.77849 -0.28125,4.3125 -0.13225,1.53402 -0.24537,2.94865 -0.3125,4.28125 -0.0671,1.3326 -0.0937,2.27946 -0.0937,2.8125 l 49.40625,0 c -5e-5,0 0.0818,-0.63876 0.28125,-1.90625 0.19934,-1.2675 0.39432,-2.76659 0.59375,-4.5 0.19933,-1.73339 0.36567,-3.51399 0.5,-5.3125 0.13422,-1.79849 0.27599,-3.26838 0.40625,-4.46875 -6e-5,-0.26854 0.0266,-0.99176 0.0937,-2.125 0.0671,-1.1332 0.12495,-2.02016 0.125,-2.6875 -5e-5,-0.39874 0.0265,-0.8998 0.0937,-1.5 0.0671,-0.60016 0.0405,-1.2389 -0.0937,-1.90625 -0.13433,-0.66729 -0.35854,-1.22158 -0.625,-1.6875 -0.26658,-0.46588 -0.7118,-0.77195 -1.375,-0.90625 -0.66736,2e-5 -1.75192,0.0266 -3.21875,0.0937 -1.46693,0.0672 -3.13237,0.0938 -5,0.0937 -1.73344,3e-5 -3.31441,-0.0265 -4.78125,-0.0937 -1.46691,-0.0671 -2.55147,-0.0937 -3.21875,-0.0937 -0.79756,-0.13018 -1.88154,-0.41168 -3.28125,-0.8125 -1.39977,-0.40077 -2.12503,-0.73142 -2.125,-1 l 0,-36 c -3e-5,7e-5 0.64076,-0.0818 1.90625,-0.28125 1.26543,-0.19931 2.76656,-0.3943 4.5,-0.59375 1.73336,-0.19932 3.51192,-0.36566 5.3125,-0.5 1.80049,-0.13421 3.2996,-0.27191 4.5,-0.40625 0.66727,6e-5 1.8603,-0.0865 3.59375,-0.21875 1.73334,-0.13217 2.93045,-0.18743 3.59375,-0.1875 l 0,-22.40625 c -0.6633,9e-5 -1.66542,-0.0265 -3,-0.0937 -1.33468,-0.067 -2.74931,-0.15152 -4.28125,-0.21875 -1.53202,-0.067 -2.97791,-0.12027 -4.3125,-0.1875 -1.33468,-0.067 -2.2795,-0.0937 -2.8125,-0.0937 -0.26452,9e-5 -0.82084,-0.0864 -1.6875,-0.21875 -0.86674,-0.13215 -1.81156,-0.32714 -2.8125,-0.59375 -1.00101,-0.26643 -1.94119,-0.62573 -2.875,-1.09375 -0.93387,-0.46785 -1.49482,-1.02416 -1.625,-1.6875 l 0,-1.625 c -3e-5,-0.66315 -0.0266,-1.44106 -0.0937,-2.375 -0.0672,-0.93374 -0.0938,-1.73883 -0.0937,-2.40625 l 0,-1.59375 c -2e-5,-0.26845 -0.0267,-1.21328 -0.0937,-2.8125 -0.0672,-1.59902 -0.0119,-3.31972 0.1875,-5.1875 0.19935,-1.86756 0.55864,-3.5929 1.09375,-5.125 0.53504,-1.53186 1.42868,-2.28113 2.625,-2.28125 l 23.375,0 0,-25.1875 z m -491.46875,0.1875 c 0,14.66894 0.29008,29.29283 0.875,43.875 0.58492,14.58243 1.25232,29.16524 2,43.75 0.74768,14.58493 1.45615,29.20882 2.125,43.875 0.66883,14.66627 0.99999,29.33632 1,44 l 21.25,0 4.5,-4.5 2.75,-68 c 0.49842,-0.16777 1.54059,-0.33208 3.125,-0.5 1.58433,-0.16777 3.37605,-0.33462 5.375,-0.5 1.99885,-0.16523 4.03958,-0.3757 6.125,-0.625 2.08532,-0.24915 3.79235,-0.45708 5.125,-0.625 0.83409,8e-5 1.99949,8e-5 3.5,0 1.66314,8e-5 3.0801,-0.0821 4.25,-0.25 l 0,77.25 31.25,0 c -10e-5,-13.16324 -0.74965,-25.95686 -2.25,-38.375 -1.50054,-12.41806 -2.5278,-25.12445 -3.03125,-38.125 l 0,-36 c -9e-5,-1.16973 -0.0535,-3.37477 -0.21875,-6.625 -0.16539,-3.25001 -0.37587,-6.6666 -0.625,-10.25 -0.24932,-3.58314 -0.49832,-6.95867 -0.75,-10.125 -0.25186,-3.16606 -0.46232,-5.41726 -0.625,-6.75 0.99682,-1.66815 1.74891,-3.83465 2.25,-6.5 0.50091,-2.66504 0.83461,-5.37318 1,-8.125 0.16519,-2.75151 0.2063,-5.2517 0.125,-7.5 -0.0815,-2.24796 -0.12509,-3.87284 -0.125,-4.875 l -25.78125,0 c -0.33067,1.7e-4 -0.59459,1.29135 -0.84375,3.875 -0.24929,2.58399 -0.49829,6.04167 -0.75,10.375 -0.25183,4.33365 -0.4187,9.24936 -0.5,14.75 -0.0815,5.50093 -0.12506,11.08403 -0.125,16.75 l 0,22 c -2.8382,1.1e-4 -6.83496,-0.0846 -12,-0.25 -5.16515,-0.1652 -9.9987,-0.4142 -14.5,-0.75 0.16781,-2.33448 0.291,-4.54206 0.375,-6.625 0.0839,-2.08271 0.12496,-3.37644 0.125,-3.875 l 0,-60.75 -35,0 z m 318.21875,1.59375 c -0.13021,1.4e-4 -0.29859,0.41933 -0.5,1.21875 -0.20142,0.7997 -0.39438,1.76853 -0.59375,2.96875 -0.19939,1.20049 -0.36776,2.42478 -0.5,3.625 -0.13226,1.20049 -0.21876,2.2026 -0.21875,3 -10e-6,0.53317 -0.0267,1.39352 -0.0937,2.59375 -0.0671,1.20048 -0.1204,2.42013 -0.1875,3.6875 -0.0671,1.26762 -0.15165,2.51851 -0.21875,3.71875 -0.0671,1.20048 -0.0938,2.06083 -0.0937,2.59375 l 20.40625,0 0,68.40625 c -0.66734,2.26648 -1.16637,4.54147 -1.5,6.875 -0.33368,2.33362 -0.50002,4.86202 -0.5,7.53125 l 0,14.375 0,3.625 c -2e-5,1.73341 0.0267,3.50937 0.0937,5.375 0.0671,1.86565 0.0937,3.67286 0.0937,5.40625 l 0,3.59375 c 0.39874,0.13428 1.20587,0.30062 2.40625,0.5 1.20034,0.19938 2.47988,0.39437 3.8125,0.59375 1.33258,0.19938 2.58086,0.36573 3.78125,0.5 1.20033,0.13432 2.09193,0.21875 2.625,0.21875 0.39873,0 1.09274,-0.0845 2.09375,-0.21875 1.00094,-0.13427 2.08085,-0.30062 3.28125,-0.5 1.20032,-0.19938 2.31352,-0.39437 3.3125,-0.59375 0.9989,-0.19938 1.69494,-0.36572 2.09375,-0.5 0.13423,-0.53303 0.29854,-1.55973 0.5,-3.09375 0.20137,-1.53401 0.39433,-3.17284 0.59375,-4.90625 0.19934,-1.73338 0.36771,-3.37425 0.5,-4.90625 0.13217,-1.53196 0.2187,-2.61391 0.21875,-3.28125 -5e-5,-2.26642 0.0266,-6.1004 0.0937,-11.5 0.0671,-5.39954 0.0937,-11.17639 0.0937,-17.3125 -4e-5,-6.13194 -0.0267,-11.88162 -0.0937,-17.28125 -0.0672,-5.39951 -0.0938,-9.23349 -0.0937,-11.5 l 1.78125,-3.59375 c 0,-0.80151 -0.0287,-2.24536 -0.0937,-4.3125 -0.0652,-2.06697 -0.0938,-4.23347 -0.0937,-6.5 0,-2.26635 0.0285,-4.43489 0.0937,-6.5 0.065,-2.06493 0.0937,-3.51081 0.0937,-4.3125 -5e-5,-1.20026 0.0844,-2.75461 0.21875,-4.6875 0.13423,-1.93267 0.30057,-3.79311 0.5,-5.59375 0.19933,-1.80043 0.39432,-3.38603 0.59375,-4.71875 0.19933,-1.33248 0.36567,-1.99988 0.5,-2 l 12.59375,0 0,-22.59375 -57.59375,0 z m 69.03125,0 -3.59375,1.8125 c -10e-6,2.26657 0.0267,5.65476 0.0937,10.1875 0.0671,4.533 0.125,9.81083 0.125,15.8125 l 0,18.1875 0,18.1875 c 0,5.86758 -0.0579,11.09219 -0.125,15.625 -0.0671,4.53294 -0.0938,7.92111 -0.0937,10.1875 -10e-6,1.20041 -0.0532,3.33826 -0.1875,6.40625 -0.13428,3.06807 -0.30062,6.34574 -0.5,9.8125 -0.19938,3.46683 -0.39437,6.71527 -0.59375,9.78125 -0.19939,3.06602 -0.36573,5.20591 -0.5,6.40625 -0.26856,0.26451 -0.65911,0.82082 -1.125,1.6875 -0.46591,0.86671 -0.6875,1.50343 -0.6875,1.90625 0,0.66733 -0.0266,1.66742 -0.0937,3 -0.0671,1.33262 -0.18026,2.77849 -0.3125,4.3125 -0.13224,1.53402 -0.21411,2.94865 -0.28125,4.28125 -0.0671,1.3326 -0.125,2.27946 -0.125,2.8125 l 52.40625,-0.8125 c -5e-5,0 0.11302,-0.58089 0.3125,-1.78125 0.19932,-1.20035 0.39228,-2.67285 0.59375,-4.40625 0.20136,-1.73339 0.3677,-3.5406 0.5,-5.40625 0.13219,-1.86563 0.27192,-3.39338 0.40625,-4.59375 -5e-5,-0.26854 0.0265,-0.96051 0.0937,-2.09375 0.0671,-1.1332 0.0937,-2.05141 0.0937,-2.71875 -6e-5,-0.39874 0.0266,-0.8998 0.0937,-1.5 0.0671,-0.60016 0.0671,-1.2389 0,-1.90625 -0.0672,-0.66729 -0.26015,-1.22158 -0.59375,-1.6875 -0.33371,-0.46588 -0.83273,-0.77195 -1.5,-0.90625 -0.66737,2e-5 -2.22173,0.16637 -4.6875,0.5 -2.46587,0.33369 -4.63237,0.50003 -6.5,0.5 -1.73344,3e-5 -3.34566,-0.0265 -4.8125,-0.0937 -1.46692,-0.0671 -2.52021,-0.0937 -3.1875,-0.0937 -0.79756,-0.13018 -1.9128,-0.41168 -3.3125,-0.8125 -1.39977,-0.40077 -2.09378,-0.73142 -2.09375,-1 l 0,-64.78125 0,-1.625 c -3e-5,-0.66315 -0.0266,-1.44106 -0.0937,-2.375 -0.0672,-0.93374 -0.0938,-1.73883 -0.0937,-2.40625 l 0,-1.59375 c -3e-5,-0.13418 0.19496,-1.16086 0.59375,-3.09375 0.39874,-1.93267 0.81329,-4.35203 1.28125,-7.21875 0.46791,-2.86651 0.94032,-5.89335 1.40625,-9.09375 0.46587,-3.20015 0.80059,-6.20039 1,-9 0.19935,-2.79935 0.19935,-5.13219 0,-7 -0.19941,-1.86754 -0.7025,-2.81236 -1.5,-2.8125 l -22.40625,-0.59385 z m -169.15625,0.8125 -28,0.375 c -0.13432,1.4e-4 -0.41378,0.72336 -0.8125,2.125 -0.3988,1.40191 -0.73148,2.48386 -1,3.28125 -0.13431,0.40297 -0.30065,1.04171 -0.5,1.90625 -0.19941,0.86479 -0.3944,1.75379 -0.59375,2.6875 -0.19942,0.93397 -0.36576,1.85217 -0.5,2.71875 -0.13432,0.86682 -0.18753,1.41907 -0.1875,1.6875 l -7.21875,13.59375 c -0.39879,1.86778 -0.7069,3.7016 -0.90625,5.5 -0.19941,1.7986 -0.39439,3.43947 -0.59375,4.90625 -0.1994,1.46698 -0.33915,2.66001 -0.40625,3.59375 -0.0672,0.93394 -0.0938,1.49081 -0.0937,1.625 -1.59915,6.93368 -3.01378,13.014 -4.28125,18.28125 -1.26752,5.2674 -2.51841,10.07486 -3.71875,14.40625 -1.20038,4.33152 -2.3934,8.47157 -3.59375,12.40625 -1.20037,3.93478 -2.3934,8.10144 -3.59375,12.5 -1.20037,4.39864 -2.50652,9.25931 -3.90625,14.59375 -1.39974,5.33449 -2.95411,11.61443 -4.6875,18.8125 l 30.375,4.59375 1.81245,-15.40625 c -3e-5,-0.53302 0.1397,-1.39337 0.40625,-2.59375 0.26649,-1.20034 0.6012,-2.72605 1,-4.59375 1.86764,-0.26446 4.06075,-0.54595 6.59375,-0.8125 2.53292,-0.26649 4.6728,-0.54392 6.40625,-0.8125 0.53299,2e-5 1.92101,2e-5 4.1875,0 2.27045,2e-5 4.35508,-0.0532 6.21875,-0.1875 0.26849,2.79951 0.51467,5.60476 0.78125,8.40625 0.26646,2.80153 0.60117,5.32732 1,7.59375 0.3987,2.26645 0.87112,4.10027 1.40625,5.5 0.53501,1.39974 1.20241,2.09375 2,2.09375 l 5.8125,0 c 2.93369,0 5.76555,-0.16634 8.5,-0.5 2.73429,-0.33366 6.23559,-1.02766 10.5,-2.09375 -9e-5,-2.93375 -0.25293,-6.07372 -0.71875,-9.40625 -0.46598,-3.33251 -1.02027,-6.72068 -1.6875,-10.1875 -0.66741,-3.46677 -1.3348,-6.88417 -2,-10.21875 -0.66536,-3.33452 -1.27954,-6.38798 -1.8125,-9.1875 -2.00203,-10.7991 -3.97355,-21.41204 -5.90625,-31.8125 -1.93285,-10.40031 -3.76667,-21.06648 -5.5,-32 -1.06615,-5.8674 -2.06623,-11.28235 -3,-16.28125 -0.9339,-4.99865 -1.51277,-10.69306 -1.78125,-17.09375 z m 32.21875,2.78125 -1.8125,1.8125 c -0.13429,0.13034 -0.30062,1.63352 -0.5,4.5 -0.19939,2.86675 -0.39234,6.58761 -0.59375,11.1875 -0.20142,4.60013 -0.45224,9.76687 -0.71875,15.5 -0.26653,5.73333 -0.48813,11.51221 -0.6875,17.3125 -0.19939,5.80045 -0.39437,11.38175 -0.59375,16.78125 -0.19938,5.39964 -0.36572,10.03668 -0.5,13.90625 0,1.73345 -0.0267,4.65183 -0.0937,8.71875 -0.0671,4.06702 -0.18026,8.48189 -0.3125,13.28125 -0.13224,4.79943 -0.21415,9.69135 -0.28125,14.625 -0.0671,4.93369 -0.125,9.18426 -0.125,12.78125 l 0,6.40625 24.21875,0 0,-63 9,0 c 0.26852,1.20042 0.62781,3.06085 1.09375,5.59375 0.46586,2.53301 0.99353,5.39353 1.59375,8.59375 0.60014,3.20032 1.21228,6.59111 1.8125,10.125 0.60014,3.53397 1.18103,6.8935 1.78125,10.09375 0.60014,3.2003 1.12781,6.06081 1.59375,8.59375 0.46586,2.53298 0.8564,4.3934 1.125,5.59375 0.26444,1.46485 0.68102,3.35393 1.28125,5.6875 0.60013,2.33358 1.09916,4.30713 1.5,5.90625 0.40075,1.59912 0.67818,2.54395 0.8125,2.8125 l 22.1875,0 c -7e-5,-5.20019 -0.69408,-10.34032 -2.09375,-15.40625 -1.3998,-5.0659 -2.89891,-10.09291 -4.5,-15.09375 -1.60122,-5.00078 -3.10031,-9.97254 -4.5,-14.90625 -1.39979,-4.93363 -2.09381,-9.93403 -2.09375,-15 -6e-5,-0.3987 0.55423,-1.03949 1.6875,-1.90625 1.13317,-0.86664 2.38405,-1.89333 3.71875,-3.09375 1.33457,-1.20029 2.55422,-2.61492 3.6875,-4.28125 1.13315,-1.66618 1.71868,-3.52922 1.71875,-5.53125 -7e-5,-8.79711 -0.41926,-17.35407 -1.21875,-25.6875 -0.79963,-8.33322 -1.60471,-16.69112 -2.40625,-25.09375 -0.13434,-0.7974 -0.24282,-1.79952 -0.375,-3 -0.1323,-1.20023 -0.29865,-2.36665 -0.5,-3.5 -0.20148,-1.13308 -0.42568,-2.13316 -0.625,-3 -0.19947,-0.86656 -0.28131,-1.31236 -0.28125,-1.3125 l -54,0 z m 19.78125,19.8125 12.59375,0 c 1.20032,1.2e-4 2.09192,0.88912 2.625,2.6875 0.533,1.79862 0.89432,3.82538 1.09375,6.09375 0.19941,2.26858 0.2526,4.40644 0.1875,6.40625 -0.0651,2.00002 -0.0938,3.22633 -0.0937,3.625 -5e-5,0.80169 -0.0267,2.02134 -0.0937,3.6875 -0.0672,1.66635 -0.0938,2.55739 -0.0937,2.6875 l -3.625,3.59375 -12.59375,0 0,-28.78125 z m -70.40625,34.78125 c 0.93175,8e-5 1.93386,0.72534 3,2.125 1.06602,1.39982 1.78462,2.61742 2.1875,3.6875 0.13423,0.66332 0.35843,2.11124 0.625,4.3125 0.26647,2.2014 0.54332,4.7272 0.875,7.59375 0.33157,2.86668 0.66629,5.86692 1,9 0.33361,3.13319 0.63764,5.96506 0.90625,8.5 -1.46896,5e-5 -3.18764,-0.0532 -5.1875,-0.1875 -1.99997,-0.13423 -3.97352,-0.2453 -5.90625,-0.3125 -1.93283,-0.0671 -3.6003,-0.18021 -5,-0.3125 -1.39978,-0.13217 -2.28877,-0.18745 -2.6875,-0.1875 l -0.625,0 c 0.80155,-4.13406 1.74638,-8.24547 2.8125,-12.3125 1.06604,-4.06691 2.12138,-7.73252 3.1875,-11 1.06604,-3.26734 2.03951,-5.90625 2.90625,-7.90625 0.86665,-1.99984 1.50337,-2.99992 1.90625,-3 z"
         inkscape:connector-curvature="0" />
      <g
         transform="matrix(0.98333264,0,0,0.98333264,9.7476884,66.195928)"
         style="font-size:78px;font-style:normal;font-variant:normal;font-weight:normal;font-stretch:normal;text-align:start;line-height:125%;letter-spacing:0px;word-spacing:0px;writing-mode:lr-tb;text-anchor:start;fill:#000000;fill-opacity:1;stroke:none;font-family:Xoireqe;-inkscape-font-specification:Xoireqe"
         id="g4462">
        <g
           id="g4460"
           style="fill:#000000;fill-opacity:1">
          <g
             id="g4458"
             style="fill:#000000;fill-opacity:1">
            <path
               d="m 364.78711,472.39456 0,14.58453 -67.7049,0 0,28.31451 52.65143,0 0,-6.55078 -25.89605,0 0,-15.05347 40.71386,0 0,18.56214 c -8e-5,2.34071 -0.36388,4.38188 -1.0914,6.1235 -0.72768,1.74165 -1.94921,3.60032 -3.66458,5.57602 -2.13289,2.49622 -4.68147,4.21247 -7.64575,5.14875 -2.44392,0.78076 -5.64155,1.17114 -9.5929,1.17114 l -38.76672,0 c -3.4833,0 -6.34291,-0.3642 -8.57886,-1.09259 -2.65174,-0.88391 -5.04401,-2.41766 -7.17682,-4.60126 -1.87256,-1.92492 -3.26349,-3.88833 -4.17279,-5.89023 -0.9093,-2.00188 -1.36395,-4.3025 -1.36395,-6.90188 l 0,-23.24433 c 0,-1.76778 0.58478,-3.7177 1.75433,-5.84976 1.16955,-2.13197 2.74218,-4.0561 4.7179,-5.7724 1.9757,-1.71619 4.22475,-2.89924 6.74716,-3.54913 2.52238,-0.64979 5.13563,-0.97471 7.83975,-0.97476 z"
               style="fill:#000000;fill-opacity:1"
               id="path4456"
               inkscape:connector-curvature="0" />
            <path
               d="m 451.72064,486.82436 c 0,-3.74348 1.16995,-6.96729 3.50986,-9.67144 2.33989,-2.70405 5.35542,-4.23859 9.0466,-4.60364 4.1085,6e-5 7.64493,1.17041 10.60931,3.51105 2.65171,2.08049 4.75754,5.04405 6.31751,8.89068 l 13.02539,32.37067 14.27508,-34.08453 c 1.40436,-3.38008 3.22455,-5.98024 5.46058,-7.80048 2.44377,-1.97565 5.35576,-2.9635 8.73596,-2.96356 4.31474,6e-5 7.82419,1.63775 10.52838,4.91308 2.54849,3.06756 3.82279,6.81188 3.82288,11.23297 l 0,41.88501 -13.96326,0 0,-42.66577 -13.80615,30.41876 c -2.44391,5.35743 -4.61481,8.88078 -6.5127,10.57004 -1.898,1.68927 -4.14666,2.69022 -6.74597,3.00284 -4.00383,0 -7.4879,-1.37823 -10.45221,-4.1347 -2.28837,-2.13122 -4.3942,-5.30267 -6.31751,-9.51435 l -13.57287,-29.79748 0,42.51105 -13.96088,-0.39039 z"
               style="fill:#000000;fill-opacity:1"
               id="path4454"
               inkscape:connector-curvature="0" />
            <path
               d="m 544.63605,530.97311 0,-58.57855 16.14605,0 0,58.57855 z"
               style="fill:#000000;fill-opacity:1"
               id="path4452"
               inkscape:connector-curvature="0" />
            <path
               d="m 582.45062,471.22341 c 2.08043,6e-5 4.13468,0.49438 6.16278,1.48297 2.02805,0.98871 3.97837,2.39233 5.85096,4.21088 l 39.23327,39 0,-43.28943 14.66309,0 0,42.4325 c -9e-5,3.4325 -0.59796,6.33179 -1.79361,8.69787 -1.19582,2.3661 -3.17193,4.32911 -5.92832,5.88904 -0.98713,0.51892 -2.07893,0.9343 -3.27539,1.24612 -1.1966,0.31183 -2.31458,0.46775 -3.35394,0.46775 -2.18366,0 -4.2764,-0.48084 -6.27823,-1.44251 -2.00195,-0.96167 -3.96536,-2.37878 -5.89023,-4.25134 l -39.23327,-38.68817 0,43.75836 -14.58692,-0.23328 0,-45.3175 c 0,-2.91194 0.728,-5.40815 2.18399,-7.48865 1.45599,-2.08039 3.5884,-3.77045 6.39725,-5.07019 1.97569,-0.93622 3.92522,-1.40436 5.84857,-1.40442 z"
               style="fill:#000000;fill-opacity:1"
               id="path4450"
               inkscape:connector-curvature="0" />
            <path
               d="m 736.35352,472.39456 0,14.58453 -67.7049,0 0,28.31451 52.65143,0 0,-6.55078 -25.89606,0 0,-15.05347 40.71387,0 0,18.56214 c -9e-5,2.34071 -0.36389,4.38188 -1.0914,6.1235 -0.72768,1.74165 -1.94921,3.60032 -3.66458,5.57602 -2.13289,2.49622 -4.68147,4.21247 -7.64575,5.14875 -2.44392,0.78076 -5.64155,1.17114 -9.5929,1.17114 l -38.76672,0 c -3.4833,0 -6.34292,-0.3642 -8.57886,-1.09259 -2.65175,-0.88391 -5.04402,-2.41766 -7.17682,-4.60126 -1.87256,-1.92492 -3.26349,-3.88833 -4.17279,-5.89023 -0.9093,-2.00188 -1.36396,-4.3025 -1.36395,-6.90188 l 0,-23.24433 c -10e-6,-1.76778 0.58477,-3.7177 1.75433,-5.84976 1.16955,-2.13197 2.74218,-4.0561 4.7179,-5.7724 1.97569,-1.71619 4.22474,-2.89924 6.74716,-3.54913 2.52238,-0.64979 5.13563,-0.97471 7.83975,-0.97476 z"
               style="fill:#000000;fill-opacity:1"
               id="path4448"
               inkscape:connector-curvature="0" />
            <path
               inkscape:connector-curvature="0"
               d="m 388.77603,467.91013 0,11.07172 9.11788,0 3.74483,11.56015 -27.84208,43.14709 13.67681,0 19.86395,-29.30745 13.02555,32.88948 20.51521,-6.51279 -3.25639,-10.09477 -9.44351,2.93075 -22.14342,-55.68418 -17.25883,0 z"
               style="fill:#000000;fill-opacity:1;fill-rule:evenodd;stroke:none"
               id="path4446" />
          </g>
        </g>
      </g>
    </g>
    <path
       inkscape:connector-curvature="0"
       d="m 785.06251,378.61218 c -2.16679,1.7e-4 -3.87636,0.45711 -5.125,1.375 -1.24872,0.91825 -2.54243,2.04257 -3.875,3.375 -5.33552,4.83212 -10.12545,9.29089 -14.375,13.375 -4.24959,4.08442 -7.83304,8.37635 -10.75,12.875 -2.91698,4.49894 -5.12455,9.49934 -6.625,15 -1.50045,5.50092 -2.25,12.08512 -2.25,19.75 0,6.0019 0.3337,10.9176 1,14.75 0.6663,3.8326 1.83171,7.04127 3.5,9.625 1.66829,2.58391 3.95802,4.83256 6.875,6.75 2.91696,1.9176 6.62872,4.12772 11.125,6.625 1.16981,0.83422 2.75107,1.83277 4.75,3 1.99887,1.16737 3.99852,2.33531 6,3.5 2.00141,1.16482 3.70844,2.207 5.125,3.125 1.41648,0.91814 2.12496,1.45722 2.125,1.625 l 2.25,4.5 0,26.5 c -0.33065,3e-5 -1.08274,0.12581 -2.25,0.375 -1.16734,0.24926 -1.91944,0.29288 -2.25,0.125 -1.33264,-0.16273 -3.45807,-0.66582 -6.375,-1.5 -2.91701,-0.83411 -6.04098,-1.75051 -9.375,-2.75 -3.33407,-0.99941 -6.49912,-1.91582 -9.5,-2.75 -3.00091,-0.83411 -5.08526,-1.5015 -6.25,-2 -0.83416,0.99695 -1.45794,2.20852 -1.875,3.625 -0.41708,1.41656 -0.66608,2.91567 -0.75,4.5 -0.0839,1.58441 -0.0839,3.0835 0,4.5 0.0839,1.41655 0.125,2.45873 0.125,3.125 l 0,2.25 c 0,1.00201 0.0411,2.12635 0.125,3.375 0.0839,1.2487 0.125,2.37302 0.125,3.375 l 0,2.25 c 1.9989,3.00091 4.70702,5.37533 8.125,7.125 3.41795,1.74968 7.12463,3.12556 11.125,4.125 4.00032,0.99946 8.00217,1.66686 12,2 3.99777,0.33316 7.49906,0.5 10.5,0.5 6.66804,0 11.99959,-1.54273 16,-4.625 4.00027,-3.08227 7.08318,-6.99942 9.25,-11.75 2.16667,-4.75055 3.54254,-9.95888 4.125,-15.625 0.58229,-5.66606 0.87492,-11.16447 0.875,-16.5 -8e-5,-5.83389 -0.208,-11.75069 -0.625,-17.75 -0.41715,-5.99917 -1.70833,-11.74659 -3.875,-17.25 -0.99698,-0.33053 -2.66547,-1.00046 -5,-2 -2.33466,-0.99936 -4.83486,-2.12369 -7.5,-3.375 -2.66526,-1.25113 -5.16547,-2.41653 -7.5,-3.5 -2.33465,-1.08328 -3.9159,-1.87645 -4.75,-2.375 -3.1637,-1.6682 -6.167,-4.00155 -9,-7 -2.83309,-2.99825 -4.25003,-6.91286 -4.25,-11.75 -3e-5,-1.6631 0.12574,-3.99898 0.375,-7 0.24919,-3.00077 0.74974,-5.91683 1.5,-8.75 0.75018,-2.83292 1.91813,-5.33311 3.5,-7.5 1.58178,-2.16661 3.62251,-3.24986 6.125,-3.25 0.33056,1.4e-4 1.08265,0.0412 2.25,0.125 1.16724,0.0841 1.83211,0.21238 2,0.375 l 24.75,13.5 c 1.33252,-4.50121 2.08208,-8.29259 2.25,-11.375 0.16777,-3.08213 0.24992,-6.79136 0.25,-11.125 -8e-5,-0.834 -0.0411,-2.3331 -0.125,-4.5 -0.084,-2.16659 -0.12508,-3.6657 -0.125,-4.5 -1.00207,-1.50029 -2.87595,-3.41779 -5.625,-5.75 -2.74919,-2.33189 -5.79103,-4.58308 -9.125,-6.75 -3.33411,-2.16657 -6.70963,-4.04045 -10.125,-5.625 -3.41548,-1.58419 -6.37261,-2.37483 -8.875,-2.375 z m -75.03125,1.59375 c -1.73343,1.4e-4 -3.09484,0.35944 -4.09375,1.09375 -0.99897,0.7346 -2.0277,1.65281 -3.09375,2.71875 -4.26842,3.86569 -8.10036,7.42022 -11.5,10.6875 -3.39967,3.26754 -6.26019,6.71358 -8.59375,10.3125 -2.33359,3.59916 -4.11214,7.59948 -5.3125,12 -1.20036,4.40074 -1.8125,9.64935 -1.8125,15.78125 0,4.80152 0.27946,8.74658 0.8125,11.8125 0.53303,3.06608 1.47786,5.62051 2.8125,7.6875 1.33463,2.06712 3.16641,3.8723 5.5,5.40625 2.33356,1.53408 5.27798,3.31468 8.875,5.3125 0.93586,0.66738 2.21336,1.47247 3.8125,2.40625 1.5991,0.9339 3.21132,1.8495 4.8125,2.78125 1.60113,0.93185 2.9605,1.76559 4.09375,2.5 1.13319,0.7345 1.68747,1.17827 1.6875,1.3125 l 1.8125,3.59375 0,21.1875 c -0.26452,3e-5 -0.8787,0.11313 -1.8125,0.3125 -0.93387,0.19941 -1.51679,0.22801 -1.78125,0.0937 -1.06611,-0.13018 -2.76021,-0.52016 -5.09375,-1.1875 -2.33361,-0.66729 -4.83279,-1.41916 -7.5,-2.21875 -2.66726,-0.79953 -5.2243,-1.52015 -7.625,-2.1875 -2.40073,-0.66728 -4.06821,-1.19495 -5,-1.59375 -0.66733,0.79756 -1.16634,1.74181 -1.5,2.875 -0.33366,1.13325 -0.52662,2.35753 -0.59375,3.625 -0.0671,1.26752 -0.0671,2.46055 0,3.59375 0.0671,1.13324 0.0937,1.96698 0.0937,2.5 l 0,1.78125 c 0,0.80161 0.0266,1.71983 0.0937,2.71875 0.0671,0.99896 0.125,1.88592 0.125,2.6875 l 0,1.8125 c 1.59912,2.40072 3.76561,4.28777 6.5,5.6875 2.73436,1.39974 5.70596,2.51294 8.90625,3.3125 3.20026,0.79956 6.39548,1.32723 9.59375,1.59375 3.19821,0.26652 5.97425,0.40625 8.375,0.40625 5.33443,0 9.61218,-1.22168 12.8125,-3.6875 3.20022,-2.46581 5.67279,-5.60579 7.40625,-9.40625 1.73333,-3.80044 2.84653,-7.96711 3.3125,-12.5 0.46583,-4.53285 0.68744,-8.95032 0.6875,-13.21875 -6e-5,-4.66711 -0.1664,-9.38805 -0.5,-14.1875 -0.33372,-4.79934 -1.36041,-9.40977 -3.09375,-13.8125 -0.79758,-0.26442 -2.13238,-0.79412 -4,-1.59375 -1.86773,-0.79949 -3.86789,-1.68646 -6,-2.6875 -2.13221,-1.00091 -4.13237,-1.94572 -6,-2.8125 -1.86772,-0.86662 -3.14522,-1.50741 -3.8125,-1.90625 -2.53096,-1.33456 -4.92109,-3.19499 -7.1875,-5.59375 -2.26646,-2.39859 -3.40628,-5.53654 -3.40625,-9.40625 -3e-5,-1.33048 0.11313,-3.19294 0.3125,-5.59375 0.19935,-2.40061 0.58729,-4.73346 1.1875,-7 0.60015,-2.26633 1.51576,-4.2665 2.78125,-6 1.26543,-1.73329 2.90426,-2.59364 4.90625,-2.59375 0.26445,1.1e-4 0.87862,0.0267 1.8125,0.0937 0.9338,0.0673 1.45943,0.1824 1.59375,0.3125 l 19.8126,10.78135 c 1.06602,-3.60097 1.64691,-6.62782 1.78125,-9.09375 0.13422,-2.46571 0.21869,-5.43934 0.21875,-8.90625 -6e-5,-0.6672 -0.0266,-1.86023 -0.0937,-3.59375 -0.0672,-1.73328 -0.12506,-2.9263 -0.125,-3.59375 -0.80165,-1.20023 -2.30076,-2.72798 -4.5,-4.59375 -2.19936,-1.8655 -4.61407,-3.67272 -7.28125,-5.40625 -2.66729,-1.73327 -5.36145,-3.23236 -8.09375,-4.5 -2.73238,-1.26735 -5.12308,-1.90611 -7.125,-1.90625 z m -378.625,0.21875 c -7.73117,0.53319 -15.62073,1.00299 -23.6875,1.46875 -8.06684,0.46604 -15.79266,0.57713 -23.125,0.3125 l -3.59375,1.8125 c -10e-6,2.26657 0.0267,5.65476 0.0937,10.1875 0.0671,4.533 0.125,9.81083 0.125,15.8125 l 0,18.1875 0,18.1875 c 0,5.86758 -0.0579,11.09219 -0.125,15.625 -0.0671,4.53294 -0.0938,7.92111 -0.0937,10.1875 -10e-6,1.20041 -0.0533,3.33826 -0.1875,6.40625 -0.13428,3.06807 -0.30062,6.34574 -0.5,9.8125 -0.19938,3.46683 -0.39437,6.71527 -0.59375,9.78125 -0.19939,3.06602 -0.36573,5.20591 -0.5,6.40625 -0.26856,0.26451 -0.65911,0.82082 -1.125,1.6875 -0.46591,0.86671 -0.6875,1.50343 -0.6875,1.90625 0,0.66733 -0.0266,1.66742 -0.0937,3 -0.0671,1.33262 -0.18027,2.77849 -0.3125,4.3125 -0.0485,0.56304 -0.20837,0.36399 -0.39269,1.08275 0,1.50028 -0.0136,5.47796 -0.0136,6.011 l 49.40625,0 c -5e-5,0 0.11303,-0.63876 0.3125,-1.90625 0.19933,-1.2675 0.39432,-2.76659 0.59375,-4.5 0.19933,-1.73339 0.36567,-3.51399 0.5,-5.3125 0.13423,-1.79849 0.27599,-3.26838 0.40625,-4.46875 -5e-5,-0.26854 0.0265,-0.99176 0.0937,-2.125 0.0671,-1.1332 0.0937,-2.02016 0.0937,-2.6875 -6e-5,-0.39874 0.0265,-0.8998 0.0937,-1.5 0.0671,-0.60016 0.0405,-1.2389 -0.0937,-1.90625 -0.13433,-0.66729 -0.32728,-1.22158 -0.59375,-1.6875 -0.26657,-0.46588 -0.74305,-0.77195 -1.40625,-0.90625 -0.66737,2e-5 -1.72067,0.0266 -3.1875,0.0937 -1.46692,0.0672 -3.13237,0.0938 -5,0.0937 -1.73344,3e-5 -3.34566,-0.0265 -4.8125,-0.0937 -1.46692,-0.0671 -2.52021,-0.0937 -3.1875,-0.0937 -0.79756,-0.13018 -1.9128,-0.41168 -3.3125,-0.8125 -1.39977,-0.40077 -2.09378,-0.73142 -2.09375,-1 l 0,-36 c -3e-5,7e-5 0.64076,-0.0818 1.90625,-0.28125 1.26543,-0.19931 2.76657,-0.3943 4.5,-0.59375 1.73336,-0.19932 3.48068,-0.36566 5.28125,-0.5 1.8005,-0.13421 3.29959,-0.27191 4.5,-0.40625 0.66727,6e-5 1.89156,-0.0865 3.625,-0.21875 1.73335,-0.13217 2.93045,-0.18743 3.59375,-0.1875 l 0,-22.40625 c -0.6633,9e-5 -1.66542,-0.0265 -3,-0.0937 -1.33469,-0.067 -2.78057,-0.15152 -4.3125,-0.21875 -1.53203,-0.067 -2.94665,-0.12027 -4.28125,-0.1875 -1.33467,-0.067 -2.2795,-0.0937 -2.8125,-0.0937 -0.26453,9e-5 -0.82084,-0.0864 -1.6875,-0.21875 -0.86673,-0.13215 -1.81156,-0.32714 -2.8125,-0.59375 -1.00101,-0.26643 -1.97245,-0.62573 -2.90625,-1.09375 -0.93387,-0.46785 -1.46357,-1.02416 -1.59375,-1.6875 l 0,-1.625 c -3e-5,-0.66315 -0.0266,-1.44106 -0.0937,-2.375 -0.0672,-0.93374 -0.0938,-1.73883 -0.0937,-2.40625 l 0,-1.59375 c -3e-5,-0.26845 -0.0579,-1.21328 -0.125,-2.8125 -0.0672,-1.59902 0.0194,-3.31972 0.21875,-5.1875 0.19935,-1.86756 0.55865,-3.5929 1.09375,-5.125 0.53505,-1.53186 1.39743,-2.28113 2.59375,-2.28125 l 23.40625,0 0,-25.1875 z m 341,0 c -7.73117,0.53319 -15.62073,1.00299 -23.6875,1.46875 -8.06684,0.46604 -15.76141,0.57713 -23.09375,0.3125 l -3.59375,1.8125 c 0,2.26657 0.0266,5.65476 0.0937,10.1875 0.0671,4.533 0.0937,9.81083 0.0937,15.8125 l 0,18.1875 0,18.1875 c -10e-6,5.86758 -0.0266,11.09219 -0.0937,15.625 -0.0671,4.53294 -0.0937,7.92111 -0.0937,10.1875 0,1.20041 -0.0844,3.33826 -0.21875,6.40625 -0.13429,3.06807 -0.30063,6.34574 -0.5,9.8125 -0.19939,3.46683 -0.39437,6.71527 -0.59375,9.78125 -0.19938,3.06602 -0.36572,5.20591 -0.5,6.40625 -0.26855,0.26451 -0.62785,0.82082 -1.09375,1.6875 -0.4659,0.86671 -0.71875,1.50343 -0.71875,1.90625 0,0.66733 -0.0266,1.66742 -0.0937,3 -0.0671,1.33262 0.17535,2.84206 -0.28125,4.3125 -0.0709,0.22822 -0.13934,0.46539 -0.39621,1.08371 0,1.57829 -0.01,5.477 -0.01,6.01004 l 49.40625,0 c -5e-5,0 0.0818,-0.63876 0.28125,-1.90625 0.19934,-1.2675 0.39432,-2.76659 0.59375,-4.5 0.19933,-1.73339 0.36567,-3.51399 0.5,-5.3125 0.13422,-1.79849 0.27599,-3.26838 0.40625,-4.46875 -6e-5,-0.26854 0.0266,-0.99176 0.0937,-2.125 0.0671,-1.1332 0.12495,-2.02016 0.125,-2.6875 -5e-5,-0.39874 0.0265,-0.8998 0.0937,-1.5 0.0671,-0.60016 0.0405,-1.2389 -0.0937,-1.90625 -0.13433,-0.66729 -0.35854,-1.22158 -0.625,-1.6875 -0.26658,-0.46588 -0.7118,-0.77195 -1.375,-0.90625 -0.66736,2e-5 -1.75192,0.0266 -3.21875,0.0937 -1.46693,0.0672 -3.13237,0.0938 -5,0.0937 -1.73344,3e-5 -3.31441,-0.0265 -4.78125,-0.0937 -1.46691,-0.0671 -2.55147,-0.0937 -3.21875,-0.0937 -0.79756,-0.13018 -1.88154,-0.41168 -3.28125,-0.8125 -1.39977,-0.40077 -2.12503,-0.73142 -2.125,-1 l 0,-36 c -3e-5,7e-5 0.64076,-0.0818 1.90625,-0.28125 1.26543,-0.19931 2.76656,-0.3943 4.5,-0.59375 1.73336,-0.19932 3.51192,-0.36566 5.3125,-0.5 1.80049,-0.13421 3.2996,-0.27191 4.5,-0.40625 0.66727,6e-5 1.8603,-0.0865 3.59375,-0.21875 1.73334,-0.13217 2.93045,-0.18743 3.59375,-0.1875 l 0,-22.40625 c -0.6633,9e-5 -1.66542,-0.0265 -3,-0.0937 -1.33468,-0.067 -2.74931,-0.15152 -4.28125,-0.21875 -1.53202,-0.067 -2.97791,-0.12027 -4.3125,-0.1875 -1.33468,-0.067 -2.2795,-0.0937 -2.8125,-0.0937 -0.26452,9e-5 -0.82084,-0.0864 -1.6875,-0.21875 -0.86674,-0.13215 -1.81156,-0.32714 -2.8125,-0.59375 -1.00101,-0.26643 -1.94119,-0.62573 -2.875,-1.09375 -0.93387,-0.46785 -1.49482,-1.02416 -1.625,-1.6875 l 0,-1.625 c -3e-5,-0.66315 -0.0266,-1.44106 -0.0937,-2.375 -0.0672,-0.93374 -0.0938,-1.73883 -0.0937,-2.40625 l 0,-1.59375 c -2e-5,-0.26845 -0.0267,-1.21328 -0.0937,-2.8125 -0.0672,-1.59902 -0.0119,-3.31972 0.1875,-5.1875 0.19935,-1.86756 0.55864,-3.5929 1.09375,-5.125 0.53504,-1.53186 1.42868,-2.28113 2.625,-2.28125 l 23.375,0 0,-25.1875 z m -491.46875,0.1875 c 0,14.66894 0.29008,29.29283 0.875,43.875 0.58492,14.58243 1.25232,29.16524 2,43.75 0.74768,14.58493 1.45615,29.20882 2.125,43.875 0.66883,14.66627 0.99999,29.33632 1,44 l 21.25,0 4.5,-4.5 2.75,-68 c 0.49842,-0.16777 1.54059,-0.33208 3.125,-0.5 1.58433,-0.16777 3.37605,-0.33462 5.375,-0.5 1.99885,-0.16523 4.03958,-0.3757 6.125,-0.625 2.08532,-0.24915 3.79235,-0.45708 5.125,-0.625 0.83409,8e-5 1.99949,8e-5 3.5,0 1.66314,8e-5 3.0801,-0.0821 4.25,-0.25 l 0.13393,77.25 31.14955,-0.0112 c -10e-6,-1.17983 -0.0602,-2.81958 -0.0602,-5.98884 -0.37495,-6.39607 -1.33921,-26.16593 -2.08938,-32.375 -1.50054,-12.41806 -2.66173,-25.12445 -3.16518,-38.125 l 0,-36 c -9e-5,-1.16973 -0.0535,-3.37477 -0.21875,-6.625 -0.16539,-3.25001 -0.37587,-6.6666 -0.625,-10.25 -0.24932,-3.58314 -0.49832,-6.95867 -0.75,-10.125 -0.25186,-3.16606 -0.46232,-5.41726 -0.625,-6.75 0.99682,-1.66815 1.74891,-3.83465 2.25,-6.5 0.50091,-2.66504 0.83461,-5.37318 1,-8.125 0.16519,-2.75151 0.2063,-5.2517 0.125,-7.5 -0.0815,-2.24796 -0.12509,-3.87284 -0.125,-4.875 l -25.78125,0 c -0.33067,1.7e-4 -0.59459,1.29135 -0.84375,3.875 -0.24929,2.58399 -0.49829,6.04167 -0.75,10.375 -0.25183,4.33365 -0.4187,9.24936 -0.5,14.75 -0.0815,5.50093 -0.12506,11.08403 -0.125,16.75 l 0,22 c -2.8382,1.1e-4 -6.83496,-0.0846 -12,-0.25 -5.16515,-0.1652 -9.9987,-0.4142 -14.5,-0.75 0.16781,-2.33448 0.291,-4.54206 0.375,-6.625 0.0839,-2.08271 0.12496,-3.37644 0.125,-3.875 l 0,-60.75 z m 318.21875,1.59375 c -0.13021,1.4e-4 -0.29859,0.41933 -0.5,1.21875 -0.20142,0.7997 -0.39438,1.76853 -0.59375,2.96875 -0.19939,1.20049 -0.36776,2.42478 -0.5,3.625 -0.13226,1.20049 -0.21876,2.2026 -0.21875,3 -10e-6,0.53317 -0.0267,1.39352 -0.0937,2.59375 -0.0671,1.20048 -0.42029,2.71213 -0.48739,3.9795 0,1.26762 -0.0136,2.05854 -0.0136,3.71875 0,1.20838 9e-4,1.76883 10e-4,2.30175 l 20.40625,0 0,68.40625 c -0.66734,2.26648 -1.16637,4.54147 -1.5,6.875 -0.33368,2.33362 -0.50002,4.86202 -0.5,7.53125 l 0,14.375 0,3.625 c -2e-5,1.73341 0.0267,3.50937 0.0937,5.375 0.0671,1.86565 0.0937,3.67286 0.0937,5.40625 l 0,3.59375 c 0.39874,0.13428 1.20587,0.30062 2.40625,0.5 1.20034,0.19938 2.47988,0.39437 3.8125,0.59375 1.33258,0.19938 2.58086,0.36573 3.78125,0.5 1.20033,0.13432 2.09193,0.21875 2.625,0.21875 0.39873,0 1.09274,-0.0845 2.09375,-0.21875 1.00094,-0.13427 2.08085,-0.30062 3.28125,-0.5 1.20032,-0.19938 2.31352,-0.39437 3.3125,-0.59375 0.9989,-0.19938 1.69494,-0.36572 2.09375,-0.5 0.13423,-0.53303 0.29854,-1.55973 0.5,-3.09375 0.20137,-1.53401 0.39433,-3.17284 0.59375,-4.90625 0.19934,-1.73338 0.36771,-3.37425 0.5,-4.90625 0.13217,-1.53196 0.2187,-2.61391 0.21875,-3.28125 -5e-5,-2.26642 0.0266,-6.1004 0.0937,-11.5 0.0671,-5.39954 0.0937,-11.17639 0.0937,-17.3125 -4e-5,-6.13194 -0.0267,-11.88162 -0.0937,-17.28125 -0.0672,-5.39951 -0.0938,-9.23349 -0.0937,-11.5 l 1.78125,-3.59375 c 0,-0.80151 -0.0287,-2.24536 -0.0937,-4.3125 -0.0652,-2.06697 -0.0938,-4.23347 -0.0937,-6.5 0,-2.26635 0.0285,-4.43489 0.0937,-6.5 0.065,-2.06493 0.0937,-3.51081 0.0937,-4.3125 -5e-5,-1.20026 0.0844,-2.75461 0.21875,-4.6875 0.13423,-1.93267 0.30057,-3.79311 0.5,-5.59375 0.19933,-1.80043 0.39432,-3.38603 0.59375,-4.71875 0.19933,-1.33248 0.36567,-1.99988 0.5,-2 l 12.59375,0 0,-22.59375 z m 69.03125,0 -3.59375,1.8125 c -10e-6,2.26657 0.0267,5.65476 0.0937,10.1875 0.0671,4.533 0.125,9.81083 0.125,15.8125 l 0,18.1875 0,18.1875 c 0,5.86758 -0.0579,11.09219 -0.125,15.625 -0.0671,4.53294 -0.0938,7.92111 -0.0937,10.1875 -10e-6,1.20041 -0.0532,3.33826 -0.1875,6.40625 -0.13428,3.06807 -0.30062,6.34574 -0.5,9.8125 -0.19938,3.46683 -0.39437,6.71527 -0.59375,9.78125 -0.19939,3.06602 -0.36573,5.20591 -0.5,6.40625 -0.26856,0.26451 -0.65911,0.82082 -1.125,1.6875 -0.46591,0.86671 -0.6875,1.50343 -0.6875,1.90625 0,0.66733 -0.0266,1.66742 -0.0937,3 -0.0671,1.33262 0.043,1.14903 -0.0893,2.68304 -0.13224,1.53402 -0.26991,1.44195 -0.61607,2.76339 0,1.89063 -0.0134,5.42678 -0.0134,5.95982 l 52.40625,-0.8125 c -5e-5,0 0.11302,-0.58089 0.3125,-1.78125 0.19932,-1.20035 0.39228,-2.67285 0.59375,-4.40625 0.20136,-1.73339 0.3677,-3.5406 0.5,-5.40625 0.13219,-1.86563 0.27192,-3.39338 0.40625,-4.59375 -5e-5,-0.26854 0.0265,-0.96051 0.0937,-2.09375 0.0671,-1.1332 0.0937,-2.05141 0.0937,-2.71875 -6e-5,-0.39874 0.0266,-0.8998 0.0937,-1.5 0.0671,-0.60016 0.0671,-1.2389 0,-1.90625 -0.0672,-0.66729 -0.26015,-1.22158 -0.59375,-1.6875 -0.33371,-0.46588 -0.83273,-0.77195 -1.5,-0.90625 -0.66737,2e-5 -2.22173,0.16637 -4.6875,0.5 -2.46587,0.33369 -4.63237,0.50003 -6.5,0.5 -1.73344,3e-5 -3.34566,-0.0265 -4.8125,-0.0937 -1.46692,-0.0671 -2.52021,-0.0937 -3.1875,-0.0937 -0.79756,-0.13018 -1.9128,-0.41168 -3.3125,-0.8125 -1.39977,-0.40077 -2.09378,-0.73142 -2.09375,-1 l 0,-64.78125 0,-1.625 c -3e-5,-0.66315 -0.0266,-1.44106 -0.0937,-2.375 -0.0672,-0.93374 -0.0938,-1.73883 -0.0937,-2.40625 l 0,-1.59375 c -3e-5,-0.13418 0.19496,-1.16086 0.59375,-3.09375 0.39874,-1.93267 0.81329,-4.35203 1.28125,-7.21875 0.46791,-2.86651 0.94032,-5.89335 1.40625,-9.09375 0.46587,-3.20015 0.80059,-6.20039 1,-9 0.19935,-2.79935 0.19935,-5.13219 0,-7 -0.19941,-1.86754 -0.7025,-2.81236 -1.5,-2.8125 z m -169.15625,0.8125 -28,0.375 c -0.13432,1.4e-4 -0.41378,0.72336 -0.8125,2.125 -0.3988,1.40191 -0.73148,2.48386 -1,3.28125 -0.13431,0.40297 -0.30065,1.04171 -0.5,1.90625 -0.19941,0.86479 -0.3944,1.75379 -0.59375,2.6875 -0.19942,0.93397 -0.36576,1.85217 -0.5,2.71875 -0.13432,0.86682 -0.18753,1.41907 -0.1875,1.6875 l -7.21875,13.59375 c -0.39879,1.86778 -0.7069,3.7016 -0.90625,5.5 -0.19941,1.7986 -0.39439,3.43947 -0.59375,4.90625 -0.1994,1.46698 -0.33915,2.66001 -0.40625,3.59375 -0.0672,0.93394 -0.0938,1.49081 -0.0937,1.625 -1.59915,6.93368 -3.01378,13.014 -4.28125,18.28125 -1.26752,5.2674 -2.51841,10.07486 -3.71875,14.40625 -1.20038,4.33152 -2.3934,8.47157 -3.59375,12.40625 -1.20037,3.93478 -2.3934,8.10144 -3.59375,12.5 -1.20037,4.39864 -2.52343,9.2549 -3.90625,14.59375 -0.69175,2.67073 -1.4825,4.7437 -4.67399,12.81455 -0.13575,1.54913 -0.0397,2.22034 -0.0135,5.99795 l 30.375,4.59375 1.81245,-15.40625 c -3e-5,-0.53302 0.1397,-1.39337 0.40625,-2.59375 0.26649,-1.20034 0.6012,-2.72605 1,-4.59375 1.86764,-0.26446 4.06075,-0.54595 6.59375,-0.8125 2.53292,-0.26649 4.6728,-0.54392 6.40625,-0.8125 0.53299,2e-5 1.92101,2e-5 4.1875,0 2.27045,2e-5 4.35508,-0.0532 6.21875,-0.1875 0.26849,2.79951 0.51467,5.60476 0.78125,8.40625 0.26646,2.80153 0.60117,5.32732 1,7.59375 0.3987,2.26645 0.87112,4.10027 1.40625,5.5 0.53501,1.39974 1.20241,2.09375 2,2.09375 l 5.8125,0 c 2.93369,0 5.76555,-0.16634 8.5,-0.5 2.73429,-0.33366 10.5,-2.09375 10.5,-2.09375 l -0.009,-5.99913 -0.70998,-3.40712 c 0,0 -1.02027,-6.72068 -1.6875,-10.1875 -0.66741,-3.46677 -1.3348,-6.88417 -2,-10.21875 -0.66536,-3.33452 -1.27954,-6.38798 -1.8125,-9.1875 -2.00203,-10.7991 -3.97355,-21.41204 -5.90625,-31.8125 -1.93285,-10.40031 -3.76667,-21.06648 -5.5,-32 -1.06615,-5.8674 -2.06623,-11.28235 -3,-16.28125 -0.9339,-4.99865 -1.51277,-10.69306 -1.78126,-17.09375 z m 32.21875,2.78125 -1.8125,1.8125 c -0.13429,0.13034 -0.30062,1.63352 -0.5,4.5 -0.19939,2.86675 -0.39234,6.58761 -0.59375,11.1875 -0.20142,4.60013 -0.45224,9.76687 -0.71875,15.5 -0.26653,5.73333 -0.48813,11.51221 -0.6875,17.3125 -0.19939,5.80045 -0.39437,11.38175 -0.59375,16.78125 -0.19938,5.39964 -0.36572,10.03668 -0.5,13.90625 0,1.73345 -0.0267,4.65183 -0.0937,8.71875 -0.0671,4.06702 -0.18026,8.48189 -0.3125,13.28125 -0.13224,4.79943 -0.21415,9.69135 -0.28125,14.625 -0.0671,4.93369 -0.125,9.18426 -0.125,12.78125 l 0,6.40625 24.21875,0 0,-63 9,0 c 0.26852,1.20042 0.62781,3.06085 1.09375,5.59375 0.46586,2.53301 0.99353,5.39353 1.59375,8.59375 0.60014,3.20032 1.21228,6.59111 1.8125,10.125 0.60014,3.53397 1.18103,6.8935 1.78125,10.09375 0.60014,3.2003 1.12781,6.06081 1.59375,8.59375 0.46586,2.53298 0.8564,4.3934 1.125,5.59375 0.26444,1.46485 0.68102,3.35393 1.28125,5.6875 0.60013,2.33358 1.09916,4.30713 1.5,5.90625 0.40075,1.59912 0.67818,2.54395 0.8125,2.8125 l 22.1875,0 c -4e-5,-2.60009 -0.017,-3.44585 -0.017,-6.04884 -0.34847,-2.5683 -1.37697,-6.82444 -2.0768,-9.35741 -1.3998,-5.0659 -2.89891,-10.09291 -4.5,-15.09375 -1.60122,-5.00078 -3.10031,-9.97254 -4.5,-14.90625 -1.39979,-4.93363 -2.09381,-9.93403 -2.09375,-15 -6e-5,-0.3987 0.55423,-1.03949 1.6875,-1.90625 1.13317,-0.86664 2.38405,-1.89333 3.71875,-3.09375 1.33457,-1.20029 2.55422,-2.61492 3.6875,-4.28125 1.13315,-1.66618 1.71868,-3.52922 1.71875,-5.53125 -7e-5,-8.79711 -0.41926,-17.35407 -1.21875,-25.6875 -0.79963,-8.33322 -1.60471,-16.69112 -2.40625,-25.09375 -0.13434,-0.7974 -0.24282,-1.79952 -0.375,-3 -0.1323,-1.20023 -0.29865,-2.36665 -0.5,-3.5 -0.20148,-1.13308 -0.42568,-2.13316 -0.625,-3 -0.19947,-0.86656 -0.28131,-1.31236 -0.28125,-1.3125 z m 19.78125,19.8125 12.59375,0 c 1.20032,1.2e-4 2.09192,0.88912 2.625,2.6875 0.533,1.79862 0.89432,3.82538 1.09375,6.09375 0.19941,2.26858 0.2526,4.40644 0.1875,6.40625 -0.0651,2.00002 -0.0938,3.22633 -0.0937,3.625 -5e-5,0.80169 -0.0267,2.02134 -0.0937,3.6875 -0.0672,1.66635 -0.0938,2.55739 -0.0937,2.6875 l -3.625,3.59375 -12.59375,0 0,-28.78125 z m -70.40625,34.78125 c 0.93175,8e-5 1.93386,0.72534 3,2.125 1.06602,1.39982 1.78462,2.61742 2.1875,3.6875 0.13423,0.66332 0.35843,2.11124 0.625,4.3125 0.26647,2.2014 0.54332,4.7272 0.875,7.59375 0.33157,2.86668 0.66629,5.86692 1,9 0.33361,3.13319 0.63764,5.96506 0.90625,8.5 -1.46896,5e-5 -3.18764,-0.0532 -5.1875,-0.1875 -1.99997,-0.13423 -3.97352,-0.2453 -5.90625,-0.3125 -1.93283,-0.0671 -3.6003,-0.18021 -5,-0.3125 -1.39978,-0.13217 -2.28877,-0.18745 -2.6875,-0.1875 l -0.625,0 c 0.80155,-4.13406 1.74638,-8.24547 2.8125,-12.3125 1.06604,-4.06691 2.12138,-7.73252 3.1875,-11 1.06604,-3.26734 2.03951,-5.90625 2.90625,-7.90625 0.86665,-1.99984 1.50337,-2.99992 1.90625,-3 z"
       style="font-size:250px;font-style:normal;font-variant:normal;font-weight:normal;font-stretch:normal;text-align:center;line-height:125%;letter-spacing:0px;word-spacing:0px;writing-mode:lr-tb;text-anchor:middle;opacity:0.98999999;fill:#640000;fill-opacity:1;stroke:none;font-family:Grim Ghost;-inkscape-font-specification:Grim Ghost"
       id="path3094"
       sodipodi:nodetypes="ccccccsscccccccccccccccscssssscsssscccccccccccccscccccccccccccccccccsccccccccccccccccccssssscssssccccccccccccsscccccccccccccccccccscssccsscssssccccccccccccccccccccccccccccccccccccccccccccccccccsscssscssccssscccccccscccccccccccccccccccccccccccccccccscccccssscccccccccccccccccccccccccccccccccccccccsccccccccscccscsscsccccccccsscccccccccccccccccscsscssscsssccccccccccsccccccccccccccsssccccccscscccccsccssssscccccccccccccsssccccccccccccsssssccsssccccccccccccccccccccsscccccccccccccsccccccccccccccccccccssc" />
    <path
       id="path3043"
       style="font-size:250px;font-style:normal;font-variant:normal;font-weight:normal;font-stretch:normal;text-align:center;line-height:125%;letter-spacing:0px;word-spacing:0px;writing-mode:lr-tb;text-anchor:middle;opacity:0.98999999;fill:url(#linearGradient3027);fill-opacity:1;stroke:none;font-family:Grim Ghost;-inkscape-font-specification:Grim Ghost"
       d="m 785.06251,372.61218 c -2.16679,1.7e-4 -3.87636,0.45711 -5.125,1.375 -1.24872,0.91825 -2.54243,2.04257 -3.875,3.375 -5.33552,4.83212 -10.12545,9.29089 -14.375,13.375 -4.24959,4.08442 -7.83304,8.37635 -10.75,12.875 -2.91698,4.49894 -5.12455,9.49934 -6.625,15 -1.50045,5.50092 -2.25,12.08512 -2.25,19.75 0,6.0019 0.3337,10.9176 1,14.75 0.6663,3.8326 1.83171,7.04127 3.5,9.625 1.66829,2.58391 3.95802,4.83256 6.875,6.75 2.91696,1.9176 6.62872,4.12772 11.125,6.625 1.16981,0.83422 2.75107,1.83277 4.75,3 1.99887,1.16737 3.99852,2.33531 6,3.5 2.00141,1.16482 3.70844,2.207 5.125,3.125 1.41648,0.91814 2.12496,1.45722 2.125,1.625 l 2.25,4.5 0,26.5 c -0.33065,3e-5 -1.08274,0.12581 -2.25,0.375 -1.16734,0.24926 -1.91944,0.29288 -2.25,0.125 -1.33264,-0.16273 -3.45807,-0.66582 -6.375,-1.5 -2.91701,-0.83411 -6.04098,-1.75051 -9.375,-2.75 -3.33407,-0.99941 -6.49912,-1.91582 -9.5,-2.75 -3.00091,-0.83411 -5.08526,-1.5015 -6.25,-2 -0.83416,0.99695 -1.45794,2.20852 -1.875,3.625 -0.41708,1.41656 -0.66608,2.91567 -0.75,4.5 -0.0839,1.58441 -0.0839,3.0835 0,4.5 0.0839,1.41655 0.125,2.45873 0.125,3.125 l 0,2.25 c 0,1.00201 0.0411,2.12635 0.125,3.375 0.0839,1.2487 0.125,2.37302 0.125,3.375 l 0,2.25 c 1.9989,3.00091 4.70702,5.37533 8.125,7.125 3.41795,1.74968 7.12463,3.12556 11.125,4.125 4.00032,0.99946 8.00217,1.66686 12,2 3.99777,0.33316 7.49906,0.5 10.5,0.5 6.66804,0 11.99959,-1.54273 16,-4.625 4.00027,-3.08227 7.08318,-6.99942 9.25,-11.75 2.16667,-4.75055 3.54254,-9.95888 4.125,-15.625 0.58229,-5.66606 0.87492,-11.16447 0.875,-16.5 -8e-5,-5.83389 -0.208,-11.75069 -0.625,-17.75 -0.41715,-5.99917 -1.70833,-11.74659 -3.875,-17.25 -0.99698,-0.33053 -2.66547,-1.00046 -5,-2 -2.33466,-0.99936 -4.83486,-2.12369 -7.5,-3.375 -2.66526,-1.25113 -5.16547,-2.41653 -7.5,-3.5 -2.33465,-1.08328 -3.9159,-1.87645 -4.75,-2.375 -3.1637,-1.6682 -6.167,-4.00155 -9,-7 -2.83309,-2.99825 -4.25003,-6.91286 -4.25,-11.75 -3e-5,-1.6631 0.12574,-3.99898 0.375,-7 0.24919,-3.00077 0.74974,-5.91683 1.5,-8.75 0.75018,-2.83292 1.91813,-5.33311 3.5,-7.5 1.58178,-2.16661 3.62251,-3.24986 6.125,-3.25 0.33056,1.4e-4 1.08265,0.0412 2.25,0.125 1.16724,0.0841 1.83211,0.21238 2,0.375 l 24.75,13.5 c 1.33252,-4.50121 2.08208,-8.29259 2.25,-11.375 0.16777,-3.08213 0.24992,-6.79136 0.25,-11.125 -8e-5,-0.834 -0.0411,-2.3331 -0.125,-4.5 -0.084,-2.16659 -0.12508,-3.6657 -0.125,-4.5 -1.00207,-1.50029 -2.87595,-3.41779 -5.625,-5.75 -2.74919,-2.33189 -5.79103,-4.58308 -9.125,-6.75 -3.33411,-2.16657 -6.70963,-4.04045 -10.125,-5.625 -3.41548,-1.58419 -6.37261,-2.37483 -8.875,-2.375 z m -75.03125,1.59375 c -1.73343,1.4e-4 -3.09484,0.35944 -4.09375,1.09375 -0.99897,0.7346 -2.0277,1.65281 -3.09375,2.71875 -4.26842,3.86569 -8.10036,7.42022 -11.5,10.6875 -3.39967,3.26754 -6.26019,6.71358 -8.59375,10.3125 -2.33359,3.59916 -4.11214,7.59948 -5.3125,12 -1.20036,4.40074 -1.8125,9.64935 -1.8125,15.78125 0,4.80152 0.27946,8.74658 0.8125,11.8125 0.53303,3.06608 1.47786,5.62051 2.8125,7.6875 1.33463,2.06712 3.16641,3.8723 5.5,5.40625 2.33356,1.53408 5.27798,3.31468 8.875,5.3125 0.93586,0.66738 2.21336,1.47247 3.8125,2.40625 1.5991,0.9339 3.21132,1.8495 4.8125,2.78125 1.60113,0.93185 2.9605,1.76559 4.09375,2.5 1.13319,0.7345 1.68747,1.17827 1.6875,1.3125 l 1.8125,3.59375 0,21.1875 c -0.26452,3e-5 -0.8787,0.11313 -1.8125,0.3125 -0.93387,0.19941 -1.51679,0.22801 -1.78125,0.0937 -1.06611,-0.13018 -2.76021,-0.52016 -5.09375,-1.1875 -2.33361,-0.66729 -4.83279,-1.41916 -7.5,-2.21875 -2.66726,-0.79953 -5.2243,-1.52015 -7.625,-2.1875 -2.40073,-0.66728 -4.06821,-1.19495 -5,-1.59375 -0.66733,0.79756 -1.16634,1.74181 -1.5,2.875 -0.33366,1.13325 -0.52662,2.35753 -0.59375,3.625 -0.0671,1.26752 -0.0671,2.46055 0,3.59375 0.0671,1.13324 0.0937,1.96698 0.0937,2.5 l 0,1.78125 c 0,0.80161 0.0266,1.71983 0.0937,2.71875 0.0671,0.99896 0.125,1.88592 0.125,2.6875 l 0,1.8125 c 1.59912,2.40072 3.76561,4.28777 6.5,5.6875 2.73436,1.39974 5.70596,2.51294 8.90625,3.3125 3.20026,0.79956 6.39548,1.32723 9.59375,1.59375 3.19821,0.26652 5.97425,0.40625 8.375,0.40625 5.33443,0 9.61218,-1.22168 12.8125,-3.6875 3.20022,-2.46581 5.67279,-5.60579 7.40625,-9.40625 1.73333,-3.80044 2.84653,-7.96711 3.3125,-12.5 0.46583,-4.53285 0.68744,-8.95032 0.6875,-13.21875 -6e-5,-4.66711 -0.1664,-9.38805 -0.5,-14.1875 -0.33372,-4.79934 -1.36041,-9.40977 -3.09375,-13.8125 -0.79758,-0.26442 -2.13238,-0.79412 -4,-1.59375 -1.86773,-0.79949 -3.86789,-1.68646 -6,-2.6875 -2.13221,-1.00091 -4.13237,-1.94572 -6,-2.8125 -1.86772,-0.86662 -3.14522,-1.50741 -3.8125,-1.90625 -2.53096,-1.33456 -4.92109,-3.19499 -7.1875,-5.59375 -2.26646,-2.39859 -3.40628,-5.53654 -3.40625,-9.40625 -3e-5,-1.33048 0.11313,-3.19294 0.3125,-5.59375 0.19935,-2.40061 0.58729,-4.73346 1.1875,-7 0.60015,-2.26633 1.51576,-4.2665 2.78125,-6 1.26543,-1.73329 2.90426,-2.59364 4.90625,-2.59375 0.26445,1.1e-4 0.87862,0.0267 1.8125,0.0937 0.9338,0.0673 1.45943,0.1824 1.59375,0.3125 l 19.8126,10.78135 c 1.06602,-3.60097 1.64691,-6.62782 1.78125,-9.09375 0.13422,-2.46571 0.21869,-5.43934 0.21875,-8.90625 -6e-5,-0.6672 -0.0266,-1.86023 -0.0937,-3.59375 -0.0672,-1.73328 -0.12506,-2.9263 -0.125,-3.59375 -0.80165,-1.20023 -2.30076,-2.72798 -4.5,-4.59375 -2.19936,-1.8655 -4.61407,-3.67272 -7.28125,-5.40625 -2.66729,-1.73327 -5.36145,-3.23236 -8.09375,-4.5 -2.73238,-1.26735 -5.12308,-1.90611 -7.125,-1.90625 z m -378.625,0.21875 c -7.73117,0.53319 -15.62073,1.00299 -23.6875,1.46875 -8.06684,0.46604 -15.79266,0.57713 -23.125,0.3125 l -3.59375,1.8125 c -10e-6,2.26657 0.0267,5.65476 0.0937,10.1875 0.0671,4.533 0.125,9.81083 0.125,15.8125 l 0,18.1875 0,18.1875 c 0,5.86758 -0.0579,11.09219 -0.125,15.625 -0.0671,4.53294 -0.0938,7.92111 -0.0937,10.1875 -10e-6,1.20041 -0.0533,3.33826 -0.1875,6.40625 -0.13428,3.06807 -0.30062,6.34574 -0.5,9.8125 -0.19938,3.46683 -0.39437,6.71527 -0.59375,9.78125 -0.19939,3.06602 -0.36573,5.20591 -0.5,6.40625 -0.26856,0.26451 -0.65911,0.82082 -1.125,1.6875 -0.46591,0.86671 -0.6875,1.50343 -0.6875,1.90625 0,0.66733 -0.0266,1.66742 -0.0937,3 -0.0671,1.33262 -0.18026,2.77849 -0.3125,4.3125 -0.13224,1.53402 -0.21411,2.94865 -0.28125,4.28125 -0.0671,1.3326 -0.125,2.27946 -0.125,2.8125 l 49.40625,0 c -5e-5,0 0.11303,-0.63876 0.3125,-1.90625 0.19933,-1.2675 0.39432,-2.76659 0.59375,-4.5 0.19933,-1.73339 0.36567,-3.51399 0.5,-5.3125 0.13423,-1.79849 0.27599,-3.26838 0.40625,-4.46875 -5e-5,-0.26854 0.0265,-0.99176 0.0937,-2.125 0.0671,-1.1332 0.0937,-2.02016 0.0937,-2.6875 -6e-5,-0.39874 0.0265,-0.8998 0.0937,-1.5 0.0671,-0.60016 0.0405,-1.2389 -0.0937,-1.90625 -0.13433,-0.66729 -0.32728,-1.22158 -0.59375,-1.6875 -0.26657,-0.46588 -0.74305,-0.77195 -1.40625,-0.90625 -0.66737,2e-5 -1.72067,0.0266 -3.1875,0.0937 -1.46692,0.0672 -3.13237,0.0938 -5,0.0937 -1.73344,3e-5 -3.34566,-0.0265 -4.8125,-0.0937 -1.46692,-0.0671 -2.52021,-0.0937 -3.1875,-0.0937 -0.79756,-0.13018 -1.9128,-0.41168 -3.3125,-0.8125 -1.39977,-0.40077 -2.09378,-0.73142 -2.09375,-1 l 0,-36 c -3e-5,7e-5 0.64076,-0.0818 1.90625,-0.28125 1.26543,-0.19931 2.76657,-0.3943 4.5,-0.59375 1.73336,-0.19932 3.48068,-0.36566 5.28125,-0.5 1.8005,-0.13421 3.29959,-0.27191 4.5,-0.40625 0.66727,6e-5 1.89156,-0.0865 3.625,-0.21875 1.73335,-0.13217 2.93045,-0.18743 3.59375,-0.1875 l 0,-22.40625 c -0.6633,9e-5 -1.66542,-0.0265 -3,-0.0937 -1.33469,-0.067 -2.78057,-0.15152 -4.3125,-0.21875 -1.53203,-0.067 -2.94665,-0.12027 -4.28125,-0.1875 -1.33467,-0.067 -2.2795,-0.0937 -2.8125,-0.0937 -0.26453,9e-5 -0.82084,-0.0864 -1.6875,-0.21875 -0.86673,-0.13215 -1.81156,-0.32714 -2.8125,-0.59375 -1.00101,-0.26643 -1.97245,-0.62573 -2.90625,-1.09375 -0.93387,-0.46785 -1.46357,-1.02416 -1.59375,-1.6875 l 0,-1.625 c -3e-5,-0.66315 -0.0266,-1.44106 -0.0937,-2.375 -0.0672,-0.93374 -0.0938,-1.73883 -0.0937,-2.40625 l 0,-1.59375 c -3e-5,-0.26845 -0.0579,-1.21328 -0.125,-2.8125 -0.0672,-1.59902 0.0194,-3.31972 0.21875,-5.1875 0.19935,-1.86756 0.55865,-3.5929 1.09375,-5.125 0.53505,-1.53186 1.39743,-2.28113 2.59375,-2.28125 l 23.40625,0 0,-25.1875 z m 341,0 c -7.73117,0.53319 -15.62073,1.00299 -23.6875,1.46875 -8.06684,0.46604 -15.76141,0.57713 -23.09375,0.3125 l -3.59375,1.8125 c 0,2.26657 0.0266,5.65476 0.0937,10.1875 0.0671,4.533 0.0937,9.81083 0.0937,15.8125 l 0,18.1875 0,18.1875 c -10e-6,5.86758 -0.0266,11.09219 -0.0937,15.625 -0.0671,4.53294 -0.0937,7.92111 -0.0937,10.1875 0,1.20041 -0.0844,3.33826 -0.21875,6.40625 -0.13429,3.06807 -0.30063,6.34574 -0.5,9.8125 -0.19939,3.46683 -0.39437,6.71527 -0.59375,9.78125 -0.19938,3.06602 -0.36572,5.20591 -0.5,6.40625 -0.26855,0.26451 -0.62785,0.82082 -1.09375,1.6875 -0.4659,0.86671 -0.71875,1.50343 -0.71875,1.90625 0,0.66733 -0.0266,1.66742 -0.0937,3 -0.0671,1.33262 -0.14901,2.77849 -0.28125,4.3125 -0.13225,1.53402 -0.24537,2.94865 -0.3125,4.28125 -0.0671,1.3326 -0.0937,2.27946 -0.0937,2.8125 l 49.40625,0 c -5e-5,0 0.0818,-0.63876 0.28125,-1.90625 0.19934,-1.2675 0.39432,-2.76659 0.59375,-4.5 0.19933,-1.73339 0.36567,-3.51399 0.5,-5.3125 0.13422,-1.79849 0.27599,-3.26838 0.40625,-4.46875 -6e-5,-0.26854 0.0266,-0.99176 0.0937,-2.125 0.0671,-1.1332 0.12495,-2.02016 0.125,-2.6875 -5e-5,-0.39874 0.0265,-0.8998 0.0937,-1.5 0.0671,-0.60016 0.0405,-1.2389 -0.0937,-1.90625 -0.13433,-0.66729 -0.35854,-1.22158 -0.625,-1.6875 -0.26658,-0.46588 -0.7118,-0.77195 -1.375,-0.90625 -0.66736,2e-5 -1.75192,0.0266 -3.21875,0.0937 -1.46693,0.0672 -3.13237,0.0938 -5,0.0937 -1.73344,3e-5 -3.31441,-0.0265 -4.78125,-0.0937 -1.46691,-0.0671 -2.55147,-0.0937 -3.21875,-0.0937 -0.79756,-0.13018 -1.88154,-0.41168 -3.28125,-0.8125 -1.39977,-0.40077 -2.12503,-0.73142 -2.125,-1 l 0,-36 c -3e-5,7e-5 0.64076,-0.0818 1.90625,-0.28125 1.26543,-0.19931 2.76656,-0.3943 4.5,-0.59375 1.73336,-0.19932 3.51192,-0.36566 5.3125,-0.5 1.80049,-0.13421 3.2996,-0.27191 4.5,-0.40625 0.66727,6e-5 1.8603,-0.0865 3.59375,-0.21875 1.73334,-0.13217 2.93045,-0.18743 3.59375,-0.1875 l 0,-22.40625 c -0.6633,9e-5 -1.66542,-0.0265 -3,-0.0937 -1.33468,-0.067 -2.74931,-0.15152 -4.28125,-0.21875 -1.53202,-0.067 -2.97791,-0.12027 -4.3125,-0.1875 -1.33468,-0.067 -2.2795,-0.0937 -2.8125,-0.0937 -0.26452,9e-5 -0.82084,-0.0864 -1.6875,-0.21875 -0.86674,-0.13215 -1.81156,-0.32714 -2.8125,-0.59375 -1.00101,-0.26643 -1.94119,-0.62573 -2.875,-1.09375 -0.93387,-0.46785 -1.49482,-1.02416 -1.625,-1.6875 l 0,-1.625 c -3e-5,-0.66315 -0.0266,-1.44106 -0.0937,-2.375 -0.0672,-0.93374 -0.0938,-1.73883 -0.0937,-2.40625 l 0,-1.59375 c -2e-5,-0.26845 -0.0267,-1.21328 -0.0937,-2.8125 -0.0672,-1.59902 -0.0119,-3.31972 0.1875,-5.1875 0.19935,-1.86756 0.55864,-3.5929 1.09375,-5.125 0.53504,-1.53186 1.42868,-2.28113 2.625,-2.28125 l 23.375,0 0,-25.1875 z m -491.46875,0.1875 c 0,14.66894 0.29008,29.29283 0.875,43.875 0.58492,14.58243 1.25232,29.16524 2,43.75 0.74768,14.58493 1.45615,29.20882 2.125,43.875 0.66883,14.66627 0.99999,29.33632 1,44 l 21.25,0 4.5,-4.5 2.75,-68 c 0.49842,-0.16777 1.54059,-0.33208 3.125,-0.5 1.58433,-0.16777 3.37605,-0.33462 5.375,-0.5 1.99885,-0.16523 4.03958,-0.3757 6.125,-0.625 2.08532,-0.24915 3.79235,-0.45708 5.125,-0.625 0.83409,8e-5 1.99949,8e-5 3.5,0 1.66314,8e-5 3.0801,-0.0821 4.25,-0.25 l 0,77.25 31.25,0 c -10e-5,-13.16324 -0.74965,-25.95686 -2.25,-38.375 -1.50054,-12.41806 -2.5278,-25.12445 -3.03125,-38.125 l 0,-36 c -9e-5,-1.16973 -0.0535,-3.37477 -0.21875,-6.625 -0.16539,-3.25001 -0.37587,-6.6666 -0.625,-10.25 -0.24932,-3.58314 -0.49832,-6.95867 -0.75,-10.125 -0.25186,-3.16606 -0.46232,-5.41726 -0.625,-6.75 0.99682,-1.66815 1.74891,-3.83465 2.25,-6.5 0.50091,-2.66504 0.83461,-5.37318 1,-8.125 0.16519,-2.75151 0.2063,-5.2517 0.125,-7.5 -0.0815,-2.24796 -0.12509,-3.87284 -0.125,-4.875 l -25.78125,0 c -0.33067,1.7e-4 -0.59459,1.29135 -0.84375,3.875 -0.24929,2.58399 -0.49829,6.04167 -0.75,10.375 -0.25183,4.33365 -0.4187,9.24936 -0.5,14.75 -0.0815,5.50093 -0.12506,11.08403 -0.125,16.75 l 0,22 c -2.8382,1.1e-4 -6.83496,-0.0846 -12,-0.25 -5.16515,-0.1652 -9.9987,-0.4142 -14.5,-0.75 0.16781,-2.33448 0.291,-4.54206 0.375,-6.625 0.0839,-2.08271 0.12496,-3.37644 0.125,-3.875 l 0,-60.75 -35,0 z m 318.21875,1.59375 c -0.13021,1.4e-4 -0.29859,0.41933 -0.5,1.21875 -0.20142,0.7997 -0.39438,1.76853 -0.59375,2.96875 -0.19939,1.20049 -0.36776,2.42478 -0.5,3.625 -0.13226,1.20049 -0.21876,2.2026 -0.21875,3 -10e-6,0.53317 -0.0267,1.39352 -0.0937,2.59375 -0.0671,1.20048 -0.1204,2.42013 -0.1875,3.6875 -0.0671,1.26762 -0.15165,2.51851 -0.21875,3.71875 -0.0671,1.20048 -0.0938,2.06083 -0.0937,2.59375 l 20.40625,0 0,68.40625 c -0.66734,2.26648 -1.16637,4.54147 -1.5,6.875 -0.33368,2.33362 -0.50002,4.86202 -0.5,7.53125 l 0,14.375 0,3.625 c -2e-5,1.73341 0.0267,3.50937 0.0937,5.375 0.0671,1.86565 0.0937,3.67286 0.0937,5.40625 l 0,3.59375 c 0.39874,0.13428 1.20587,0.30062 2.40625,0.5 1.20034,0.19938 2.47988,0.39437 3.8125,0.59375 1.33258,0.19938 2.58086,0.36573 3.78125,0.5 1.20033,0.13432 2.09193,0.21875 2.625,0.21875 0.39873,0 1.09274,-0.0845 2.09375,-0.21875 1.00094,-0.13427 2.08085,-0.30062 3.28125,-0.5 1.20032,-0.19938 2.31352,-0.39437 3.3125,-0.59375 0.9989,-0.19938 1.69494,-0.36572 2.09375,-0.5 0.13423,-0.53303 0.29854,-1.55973 0.5,-3.09375 0.20137,-1.53401 0.39433,-3.17284 0.59375,-4.90625 0.19934,-1.73338 0.36771,-3.37425 0.5,-4.90625 0.13217,-1.53196 0.2187,-2.61391 0.21875,-3.28125 -5e-5,-2.26642 0.0266,-6.1004 0.0937,-11.5 0.0671,-5.39954 0.0937,-11.17639 0.0937,-17.3125 -4e-5,-6.13194 -0.0267,-11.88162 -0.0937,-17.28125 -0.0672,-5.39951 -0.0938,-9.23349 -0.0937,-11.5 l 1.78125,-3.59375 c 0,-0.80151 -0.0287,-2.24536 -0.0937,-4.3125 -0.0652,-2.06697 -0.0938,-4.23347 -0.0937,-6.5 0,-2.26635 0.0285,-4.43489 0.0937,-6.5 0.065,-2.06493 0.0937,-3.51081 0.0937,-4.3125 -5e-5,-1.20026 0.0844,-2.75461 0.21875,-4.6875 0.13423,-1.93267 0.30057,-3.79311 0.5,-5.59375 0.19933,-1.80043 0.39432,-3.38603 0.59375,-4.71875 0.19933,-1.33248 0.36567,-1.99988 0.5,-2 l 12.59375,0 0,-22.59375 -57.59375,0 z m 69.03125,0 -3.59375,1.8125 c -10e-6,2.26657 0.0267,5.65476 0.0937,10.1875 0.0671,4.533 0.125,9.81083 0.125,15.8125 l 0,18.1875 0,18.1875 c 0,5.86758 -0.0579,11.09219 -0.125,15.625 -0.0671,4.53294 -0.0938,7.92111 -0.0937,10.1875 -10e-6,1.20041 -0.0532,3.33826 -0.1875,6.40625 -0.13428,3.06807 -0.30062,6.34574 -0.5,9.8125 -0.19938,3.46683 -0.39437,6.71527 -0.59375,9.78125 -0.19939,3.06602 -0.36573,5.20591 -0.5,6.40625 -0.26856,0.26451 -0.65911,0.82082 -1.125,1.6875 -0.46591,0.86671 -0.6875,1.50343 -0.6875,1.90625 0,0.66733 -0.0266,1.66742 -0.0937,3 -0.0671,1.33262 -0.18026,2.77849 -0.3125,4.3125 -0.13224,1.53402 -0.21411,2.94865 -0.28125,4.28125 -0.0671,1.3326 -0.125,2.27946 -0.125,2.8125 l 52.40625,-0.8125 c -5e-5,0 0.11302,-0.58089 0.3125,-1.78125 0.19932,-1.20035 0.39228,-2.67285 0.59375,-4.40625 0.20136,-1.73339 0.3677,-3.5406 0.5,-5.40625 0.13219,-1.86563 0.27192,-3.39338 0.40625,-4.59375 -5e-5,-0.26854 0.0265,-0.96051 0.0937,-2.09375 0.0671,-1.1332 0.0937,-2.05141 0.0937,-2.71875 -6e-5,-0.39874 0.0266,-0.8998 0.0937,-1.5 0.0671,-0.60016 0.0671,-1.2389 0,-1.90625 -0.0672,-0.66729 -0.26015,-1.22158 -0.59375,-1.6875 -0.33371,-0.46588 -0.83273,-0.77195 -1.5,-0.90625 -0.66737,2e-5 -2.22173,0.16637 -4.6875,0.5 -2.46587,0.33369 -4.63237,0.50003 -6.5,0.5 -1.73344,3e-5 -3.34566,-0.0265 -4.8125,-0.0937 -1.46692,-0.0671 -2.52021,-0.0937 -3.1875,-0.0937 -0.79756,-0.13018 -1.9128,-0.41168 -3.3125,-0.8125 -1.39977,-0.40077 -2.09378,-0.73142 -2.09375,-1 l 0,-64.78125 0,-1.625 c -3e-5,-0.66315 -0.0266,-1.44106 -0.0937,-2.375 -0.0672,-0.93374 -0.0938,-1.73883 -0.0937,-2.40625 l 0,-1.59375 c -3e-5,-0.13418 0.19496,-1.16086 0.59375,-3.09375 0.39874,-1.93267 0.81329,-4.35203 1.28125,-7.21875 0.46791,-2.86651 0.94032,-5.89335 1.40625,-9.09375 0.46587,-3.20015 0.80059,-6.20039 1,-9 0.19935,-2.79935 0.19935,-5.13219 0,-7 -0.19941,-1.86754 -0.7025,-2.81236 -1.5,-2.8125 l -22.40625,-0.59385 z m -169.15625,0.8125 -28,0.375 c -0.13432,1.4e-4 -0.41378,0.72336 -0.8125,2.125 -0.3988,1.40191 -0.73148,2.48386 -1,3.28125 -0.13431,0.40297 -0.30065,1.04171 -0.5,1.90625 -0.19941,0.86479 -0.3944,1.75379 -0.59375,2.6875 -0.19942,0.93397 -0.36576,1.85217 -0.5,2.71875 -0.13432,0.86682 -0.18753,1.41907 -0.1875,1.6875 l -7.21875,13.59375 c -0.39879,1.86778 -0.7069,3.7016 -0.90625,5.5 -0.19941,1.7986 -0.39439,3.43947 -0.59375,4.90625 -0.1994,1.46698 -0.33915,2.66001 -0.40625,3.59375 -0.0672,0.93394 -0.0938,1.49081 -0.0937,1.625 -1.59915,6.93368 -3.01378,13.014 -4.28125,18.28125 -1.26752,5.2674 -2.51841,10.07486 -3.71875,14.40625 -1.20038,4.33152 -2.3934,8.47157 -3.59375,12.40625 -1.20037,3.93478 -2.3934,8.10144 -3.59375,12.5 -1.20037,4.39864 -2.50652,9.25931 -3.90625,14.59375 -1.39974,5.33449 -2.95411,11.61443 -4.6875,18.8125 l 30.375,4.59375 1.81245,-15.40625 c -3e-5,-0.53302 0.1397,-1.39337 0.40625,-2.59375 0.26649,-1.20034 0.6012,-2.72605 1,-4.59375 1.86764,-0.26446 4.06075,-0.54595 6.59375,-0.8125 2.53292,-0.26649 4.6728,-0.54392 6.40625,-0.8125 0.53299,2e-5 1.92101,2e-5 4.1875,0 2.27045,2e-5 4.35508,-0.0532 6.21875,-0.1875 0.26849,2.79951 0.51467,5.60476 0.78125,8.40625 0.26646,2.80153 0.60117,5.32732 1,7.59375 0.3987,2.26645 0.87112,4.10027 1.40625,5.5 0.53501,1.39974 1.20241,2.09375 2,2.09375 l 5.8125,0 c 2.93369,0 5.76555,-0.16634 8.5,-0.5 2.73429,-0.33366 6.23559,-1.02766 10.5,-2.09375 -9e-5,-2.93375 -0.25293,-6.07372 -0.71875,-9.40625 -0.46598,-3.33251 -1.02027,-6.72068 -1.6875,-10.1875 -0.66741,-3.46677 -1.3348,-6.88417 -2,-10.21875 -0.66536,-3.33452 -1.27954,-6.38798 -1.8125,-9.1875 -2.00203,-10.7991 -3.97355,-21.41204 -5.90625,-31.8125 -1.93285,-10.40031 -3.76667,-21.06648 -5.5,-32 -1.06615,-5.8674 -2.06623,-11.28235 -3,-16.28125 -0.9339,-4.99865 -1.51277,-10.69306 -1.78125,-17.09375 z m 32.21875,2.78125 -1.8125,1.8125 c -0.13429,0.13034 -0.30062,1.63352 -0.5,4.5 -0.19939,2.86675 -0.39234,6.58761 -0.59375,11.1875 -0.20142,4.60013 -0.45224,9.76687 -0.71875,15.5 -0.26653,5.73333 -0.48813,11.51221 -0.6875,17.3125 -0.19939,5.80045 -0.39437,11.38175 -0.59375,16.78125 -0.19938,5.39964 -0.36572,10.03668 -0.5,13.90625 0,1.73345 -0.0267,4.65183 -0.0937,8.71875 -0.0671,4.06702 -0.18026,8.48189 -0.3125,13.28125 -0.13224,4.79943 -0.21415,9.69135 -0.28125,14.625 -0.0671,4.93369 -0.125,9.18426 -0.125,12.78125 l 0,6.40625 24.21875,0 0,-63 9,0 c 0.26852,1.20042 0.62781,3.06085 1.09375,5.59375 0.46586,2.53301 0.99353,5.39353 1.59375,8.59375 0.60014,3.20032 1.21228,6.59111 1.8125,10.125 0.60014,3.53397 1.18103,6.8935 1.78125,10.09375 0.60014,3.2003 1.12781,6.06081 1.59375,8.59375 0.46586,2.53298 0.8564,4.3934 1.125,5.59375 0.26444,1.46485 0.68102,3.35393 1.28125,5.6875 0.60013,2.33358 1.09916,4.30713 1.5,5.90625 0.40075,1.59912 0.67818,2.54395 0.8125,2.8125 l 22.1875,0 c -7e-5,-5.20019 -0.69408,-10.34032 -2.09375,-15.40625 -1.3998,-5.0659 -2.89891,-10.09291 -4.5,-15.09375 -1.60122,-5.00078 -3.10031,-9.97254 -4.5,-14.90625 -1.39979,-4.93363 -2.09381,-9.93403 -2.09375,-15 -6e-5,-0.3987 0.55423,-1.03949 1.6875,-1.90625 1.13317,-0.86664 2.38405,-1.89333 3.71875,-3.09375 1.33457,-1.20029 2.55422,-2.61492 3.6875,-4.28125 1.13315,-1.66618 1.71868,-3.52922 1.71875,-5.53125 -7e-5,-8.79711 -0.41926,-17.35407 -1.21875,-25.6875 -0.79963,-8.33322 -1.60471,-16.69112 -2.40625,-25.09375 -0.13434,-0.7974 -0.24282,-1.79952 -0.375,-3 -0.1323,-1.20023 -0.29865,-2.36665 -0.5,-3.5 -0.20148,-1.13308 -0.42568,-2.13316 -0.625,-3 -0.19947,-0.86656 -0.28131,-1.31236 -0.28125,-1.3125 l -54,0 z m 19.78125,19.8125 12.59375,0 c 1.20032,1.2e-4 2.09192,0.88912 2.625,2.6875 0.533,1.79862 0.89432,3.82538 1.09375,6.09375 0.19941,2.26858 0.2526,4.40644 0.1875,6.40625 -0.0651,2.00002 -0.0938,3.22633 -0.0937,3.625 -5e-5,0.80169 -0.0267,2.02134 -0.0937,3.6875 -0.0672,1.66635 -0.0938,2.55739 -0.0937,2.6875 l -3.625,3.59375 -12.59375,0 0,-28.78125 z m -70.40625,34.78125 c 0.93175,8e-5 1.93386,0.72534 3,2.125 1.06602,1.39982 1.78462,2.61742 2.1875,3.6875 0.13423,0.66332 0.35843,2.11124 0.625,4.3125 0.26647,2.2014 0.54332,4.7272 0.875,7.59375 0.33157,2.86668 0.66629,5.86692 1,9 0.33361,3.13319 0.63764,5.96506 0.90625,8.5 -1.46896,5e-5 -3.18764,-0.0532 -5.1875,-0.1875 -1.99997,-0.13423 -3.97352,-0.2453 -5.90625,-0.3125 -1.93283,-0.0671 -3.6003,-0.18021 -5,-0.3125 -1.39978,-0.13217 -2.28877,-0.18745 -2.6875,-0.1875 l -0.625,0 c 0.80155,-4.13406 1.74638,-8.24547 2.8125,-12.3125 1.06604,-4.06691 2.12138,-7.73252 3.1875,-11 1.06604,-3.26734 2.03951,-5.90625 2.90625,-7.90625 0.86665,-1.99984 1.50337,-2.99992 1.90625,-3 z"
       inkscape:connector-curvature="0" />
    <g
       transform="matrix(0.98333264,0,0,0.98333264,9.7476884,66.195928)"
       style="font-size:78px;font-style:normal;font-variant:normal;font-weight:normal;font-stretch:normal;text-align:start;line-height:125%;letter-spacing:0px;word-spacing:0px;writing-mode:lr-tb;text-anchor:start;fill:url(#linearGradient3888);fill-opacity:1.0;stroke:none;font-family:Xoireqe;-inkscape-font-specification:Xoireqe"
       id="flowRoot3058">
      <g
         id="g3086"
         style="fill:url(#linearGradient4636);fill-opacity:1.0">
        <g
           id="g3874"
           style="fill:url(#linearGradient4634);fill-opacity:1.0">
          <path
             d="m 364.78711,472.39456 0,14.58453 -67.7049,0 0,28.31451 52.65143,0 0,-6.55078 -25.89605,0 0,-15.05347 40.71386,0 0,18.56214 c -8e-5,2.34071 -0.36388,4.38188 -1.0914,6.1235 -0.72768,1.74165 -1.94921,3.60032 -3.66458,5.57602 -2.13289,2.49622 -4.68147,4.21247 -7.64575,5.14875 -2.44392,0.78076 -5.64155,1.17114 -9.5929,1.17114 l -38.76672,0 c -3.4833,0 -6.34291,-0.3642 -8.57886,-1.09259 -2.65174,-0.88391 -5.04401,-2.41766 -7.17682,-4.60126 -1.87256,-1.92492 -3.26349,-3.88833 -4.17279,-5.89023 -0.9093,-2.00188 -1.36395,-4.3025 -1.36395,-6.90188 l 0,-23.24433 c 0,-1.76778 0.58478,-3.7177 1.75433,-5.84976 1.16955,-2.13197 2.74218,-4.0561 4.7179,-5.7724 1.9757,-1.71619 4.22475,-2.89924 6.74716,-3.54913 2.52238,-0.64979 5.13563,-0.97471 7.83975,-0.97476 z"
             style="fill:url(#linearGradient4622);fill-opacity:1.0"
             id="path3067"
             inkscape:connector-curvature="0" />
          <path
             d="m 451.72064,486.82436 c 0,-3.74348 1.16995,-6.96729 3.50986,-9.67144 2.33989,-2.70405 5.35542,-4.23859 9.0466,-4.60364 4.1085,6e-5 7.64493,1.17041 10.60931,3.51105 2.65171,2.08049 4.75754,5.04405 6.31751,8.89068 l 13.02539,32.37067 14.27508,-34.08453 c 1.40436,-3.38008 3.22455,-5.98024 5.46058,-7.80048 2.44377,-1.97565 5.35576,-2.9635 8.73596,-2.96356 4.31474,6e-5 7.82419,1.63775 10.52838,4.91308 2.54849,3.06756 3.82279,6.81188 3.82288,11.23297 l 0,41.88501 -13.96326,0 0,-42.66577 -13.80615,30.41876 c -2.44391,5.35743 -4.61481,8.88078 -6.5127,10.57004 -1.898,1.68927 -4.14666,2.69022 -6.74597,3.00284 -4.00383,0 -7.4879,-1.37823 -10.45221,-4.1347 -2.28837,-2.13122 -4.3942,-5.30267 -6.31751,-9.51435 l -13.57287,-29.79748 0,42.51105 -13.96088,-0.39039 z"
             style="fill:url(#linearGradient4624);fill-opacity:1.0"
             id="path3071"
             inkscape:connector-curvature="0" />
          <path
             d="m 544.63605,530.97311 0,-58.57855 16.14605,0 0,58.57855 z"
             style="fill:url(#linearGradient4626);fill-opacity:1.0"
             id="path3073"
             inkscape:connector-curvature="0" />
          <path
             d="m 582.45062,471.22341 c 2.08043,6e-5 4.13468,0.49438 6.16278,1.48297 2.02805,0.98871 3.97837,2.39233 5.85096,4.21088 l 39.23327,39 0,-43.28943 14.66309,0 0,42.4325 c -9e-5,3.4325 -0.59796,6.33179 -1.79361,8.69787 -1.19582,2.3661 -3.17193,4.32911 -5.92832,5.88904 -0.98713,0.51892 -2.07893,0.9343 -3.27539,1.24612 -1.1966,0.31183 -2.31458,0.46775 -3.35394,0.46775 -2.18366,0 -4.2764,-0.48084 -6.27823,-1.44251 -2.00195,-0.96167 -3.96536,-2.37878 -5.89023,-4.25134 l -39.23327,-38.68817 0,43.75836 -14.58692,-0.23328 0,-45.3175 c 0,-2.91194 0.728,-5.40815 2.18399,-7.48865 1.45599,-2.08039 3.5884,-3.77045 6.39725,-5.07019 1.97569,-0.93622 3.92522,-1.40436 5.84857,-1.40442 z"
             style="fill:url(#linearGradient4628);fill-opacity:1.0"
             id="path3075"
             inkscape:connector-curvature="0" />
          <path
             d="m 736.35352,472.39456 0,14.58453 -67.7049,0 0,28.31451 52.65143,0 0,-6.55078 -25.89606,0 0,-15.05347 40.71387,0 0,18.56214 c -9e-5,2.34071 -0.36389,4.38188 -1.0914,6.1235 -0.72768,1.74165 -1.94921,3.60032 -3.66458,5.57602 -2.13289,2.49622 -4.68147,4.21247 -7.64575,5.14875 -2.44392,0.78076 -5.64155,1.17114 -9.5929,1.17114 l -38.76672,0 c -3.4833,0 -6.34292,-0.3642 -8.57886,-1.09259 -2.65175,-0.88391 -5.04402,-2.41766 -7.17682,-4.60126 -1.87256,-1.92492 -3.26349,-3.88833 -4.17279,-5.89023 -0.9093,-2.00188 -1.36396,-4.3025 -1.36395,-6.90188 l 0,-23.24433 c -10e-6,-1.76778 0.58477,-3.7177 1.75433,-5.84976 1.16955,-2.13197 2.74218,-4.0561 4.7179,-5.7724 1.97569,-1.71619 4.22474,-2.89924 6.74716,-3.54913 2.52238,-0.64979 5.13563,-0.97471 7.83975,-0.97476 z"
             style="fill:url(#linearGradient4630);fill-opacity:1.0"
             id="path3077"
             inkscape:connector-curvature="0" />
          <path
             inkscape:connector-curvature="0"
             d="m 388.77603,467.91013 0,11.07172 9.11788,0 3.74483,11.56015 -27.84208,43.14709 13.67681,0 19.86395,-29.30745 13.02555,32.88948 20.51521,-6.51279 -3.25639,-10.09477 -9.44351,2.93075 -22.14342,-55.68418 -17.25883,0 z"
             style="fill:url(#linearGradient4632);fill-opacity:1.0;fill-rule:evenodd;stroke:none"
             id="path2255" />
        </g>
      </g>
    </g>
  </g>
</svg>
