<svg viewBox="0 0 638.11994 221.89997" xmlns="http://www.w3.org/2000/svg" xmlns:xlink="http://www.w3.org/1999/xlink"><linearGradient id="a" gradientUnits="userSpaceOnUse" x1="498.56201" x2="498.56201" y1="538.54523" y2="467.35513"><stop offset="0" stop-color="#b9b9b9"/><stop offset="1" stop-color="#fff"/></linearGradient><linearGradient id="b" gradientUnits="userSpaceOnUse" x1="500.75" x2="500.75" y1="371.97751" y2="554.41107"><stop offset="0" stop-color="#ff4300"/><stop offset="1" stop-color="#ad0000"/></linearGradient><filter id="c" color-interpolation-filters="sRGB"><feFlood flood-opacity=".55" result="flood"/><feComposite in="flood" in2="SourceGraphic" operator="in" result="composite1"/><feGaussianBlur result="blur" stdDeviation="5"/><feOffset dx="0" dy="3" result="offset"/><feComposite in="SourceGraphic" in2="offset" operator="over" result="composite2"/></filter><g transform="translate(-180.94004 -372.61218)"><g filter="url(#c)"><path d="m785.06251 378.61218c-2.16679.00017-3.87636.45711-5.125 1.375-1.24872.91825-2.54243 2.04257-3.875 3.375-5.33552 4.83212-10.12545 9.29089-14.375 13.375-4.24959 4.08442-7.83304 8.37635-10.75 12.875-2.91698 4.49894-5.12455 9.49934-6.625 15-1.50045 5.50092-2.25 12.08512-2.25 19.75 0 6.0019.3337 10.9176 1 14.75.6663 3.8326 1.83171 7.04127 3.5 9.625 1.66829 2.58391 3.95802 4.83256 6.875 6.75 2.91696 1.9176 6.62872 4.12772 11.125 6.625 1.16981.83422 2.75107 1.83277 4.75 3 1.99887 1.16737 3.99852 2.33531 6 3.5 2.00141 1.16482 3.70844 2.207 5.125 3.125 1.41648.91814 2.12496 1.45722 2.125 1.625l2.25 4.5v26.5c-.33065.00003-1.08274.12581-2.25.375-1.16734.24926-1.91944.29288-2.25.125-1.33264-.16273-3.45807-.66582-6.375-1.5-2.91701-.83411-6.04098-1.75051-9.375-2.75-3.33407-.99941-6.49912-1.91582-9.5-2.75-3.00091-.83411-5.08526-1.5015-6.25-2-.83416.99695-1.45794 2.20852-1.875 3.625-.41708 1.41656-.66608 2.91567-.75 4.5-.0839 1.58441-.0839 3.0835 0 4.5.0839 1.41655.125 2.45873.125 3.125v2.25c0 1.00201.0411 2.12635.125 3.375.0839 1.2487.125 2.37302.125 3.375v2.25c1.9989 3.00091 4.70702 5.37533 8.125 7.125 3.41795 1.74968 7.12463 3.12556 11.125 4.125 4.00032.99946 8.00217 1.66686 12 2 3.99777.33316 7.49906.5 10.5.5 6.66804 0 11.99959-1.54273 16-4.625 4.00027-3.08227 7.08318-6.99942 9.25-11.75 2.16667-4.75055 3.54254-9.95888 4.125-15.625.58229-5.66606.87492-11.16447.875-16.5-.00008-5.83389-.208-11.75069-.625-17.75-.41715-5.99917-1.70833-11.74659-3.875-17.25-.99698-.33053-2.66547-1.00046-5-2-2.33466-.99936-4.83486-2.12369-7.5-3.375-2.66526-1.25113-5.16547-2.41653-7.5-3.5-2.33465-1.08328-3.9159-1.87645-4.75-2.375-3.1637-1.6682-6.167-4.00155-9-7-2.83309-2.99825-4.25003-6.91286-4.25-11.75-.00003-1.6631.12574-3.99898.375-7 .24919-3.00077.74974-5.91683 1.5-8.75.75018-2.83292 1.91813-5.33311 3.5-7.5 1.58178-2.16661 3.62251-3.24986 6.125-3.25.33056.00014 1.08265.0412 2.25.125 1.16724.0841 1.83211.21238 2 .375l24.75 13.5c1.33252-4.50121 2.08208-8.29259 2.25-11.375.16777-3.08213.24992-6.79136.25-11.125-.00008-.834-.0411-2.3331-.125-4.5-.084-2.16659-.12508-3.6657-.125-4.5-1.00207-1.50029-2.87595-3.41779-5.625-5.75-2.74919-2.33189-5.79103-4.58308-9.125-6.75-3.33411-2.16657-6.70963-4.04045-10.125-5.625-3.41548-1.58419-6.37261-2.37483-8.875-2.375zm-75.03125 1.59375c-1.73343.00014-3.09484.35944-4.09375 1.09375-.99897.7346-2.0277 1.65281-3.09375 2.71875-4.26842 3.86569-8.10036 7.42022-11.5 10.6875-3.39967 3.26754-6.26019 6.71358-8.59375 10.3125-2.33359 3.59916-4.11214 7.59948-5.3125 12-1.20036 4.40074-1.8125 9.64935-1.8125 15.78125 0 4.80152.27946 8.74658.8125 11.8125.53303 3.06608 1.47786 5.62051 2.8125 7.6875 1.33463 2.06712 3.16641 3.8723 5.5 5.40625 2.33356 1.53408 5.27798 3.31468 8.875 5.3125.93586.66738 2.21336 1.47247 3.8125 2.40625 1.5991.9339 3.21132 1.8495 4.8125 2.78125 1.60113.93185 2.9605 1.76559 4.09375 2.5 1.13319.7345 1.68747 1.17827 1.6875 1.3125l1.8125 3.59375v21.1875c-.26452.00003-.8787.11313-1.8125.3125-.93387.19941-1.51679.22801-1.78125.0937-1.06611-.13018-2.76021-.52016-5.09375-1.1875-2.33361-.66729-4.83279-1.41916-7.5-2.21875-2.66726-.79953-5.2243-1.52015-7.625-2.1875-2.40073-.66728-4.06821-1.19495-5-1.59375-.66733.79756-1.16634 1.74181-1.5 2.875-.33366 1.13325-.52662 2.35753-.59375 3.625-.0671 1.26752-.0671 2.46055 0 3.59375.0671 1.13324.0937 1.96698.0937 2.5v1.78125c0 .80161.0266 1.71983.0937 2.71875.0671.99896.125 1.88592.125 2.6875v1.8125c1.59912 2.40072 3.76561 4.28777 6.5 5.6875 2.73436 1.39974 5.70596 2.51294 8.90625 3.3125 3.20026.79956 6.39548 1.32723 9.59375 1.59375 3.19821.26652 5.97425.40625 8.375.40625 5.33443 0 9.61218-1.22168 12.8125-3.6875 3.20022-2.46581 5.67279-5.60579 7.40625-9.40625 1.73333-3.80044 2.84653-7.96711 3.3125-12.5.46583-4.53285.68744-8.95032.6875-13.21875-.00006-4.66711-.1664-9.38805-.5-14.1875-.33372-4.79934-1.36041-9.40977-3.09375-13.8125-.79758-.26442-2.13238-.79412-4-1.59375-1.86773-.79949-3.86789-1.68646-6-2.6875-2.13221-1.00091-4.13237-1.94572-6-2.8125-1.86772-.86662-3.14522-1.50741-3.8125-1.90625-2.53096-1.33456-4.92109-3.19499-7.1875-5.59375-2.26646-2.39859-3.40628-5.53654-3.40625-9.40625-.00003-1.33048.11313-3.19294.3125-5.59375.19935-2.40061.58729-4.73346 1.1875-7 .60015-2.26633 1.51576-4.2665 2.78125-6 1.26543-1.73329 2.90426-2.59364 4.90625-2.59375.26445.00011.87862.0267 1.8125.0937.9338.0673 1.45943.1824 1.59375.3125l19.8126 10.78135c1.06602-3.60097 1.64691-6.62782 1.78125-9.09375.13422-2.46571.21869-5.43934.21875-8.90625-.00006-.6672-.0266-1.86023-.0937-3.59375-.0672-1.73328-.12506-2.9263-.125-3.59375-.80165-1.20023-2.30076-2.72798-4.5-4.59375-2.19936-1.8655-4.61407-3.67272-7.28125-5.40625-2.66729-1.73327-5.36145-3.23236-8.09375-4.5-2.73238-1.26735-5.12308-1.90611-7.125-1.90625zm-378.625.21875c-7.73117.53319-15.62073 1.00299-23.6875 1.46875-8.06684.46604-15.79266.57713-23.125.3125l-3.59375 1.8125c-.00001 2.26657.0267 5.65476.0937 10.1875.0671 4.533.125 9.81083.125 15.8125v18.1875 18.1875c0 5.86758-.0579 11.09219-.125 15.625-.0671 4.53294-.0938 7.92111-.0937 10.1875-.00001 1.20041-.0533 3.33826-.1875 6.40625-.13428 3.06807-.30062 6.34574-.5 9.8125-.19938 3.46683-.39437 6.71527-.59375 9.78125-.19939 3.06602-.36573 5.20591-.5 6.40625-.26856.26451-.65911.82082-1.125 1.6875-.46591.86671-.6875 1.50343-.6875 1.90625 0 .66733-.0266 1.66742-.0937 3-.0671 1.33262-.18026 2.77849-.3125 4.3125-.13224 1.53402-.21411 2.94865-.28125 4.28125-.0671 1.3326-.125 2.27946-.125 2.8125h49.40625c-.00005 0 .11303-.63876.3125-1.90625.19933-1.2675.39432-2.76659.59375-4.5.19933-1.73339.36567-3.51399.5-5.3125.13423-1.79849.27599-3.26838.40625-4.46875-.00005-.26854.0265-.99176.0937-2.125.0671-1.1332.0937-2.02016.0937-2.6875-.00006-.39874.0265-.8998.0937-1.5.0671-.60016.0405-1.2389-.0937-1.90625-.13433-.66729-.32728-1.22158-.59375-1.6875-.26657-.46588-.74305-.77195-1.40625-.90625-.66737.00002-1.72067.0266-3.1875.0937-1.46692.0672-3.13237.0938-5 .0937-1.73344.00003-3.34566-.0265-4.8125-.0937-1.46692-.0671-2.52021-.0937-3.1875-.0937-.79756-.13018-1.9128-.41168-3.3125-.8125-1.39977-.40077-2.09378-.73142-2.09375-1v-36c-.00003.00007.64076-.0818 1.90625-.28125 1.26543-.19931 2.76657-.3943 4.5-.59375 1.73336-.19932 3.48068-.36566 5.28125-.5 1.8005-.13421 3.29959-.27191 4.5-.40625.66727.00006 1.89156-.0865 3.625-.21875 1.73335-.13217 2.93045-.18743 3.59375-.1875v-22.40625c-.6633.00009-1.66542-.0265-3-.0937-1.33469-.067-2.78057-.15152-4.3125-.21875-1.53203-.067-2.94665-.12027-4.28125-.1875-1.33467-.067-2.2795-.0937-2.8125-.0937-.26453.00009-.82084-.0864-1.6875-.21875-.86673-.13215-1.81156-.32714-2.8125-.59375-1.00101-.26643-1.97245-.62573-2.90625-1.09375-.93387-.46785-1.46357-1.02416-1.59375-1.6875v-1.625c-.00003-.66315-.0266-1.44106-.0937-2.375-.0672-.93374-.0938-1.73883-.0937-2.40625v-1.59375c-.00003-.26845-.0579-1.21328-.125-2.8125-.0672-1.59902.0194-3.31972.21875-5.1875.19935-1.86756.55865-3.5929 1.09375-5.125.53505-1.53186 1.39743-2.28113 2.59375-2.28125h23.40625v-25.1875zm341 0c-7.73117.53319-15.62073 1.00299-23.6875 1.46875-8.06684.46604-15.76141.57713-23.09375.3125l-3.59375 1.8125c0 2.26657.0266 5.65476.0937 10.1875.0671 4.533.0937 9.81083.0937 15.8125v18.1875 18.1875c-.00001 5.86758-.0266 11.09219-.0937 15.625-.0671 4.53294-.0937 7.92111-.0937 10.1875 0 1.20041-.0844 3.33826-.21875 6.40625-.13429 3.06807-.30063 6.34574-.5 9.8125-.19939 3.46683-.39437 6.71527-.59375 9.78125-.19938 3.06602-.36572 5.20591-.5 6.40625-.26855.26451-.62785.82082-1.09375 1.6875-.4659.86671-.71875 1.50343-.71875 1.90625 0 .66733-.0266 1.66742-.0937 3-.0671 1.33262-.14901 2.77849-.28125 4.3125-.13225 1.53402-.24537 2.94865-.3125 4.28125-.0671 1.3326-.0937 2.27946-.0937 2.8125h49.40625c-.00005 0 .0818-.63876.28125-1.90625.19934-1.2675.39432-2.76659.59375-4.5.19933-1.73339.36567-3.51399.5-5.3125.13422-1.79849.27599-3.26838.40625-4.46875-.00006-.26854.0266-.99176.0937-2.125.0671-1.1332.12495-2.02016.125-2.6875-.00005-.39874.0265-.8998.0937-1.5.0671-.60016.0405-1.2389-.0937-1.90625-.13433-.66729-.35854-1.22158-.625-1.6875-.26658-.46588-.7118-.77195-1.375-.90625-.66736.00002-1.75192.0266-3.21875.0937-1.46693.0672-3.13237.0938-5 .0937-1.73344.00003-3.31441-.0265-4.78125-.0937-1.46691-.0671-2.55147-.0937-3.21875-.0937-.79756-.13018-1.88154-.41168-3.28125-.8125-1.39977-.40077-2.12503-.73142-2.125-1v-36c-.00003.00007.64076-.0818 1.90625-.28125 1.26543-.19931 2.76656-.3943 4.5-.59375 1.73336-.19932 3.51192-.36566 5.3125-.5 1.80049-.13421 3.2996-.27191 4.5-.40625.66727.00006 1.8603-.0865 3.59375-.21875 1.73334-.13217 2.93045-.18743 3.59375-.1875v-22.40625c-.6633.00009-1.66542-.0265-3-.0937-1.33468-.067-2.74931-.15152-4.28125-.21875-1.53202-.067-2.97791-.12027-4.3125-.1875-1.33468-.067-2.2795-.0937-2.8125-.0937-.26452.00009-.82084-.0864-1.6875-.21875-.86674-.13215-1.81156-.32714-2.8125-.59375-1.00101-.26643-1.94119-.62573-2.875-1.09375-.93387-.46785-1.49482-1.02416-1.625-1.6875v-1.625c-.00003-.66315-.0266-1.44106-.0937-2.375-.0672-.93374-.0938-1.73883-.0937-2.40625v-1.59375c-.00002-.26845-.0267-1.21328-.0937-2.8125-.0672-1.59902-.0119-3.31972.1875-5.1875.19935-1.86756.55864-3.5929 1.09375-5.125.53504-1.53186 1.42868-2.28113 2.625-2.28125h23.375v-25.1875zm-491.46875.1875c0 14.66894.29008 29.29283.875 43.875.58492 14.58243 1.25232 29.16524 2 43.75.74768 14.58493 1.45615 29.20882 2.125 43.875.66883 14.66627.99999 29.33632 1 44h21.25l4.5-4.5 2.75-68c.49842-.16777 1.54059-.33208 3.125-.5 1.58433-.16777 3.37605-.33462 5.375-.5 1.99885-.16523 4.03958-.3757 6.125-.625 2.08532-.24915 3.79235-.45708 5.125-.625.83409.00008 1.99949.00008 3.5 0 1.66314.00008 3.0801-.0821 4.25-.25v77.25h31.25c-.0001-13.16324-.74965-25.95686-2.25-38.375-1.50054-12.41806-2.5278-25.12445-3.03125-38.125v-36c-.00009-1.16973-.0535-3.37477-.21875-6.625-.16539-3.25001-.37587-6.6666-.625-10.25-.24932-3.58314-.49832-6.95867-.75-10.125-.25186-3.16606-.46232-5.41726-.625-6.75.99682-1.66815 1.74891-3.83465 2.25-6.5.50091-2.66504.83461-5.37318 1-8.125.16519-2.75151.2063-5.2517.125-7.5-.0815-2.24796-.12509-3.87284-.125-4.875h-25.78125c-.33067.00017-.59459 1.29135-.84375 3.875-.24929 2.58399-.49829 6.04167-.75 10.375-.25183 4.33365-.4187 9.24936-.5 14.75-.0815 5.50093-.12506 11.08403-.125 16.75v22c-2.8382.00011-6.83496-.0846-12-.25-5.16515-.1652-9.9987-.4142-14.5-.75.16781-2.33448.291-4.54206.375-6.625.0839-2.08271.12496-3.37644.125-3.875v-60.75zm318.21875 1.59375c-.13021.00014-.29859.41933-.5 1.21875-.20142.7997-.39438 1.76853-.59375 2.96875-.19939 1.20049-.36776 2.42478-.5 3.625-.13226 1.20049-.21876 2.2026-.21875 3-.00001.53317-.0267 1.39352-.0937 2.59375-.0671 1.20048-.1204 2.42013-.1875 3.6875-.0671 1.26762-.15165 2.51851-.21875 3.71875-.0671 1.20048-.0938 2.06083-.0937 2.59375h20.40625v68.40625c-.66734 2.26648-1.16637 4.54147-1.5 6.875-.33368 2.33362-.50002 4.86202-.5 7.53125v14.375 3.625c-.00002 1.73341.0267 3.50937.0937 5.375.0671 1.86565.0937 3.67286.0937 5.40625v3.59375c.39874.13428 1.20587.30062 2.40625.5 1.20034.19938 2.47988.39437 3.8125.59375 1.33258.19938 2.58086.36573 3.78125.5 1.20033.13432 2.09193.21875 2.625.21875.39873 0 1.09274-.0845 2.09375-.21875 1.00094-.13427 2.08085-.30062 3.28125-.5 1.20032-.19938 2.31352-.39437 3.3125-.59375.9989-.19938 1.69494-.36572 2.09375-.5.13423-.53303.29854-1.55973.5-3.09375.20137-1.53401.39433-3.17284.59375-4.90625.19934-1.73338.36771-3.37425.5-4.90625.13217-1.53196.2187-2.61391.21875-3.28125-.00005-2.26642.0266-6.1004.0937-11.5.0671-5.39954.0937-11.17639.0937-17.3125-.00004-6.13194-.0267-11.88162-.0937-17.28125-.0672-5.39951-.0938-9.23349-.0937-11.5l1.78125-3.59375c0-.80151-.0287-2.24536-.0937-4.3125-.0652-2.06697-.0938-4.23347-.0937-6.5 0-2.26635.0285-4.43489.0937-6.5.065-2.06493.0937-3.51081.0937-4.3125-.00005-1.20026.0844-2.75461.21875-4.6875.13423-1.93267.30057-3.79311.5-5.59375.19933-1.80043.39432-3.38603.59375-4.71875.19933-1.33248.36567-1.99988.5-2h12.59375v-22.59375zm69.03125 0-3.59375 1.8125c-.00001 2.26657.0267 5.65476.0937 10.1875.0671 4.533.125 9.81083.125 15.8125v18.1875 18.1875c0 5.86758-.0579 11.09219-.125 15.625-.0671 4.53294-.0938 7.92111-.0937 10.1875-.00001 1.20041-.0532 3.33826-.1875 6.40625-.13428 3.06807-.30062 6.34574-.5 9.8125-.19938 3.46683-.39437 6.71527-.59375 9.78125-.19939 3.06602-.36573 5.20591-.5 6.40625-.26856.26451-.65911.82082-1.125 1.6875-.46591.86671-.6875 1.50343-.6875 1.90625 0 .66733-.0266 1.66742-.0937 3-.0671 1.33262-.18026 2.77849-.3125 4.3125-.13224 1.53402-.21411 2.94865-.28125 4.28125-.0671 1.3326-.125 2.27946-.125 2.8125l52.40625-.8125c-.00005 0 .11302-.58089.3125-1.78125.19932-1.20035.39228-2.67285.59375-4.40625.20136-1.73339.3677-3.5406.5-5.40625.13219-1.86563.27192-3.39338.40625-4.59375-.00005-.26854.0265-.96051.0937-2.09375.0671-1.1332.0937-2.05141.0937-2.71875-.00006-.39874.0266-.8998.0937-1.5.0671-.60016.0671-1.2389 0-1.90625-.0672-.66729-.26015-1.22158-.59375-1.6875-.33371-.46588-.83273-.77195-1.5-.90625-.66737.00002-2.22173.16637-4.6875.5-2.46587.33369-4.63237.50003-6.5.5-1.73344.00003-3.34566-.0265-4.8125-.0937-1.46692-.0671-2.52021-.0937-3.1875-.0937-.79756-.13018-1.9128-.41168-3.3125-.8125-1.39977-.40077-2.09378-.73142-2.09375-1v-64.78125-1.625c-.00003-.66315-.0266-1.44106-.0937-2.375-.0672-.93374-.0938-1.73883-.0937-2.40625v-1.59375c-.00003-.13418.19496-1.16086.59375-3.09375.39874-1.93267.81329-4.35203 1.28125-7.21875.46791-2.86651.94032-5.89335 1.40625-9.09375.46587-3.20015.80059-6.20039 1-9 .19935-2.79935.19935-5.13219 0-7-.19941-1.86754-.7025-2.81236-1.5-2.8125zm-169.15625.8125-28 .375c-.13432.00014-.41378.72336-.8125 2.125-.3988 1.40191-.73148 2.48386-1 3.28125-.13431.40297-.30065 1.04171-.5 1.90625-.19941.86479-.3944 1.75379-.59375 2.6875-.19942.93397-.36576 1.85217-.5 2.71875-.13432.86682-.18753 1.41907-.1875 1.6875l-7.21875 13.59375c-.39879 1.86778-.7069 3.7016-.90625 5.5-.19941 1.7986-.39439 3.43947-.59375 4.90625-.1994 1.46698-.33915 2.66001-.40625 3.59375-.0672.93394-.0938 1.49081-.0937 1.625-1.59915 6.93368-3.01378 13.014-4.28125 18.28125-1.26752 5.2674-2.51841 10.07486-3.71875 14.40625-1.20038 4.33152-2.3934 8.47157-3.59375 12.40625-1.20037 3.93478-2.3934 8.10144-3.59375 12.5-1.20037 4.39864-2.50652 9.25931-3.90625 14.59375-1.39974 5.33449-2.95411 11.61443-4.6875 18.8125l30.375 4.59375 1.81245-15.40625c-.00003-.53302.1397-1.39337.40625-2.59375.26649-1.20034.6012-2.72605 1-4.59375 1.86764-.26446 4.06075-.54595 6.59375-.8125 2.53292-.26649 4.6728-.54392 6.40625-.8125.53299.00002 1.92101.00002 4.1875 0 2.27045.00002 4.35508-.0532 6.21875-.1875.26849 2.79951.51467 5.60476.78125 8.40625.26646 2.80153.60117 5.32732 1 7.59375.3987 2.26645.87112 4.10027 1.40625 5.5.53501 1.39974 1.20241 2.09375 2 2.09375h5.8125c2.93369 0 5.76555-.16634 8.5-.5 2.73429-.33366 6.23559-1.02766 10.5-2.09375-.00009-2.93375-.25293-6.07372-.71875-9.40625-.46598-3.33251-1.02027-6.72068-1.6875-10.1875-.66741-3.46677-1.3348-6.88417-2-10.21875-.66536-3.33452-1.27954-6.38798-1.8125-9.1875-2.00203-10.7991-3.97355-21.41204-5.90625-31.8125-1.93285-10.40031-3.76667-21.06648-5.5-32-1.06615-5.8674-2.06623-11.28235-3-16.28125-.9339-4.99865-1.51277-10.69306-1.78125-17.09375zm32.21875 2.78125-1.8125 1.8125c-.13429.13034-.30062 1.63352-.5 4.5-.19939 2.86675-.39234 6.58761-.59375 11.1875-.20142 4.60013-.45224 9.76687-.71875 15.5-.26653 5.73333-.48813 11.51221-.6875 17.3125-.19939 5.80045-.39437 11.38175-.59375 16.78125-.19938 5.39964-.36572 10.03668-.5 13.90625 0 1.73345-.0267 4.65183-.0937 8.71875-.0671 4.06702-.18026 8.48189-.3125 13.28125-.13224 4.79943-.21415 9.69135-.28125 14.625-.0671 4.93369-.125 9.18426-.125 12.78125v6.40625h24.21875v-63h9c.26852 1.20042.62781 3.06085 1.09375 5.59375.46586 2.53301.99353 5.39353 1.59375 8.59375.60014 3.20032 1.21228 6.59111 1.8125 10.125.60014 3.53397 1.18103 6.8935 1.78125 10.09375.60014 3.2003 1.12781 6.06081 1.59375 8.59375.46586 2.53298.8564 4.3934 1.125 5.59375.26444 1.46485.68102 3.35393 1.28125 5.6875.60013 2.33358 1.09916 4.30713 1.5 5.90625.40075 1.59912.67818 2.54395.8125 2.8125h22.1875c-.00007-5.20019-.69408-10.34032-2.09375-15.40625-1.3998-5.0659-2.89891-10.09291-4.5-15.09375-1.60122-5.00078-3.10031-9.97254-4.5-14.90625-1.39979-4.93363-2.09381-9.93403-2.09375-15-.00006-.3987.55423-1.03949 1.6875-1.90625 1.13317-.86664 2.38405-1.89333 3.71875-3.09375 1.33457-1.20029 2.55422-2.61492 3.6875-4.28125 1.13315-1.66618 1.71868-3.52922 1.71875-5.53125-.00007-8.79711-.41926-17.35407-1.21875-25.6875-.79963-8.33322-1.60471-16.69112-2.40625-25.09375-.13434-.7974-.24282-1.79952-.375-3-.1323-1.20023-.29865-2.36665-.5-3.5-.20148-1.13308-.42568-2.13316-.625-3-.19947-.86656-.28131-1.31236-.28125-1.3125h-54zm19.78125 19.8125h12.59375c1.20032.00012 2.09192.88912 2.625 2.6875.533 1.79862.89432 3.82538 1.09375 6.09375.19941 2.26858.2526 4.40644.1875 6.40625-.0651 2.00002-.0938 3.22633-.0937 3.625-.00005.80169-.0267 2.02134-.0937 3.6875-.0672 1.66635-.0938 2.55739-.0937 2.6875l-3.625 3.59375h-12.59375v-28.78125zm-70.40625 34.78125c.93175.00008 1.93386.72534 3 2.125 1.06602 1.39982 1.78462 2.61742 2.1875 3.6875.13423.66332.35843 2.11124.625 4.3125.26647 2.2014.54332 4.7272.875 7.59375.33157 2.86668.66629 5.86692 1 9 .33361 3.13319.63764 5.96506.90625 8.5-1.46896.00005-3.18764-.0532-5.1875-.1875-1.99997-.13423-3.97352-.2453-5.90625-.3125-1.93283-.0671-3.6003-.18021-5-.3125-1.39978-.13217-2.28877-.18745-2.6875-.1875h-.625c.80155-4.13406 1.74638-8.24547 2.8125-12.3125 1.06604-4.06691 2.12138-7.73252 3.1875-11 1.06604-3.26734 2.03951-5.90625 2.90625-7.90625.86665-1.99984 1.50337-2.99992 1.90625-3z" opacity=".99"/><g transform="matrix(.98333264 0 0 .98333264 9.747688 66.195928)"><path d="m364.78711 472.39456v14.58453h-67.7049v28.31451h52.65143v-6.55078h-25.89605v-15.05347h40.71386v18.56214c-.00008 2.34071-.36388 4.38188-1.0914 6.1235-.72768 1.74165-1.94921 3.60032-3.66458 5.57602-2.13289 2.49622-4.68147 4.21247-7.64575 5.14875-2.44392.78076-5.64155 1.17114-9.5929 1.17114h-38.76672c-3.4833 0-6.34291-.3642-8.57886-1.09259-2.65174-.88391-5.04401-2.41766-7.17682-4.60126-1.87256-1.92492-3.26349-3.88833-4.17279-5.89023-.9093-2.00188-1.36395-4.3025-1.36395-6.90188v-23.24433c0-1.76778.58478-3.7177 1.75433-5.84976 1.16955-2.13197 2.74218-4.0561 4.7179-5.7724 1.9757-1.71619 4.22475-2.89924 6.74716-3.54913 2.52238-.64979 5.13563-.97471 7.83975-.97476z"/><path d="m451.72064 486.82436c0-3.74348 1.16995-6.96729 3.50986-9.67144 2.33989-2.70405 5.35542-4.23859 9.0466-4.60364 4.1085.00006 7.64493 1.17041 10.60931 3.51105 2.65171 2.08049 4.75754 5.04405 6.31751 8.89068l13.02539 32.37067 14.27508-34.08453c1.40436-3.38008 3.22455-5.98024 5.46058-7.80048 2.44377-1.97565 5.35576-2.9635 8.73596-2.96356 4.31474.00006 7.82419 1.63775 10.52838 4.91308 2.54849 3.06756 3.82279 6.81188 3.82288 11.23297v41.88501h-13.96326v-42.66577l-13.80615 30.41876c-2.44391 5.35743-4.61481 8.88078-6.5127 10.57004-1.898 1.68927-4.14666 2.69022-6.74597 3.00284-4.00383 0-7.4879-1.37823-10.45221-4.1347-2.28837-2.13122-4.3942-5.30267-6.31751-9.51435l-13.57287-29.79748v42.51105l-13.96088-.39039z"/><path d="m544.63605 530.97311v-58.57855h16.14605v58.57855z"/><path d="m582.45062 471.22341c2.08043.00006 4.13468.49438 6.16278 1.48297 2.02805.98871 3.97837 2.39233 5.85096 4.21088l39.23327 39v-43.28943h14.66309v42.4325c-.00009 3.4325-.59796 6.33179-1.79361 8.69787-1.19582 2.3661-3.17193 4.32911-5.92832 5.88904-.98713.51892-2.07893.9343-3.27539 1.24612-1.1966.31183-2.31458.46775-3.35394.46775-2.18366 0-4.2764-.48084-6.27823-1.44251-2.00195-.96167-3.96536-2.37878-5.89023-4.25134l-39.23327-38.68817v43.75836l-14.58692-.23328v-45.3175c0-2.91194.728-5.40815 2.18399-7.48865 1.45599-2.08039 3.5884-3.77045 6.39725-5.07019 1.97569-.93622 3.92522-1.40436 5.84857-1.40442z"/><path d="m736.35352 472.39456v14.58453h-67.7049v28.31451h52.65143v-6.55078h-25.89606v-15.05347h40.71387v18.56214c-.00009 2.34071-.36389 4.38188-1.0914 6.1235-.72768 1.74165-1.94921 3.60032-3.66458 5.57602-2.13289 2.49622-4.68147 4.21247-7.64575 5.14875-2.44392.78076-5.64155 1.17114-9.5929 1.17114h-38.76672c-3.4833 0-6.34292-.3642-8.57886-1.09259-2.65175-.88391-5.04402-2.41766-7.17682-4.60126-1.87256-1.92492-3.26349-3.88833-4.17279-5.89023-.9093-2.00188-1.36396-4.3025-1.36395-6.90188v-23.24433c-.00001-1.76778.58477-3.7177 1.75433-5.84976 1.16955-2.13197 2.74218-4.0561 4.7179-5.7724 1.97569-1.71619 4.22474-2.89924 6.74716-3.54913 2.52238-.64979 5.13563-.97471 7.83975-.97476z"/><path d="m388.77603 467.91013v11.07172h9.11788l3.74483 11.56015-27.84208 43.14709h13.67681l19.86395-29.30745 13.02555 32.88948 20.51521-6.51279-3.25639-10.09477-9.44351 2.93075-22.14342-55.68418z" fill-rule="evenodd"/></g></g><path d="m785.06251 378.61218c-2.16679.00017-3.87636.45711-5.125 1.375-1.24872.91825-2.54243 2.04257-3.875 3.375-5.33552 4.83212-10.12545 9.29089-14.375 13.375-4.24959 4.08442-7.83304 8.37635-10.75 12.875-2.91698 4.49894-5.12455 9.49934-6.625 15-1.50045 5.50092-2.25 12.08512-2.25 19.75 0 6.0019.3337 10.9176 1 14.75.6663 3.8326 1.83171 7.04127 3.5 9.625 1.66829 2.58391 3.95802 4.83256 6.875 6.75 2.91696 1.9176 6.62872 4.12772 11.125 6.625 1.16981.83422 2.75107 1.83277 4.75 3 1.99887 1.16737 3.99852 2.33531 6 3.5 2.00141 1.16482 3.70844 2.207 5.125 3.125 1.41648.91814 2.12496 1.45722 2.125 1.625l2.25 4.5v26.5c-.33065.00003-1.08274.12581-2.25.375-1.16734.24926-1.91944.29288-2.25.125-1.33264-.16273-3.45807-.66582-6.375-1.5-2.91701-.83411-6.04098-1.75051-9.375-2.75-3.33407-.99941-6.49912-1.91582-9.5-2.75-3.00091-.83411-5.08526-1.5015-6.25-2-.83416.99695-1.45794 2.20852-1.875 3.625-.41708 1.41656-.66608 2.91567-.75 4.5-.0839 1.58441-.0839 3.0835 0 4.5.0839 1.41655.125 2.45873.125 3.125v2.25c0 1.00201.0411 2.12635.125 3.375.0839 1.2487.125 2.37302.125 3.375v2.25c1.9989 3.00091 4.70702 5.37533 8.125 7.125 3.41795 1.74968 7.12463 3.12556 11.125 4.125 4.00032.99946 8.00217 1.66686 12 2 3.99777.33316 7.49906.5 10.5.5 6.66804 0 11.99959-1.54273 16-4.625 4.00027-3.08227 7.08318-6.99942 9.25-11.75 2.16667-4.75055 3.54254-9.95888 4.125-15.625.58229-5.66606.87492-11.16447.875-16.5-.00008-5.83389-.208-11.75069-.625-17.75-.41715-5.99917-1.70833-11.74659-3.875-17.25-.99698-.33053-2.66547-1.00046-5-2-2.33466-.99936-4.83486-2.12369-7.5-3.375-2.66526-1.25113-5.16547-2.41653-7.5-3.5-2.33465-1.08328-3.9159-1.87645-4.75-2.375-3.1637-1.6682-6.167-4.00155-9-7-2.83309-2.99825-4.25003-6.91286-4.25-11.75-.00003-1.6631.12574-3.99898.375-7 .24919-3.00077.74974-5.91683 1.5-8.75.75018-2.83292 1.91813-5.33311 3.5-7.5 1.58178-2.16661 3.62251-3.24986 6.125-3.25.33056.00014 1.08265.0412 2.25.125 1.16724.0841 1.83211.21238 2 .375l24.75 13.5c1.33252-4.50121 2.08208-8.29259 2.25-11.375.16777-3.08213.24992-6.79136.25-11.125-.00008-.834-.0411-2.3331-.125-4.5-.084-2.16659-.12508-3.6657-.125-4.5-1.00207-1.50029-2.87595-3.41779-5.625-5.75-2.74919-2.33189-5.79103-4.58308-9.125-6.75-3.33411-2.16657-6.70963-4.04045-10.125-5.625-3.41548-1.58419-6.37261-2.37483-8.875-2.375zm-75.03125 1.59375c-1.73343.00014-3.09484.35944-4.09375 1.09375-.99897.7346-2.0277 1.65281-3.09375 2.71875-4.26842 3.86569-8.10036 7.42022-11.5 10.6875-3.39967 3.26754-6.26019 6.71358-8.59375 10.3125-2.33359 3.59916-4.11214 7.59948-5.3125 12-1.20036 4.40074-1.8125 9.64935-1.8125 15.78125 0 4.80152.27946 8.74658.8125 11.8125.53303 3.06608 1.47786 5.62051 2.8125 7.6875 1.33463 2.06712 3.16641 3.8723 5.5 5.40625 2.33356 1.53408 5.27798 3.31468 8.875 5.3125.93586.66738 2.21336 1.47247 3.8125 2.40625 1.5991.9339 3.21132 1.8495 4.8125 2.78125 1.60113.93185 2.9605 1.76559 4.09375 2.5 1.13319.7345 1.68747 1.17827 1.6875 1.3125l1.8125 3.59375v21.1875c-.26452.00003-.8787.11313-1.8125.3125-.93387.19941-1.51679.22801-1.78125.0937-1.06611-.13018-2.76021-.52016-5.09375-1.1875-2.33361-.66729-4.83279-1.41916-7.5-2.21875-2.66726-.79953-5.2243-1.52015-7.625-2.1875-2.40073-.66728-4.06821-1.19495-5-1.59375-.66733.79756-1.16634 1.74181-1.5 2.875-.33366 1.13325-.52662 2.35753-.59375 3.625-.0671 1.26752-.0671 2.46055 0 3.59375.0671 1.13324.0937 1.96698.0937 2.5v1.78125c0 .80161.0266 1.71983.0937 2.71875.0671.99896.125 1.88592.125 2.6875v1.8125c1.59912 2.40072 3.76561 4.28777 6.5 5.6875 2.73436 1.39974 5.70596 2.51294 8.90625 3.3125 3.20026.79956 6.39548 1.32723 9.59375 1.59375 3.19821.26652 5.97425.40625 8.375.40625 5.33443 0 9.61218-1.22168 12.8125-3.6875 3.20022-2.46581 5.67279-5.60579 7.40625-9.40625 1.73333-3.80044 2.84653-7.96711 3.3125-12.5.46583-4.53285.68744-8.95032.6875-13.21875-.00006-4.66711-.1664-9.38805-.5-14.1875-.33372-4.79934-1.36041-9.40977-3.09375-13.8125-.79758-.26442-2.13238-.79412-4-1.59375-1.86773-.79949-3.86789-1.68646-6-2.6875-2.13221-1.00091-4.13237-1.94572-6-2.8125-1.86772-.86662-3.14522-1.50741-3.8125-1.90625-2.53096-1.33456-4.92109-3.19499-7.1875-5.59375-2.26646-2.39859-3.40628-5.53654-3.40625-9.40625-.00003-1.33048.11313-3.19294.3125-5.59375.19935-2.40061.58729-4.73346 1.1875-7 .60015-2.26633 1.51576-4.2665 2.78125-6 1.26543-1.73329 2.90426-2.59364 4.90625-2.59375.26445.00011.87862.0267 1.8125.0937.9338.0673 1.45943.1824 1.59375.3125l19.8126 10.78135c1.06602-3.60097 1.64691-6.62782 1.78125-9.09375.13422-2.46571.21869-5.43934.21875-8.90625-.00006-.6672-.0266-1.86023-.0937-3.59375-.0672-1.73328-.12506-2.9263-.125-3.59375-.80165-1.20023-2.30076-2.72798-4.5-4.59375-2.19936-1.8655-4.61407-3.67272-7.28125-5.40625-2.66729-1.73327-5.36145-3.23236-8.09375-4.5-2.73238-1.26735-5.12308-1.90611-7.125-1.90625zm-378.625.21875c-7.73117.53319-15.62073 1.00299-23.6875 1.46875-8.06684.46604-15.79266.57713-23.125.3125l-3.59375 1.8125c-.00001 2.26657.0267 5.65476.0937 10.1875.0671 4.533.125 9.81083.125 15.8125v18.1875 18.1875c0 5.86758-.0579 11.09219-.125 15.625-.0671 4.53294-.0938 7.92111-.0937 10.1875-.00001 1.20041-.0533 3.33826-.1875 6.40625-.13428 3.06807-.30062 6.34574-.5 9.8125-.19938 3.46683-.39437 6.71527-.59375 9.78125-.19939 3.06602-.36573 5.20591-.5 6.40625-.26856.26451-.65911.82082-1.125 1.6875-.46591.86671-.6875 1.50343-.6875 1.90625 0 .66733-.0266 1.66742-.0937 3-.0671 1.33262-.18027 2.77849-.3125 4.3125-.0485.56304-.20837.36399-.39269 1.08275 0 1.50028-.0136 5.47796-.0136 6.011h49.40625c-.00005 0 .11303-.63876.3125-1.90625.19933-1.2675.39432-2.76659.59375-4.5.19933-1.73339.36567-3.51399.5-5.3125.13423-1.79849.27599-3.26838.40625-4.46875-.00005-.26854.0265-.99176.0937-2.125.0671-1.1332.0937-2.02016.0937-2.6875-.00006-.39874.0265-.8998.0937-1.5.0671-.60016.0405-1.2389-.0937-1.90625-.13433-.66729-.32728-1.22158-.59375-1.6875-.26657-.46588-.74305-.77195-1.40625-.90625-.66737.00002-1.72067.0266-3.1875.0937-1.46692.0672-3.13237.0938-5 .0937-1.73344.00003-3.34566-.0265-4.8125-.0937-1.46692-.0671-2.52021-.0937-3.1875-.0937-.79756-.13018-1.9128-.41168-3.3125-.8125-1.39977-.40077-2.09378-.73142-2.09375-1v-36c-.00003.00007.64076-.0818 1.90625-.28125 1.26543-.19931 2.76657-.3943 4.5-.59375 1.73336-.19932 3.48068-.36566 5.28125-.5 1.8005-.13421 3.29959-.27191 4.5-.40625.66727.00006 1.89156-.0865 3.625-.21875 1.73335-.13217 2.93045-.18743 3.59375-.1875v-22.40625c-.6633.00009-1.66542-.0265-3-.0937-1.33469-.067-2.78057-.15152-4.3125-.21875-1.53203-.067-2.94665-.12027-4.28125-.1875-1.33467-.067-2.2795-.0937-2.8125-.0937-.26453.00009-.82084-.0864-1.6875-.21875-.86673-.13215-1.81156-.32714-2.8125-.59375-1.00101-.26643-1.97245-.62573-2.90625-1.09375-.93387-.46785-1.46357-1.02416-1.59375-1.6875v-1.625c-.00003-.66315-.0266-1.44106-.0937-2.375-.0672-.93374-.0938-1.73883-.0937-2.40625v-1.59375c-.00003-.26845-.0579-1.21328-.125-2.8125-.0672-1.59902.0194-3.31972.21875-5.1875.19935-1.86756.55865-3.5929 1.09375-5.125.53505-1.53186 1.39743-2.28113 2.59375-2.28125h23.40625v-25.1875zm341 0c-7.73117.53319-15.62073 1.00299-23.6875 1.46875-8.06684.46604-15.76141.57713-23.09375.3125l-3.59375 1.8125c0 2.26657.0266 5.65476.0937 10.1875.0671 4.533.0937 9.81083.0937 15.8125v18.1875 18.1875c-.00001 5.86758-.0266 11.09219-.0937 15.625-.0671 4.53294-.0937 7.92111-.0937 10.1875 0 1.20041-.0844 3.33826-.21875 6.40625-.13429 3.06807-.30063 6.34574-.5 9.8125-.19939 3.46683-.39437 6.71527-.59375 9.78125-.19938 3.06602-.36572 5.20591-.5 6.40625-.26855.26451-.62785.82082-1.09375 1.6875-.4659.86671-.71875 1.50343-.71875 1.90625 0 .66733-.0266 1.66742-.0937 3-.0671 1.33262.17535 2.84206-.28125 4.3125-.0709.22822-.13934.46539-.39621 1.08371 0 1.57829-.01 5.477-.01 6.01004h49.40625c-.00005 0 .0818-.63876.28125-1.90625.19934-1.2675.39432-2.76659.59375-4.5.19933-1.73339.36567-3.51399.5-5.3125.13422-1.79849.27599-3.26838.40625-4.46875-.00006-.26854.0266-.99176.0937-2.125.0671-1.1332.12495-2.02016.125-2.6875-.00005-.39874.0265-.8998.0937-1.5.0671-.60016.0405-1.2389-.0937-1.90625-.13433-.66729-.35854-1.22158-.625-1.6875-.26658-.46588-.7118-.77195-1.375-.90625-.66736.00002-1.75192.0266-3.21875.0937-1.46693.0672-3.13237.0938-5 .0937-1.73344.00003-3.31441-.0265-4.78125-.0937-1.46691-.0671-2.55147-.0937-3.21875-.0937-.79756-.13018-1.88154-.41168-3.28125-.8125-1.39977-.40077-2.12503-.73142-2.125-1v-36c-.00003.00007.64076-.0818 1.90625-.28125 1.26543-.19931 2.76656-.3943 4.5-.59375 1.73336-.19932 3.51192-.36566 5.3125-.5 1.80049-.13421 3.2996-.27191 4.5-.40625.66727.00006 1.8603-.0865 3.59375-.21875 1.73334-.13217 2.93045-.18743 3.59375-.1875v-22.40625c-.6633.00009-1.66542-.0265-3-.0937-1.33468-.067-2.74931-.15152-4.28125-.21875-1.53202-.067-2.97791-.12027-4.3125-.1875-1.33468-.067-2.2795-.0937-2.8125-.0937-.26452.00009-.82084-.0864-1.6875-.21875-.86674-.13215-1.81156-.32714-2.8125-.59375-1.00101-.26643-1.94119-.62573-2.875-1.09375-.93387-.46785-1.49482-1.02416-1.625-1.6875v-1.625c-.00003-.66315-.0266-1.44106-.0937-2.375-.0672-.93374-.0938-1.73883-.0937-2.40625v-1.59375c-.00002-.26845-.0267-1.21328-.0937-2.8125-.0672-1.59902-.0119-3.31972.1875-5.1875.19935-1.86756.55864-3.5929 1.09375-5.125.53504-1.53186 1.42868-2.28113 2.625-2.28125h23.375v-25.1875zm-491.46875.1875c0 14.66894.29008 29.29283.875 43.875.58492 14.58243 1.25232 29.16524 2 43.75.74768 14.58493 1.45615 29.20882 2.125 43.875.66883 14.66627.99999 29.33632 1 44h21.25l4.5-4.5 2.75-68c.49842-.16777 1.54059-.33208 3.125-.5 1.58433-.16777 3.37605-.33462 5.375-.5 1.99885-.16523 4.03958-.3757 6.125-.625 2.08532-.24915 3.79235-.45708 5.125-.625.83409.00008 1.99949.00008 3.5 0 1.66314.00008 3.0801-.0821 4.25-.25l.13393 77.25 31.14955-.0112c-.00001-1.17983-.0602-2.81958-.0602-5.98884-.37495-6.39607-1.33921-26.16593-2.08938-32.375-1.50054-12.41806-2.66173-25.12445-3.16518-38.125v-36c-.00009-1.16973-.0535-3.37477-.21875-6.625-.16539-3.25001-.37587-6.6666-.625-10.25-.24932-3.58314-.49832-6.95867-.75-10.125-.25186-3.16606-.46232-5.41726-.625-6.75.99682-1.66815 1.74891-3.83465 2.25-6.5.50091-2.66504.83461-5.37318 1-8.125.16519-2.75151.2063-5.2517.125-7.5-.0815-2.24796-.12509-3.87284-.125-4.875h-25.78125c-.33067.00017-.59459 1.29135-.84375 3.875-.24929 2.58399-.49829 6.04167-.75 10.375-.25183 4.33365-.4187 9.24936-.5 14.75-.0815 5.50093-.12506 11.08403-.125 16.75v22c-2.8382.00011-6.83496-.0846-12-.25-5.16515-.1652-9.9987-.4142-14.5-.75.16781-2.33448.291-4.54206.375-6.625.0839-2.08271.12496-3.37644.125-3.875v-60.75zm318.21875 1.59375c-.13021.00014-.29859.41933-.5 1.21875-.20142.7997-.39438 1.76853-.59375 2.96875-.19939 1.20049-.36776 2.42478-.5 3.625-.13226 1.20049-.21876 2.2026-.21875 3-.00001.53317-.0267 1.39352-.0937 2.59375-.0671 1.20048-.42029 2.71213-.48739 3.9795 0 1.26762-.0136 2.05854-.0136 3.71875 0 1.20838.0009 1.76883.001 2.30175h20.40625v68.40625c-.66734 2.26648-1.16637 4.54147-1.5 6.875-.33368 2.33362-.50002 4.86202-.5 7.53125v14.375 3.625c-.00002 1.73341.0267 3.50937.0937 5.375.0671 1.86565.0937 3.67286.0937 5.40625v3.59375c.39874.13428 1.20587.30062 2.40625.5 1.20034.19938 2.47988.39437 3.8125.59375 1.33258.19938 2.58086.36573 3.78125.5 1.20033.13432 2.09193.21875 2.625.21875.39873 0 1.09274-.0845 2.09375-.21875 1.00094-.13427 2.08085-.30062 3.28125-.5 1.20032-.19938 2.31352-.39437 3.3125-.59375.9989-.19938 1.69494-.36572 2.09375-.5.13423-.53303.29854-1.55973.5-3.09375.20137-1.53401.39433-3.17284.59375-4.90625.19934-1.73338.36771-3.37425.5-4.90625.13217-1.53196.2187-2.61391.21875-3.28125-.00005-2.26642.0266-6.1004.0937-11.5.0671-5.39954.0937-11.17639.0937-17.3125-.00004-6.13194-.0267-11.88162-.0937-17.28125-.0672-5.39951-.0938-9.23349-.0937-11.5l1.78125-3.59375c0-.80151-.0287-2.24536-.0937-4.3125-.0652-2.06697-.0938-4.23347-.0937-6.5 0-2.26635.0285-4.43489.0937-6.5.065-2.06493.0937-3.51081.0937-4.3125-.00005-1.20026.0844-2.75461.21875-4.6875.13423-1.93267.30057-3.79311.5-5.59375.19933-1.80043.39432-3.38603.59375-4.71875.19933-1.33248.36567-1.99988.5-2h12.59375v-22.59375zm69.03125 0-3.59375 1.8125c-.00001 2.26657.0267 5.65476.0937 10.1875.0671 4.533.125 9.81083.125 15.8125v18.1875 18.1875c0 5.86758-.0579 11.09219-.125 15.625-.0671 4.53294-.0938 7.92111-.0937 10.1875-.00001 1.20041-.0532 3.33826-.1875 6.40625-.13428 3.06807-.30062 6.34574-.5 9.8125-.19938 3.46683-.39437 6.71527-.59375 9.78125-.19939 3.06602-.36573 5.20591-.5 6.40625-.26856.26451-.65911.82082-1.125 1.6875-.46591.86671-.6875 1.50343-.6875 1.90625 0 .66733-.0266 1.66742-.0937 3-.0671 1.33262.043 1.14903-.0893 2.68304-.13224 1.53402-.26991 1.44195-.61607 2.76339 0 1.89063-.0134 5.42678-.0134 5.95982l52.40625-.8125c-.00005 0 .11302-.58089.3125-1.78125.19932-1.20035.39228-2.67285.59375-4.40625.20136-1.73339.3677-3.5406.5-5.40625.13219-1.86563.27192-3.39338.40625-4.59375-.00005-.26854.0265-.96051.0937-2.09375.0671-1.1332.0937-2.05141.0937-2.71875-.00006-.39874.0266-.8998.0937-1.5.0671-.60016.0671-1.2389 0-1.90625-.0672-.66729-.26015-1.22158-.59375-1.6875-.33371-.46588-.83273-.77195-1.5-.90625-.66737.00002-2.22173.16637-4.6875.5-2.46587.33369-4.63237.50003-6.5.5-1.73344.00003-3.34566-.0265-4.8125-.0937-1.46692-.0671-2.52021-.0937-3.1875-.0937-.79756-.13018-1.9128-.41168-3.3125-.8125-1.39977-.40077-2.09378-.73142-2.09375-1v-64.78125-1.625c-.00003-.66315-.0266-1.44106-.0937-2.375-.0672-.93374-.0938-1.73883-.0937-2.40625v-1.59375c-.00003-.13418.19496-1.16086.59375-3.09375.39874-1.93267.81329-4.35203 1.28125-7.21875.46791-2.86651.94032-5.89335 1.40625-9.09375.46587-3.20015.80059-6.20039 1-9 .19935-2.79935.19935-5.13219 0-7-.19941-1.86754-.7025-2.81236-1.5-2.8125zm-169.15625.8125-28 .375c-.13432.00014-.41378.72336-.8125 2.125-.3988 1.40191-.73148 2.48386-1 3.28125-.13431.40297-.30065 1.04171-.5 1.90625-.19941.86479-.3944 1.75379-.59375 2.6875-.19942.93397-.36576 1.85217-.5 2.71875-.13432.86682-.18753 1.41907-.1875 1.6875l-7.21875 13.59375c-.39879 1.86778-.7069 3.7016-.90625 5.5-.19941 1.7986-.39439 3.43947-.59375 4.90625-.1994 1.46698-.33915 2.66001-.40625 3.59375-.0672.93394-.0938 1.49081-.0937 1.625-1.59915 6.93368-3.01378 13.014-4.28125 18.28125-1.26752 5.2674-2.51841 10.07486-3.71875 14.40625-1.20038 4.33152-2.3934 8.47157-3.59375 12.40625-1.20037 3.93478-2.3934 8.10144-3.59375 12.5-1.20037 4.39864-2.52343 9.2549-3.90625 14.59375-.69175 2.67073-1.4825 4.7437-4.67399 12.81455-.13575 1.54913-.0397 2.22034-.0135 5.99795l30.375 4.59375 1.81245-15.40625c-.00003-.53302.1397-1.39337.40625-2.59375.26649-1.20034.6012-2.72605 1-4.59375 1.86764-.26446 4.06075-.54595 6.59375-.8125 2.53292-.26649 4.6728-.54392 6.40625-.8125.53299.00002 1.92101.00002 4.1875 0 2.27045.00002 4.35508-.0532 6.21875-.1875.26849 2.79951.51467 5.60476.78125 8.40625.26646 2.80153.60117 5.32732 1 7.59375.3987 2.26645.87112 4.10027 1.40625 5.5.53501 1.39974 1.20241 2.09375 2 2.09375h5.8125c2.93369 0 5.76555-.16634 8.5-.5 2.73429-.33366 10.5-2.09375 10.5-2.09375l-.009-5.99913-.70998-3.40712s-1.02027-6.72068-1.6875-10.1875c-.66741-3.46677-1.3348-6.88417-2-10.21875-.66536-3.33452-1.27954-6.38798-1.8125-9.1875-2.00203-10.7991-3.97355-21.41204-5.90625-31.8125-1.93285-10.40031-3.76667-21.06648-5.5-32-1.06615-5.8674-2.06623-11.28235-3-16.28125-.9339-4.99865-1.51277-10.69306-1.78126-17.09375zm32.21875 2.78125-1.8125 1.8125c-.13429.13034-.30062 1.63352-.5 4.5-.19939 2.86675-.39234 6.58761-.59375 11.1875-.20142 4.60013-.45224 9.76687-.71875 15.5-.26653 5.73333-.48813 11.51221-.6875 17.3125-.19939 5.80045-.39437 11.38175-.59375 16.78125-.19938 5.39964-.36572 10.03668-.5 13.90625 0 1.73345-.0267 4.65183-.0937 8.71875-.0671 4.06702-.18026 8.48189-.3125 13.28125-.13224 4.79943-.21415 9.69135-.28125 14.625-.0671 4.93369-.125 9.18426-.125 12.78125v6.40625h24.21875v-63h9c.26852 1.20042.62781 3.06085 1.09375 5.59375.46586 2.53301.99353 5.39353 1.59375 8.59375.60014 3.20032 1.21228 6.59111 1.8125 10.125.60014 3.53397 1.18103 6.8935 1.78125 10.09375.60014 3.2003 1.12781 6.06081 1.59375 8.59375.46586 2.53298.8564 4.3934 1.125 5.59375.26444 1.46485.68102 3.35393 1.28125 5.6875.60013 2.33358 1.09916 4.30713 1.5 5.90625.40075 1.59912.67818 2.54395.8125 2.8125h22.1875c-.00004-2.60009-.017-3.44585-.017-6.04884-.34847-2.5683-1.37697-6.82444-2.0768-9.35741-1.3998-5.0659-2.89891-10.09291-4.5-15.09375-1.60122-5.00078-3.10031-9.97254-4.5-14.90625-1.39979-4.93363-2.09381-9.93403-2.09375-15-.00006-.3987.55423-1.03949 1.6875-1.90625 1.13317-.86664 2.38405-1.89333 3.71875-3.09375 1.33457-1.20029 2.55422-2.61492 3.6875-4.28125 1.13315-1.66618 1.71868-3.52922 1.71875-5.53125-.00007-8.79711-.41926-17.35407-1.21875-25.6875-.79963-8.33322-1.60471-16.69112-2.40625-25.09375-.13434-.7974-.24282-1.79952-.375-3-.1323-1.20023-.29865-2.36665-.5-3.5-.20148-1.13308-.42568-2.13316-.625-3-.19947-.86656-.28131-1.31236-.28125-1.3125zm19.78125 19.8125h12.59375c1.20032.00012 2.09192.88912 2.625 2.6875.533 1.79862.89432 3.82538 1.09375 6.09375.19941 2.26858.2526 4.40644.1875 6.40625-.0651 2.00002-.0938 3.22633-.0937 3.625-.00005.80169-.0267 2.02134-.0937 3.6875-.0672 1.66635-.0938 2.55739-.0937 2.6875l-3.625 3.59375h-12.59375v-28.78125zm-70.40625 34.78125c.93175.00008 1.93386.72534 3 2.125 1.06602 1.39982 1.78462 2.61742 2.1875 3.6875.13423.66332.35843 2.11124.625 4.3125.26647 2.2014.54332 4.7272.875 7.59375.33157 2.86668.66629 5.86692 1 9 .33361 3.13319.63764 5.96506.90625 8.5-1.46896.00005-3.18764-.0532-5.1875-.1875-1.99997-.13423-3.97352-.2453-5.90625-.3125-1.93283-.0671-3.6003-.18021-5-.3125-1.39978-.13217-2.28877-.18745-2.6875-.1875h-.625c.80155-4.13406 1.74638-8.24547 2.8125-12.3125 1.06604-4.06691 2.12138-7.73252 3.1875-11 1.06604-3.26734 2.03951-5.90625 2.90625-7.90625.86665-1.99984 1.50337-2.99992 1.90625-3z" fill="#640000" opacity=".99"/><path d="m785.06251 372.61218c-2.16679.00017-3.87636.45711-5.125 1.375-1.24872.91825-2.54243 2.04257-3.875 3.375-5.33552 4.83212-10.12545 9.29089-14.375 13.375-4.24959 4.08442-7.83304 8.37635-10.75 12.875-2.91698 4.49894-5.12455 9.49934-6.625 15-1.50045 5.50092-2.25 12.08512-2.25 19.75 0 6.0019.3337 10.9176 1 14.75.6663 3.8326 1.83171 7.04127 3.5 9.625 1.66829 2.58391 3.95802 4.83256 6.875 6.75 2.91696 1.9176 6.62872 4.12772 11.125 6.625 1.16981.83422 2.75107 1.83277 4.75 3 1.99887 1.16737 3.99852 2.33531 6 3.5 2.00141 1.16482 3.70844 2.207 5.125 3.125 1.41648.91814 2.12496 1.45722 2.125 1.625l2.25 4.5v26.5c-.33065.00003-1.08274.12581-2.25.375-1.16734.24926-1.91944.29288-2.25.125-1.33264-.16273-3.45807-.66582-6.375-1.5-2.91701-.83411-6.04098-1.75051-9.375-2.75-3.33407-.99941-6.49912-1.91582-9.5-2.75-3.00091-.83411-5.08526-1.5015-6.25-2-.83416.99695-1.45794 2.20852-1.875 3.625-.41708 1.41656-.66608 2.91567-.75 4.5-.0839 1.58441-.0839 3.0835 0 4.5.0839 1.41655.125 2.45873.125 3.125v2.25c0 1.00201.0411 2.12635.125 3.375.0839 1.2487.125 2.37302.125 3.375v2.25c1.9989 3.00091 4.70702 5.37533 8.125 7.125 3.41795 1.74968 7.12463 3.12556 11.125 4.125 4.00032.99946 8.00217 1.66686 12 2 3.99777.33316 7.49906.5 10.5.5 6.66804 0 11.99959-1.54273 16-4.625 4.00027-3.08227 7.08318-6.99942 9.25-11.75 2.16667-4.75055 3.54254-9.95888 4.125-15.625.58229-5.66606.87492-11.16447.875-16.5-.00008-5.83389-.208-11.75069-.625-17.75-.41715-5.99917-1.70833-11.74659-3.875-17.25-.99698-.33053-2.66547-1.00046-5-2-2.33466-.99936-4.83486-2.12369-7.5-3.375-2.66526-1.25113-5.16547-2.41653-7.5-3.5-2.33465-1.08328-3.9159-1.87645-4.75-2.375-3.1637-1.6682-6.167-4.00155-9-7-2.83309-2.99825-4.25003-6.91286-4.25-11.75-.00003-1.6631.12574-3.99898.375-7 .24919-3.00077.74974-5.91683 1.5-8.75.75018-2.83292 1.91813-5.33311 3.5-7.5 1.58178-2.16661 3.62251-3.24986 6.125-3.25.33056.00014 1.08265.0412 2.25.125 1.16724.0841 1.83211.21238 2 .375l24.75 13.5c1.33252-4.50121 2.08208-8.29259 2.25-11.375.16777-3.08213.24992-6.79136.25-11.125-.00008-.834-.0411-2.3331-.125-4.5-.084-2.16659-.12508-3.6657-.125-4.5-1.00207-1.50029-2.87595-3.41779-5.625-5.75-2.74919-2.33189-5.79103-4.58308-9.125-6.75-3.33411-2.16657-6.70963-4.04045-10.125-5.625-3.41548-1.58419-6.37261-2.37483-8.875-2.375zm-75.03125 1.59375c-1.73343.00014-3.09484.35944-4.09375 1.09375-.99897.7346-2.0277 1.65281-3.09375 2.71875-4.26842 3.86569-8.10036 7.42022-11.5 10.6875-3.39967 3.26754-6.26019 6.71358-8.59375 10.3125-2.33359 3.59916-4.11214 7.59948-5.3125 12-1.20036 4.40074-1.8125 9.64935-1.8125 15.78125 0 4.80152.27946 8.74658.8125 11.8125.53303 3.06608 1.47786 5.62051 2.8125 7.6875 1.33463 2.06712 3.16641 3.8723 5.5 5.40625 2.33356 1.53408 5.27798 3.31468 8.875 5.3125.93586.66738 2.21336 1.47247 3.8125 2.40625 1.5991.9339 3.21132 1.8495 4.8125 2.78125 1.60113.93185 2.9605 1.76559 4.09375 2.5 1.13319.7345 1.68747 1.17827 1.6875 1.3125l1.8125 3.59375v21.1875c-.26452.00003-.8787.11313-1.8125.3125-.93387.19941-1.51679.22801-1.78125.0937-1.06611-.13018-2.76021-.52016-5.09375-1.1875-2.33361-.66729-4.83279-1.41916-7.5-2.21875-2.66726-.79953-5.2243-1.52015-7.625-2.1875-2.40073-.66728-4.06821-1.19495-5-1.59375-.66733.79756-1.16634 1.74181-1.5 2.875-.33366 1.13325-.52662 2.35753-.59375 3.625-.0671 1.26752-.0671 2.46055 0 3.59375.0671 1.13324.0937 1.96698.0937 2.5v1.78125c0 .80161.0266 1.71983.0937 2.71875.0671.99896.125 1.88592.125 2.6875v1.8125c1.59912 2.40072 3.76561 4.28777 6.5 5.6875 2.73436 1.39974 5.70596 2.51294 8.90625 3.3125 3.20026.79956 6.39548 1.32723 9.59375 1.59375 3.19821.26652 5.97425.40625 8.375.40625 5.33443 0 9.61218-1.22168 12.8125-3.6875 3.20022-2.46581 5.67279-5.60579 7.40625-9.40625 1.73333-3.80044 2.84653-7.96711 3.3125-12.5.46583-4.53285.68744-8.95032.6875-13.21875-.00006-4.66711-.1664-9.38805-.5-14.1875-.33372-4.79934-1.36041-9.40977-3.09375-13.8125-.79758-.26442-2.13238-.79412-4-1.59375-1.86773-.79949-3.86789-1.68646-6-2.6875-2.13221-1.00091-4.13237-1.94572-6-2.8125-1.86772-.86662-3.14522-1.50741-3.8125-1.90625-2.53096-1.33456-4.92109-3.19499-7.1875-5.59375-2.26646-2.39859-3.40628-5.53654-3.40625-9.40625-.00003-1.33048.11313-3.19294.3125-5.59375.19935-2.40061.58729-4.73346 1.1875-7 .60015-2.26633 1.51576-4.2665 2.78125-6 1.26543-1.73329 2.90426-2.59364 4.90625-2.59375.26445.00011.87862.0267 1.8125.0937.9338.0673 1.45943.1824 1.59375.3125l19.8126 10.78135c1.06602-3.60097 1.64691-6.62782 1.78125-9.09375.13422-2.46571.21869-5.43934.21875-8.90625-.00006-.6672-.0266-1.86023-.0937-3.59375-.0672-1.73328-.12506-2.9263-.125-3.59375-.80165-1.20023-2.30076-2.72798-4.5-4.59375-2.19936-1.8655-4.61407-3.67272-7.28125-5.40625-2.66729-1.73327-5.36145-3.23236-8.09375-4.5-2.73238-1.26735-5.12308-1.90611-7.125-1.90625zm-378.625.21875c-7.73117.53319-15.62073 1.00299-23.6875 1.46875-8.06684.46604-15.79266.57713-23.125.3125l-3.59375 1.8125c-.00001 2.26657.0267 5.65476.0937 10.1875.0671 4.533.125 9.81083.125 15.8125v18.1875 18.1875c0 5.86758-.0579 11.09219-.125 15.625-.0671 4.53294-.0938 7.92111-.0937 10.1875-.00001 1.20041-.0533 3.33826-.1875 6.40625-.13428 3.06807-.30062 6.34574-.5 9.8125-.19938 3.46683-.39437 6.71527-.59375 9.78125-.19939 3.06602-.36573 5.20591-.5 6.40625-.26856.26451-.65911.82082-1.125 1.6875-.46591.86671-.6875 1.50343-.6875 1.90625 0 .66733-.0266 1.66742-.0937 3-.0671 1.33262-.18026 2.77849-.3125 4.3125-.13224 1.53402-.21411 2.94865-.28125 4.28125-.0671 1.3326-.125 2.27946-.125 2.8125h49.40625c-.00005 0 .11303-.63876.3125-1.90625.19933-1.2675.39432-2.76659.59375-4.5.19933-1.73339.36567-3.51399.5-5.3125.13423-1.79849.27599-3.26838.40625-4.46875-.00005-.26854.0265-.99176.0937-2.125.0671-1.1332.0937-2.02016.0937-2.6875-.00006-.39874.0265-.8998.0937-1.5.0671-.60016.0405-1.2389-.0937-1.90625-.13433-.66729-.32728-1.22158-.59375-1.6875-.26657-.46588-.74305-.77195-1.40625-.90625-.66737.00002-1.72067.0266-3.1875.0937-1.46692.0672-3.13237.0938-5 .0937-1.73344.00003-3.34566-.0265-4.8125-.0937-1.46692-.0671-2.52021-.0937-3.1875-.0937-.79756-.13018-1.9128-.41168-3.3125-.8125-1.39977-.40077-2.09378-.73142-2.09375-1v-36c-.00003.00007.64076-.0818 1.90625-.28125 1.26543-.19931 2.76657-.3943 4.5-.59375 1.73336-.19932 3.48068-.36566 5.28125-.5 1.8005-.13421 3.29959-.27191 4.5-.40625.66727.00006 1.89156-.0865 3.625-.21875 1.73335-.13217 2.93045-.18743 3.59375-.1875v-22.40625c-.6633.00009-1.66542-.0265-3-.0937-1.33469-.067-2.78057-.15152-4.3125-.21875-1.53203-.067-2.94665-.12027-4.28125-.1875-1.33467-.067-2.2795-.0937-2.8125-.0937-.26453.00009-.82084-.0864-1.6875-.21875-.86673-.13215-1.81156-.32714-2.8125-.59375-1.00101-.26643-1.97245-.62573-2.90625-1.09375-.93387-.46785-1.46357-1.02416-1.59375-1.6875v-1.625c-.00003-.66315-.0266-1.44106-.0937-2.375-.0672-.93374-.0938-1.73883-.0937-2.40625v-1.59375c-.00003-.26845-.0579-1.21328-.125-2.8125-.0672-1.59902.0194-3.31972.21875-5.1875.19935-1.86756.55865-3.5929 1.09375-5.125.53505-1.53186 1.39743-2.28113 2.59375-2.28125h23.40625v-25.1875zm341 0c-7.73117.53319-15.62073 1.00299-23.6875 1.46875-8.06684.46604-15.76141.57713-23.09375.3125l-3.59375 1.8125c0 2.26657.0266 5.65476.0937 10.1875.0671 4.533.0937 9.81083.0937 15.8125v18.1875 18.1875c-.00001 5.86758-.0266 11.09219-.0937 15.625-.0671 4.53294-.0937 7.92111-.0937 10.1875 0 1.20041-.0844 3.33826-.21875 6.40625-.13429 3.06807-.30063 6.34574-.5 9.8125-.19939 3.46683-.39437 6.71527-.59375 9.78125-.19938 3.06602-.36572 5.20591-.5 6.40625-.26855.26451-.62785.82082-1.09375 1.6875-.4659.86671-.71875 1.50343-.71875 1.90625 0 .66733-.0266 1.66742-.0937 3-.0671 1.33262-.14901 2.77849-.28125 4.3125-.13225 1.53402-.24537 2.94865-.3125 4.28125-.0671 1.3326-.0937 2.27946-.0937 2.8125h49.40625c-.00005 0 .0818-.63876.28125-1.90625.19934-1.2675.39432-2.76659.59375-4.5.19933-1.73339.36567-3.51399.5-5.3125.13422-1.79849.27599-3.26838.40625-4.46875-.00006-.26854.0266-.99176.0937-2.125.0671-1.1332.12495-2.02016.125-2.6875-.00005-.39874.0265-.8998.0937-1.5.0671-.60016.0405-1.2389-.0937-1.90625-.13433-.66729-.35854-1.22158-.625-1.6875-.26658-.46588-.7118-.77195-1.375-.90625-.66736.00002-1.75192.0266-3.21875.0937-1.46693.0672-3.13237.0938-5 .0937-1.73344.00003-3.31441-.0265-4.78125-.0937-1.46691-.0671-2.55147-.0937-3.21875-.0937-.79756-.13018-1.88154-.41168-3.28125-.8125-1.39977-.40077-2.12503-.73142-2.125-1v-36c-.00003.00007.64076-.0818 1.90625-.28125 1.26543-.19931 2.76656-.3943 4.5-.59375 1.73336-.19932 3.51192-.36566 5.3125-.5 1.80049-.13421 3.2996-.27191 4.5-.40625.66727.00006 1.8603-.0865 3.59375-.21875 1.73334-.13217 2.93045-.18743 3.59375-.1875v-22.40625c-.6633.00009-1.66542-.0265-3-.0937-1.33468-.067-2.74931-.15152-4.28125-.21875-1.53202-.067-2.97791-.12027-4.3125-.1875-1.33468-.067-2.2795-.0937-2.8125-.0937-.26452.00009-.82084-.0864-1.6875-.21875-.86674-.13215-1.81156-.32714-2.8125-.59375-1.00101-.26643-1.94119-.62573-2.875-1.09375-.93387-.46785-1.49482-1.02416-1.625-1.6875v-1.625c-.00003-.66315-.0266-1.44106-.0937-2.375-.0672-.93374-.0938-1.73883-.0937-2.40625v-1.59375c-.00002-.26845-.0267-1.21328-.0937-2.8125-.0672-1.59902-.0119-3.31972.1875-5.1875.19935-1.86756.55864-3.5929 1.09375-5.125.53504-1.53186 1.42868-2.28113 2.625-2.28125h23.375v-25.1875zm-491.46875.1875c0 14.66894.29008 29.29283.875 43.875.58492 14.58243 1.25232 29.16524 2 43.75.74768 14.58493 1.45615 29.20882 2.125 43.875.66883 14.66627.99999 29.33632 1 44h21.25l4.5-4.5 2.75-68c.49842-.16777 1.54059-.33208 3.125-.5 1.58433-.16777 3.37605-.33462 5.375-.5 1.99885-.16523 4.03958-.3757 6.125-.625 2.08532-.24915 3.79235-.45708 5.125-.625.83409.00008 1.99949.00008 3.5 0 1.66314.00008 3.0801-.0821 4.25-.25v77.25h31.25c-.0001-13.16324-.74965-25.95686-2.25-38.375-1.50054-12.41806-2.5278-25.12445-3.03125-38.125v-36c-.00009-1.16973-.0535-3.37477-.21875-6.625-.16539-3.25001-.37587-6.6666-.625-10.25-.24932-3.58314-.49832-6.95867-.75-10.125-.25186-3.16606-.46232-5.41726-.625-6.75.99682-1.66815 1.74891-3.83465 2.25-6.5.50091-2.66504.83461-5.37318 1-8.125.16519-2.75151.2063-5.2517.125-7.5-.0815-2.24796-.12509-3.87284-.125-4.875h-25.78125c-.33067.00017-.59459 1.29135-.84375 3.875-.24929 2.58399-.49829 6.04167-.75 10.375-.25183 4.33365-.4187 9.24936-.5 14.75-.0815 5.50093-.12506 11.08403-.125 16.75v22c-2.8382.00011-6.83496-.0846-12-.25-5.16515-.1652-9.9987-.4142-14.5-.75.16781-2.33448.291-4.54206.375-6.625.0839-2.08271.12496-3.37644.125-3.875v-60.75zm318.21875 1.59375c-.13021.00014-.29859.41933-.5 1.21875-.20142.7997-.39438 1.76853-.59375 2.96875-.19939 1.20049-.36776 2.42478-.5 3.625-.13226 1.20049-.21876 2.2026-.21875 3-.00001.53317-.0267 1.39352-.0937 2.59375-.0671 1.20048-.1204 2.42013-.1875 3.6875-.0671 1.26762-.15165 2.51851-.21875 3.71875-.0671 1.20048-.0938 2.06083-.0937 2.59375h20.40625v68.40625c-.66734 2.26648-1.16637 4.54147-1.5 6.875-.33368 2.33362-.50002 4.86202-.5 7.53125v14.375 3.625c-.00002 1.73341.0267 3.50937.0937 5.375.0671 1.86565.0937 3.67286.0937 5.40625v3.59375c.39874.13428 1.20587.30062 2.40625.5 1.20034.19938 2.47988.39437 3.8125.59375 1.33258.19938 2.58086.36573 3.78125.5 1.20033.13432 2.09193.21875 2.625.21875.39873 0 1.09274-.0845 2.09375-.21875 1.00094-.13427 2.08085-.30062 3.28125-.5 1.20032-.19938 2.31352-.39437 3.3125-.59375.9989-.19938 1.69494-.36572 2.09375-.5.13423-.53303.29854-1.55973.5-3.09375.20137-1.53401.39433-3.17284.59375-4.90625.19934-1.73338.36771-3.37425.5-4.90625.13217-1.53196.2187-2.61391.21875-3.28125-.00005-2.26642.0266-6.1004.0937-11.5.0671-5.39954.0937-11.17639.0937-17.3125-.00004-6.13194-.0267-11.88162-.0937-17.28125-.0672-5.39951-.0938-9.23349-.0937-11.5l1.78125-3.59375c0-.80151-.0287-2.24536-.0937-4.3125-.0652-2.06697-.0938-4.23347-.0937-6.5 0-2.26635.0285-4.43489.0937-6.5.065-2.06493.0937-3.51081.0937-4.3125-.00005-1.20026.0844-2.75461.21875-4.6875.13423-1.93267.30057-3.79311.5-5.59375.19933-1.80043.39432-3.38603.59375-4.71875.19933-1.33248.36567-1.99988.5-2h12.59375v-22.59375zm69.03125 0-3.59375 1.8125c-.00001 2.26657.0267 5.65476.0937 10.1875.0671 4.533.125 9.81083.125 15.8125v18.1875 18.1875c0 5.86758-.0579 11.09219-.125 15.625-.0671 4.53294-.0938 7.92111-.0937 10.1875-.00001 1.20041-.0532 3.33826-.1875 6.40625-.13428 3.06807-.30062 6.34574-.5 9.8125-.19938 3.46683-.39437 6.71527-.59375 9.78125-.19939 3.06602-.36573 5.20591-.5 6.40625-.26856.26451-.65911.82082-1.125 1.6875-.46591.86671-.6875 1.50343-.6875 1.90625 0 .66733-.0266 1.66742-.0937 3-.0671 1.33262-.18026 2.77849-.3125 4.3125-.13224 1.53402-.21411 2.94865-.28125 4.28125-.0671 1.3326-.125 2.27946-.125 2.8125l52.40625-.8125c-.00005 0 .11302-.58089.3125-1.78125.19932-1.20035.39228-2.67285.59375-4.40625.20136-1.73339.3677-3.5406.5-5.40625.13219-1.86563.27192-3.39338.40625-4.59375-.00005-.26854.0265-.96051.0937-2.09375.0671-1.1332.0937-2.05141.0937-2.71875-.00006-.39874.0266-.8998.0937-1.5.0671-.60016.0671-1.2389 0-1.90625-.0672-.66729-.26015-1.22158-.59375-1.6875-.33371-.46588-.83273-.77195-1.5-.90625-.66737.00002-2.22173.16637-4.6875.5-2.46587.33369-4.63237.50003-6.5.5-1.73344.00003-3.34566-.0265-4.8125-.0937-1.46692-.0671-2.52021-.0937-3.1875-.0937-.79756-.13018-1.9128-.41168-3.3125-.8125-1.39977-.40077-2.09378-.73142-2.09375-1v-64.78125-1.625c-.00003-.66315-.0266-1.44106-.0937-2.375-.0672-.93374-.0938-1.73883-.0937-2.40625v-1.59375c-.00003-.13418.19496-1.16086.59375-3.09375.39874-1.93267.81329-4.35203 1.28125-7.21875.46791-2.86651.94032-5.89335 1.40625-9.09375.46587-3.20015.80059-6.20039 1-9 .19935-2.79935.19935-5.13219 0-7-.19941-1.86754-.7025-2.81236-1.5-2.8125zm-169.15625.8125-28 .375c-.13432.00014-.41378.72336-.8125 2.125-.3988 1.40191-.73148 2.48386-1 3.28125-.13431.40297-.30065 1.04171-.5 1.90625-.19941.86479-.3944 1.75379-.59375 2.6875-.19942.93397-.36576 1.85217-.5 2.71875-.13432.86682-.18753 1.41907-.1875 1.6875l-7.21875 13.59375c-.39879 1.86778-.7069 3.7016-.90625 5.5-.19941 1.7986-.39439 3.43947-.59375 4.90625-.1994 1.46698-.33915 2.66001-.40625 3.59375-.0672.93394-.0938 1.49081-.0937 1.625-1.59915 6.93368-3.01378 13.014-4.28125 18.28125-1.26752 5.2674-2.51841 10.07486-3.71875 14.40625-1.20038 4.33152-2.3934 8.47157-3.59375 12.40625-1.20037 3.93478-2.3934 8.10144-3.59375 12.5-1.20037 4.39864-2.50652 9.25931-3.90625 14.59375-1.39974 5.33449-2.95411 11.61443-4.6875 18.8125l30.375 4.59375 1.81245-15.40625c-.00003-.53302.1397-1.39337.40625-2.59375.26649-1.20034.6012-2.72605 1-4.59375 1.86764-.26446 4.06075-.54595 6.59375-.8125 2.53292-.26649 4.6728-.54392 6.40625-.8125.53299.00002 1.92101.00002 4.1875 0 2.27045.00002 4.35508-.0532 6.21875-.1875.26849 2.79951.51467 5.60476.78125 8.40625.26646 2.80153.60117 5.32732 1 7.59375.3987 2.26645.87112 4.10027 1.40625 5.5.53501 1.39974 1.20241 2.09375 2 2.09375h5.8125c2.93369 0 5.76555-.16634 8.5-.5 2.73429-.33366 6.23559-1.02766 10.5-2.09375-.00009-2.93375-.25293-6.07372-.71875-9.40625-.46598-3.33251-1.02027-6.72068-1.6875-10.1875-.66741-3.46677-1.3348-6.88417-2-10.21875-.66536-3.33452-1.27954-6.38798-1.8125-9.1875-2.00203-10.7991-3.97355-21.41204-5.90625-31.8125-1.93285-10.40031-3.76667-21.06648-5.5-32-1.06615-5.8674-2.06623-11.28235-3-16.28125-.9339-4.99865-1.51277-10.69306-1.78125-17.09375zm32.21875 2.78125-1.8125 1.8125c-.13429.13034-.30062 1.63352-.5 4.5-.19939 2.86675-.39234 6.58761-.59375 11.1875-.20142 4.60013-.45224 9.76687-.71875 15.5-.26653 5.73333-.48813 11.51221-.6875 17.3125-.19939 5.80045-.39437 11.38175-.59375 16.78125-.19938 5.39964-.36572 10.03668-.5 13.90625 0 1.73345-.0267 4.65183-.0937 8.71875-.0671 4.06702-.18026 8.48189-.3125 13.28125-.13224 4.79943-.21415 9.69135-.28125 14.625-.0671 4.93369-.125 9.18426-.125 12.78125v6.40625h24.21875v-63h9c.26852 1.20042.62781 3.06085 1.09375 5.59375.46586 2.53301.99353 5.39353 1.59375 8.59375.60014 3.20032 1.21228 6.59111 1.8125 10.125.60014 3.53397 1.18103 6.8935 1.78125 10.09375.60014 3.2003 1.12781 6.06081 1.59375 8.59375.46586 2.53298.8564 4.3934 1.125 5.59375.26444 1.46485.68102 3.35393 1.28125 5.6875.60013 2.33358 1.09916 4.30713 1.5 5.90625.40075 1.59912.67818 2.54395.8125 2.8125h22.1875c-.00007-5.20019-.69408-10.34032-2.09375-15.40625-1.3998-5.0659-2.89891-10.09291-4.5-15.09375-1.60122-5.00078-3.10031-9.97254-4.5-14.90625-1.39979-4.93363-2.09381-9.93403-2.09375-15-.00006-.3987.55423-1.03949 1.6875-1.90625 1.13317-.86664 2.38405-1.89333 3.71875-3.09375 1.33457-1.20029 2.55422-2.61492 3.6875-4.28125 1.13315-1.66618 1.71868-3.52922 1.71875-5.53125-.00007-8.79711-.41926-17.35407-1.21875-25.6875-.79963-8.33322-1.60471-16.69112-2.40625-25.09375-.13434-.7974-.24282-1.79952-.375-3-.1323-1.20023-.29865-2.36665-.5-3.5-.20148-1.13308-.42568-2.13316-.625-3-.19947-.86656-.28131-1.31236-.28125-1.3125h-54zm19.78125 19.8125h12.59375c1.20032.00012 2.09192.88912 2.625 2.6875.533 1.79862.89432 3.82538 1.09375 6.09375.19941 2.26858.2526 4.40644.1875 6.40625-.0651 2.00002-.0938 3.22633-.0937 3.625-.00005.80169-.0267 2.02134-.0937 3.6875-.0672 1.66635-.0938 2.55739-.0937 2.6875l-3.625 3.59375h-12.59375v-28.78125zm-70.40625 34.78125c.93175.00008 1.93386.72534 3 2.125 1.06602 1.39982 1.78462 2.61742 2.1875 3.6875.13423.66332.35843 2.11124.625 4.3125.26647 2.2014.54332 4.7272.875 7.59375.33157 2.86668.66629 5.86692 1 9 .33361 3.13319.63764 5.96506.90625 8.5-1.46896.00005-3.18764-.0532-5.1875-.1875-1.99997-.13423-3.97352-.2453-5.90625-.3125-1.93283-.0671-3.6003-.18021-5-.3125-1.39978-.13217-2.28877-.18745-2.6875-.1875h-.625c.80155-4.13406 1.74638-8.24547 2.8125-12.3125 1.06604-4.06691 2.12138-7.73252 3.1875-11 1.06604-3.26734 2.03951-5.90625 2.90625-7.90625.86665-1.99984 1.50337-2.99992 1.90625-3z" fill="url(#b)" opacity=".99"/><g fill="url(#a)" transform="matrix(.98333264 0 0 .98333264 9.747688 66.195928)"><path d="m364.78711 472.39456v14.58453h-67.7049v28.31451h52.65143v-6.55078h-25.89605v-15.05347h40.71386v18.56214c-.00008 2.34071-.36388 4.38188-1.0914 6.1235-.72768 1.74165-1.94921 3.60032-3.66458 5.57602-2.13289 2.49622-4.68147 4.21247-7.64575 5.14875-2.44392.78076-5.64155 1.17114-9.5929 1.17114h-38.76672c-3.4833 0-6.34291-.3642-8.57886-1.09259-2.65174-.88391-5.04401-2.41766-7.17682-4.60126-1.87256-1.92492-3.26349-3.88833-4.17279-5.89023-.9093-2.00188-1.36395-4.3025-1.36395-6.90188v-23.24433c0-1.76778.58478-3.7177 1.75433-5.84976 1.16955-2.13197 2.74218-4.0561 4.7179-5.7724 1.9757-1.71619 4.22475-2.89924 6.74716-3.54913 2.52238-.64979 5.13563-.97471 7.83975-.97476z"/><path d="m451.72064 486.82436c0-3.74348 1.16995-6.96729 3.50986-9.67144 2.33989-2.70405 5.35542-4.23859 9.0466-4.60364 4.1085.00006 7.64493 1.17041 10.60931 3.51105 2.65171 2.08049 4.75754 5.04405 6.31751 8.89068l13.02539 32.37067 14.27508-34.08453c1.40436-3.38008 3.22455-5.98024 5.46058-7.80048 2.44377-1.97565 5.35576-2.9635 8.73596-2.96356 4.31474.00006 7.82419 1.63775 10.52838 4.91308 2.54849 3.06756 3.82279 6.81188 3.82288 11.23297v41.88501h-13.96326v-42.66577l-13.80615 30.41876c-2.44391 5.35743-4.61481 8.88078-6.5127 10.57004-1.898 1.68927-4.14666 2.69022-6.74597 3.00284-4.00383 0-7.4879-1.37823-10.45221-4.1347-2.28837-2.13122-4.3942-5.30267-6.31751-9.51435l-13.57287-29.79748v42.51105l-13.96088-.39039z"/><path d="m544.63605 530.97311v-58.57855h16.14605v58.57855z"/><path d="m582.45062 471.22341c2.08043.00006 4.13468.49438 6.16278 1.48297 2.02805.98871 3.97837 2.39233 5.85096 4.21088l39.23327 39v-43.28943h14.66309v42.4325c-.00009 3.4325-.59796 6.33179-1.79361 8.69787-1.19582 2.3661-3.17193 4.32911-5.92832 5.88904-.98713.51892-2.07893.9343-3.27539 1.24612-1.1966.31183-2.31458.46775-3.35394.46775-2.18366 0-4.2764-.48084-6.27823-1.44251-2.00195-.96167-3.96536-2.37878-5.89023-4.25134l-39.23327-38.68817v43.75836l-14.58692-.23328v-45.3175c0-2.91194.728-5.40815 2.18399-7.48865 1.45599-2.08039 3.5884-3.77045 6.39725-5.07019 1.97569-.93622 3.92522-1.40436 5.84857-1.40442z"/><path d="m736.35352 472.39456v14.58453h-67.7049v28.31451h52.65143v-6.55078h-25.89606v-15.05347h40.71387v18.56214c-.00009 2.34071-.36389 4.38188-1.0914 6.1235-.72768 1.74165-1.94921 3.60032-3.66458 5.57602-2.13289 2.49622-4.68147 4.21247-7.64575 5.14875-2.44392.78076-5.64155 1.17114-9.5929 1.17114h-38.76672c-3.4833 0-6.34292-.3642-8.57886-1.09259-2.65175-.88391-5.04402-2.41766-7.17682-4.60126-1.87256-1.92492-3.26349-3.88833-4.17279-5.89023-.9093-2.00188-1.36396-4.3025-1.36395-6.90188v-23.24433c-.00001-1.76778.58477-3.7177 1.75433-5.84976 1.16955-2.13197 2.74218-4.0561 4.7179-5.7724 1.97569-1.71619 4.22474-2.89924 6.74716-3.54913 2.52238-.64979 5.13563-.97471 7.83975-.97476z"/><path d="m388.77603 467.91013v11.07172h9.11788l3.74483 11.56015-27.84208 43.14709h13.67681l19.86395-29.30745 13.02555 32.88948 20.51521-6.51279-3.25639-10.09477-9.44351 2.93075-22.14342-55.68418z" fill-rule="evenodd"/></g></g></svg>