<svg fill="#e5e7eb" viewBox="0 0 16.324984 38.252658" xmlns="http://www.w3.org/2000/svg"><path d="m96.127328 224.60739c-1.421897-1.4219-1.44563-4.58443-.07029-9.37207 2.020887-7.03501 2.703512-13.07835 1.96297-17.37704-.175771-1.02021-.132085-2.27012.153559-4.39367.398433-2.96201.375283-3.3991-.353536-6.672-.162026-.7276-.391213-2.15635-.50927-3.175-.118079-1.01864-.355124-2.32833-.526786-2.91041-.171653-.58209-.407934-1.47506-.525092-1.98438-.117141-.50932-.394732-1.46182-.616849-2.11667-.222126-.65484-.550069-1.84546-.728769-2.64583-.178705-.80036-.365707-1.60404-.415581-1.78594-.261937-.95779-3.01625 1.00542-3.01625 2.15636 0 .35719-1.195916 1.90235-2.685521 3.46869-2.582333 2.71462-3.135312 4.03489-3.135312 7.47712 0 4.57623-1.093655 6.49208-7.471833 13.0892-.835343.86403-1.786229 1.94649-2.113095 2.40551-.326867.45903-.749062 1.01479-.938239 1.23505-1.792711 2.08712-1.916589 2.43097-1.085321 3.01334 2.106877 1.47572-3.350419 6.52621-9.004829 8.33358-.932709.29814-1.789933.4839-1.904947.41283-.242359-.15081.766762-1.9685 1.091935-1.9685.119584 0 .302313-.38647.406056-.85883.181875-.82807.903526-2.57297 1.176761-2.84533.07299-.0728.309589-.48948.52578-.92605.21618-.43656 1.198245-2.0221 2.182389-3.52345.98425-1.50019 1.789377-2.78606 1.789377-2.8575 0-.0703.691991-1.58041 1.537732-3.35571.845741-1.77536 1.887538-3.99865 2.315104-4.94057.427567-.94197 1.640576-3.41709 2.695575-5.50042 1.571863-3.10383 1.918441-4.01293 1.919341-5.03423.000714-.79131.233992-1.70539.638916-2.50348.426852-.8413.69424-1.93519.808407-3.3073.09383-1.1276.351632-2.76463.572876-3.63775.221253-.87313.506968-2.00972.634921-2.52579.400897-1.61687 1.71786-4.62227 2.594954-5.92191.827643-1.22634.75608-1.43214.310786-2.18594-.2491-.42169-1.290252-1.22861-1.225164-1.27753 3.086364-2.31857 4.634287-2.73709 5.559006-7.42736.429445-2.1785 1.615757-5.51894 2.308199-6.49922.272811-.38627.49604-.81863.49604-.96079 0-.14217.367692-.61798.817113-1.05738.687864-.67251.771578-.884.529167-1.33691-.15875-.29633-.288396-.80169-.288396-1.11919 0-.31935-.416719-1.0419-.926042-1.60565-1.165092-1.2896-1.242589-2.76251-.269637-5.12445.359675-.87312.656776-1.79051.660242-2.03864.0078-.56052 1.515639-3.78751 2.237131-4.7879.459475-.63704.479716-.77586.144058-.98814-2.499898-1.98742-3.798693-3.17441-6.519678-5.44061-2.325687-2.88925-4.320645-6.28386-4.320645-7.35278 0-.21923-.119063-.47217-.264584-.56213-.145521-.0899-.264583-.70366-.264583-1.36382 0-3.4163 3.974042-4.22566 5.623983-1.14546.427488.79803 1.003856 1.69677 1.280848 1.99718.276966.30041.503608.67426.503608.83079 0 .15652 1.18327 1.37557 2.629509 2.70907l2.629508 2.4244 1.008513-.88288c.554672-.48559 1.431263-1.10152 1.947937-1.36875 2.58234-1.33614 2.25955-4.65666-.452433-4.65666-.965359 0-1.735561-2.0496-.999702-2.66039.648229-.53446 1.174745-1.72773 1.174745-2.65377 0-.48694.18916-.98219.4472-1.17086.26575-.19433.50732-.8495.59532-1.61478l.1481-1.28775 1.4042-.22293c1.07775-.17111 1.45568-.35608 1.62568-.79566.28868-.74649 1.0827-1.62298 1.66647-1.83954.52592-.1951.60299-1.019971.17077-1.827581-.62175-1.161735.63079-5.038463 1.96508-6.082244 2.16678-1.694894 7.36971.774674 9.02124 4.281752.61492 1.305957.96504 1.711402 1.89108 2.189872 2.03142 1.049631 3.00302 4.128301 2.01089 6.371441-.4767 1.07767-.52422 1.56747-.38701 3.99018.15162 2.67758-.0762 4.41722-.76935 5.87481-.20485.43079-.13086.93797.30792 2.11066.95999 2.56579.23366 6.08726-1.93964 9.40408-.72223 1.10226-1.85668 1.45465-2.97153.92303l-.91525-.43646.0621 2.31894c.0635 2.48708-.0688 2.97392-.8255 2.97392-.26464 0-.62936.17859-.81052.39687s-.67713.39688-1.10215.39688c-1.47865 0-5.30014 4.75297-5.21071 6.48097.0316.60997-.12398 1.35143-.3621 1.72598-.45564.71665-.29827 1.48484.42761 2.08727.23456.19467.42649.45246.42649.57288 0 .12041.34626.73197.76946 1.35903 1.49878 2.22078 1.95625 4.18518 1.77382 7.61762-.21068 3.96398-.003 6.76805 1.67087 8.46271 1.74567 1.7676 1.60298 2.40173-.84069 3.73671-.68254.37285-.82125.38266-.77274.98912.003 2.56432-.76237 7.68909-1.48066 10.35927-.21528.80036-.4504 1.87193-.5225 2.38125s-.22883 1.0486-.34827 1.1984c-.11946.14981-.20939.62606-.19986 1.05834.01.43227-.12066 1.2895-.28932 1.90492-.30358 1.10773.0131 4.2926.49379 4.96649 1.29223 1.81118 1.84034 6.34735 1.05945 8.76856-.68826 2.13378-1.37247 3.95763-1.74787 4.65931-.47746.89244-1.90246 4.27408-2.25753 5.35755-.14309.43656-.29445 2.87734-.33636 5.42396-.0764 4.63973-.27699 5.95762-1.23838 8.13302-.2726.61688-.49565 1.27733-.49565 1.46765 0 .40335-1.72003 2.10764-2.562301 2.53883-.791792.40534-1.293336.37121-1.786176-.12164zm3.045092-3.43244c1.23454-.85553 1.83438-3.04191 1.83335-6.68231-.00027-1.35441.11027-2.96175.24589-3.57188s.39076-1.85698.56697-2.77072c.17621-.91376.42244-1.72447.54716-1.80154.12473-.0771.22679-.40699.22679-.73309 0-.32609.10132-.70604.22516-.84428.12384-.13825.55057-1.08479.94829-2.10344.39773-1.01864.87678-2.20927 1.06453-2.64583 1.16692-2.71304 1.27987-7.4385.24175-10.11423-.81653-2.10455-.95409-4.84664-.40182-8.00973.19056-1.09141.44659-2.57969.56893-3.30729.12235-.72761.40526-2.21589.6287-3.30729.91488-4.46882 1.02034-9.15988.2003-8.90985-4.20744 1.34066-6.674925 1.33924-10.75187 1.37327l.08541 1.32088c.04697.72649.255333 1.90804.463021 2.62567.207684.71763.377613 1.78083.377613 2.36265 0 .9034.736838 4.56406 1.578451 7.84198.130773.50933.315251 1.52136.409919 2.24896.09468.72761.478526 1.97776.852986 2.77813.73565 1.57239 1.1093 5.24033.56791 5.57503-.42712.26397-.71499 3.52319-.88641 10.03538-.0862 3.27422-.26625 6.42938-.40013 7.01146-.133877.58209-.480457 2.1299-.770202 3.43959-.289719 1.30968-.724297 2.91703-.96573 3.57187-1.391655 3.77481.03095 6.35767 2.543012 4.61671zm-31.604481-9.92452c.308874-.11544 1.145566-.78414 1.85928-1.48603.71374-.70189 1.79869-1.70402 2.411042-2.22697 1.031637-.88104 1.109477-1.03963 1.060688-2.16064-.07557-1.73625.40349-2.50055 3.69861-5.90074.618464-.6382 1.12448-1.26026 1.12448-1.3824 0-.12212.357187-.56425.79375-.9825.436562-.41825.79576-.88701.798195-1.04169.0025-.15468.490987-.75748 1.085611-1.33956 2.82628-2.76675 4.026694-5.41999 4.091517-9.04372.03892-2.1775.146312-2.8366.560361-3.43959.281728-.41021.850186-1.45081 1.263253-2.31248.413068-.86167 1.119796-1.99276 1.57054-2.51354 1.145382-1.32337 2.536799-3.13717 2.536799-3.30703 0-.2042 2.724415-3.9542 3.031596-4.17301.674687-.48154.02381-3.12473-.767292-3.12473-.174268 0-.784754-.39846-1.356677-.88548-1.460209-1.24346-4.119298-2.39551-5.181865-2.24507-.623967.0883-3.408098 5.15647-3.754702 6.83472-.20484.99224-.945859 4.10766-1.517994 6.38175-.2794 1.1086-.507735 2.25954-.507735 2.55852 0 .29779-.133914.58608-.297577.64064-.173564.0579-.328507.88767-.371766 1.99117-.06119 1.56038-.194525 2.04973-.760757 2.79215-.37756.49477-.686594 1.02658-.686594 1.18269 0 .15603-.0893.3234-.198437.3719-.198311.0881-2.324709 4.2918-3.055938 6.04123-.212878.50932-.570917 1.34276-.795628 1.85208-.224716.50932-.722445 1.87854-1.106091 3.04271-.383619 1.16416-.928264 2.43927-1.21031 2.83369-.282045.39422-.512762.79375-.512762.889 0 .0943-.803672 1.26402-1.785938 2.59945-.982265 1.33543-1.945957 2.70827-2.141537 3.05064-1.113102 1.94998-1.364192 2.44475-1.364192 2.7014 0 .15501-.240911.62016-.535358 1.03367-.858308 1.20539-.0087 1.5284 2.023004.76909zm32.579901-66.96626c0-.48218-.338325-1.00248-1.091915-.84085-1.155537.24784-1.150054.88443-.722276 1.15549.730695.463 1.814191.27509 1.814191-.31464zm-6.335023-1.28014c-.337079 0-.632863.52227.107153 1.19174.403728.45858 1.66615.61997 1.66615.19639.180665-.66087-1.074739-1.09153-1.773303-1.38813zm3.87731 1.2456c.01786-.36111-.636487-.89676-.920137-.89434-.282432.002-.731807.17622-.78977.54079-.06162.38754.569859.85015.942234.85015.384016 0 .749923-.23605.767673-.4966zm4.486103.18132c.44294-.16998.57412-1.03492.19271-1.27064-.42926-.2653-1.89085.47683-1.89085.96009 0 .4857.84098.6395 1.69815.31057zm1.62478-1.89692c-.31448-.31448-.9988.71781-.80414 1.2251.17519.45654.82446.62713 1.06584.0862.12001-.55452.0911-.95432-.2617-1.31128zm4.05244-10.47034c.3161-.38087.7171-2.13985 1.12501-4.93475.13805-.94588.31856-2.16627.40111-2.71198.14572-.96332.43285-1.25042.74517-.74506.22347.36158-.49268 5.82109-1.05217 8.0211-.16578.65188-.11483.72761.48948.72761.93062 0 .95946-.0965.99904-3.34301.0226-1.85796.16415-3.12738.40005-3.58907 1.04185-2.03933-2.0171-7.23213-4.65905-7.90919-.73025-.18521-1.32821-.45244-1.32821-.59003 0-.3226-3.24458-.0347-3.96716.35209-1.35083.72294-.42455 1.81387.97586 1.14935 1.44809-.68715 4.80881-.67501 5.2115.0188.16147.27826.50194.72474.7566.99218.72377.76005.55235 2.02412-.59531 4.39023-.58208 1.20005-1.05833 2.26328-1.05833 2.36273 0 .18332-.8917 2.21428-1.34186 3.05621-.32457.60706-.31396 1.52495.0176 1.52495.28831 0 1.06111-1.57438 1.68836-3.43958.80912-2.40602 1.40583-3.97484 1.57699-4.14603.0966-.0966.17558-.3811.17558-.63232 0-.53314.69733-.88342.94876-.4766.0946.15304.0389.5348-.12368.84834-.29311.56515-1.27487 3.3483-1.4728 4.17512-.0566.23652-.24077.89136-.40921 1.45521-.66146 2.21419-.7579 2.8493-.50443 3.3229.3061.57192.59696.60783.99907.12333zm4.13279-3.03478c0-1.661-.1012-2.66461-.26458-2.62379-.14552.0364-.26877.42333-.27387.8599-.005.43656-.10788 1.47642-.22839 2.31081-.23733 1.64323-.0856 2.42713.43624 2.2532.2355-.0785.3306-.88398.3306-2.80009zm2.83078-2.34283c1.14829-.23283 2.59291-2.33891 2.59291-3.78089 0-.42268.1271-1.10276.28245-1.51133.38616-1.01571-.15403-3.79095-.97272-4.99745-1.49058-2.19652-1.49677-2.23012-1.16006-6.2955.25978-3.13637.24917-3.91001-.0657-4.78419-.38629-1.07342-.5424-1.20941-1.96321-1.73487-.80169-.29581-1.06098-.73687-1.32292-2.24817-.35189-2.038881-5.91079-3.541183-5.91079-1.597291 0 .343191-.20235.679531-.46302.769651-1.03722.35856-2.02099 1.15435-2.47608 2.00287-.61984 1.15578-.91842 1.3294-2.29473 1.33432-1.25825.005-1.14699-.27244-1.11768 2.78209.0131 1.37009-.2357 1.98438-.80391 1.98438-.37716 0-.57634.22797-.68831.78782-.0867.43331-.321813.92414-.522552 1.09072-.643996.53448.855392 2.35479 1.939632 2.35479 1.0292 0 1.6836.68725 1.51159 1.5875-.33393 1.7477-.3461 1.72646.94176 1.64192.65236-.0428 1.42626.0342 1.71979.17121 2.59588 1.21156 4.90247 1.37872 4.24021.30732-.24576-.39767.54817-2.77892 1.29096-3.87218 1.02346-1.50617.45889-1.85558-1.43613-.88882-.89165.45509-1.04775.47361-1.04775.127 0-.22484.27278-.51249.60618-.63928.33341-.12676.75436-.40902.93546-.62722.18111-.21822.75237-.47615 1.26948-.57314 2.58823-.48557 3.58378-2.73606 1.32937-3.00541-.73718-.088-.93022-.43815-.37018-.67135.23189-.0966.17259-.25859-.19844-.54218-1.05516-.80653-1.19904-.98859-1.01571-1.28524.13753-.22253.21437-.21836.29245.0159.0582.17473.21329.31768.34454.31768s.003-.38695-.28565-.85989c-.61753-1.01283-.6909-2.05052-.145-2.05052.62396 0 .72768-.47057.26076-1.18317-.34396-.52678-.65881-.67019-1.46844-.67019-.56356 0-1.02658-.11906-1.02658-.264581 0-.74409 2.25052-.25867 2.84427.613491.69332 1.01841.7982 1.90222.19844 1.67209-.87027-.33396-.17223 1.43078.76419 1.93193.82286.44027.89694.80962.1614.80962-.29104 0-.52917.11907-.52917.26459 0 .28064.45043.35274 1.68352.26956.48768-.0329.69416.0513.5797.23654-.0979.15822-.34925.28761-.55827.28761-.49845 0-.48482.3878.0318.90445 1.21507 1.21507.201 3.64014-1.78583 4.27064-.36179.11483-.43939.3157-.31435.81391.1237.49286.0246.76049-.38875 1.05002-.30512.21372-.69874.89025-.87469 1.50337-.17595.61314-.3371 1.17432-.35811 1.24708-.56357 1.95242-.4513 2.5848.71265 4.01373.63791.78317 1.31641 1.83759 1.50776 2.3431s.43846 1.15726.54914 1.4483c.44191 1.16216.8037 2.44105.8037 2.8411 0 .48895.48678.7461 1.05833.55909.21828-.0714.71821-.19472 1.11096-.274zm-12.88521-14.90133c.75192-.32311 2.31637-.32311 2.11667 0-.0899.14552-.72205.25621-1.40468.24598-.93681-.014-1.11138-.0744-.71199-.24598zm8.38978-2.91579c.0637-.19099.69798-.94225.88898-1.00591.19844-.0662.29766.0331.23151.23151-.0637.191-.69798.94226-.88898 1.00592-.19844.0661-.29766-.0331-.23151-.23152zm-6.28952-4.86825c-.28226-.20639-.42174-.46667-.30998-.57843.27029-.27033 1.57548.20386 1.71463.62293.14937.44984-.76835.42077-1.40465-.0445zm1.91254-1.58525c-.71173-.76835-.89164-1.21444-.48683-1.21444.39955 0 1.42759 1.2796 1.3104 1.6311-.078.23399-.34417.0991-.82211-.41658zm-29.21976 21.09856c-2.347991-.9447-1.826154-6.82572.715513-8.06397.790654-.38521 2.020279-1.25537 2.732617-1.93368 1.553474-1.47953 2.123678-1.48183 2.322645-.009.07848.58078.346366 1.49862.595312 2.03964.681487 1.48109.830157 1.15404-2.589398 5.69701-1.883886 2.50283-2.411042 2.81967-3.776662 2.27031zm6.773598-.0767-3.881437-.14288 1.622531-2.18281c2.416254-3.25067 2.645807-3.19722 6.241785 1.45521.711147.92006.780944 1.11442.38391 1.06913-.266885-.0304-2.231919-.11974-4.366683-.19844zm11.289771-13.44877c-.291042-.0609-.70776-.26816-.926042-.46053-.218281-.19237-1.091988-.76801-1.941565-1.27921l-1.54469-.92946-1.034997.53949c-.764646.39952-1.034521.70644-1.034521 1.17475 0 .56134-.487363.94377-.555996.4363-.01476-.10914-.067-.63662-.116088-1.17216-.240771-2.61885-1.762125-4.45029-3.697288-4.45029-.322474 0-.889026-.23813-1.25902-.52917-.84275-.66291-1.012772-.66019-1.890421.0302-1.009174.7938-1.142418.43326-.203126-.54962.653653-.68397.920327-.79597 1.544082-.64847l.753798.17833-.545836-.52784c-1.305454-1.26206-2.496872-1.00965-2.496872.52917 0 .19429-.14047.49374-.312156.66542-.407141.40714.206116 1.61753.968005 1.91059.294137.11313.890825.89061 1.326012 1.72773.435187.83711 1.000734 1.65285 1.256771 1.81276.44442.27755.664025 1.22177.284162 1.22177-.09976 0-.427196-.2174-.727604-.48313s-1.50233-.79018-2.670969-1.16546c-8.190706-2.63049-11.837723-6.41588-9.500129-9.860494.834231-1.229254.722577-1.356783-1.753923-2.007129-2.952485-.774964-3.525308-.701146-5.026289.648494-3.274484 2.943758-6.553203.478098-5.475026-3.895465.64197-3.373329 1.744951-4.834222 3.158861-7.540625 1.708232-2.461996 3.927357-5.075541 7.381348-4.928204 1.474319.287243 1.668251 1.105984 1.4723 4.096014-.131037 1.999536-.09107 2.669646.168887 2.831306.187301.11651.800761.781791 1.363265 1.478413.562504.696621 2.106084 1.989376 3.430323 2.872846 1.894271 1.382485 3.680138 2.485805 5.162074 3.615425 3.163887 2.422208 4.397904 3.055673 5.32421 2.732617.769541-.268261 1.552364.290222 1.914525 1.365881.07993.23738.217856.22586.546788-.0457.639287-.52771 1.233647.0612 1.233647 1.222351 0 .87551.04124.91848.746416.77743.875321-.17507 1.501589 1.04669 1.407133 2.74505-.05878 1.05677 1.898042 2.24917 4.197086 2.55754.959829.12874 1.057724.21332 1.057724.91392 0 1.55321-.885481 2.61946-1.984375 2.38943zm-.284215-2.52545c-.09525-.24077-.272521-.43921-.399521-.43921-.521229 0-3.074458-1.34276-3.730625-1.96241-.997479-.94165-7.660481-5.198271-9.897533-6.322491-5.495132-2.761186-10.258161-1.607338-9.523677 2.307701.1651.88 1.589352 2.8022 2.07645 2.8022.113268 0 .659659.30028 1.214225.66726 2.582334 1.70894 6.124046 2.84903 6.124046 1.96902 0-.48577-1.839119-1.57797-2.656946-1.57797-2.169318 0-4.537075-3.66818-3.572139-5.534031.902494-1.745451 5.252244-.792157 9.00721 1.973801.873125.64315 2.004219 1.41258 2.513542 1.70981.509323.29724 1.699948 1.13366 2.645833 1.85873 3.145896 2.41154 6.707188 3.87641 6.198129 2.54958zm-5.405438-.4445c.352769-.23158.352769-.28948 0-.52107-.646483-.42439-1.02026-.31253-.870426.26053.155255.5937.297868.63638.870426.26054zm1.859095-4.22751c-.248407-.92882-1.234281-.93041-1.106884-.002.138488 1.00954.892492 1.78186 1.116409 1.1435.09232-.26318.08804-.77697-.0095-1.14173zm-12.790223-.94774c.700352-1.78406.634392-2.009301-.711306-2.429301-1.619805-.50554-2.2538-.42124-2.603447.34618-.478366 1.049871-.383116 1.366841.751152 2.501111 1.447324 1.44732 1.857508 1.38046 2.563495-.41796zm10.911681.40045c-.150727-.49969-.279664-1.30503-.286517-1.78967l-.01246-.881171-.635.596561c-.843333.79227-.800841 1.29257.196424 2.31259.986076 1.00856 1.102334.97099.737553-.2383zm-3.846777-2.21122c-.09525-.248971-1.437481-1.297511-2.982648-2.330184-1.544902-1.032669-2.868612-1.95871-2.941373-2.058194-.264583-.36142-7.404634-4.860122-7.636933-5.024702-.249514-.176777-.608118-.47625-.993325-1.058333-.949272-1.434439-1.299977-1.339295-2.194401.595312-.420503.909506-1.014439 1.916563-1.319874 2.237899-.924375.972476-.701755 1.288098 1.362868 1.932147 1.055026.329115 2.435173.891248 3.06705 1.249177 1.09183.618543 1.231953.635106 2.827603.334036 2.194189-.413808 5.31151.518584 7.135812 2.134659.713687.632252 3.68009 2.609403 3.774017 2.515473.04123-.0412-.0031-.27853-.09862-.52731zm1.601047-.632881c-.230188-.46355-.590021-.842699-.796396-.842699-.533903 0-.469133.426669.202769 1.335459.729774.987081 1.15689.633331.595074-.49287zm-24.404638-4.129343c3.650192-1.904206 8.443913-11.397192 6.806407-13.478669-.776023-.986869-1.925289-.682577-3.387196.228865-1.941978 1.353514-2.90664 2.961472-3.641508 3.974281-.553835.947292-.972773 1.838418-1.387322 2.84165-.398129.864493-.803338 1.866159-1.118193 2.91114-.124525.565511-.276876 1.674409-.276969 2.331653.03619 1.224235 1.566745 1.941359 3.004914 1.19108z" stroke-width=".264583" transform="matrix(.26458333 0 0 .26458333 -15.34563257715 -21.28052728558)"/></svg>
