<svg viewBox="0 0 29.104166 29.104167" xmlns="http://www.w3.org/2000/svg"><path d="m-239.5776 46.05332c-4.8825.00001-8.8648 3.982-8.8647 8.86449v3.57328h-2.4782v14.020561h22.6857v-14.020561h-2.4781v-3.57328c.0001-4.88252-3.9822-8.86455-8.8647-8.86449zm0 4.11524c2.6363-.00004 4.7493 2.11294 4.7493 4.74925v3.57328h-9.4986v-3.57328c0-2.63625 2.113-4.74924 4.7493-4.74925zm-.0002 11.19355a2.938304 2.938304 0 0 1 2.9383 2.93836 2.938304 2.938304 0 0 1 -1.2157 2.37598v1.54798c0 .954239-.7684 1.72243-1.7226 1.72243-.9543 0-1.7225-.768191-1.7225-1.72243v-1.54686a2.938304 2.938304 0 0 1 -1.2157-2.3771 2.938304 2.938304 0 0 1 2.9382-2.93836z" transform="translate(254.12973 -44.730402)"/></svg>
