<svg viewBox="0 0 29.104166 29.104167" xmlns="http://www.w3.org/2000/svg"><path d="m-239.57766 46.053318-10.99436 6.367793v13.742948c3.66478 2.115865 7.32956 4.231768 10.99436 6.347593 3.66479-2.115878 7.32963-4.231639 10.99437-6.347593v-1.717868c-1.83236 1.058019-3.66479 2.115886-5.49718 3.173828v-1.717869l-1.3743.793441v1.717868l-4.12289 2.380322c-3.2067-1.851358-6.4134-3.70273-9.62006-5.554149v-3.435736l1.37429.793436v-1.717867l-1.37429-.79344v-5.153608l1.37429.793443v1.717869l1.3743.79344v-1.717869l1.3743.793508v3.435737l1.37429.793439v-1.717867l2.74859 1.58688v-1.717868l1.37429.793441v1.717868l1.3743-.793441v-1.717868l4.12289-2.380321v1.717869l1.3743-.79344v1.717867l1.3743-.793508v-1.717867l1.37429-.793441v5.153608l-1.37429.793504v1.717868l1.37429-.793508v1.717872l1.3743-.793441v-12.02508zm6.87148 13.901786-1.37429.793441v1.717869l1.37429-.793441zm-1.37429 2.51131-1.3743.793441v1.717868l1.3743-.793441zm-2.7486 1.586882-1.37429.793437v1.717872l1.37429-.793441zm-8.24576.130986v1.717868l1.37429.793441v-1.717868zm4.12288.662451v1.717872l1.37429.793437v-1.717868z" transform="translate(254.12973 -44.730402)"/></svg>
