<svg viewBox="0 0 29.104166 29.104167" xmlns="http://www.w3.org/2000/svg"><path d="m-239.57765 46.053321-11.4784 2.13808 2.5134 17.60581 8.965 6.714439 8.9652-6.714439 2.5132-17.60581zm0 1.42662 9.8016 1.82575-2.1461 15.40313-7.6555 5.733559-1.7953-1.3446c.1427-.33846.5265-1.167499.9927-2.137909l1.0936-2.27654 1-1.5935c.9747-1.55332 1.0129-1.60703 1.5176-2.12681.2848-.29328.6452-.71595.801-.93933.2983-.4279.3329-.45629 1.0076-.82679.3615-.19852.4283-.25393.5487-.45515.09-.14992.2116-.27698.3528-.36759.1187-.0761.2158-.15336.2158-.1716 0-.0182-.029-.11556-.065-.21626-.085-.24147-.083-.24769.044-.12837.1317.12375.1194.13433.5046-.43151.3004-.44142.4387-.68532.4068-.71727-.011-.0111-.2911.11561-.6222.28146l-.6019.30155-.2843-.0853c-.2767-.083-.2918-.0952-.5548-.447-.2693-.36021-.2718-.36221-.6579-.51176-.2131-.0826-.4215-.16336-.4629-.17959-.069-.0269-.075.008-.075.39283 0 .43127-.032.47665-.1274.17908-.028-.0888-.068-.1615-.089-.1615-.02 0-.1766.22772-.3475.50604-.1709.27833-.3388.53512-.3733.57065-.055.0569-.06.0491-.039-.0646.013-.0711.035-.29394.05-.49528l.026-.36608-.3604-.88288-.3606-.88289-.557-.2468c-.3608-.15985-.5871-.23728-.6427-.21988-.073.0229-.078.0172-.031-.0393.046-.0556.036-.0813-.065-.1605-.088-.0688-.097-.0867-.034-.0662.2616.0853.2981.0754.6367-.17193.196-.14313.3696-.309.4204-.40174l.086-.15798-.026.15074c-.014.0829-.034.18051-.044.21694-.011.0414.1167.18973.3413.39535l.3596.32915.5556.1117.5556.11171.4953-.14527c.2731-.0801.4933-.16748.4909-.19481 0-.0273-.01-.0883-.011-.13568-.01-.0787-.037-.0861-.3642-.0861-.2728 0-.4286-.0255-.6567-.10759l-.2991-.1075.4738.0239c.2605.0131.5391.0351.6192.0488.094.016.1397.009.1292-.021-.01-.0252-.1907-.259751-.4039-.521181-.248-.304179-.4267-.570839-.4962-.740569l-.1085-.26521-.442-.23612-.442-.2362-1.3229.103719-1.3229.103711-.5356.3257-.5357.32578-.1203.38265c-.066.21048-.1206.40771-.1211.43825-.00061.0306.1451.23714.3237.45911l.3246.403589-.046.488381c-.026.26862-.066.637319-.089.819379-.042.32413-.039.341981.131.85875.096.290271.174.546371.174.569051 0 .0227-.3906.79901-.8679 1.72523-.7776 1.508659-2.6818 4.923739-2.87 5.147019-.072.085-2.1302.88435-2.2066.85681-.02-.007.062-.25521.1827-.55129l.2189-.53835.9726-1.13171c.5928-.689589 1.1758-1.42147 1.4924-1.87345.2857-.40795.9781-1.39413 1.5386-2.19149l1.0191-1.44975-.1706-.507809-.1706-.50782v-.89222c0-.88728-.013-1.028331-.095-1.028331-.024 0-.033.0258-.021.0573s-.017.486691-.064 1.0115l-.086.95422.1589.47678c.087.262241.1503.5096.1398.5497-.022.0848-1.1511 1.666661-2.4078 3.374-.9941 1.35045-2.3098 2.89969-2.9161 3.43357-.1464.12895-.456.3378-.6557.46583l-2.1384-15.342729zm2.0864 2.43494-.4583.34092c-.4472.33265-.4611.34807-.5767.64257-.068.1744-.1247.2693-.1332.22476-.018-.0944-.077-.0746-.3282.11095-.1693.12487-.421.47938-.3669.51673.011.008.2018.004.4236-.009l.4034-.0224.1652-.32301c.1777-.34756.2068-.35249.1052-.0177-.1065.35103-.1449.33153.5918.30046l.6567-.0277.2369.215599c.1303.118571.266.215951.3015.21643.035.000477.1421-.10908.2369-.243519.095-.13444.1875-.26952.2061-.30013.024-.0396-.044-.0924-.2368-.18321l-.2708-.12752.1938.0224c.1066.0123.2374.0435.2906.0693.053.0258.1087.0351.1232.0206.018-.0185-.5117-1.09267-.604-1.22381 0-.005-.2205-.0522-.4829-.105821zm2.4585.75091c-.1416.001-.8229.14521-.8594.18169-.013.0133.01.12643.043.25151.037.12508.068.24996.068.27759 0 .0276-.1281.22008-.2846.42764-.2466.32693-.2786.38973-.2388.46954.025.0507.101.23755.1684.4152.1527.40272.8619 1.33506 1.0155 1.33502.059-.00001.165-.0828.287-.22333.3318-.38231.3242-.3597.1826-.54188-.2033-.26133-.2072-.30117-.012-.1176.1651.15508.1802.16153.1521.0646-.026-.0901-.022-.0985.028-.0515.049.0469.071.0185.1326-.17227l.074-.22846-.026.32301c-.014.17765-.038.35599-.053.39636-.015.0404-.1483.20874-.2964.37415-.2133.23827-.2982.3035-.4088.31418-.1324.0128-.139.0217-.1261.17025l.014.15671-.5416.30627c-.2978.16843-.5826.30626-.6327.30626-.079 0-.088.0178-.064.13459.015.074.027.15768.027.18598 0 .10707.3195.41843.6011.58571.2857.16974.2994.17316.5776.14468l.2849-.0292.3562-.37096c.1959-.20401.5059-.46777.6889-.58621.183-.11843.333-.23847.3333-.26673.0005-.0283-.04-.12032-.09-.20457-.1-.16954-.083-.19708.044-.0702.1202.1202.2458.0702.3001-.11944.04-.14068.043-.12993.022.1011-.013.14213-.032.28748-.043.32301-.011.0355-.1962.1712-.4116.30148-.2713.16416-.4792.33308-.6772.55029-.1571.17237-.3788.38143-.4926.46458l-.2069.15115.3146.29803c.3099.29362.318.29807.5514.29945.2223.001.2791-.0233.9259-.40258h.0001c.5502-.32259.6884-.4221.6857-.49393 0-.0639.011-.0779.047-.0482.097.0804.1037-.0136.01-.14645-.068-.0968-.073-.11733-.019-.074.041.033.083.0516.093.0415s.032-.40174.049-.87027l.03-.85194-.2617-.26631c-.2304-.23435-.2994-.3491-.5752-.9554-.1724-.37899-.3308-.70104-.352-.71566-.021-.0146-.1567-.039-.3012-.0541s-.2762-.0494-.2928-.0762c-.017-.0268-.043-.21562-.06-.41966-.016-.20405-.04-.41422-.052-.4671-.033-.13753-.5735-.52862-.7295-.52733zm-4.6011 8.88415c.018.006-.145.30859-.2166.39594-.039.0474-.018-.0108.047-.1292.065-.11844.1357-.23472.1581-.25841.01-.006.01-.009.012-.008zm1.5463.75428c.037.002.085.01.1529.0236.1185.0243.2154.0569.2154.0726s-.096.0955-.2126.17731c-.1597.111771-.3489.341311-.7595.92133-.5758.813351-.7498 1.02957-.5697.707851.06-.10659.3078-.55235.5515-.99056.2437-.438211.4693-.827361.5013-.86472.03-.0355.059-.0503.1207-.0474z" transform="translate(254.12973 -44.730402)"/></svg>
