<?xml version="1.0" encoding="UTF-8" standalone="no"?>
<!-- Created with Inkscape (http://www.inkscape.org/) -->

<svg
   xmlns:dc="http://purl.org/dc/elements/1.1/"
   xmlns:cc="http://creativecommons.org/ns#"
   xmlns:rdf="http://www.w3.org/1999/02/22-rdf-syntax-ns#"
   xmlns:svg="http://www.w3.org/2000/svg"
   xmlns="http://www.w3.org/2000/svg"
   xmlns:sodipodi="http://sodipodi.sourceforge.net/DTD/sodipodi-0.dtd"
   xmlns:inkscape="http://www.inkscape.org/namespaces/inkscape"
   width="110"
   height="110"
   viewBox="0 0 29.104166 29.104167"
   version="1.1"
   id="svg7462"
   inkscape:version="0.92.4 (5da689c313, 2019-01-14)"
   sodipodi:docname="Insurgency.svg">
  <defs
     id="defs7456" />
  <sodipodi:namedview
     id="base"
     pagecolor="#000000"
     bordercolor="#666666"
     borderopacity="1.0"
     inkscape:pageopacity="0"
     inkscape:pageshadow="2"
     inkscape:zoom="1.882384"
     inkscape:cx="171.19508"
     inkscape:cy="7.0418345"
     inkscape:document-units="px"
     inkscape:current-layer="layer1"
     showgrid="false"
     units="px"
     fit-margin-top="5"
     fit-margin-bottom="5"
     fit-margin-left="5"
     fit-margin-right="5"
     inkscape:pagecheckerboard="true"
     inkscape:window-width="1920"
     inkscape:window-height="1017"
     inkscape:window-x="1272"
     inkscape:window-y="-8"
     inkscape:window-maximized="1" />
  <metadata
     id="metadata7459">
    <rdf:RDF>
      <cc:Work
         rdf:about="">
        <dc:format>image/svg+xml</dc:format>
        <dc:type
           rdf:resource="http://purl.org/dc/dcmitype/StillImage" />
        <dc:title></dc:title>
      </cc:Work>
    </rdf:RDF>
  </metadata>
  <g
     inkscape:label="Calque 1"
     inkscape:groupmode="layer"
     id="layer1"
     transform="translate(254.12973,-44.730402)">
    <path
       style="fill:#ffffff;fill-opacity:1;stroke:none;stroke-width:0.05043564px;stroke-linecap:butt;stroke-linejoin:miter;stroke-opacity:1"
       d="m -239.57765,46.053321 -11.4784,2.13808 2.5134,17.60581 8.965,6.714439 8.9652,-6.714439 2.5132,-17.60581 z m 0,1.42662 9.8016,1.82575 -2.1461,15.40313 -7.6555,5.733559 -1.7953,-1.3446 c 0.1427,-0.33846 0.5265,-1.167499 0.9927,-2.137909 l 1.0936,-2.27654 1,-1.5935 c 0.9747,-1.55332 1.0129,-1.60703 1.5176,-2.12681 0.2848,-0.29328 0.6452,-0.71595 0.801,-0.93933 0.2983,-0.4279 0.3329,-0.45629 1.0076,-0.82679 0.3615,-0.19852 0.4283,-0.25393 0.5487,-0.45515 0.09,-0.14992 0.2116,-0.27698 0.3528,-0.36759 0.1187,-0.0761 0.2158,-0.15336 0.2158,-0.1716 0,-0.0182 -0.029,-0.11556 -0.065,-0.21626 -0.085,-0.24147 -0.083,-0.24769 0.044,-0.12837 0.1317,0.12375 0.1194,0.13433 0.5046,-0.43151 0.3004,-0.44142 0.4387,-0.68532 0.4068,-0.71727 -0.011,-0.0111 -0.2911,0.11561 -0.6222,0.28146 l -0.6019,0.30155 -0.2843,-0.0853 c -0.2767,-0.083 -0.2918,-0.0952 -0.5548,-0.447 -0.2693,-0.36021 -0.2718,-0.36221 -0.6579,-0.51176 -0.2131,-0.0826 -0.4215,-0.16336 -0.4629,-0.17959 -0.069,-0.0269 -0.075,0.008 -0.075,0.39283 0,0.43127 -0.032,0.47665 -0.1274,0.17908 -0.028,-0.0888 -0.068,-0.1615 -0.089,-0.1615 -0.02,0 -0.1766,0.22772 -0.3475,0.50604 -0.1709,0.27833 -0.3388,0.53512 -0.3733,0.57065 -0.055,0.0569 -0.06,0.0491 -0.039,-0.0646 0.013,-0.0711 0.035,-0.29394 0.05,-0.49528 l 0.026,-0.36608 -0.3604,-0.88288 -0.3606,-0.88289 -0.557,-0.2468 c -0.3608,-0.15985 -0.5871,-0.23728 -0.6427,-0.21988 -0.073,0.0229 -0.078,0.0172 -0.031,-0.0393 0.046,-0.0556 0.036,-0.0813 -0.065,-0.1605 -0.088,-0.0688 -0.097,-0.0867 -0.034,-0.0662 0.2616,0.0853 0.2981,0.0754 0.6367,-0.17193 0.196,-0.14313 0.3696,-0.309 0.4204,-0.40174 l 0.086,-0.15798 -0.026,0.15074 c -0.014,0.0829 -0.034,0.18051 -0.044,0.21694 -0.011,0.0414 0.1167,0.18973 0.3413,0.39535 l 0.3596,0.32915 0.5556,0.1117 0.5556,0.11171 0.4953,-0.14527 c 0.2731,-0.0801 0.4933,-0.16748 0.4909,-0.19481 0,-0.0273 -0.01,-0.0883 -0.011,-0.13568 -0.01,-0.0787 -0.037,-0.0861 -0.3642,-0.0861 -0.2728,0 -0.4286,-0.0255 -0.6567,-0.10759 l -0.2991,-0.1075 0.4738,0.0239 c 0.2605,0.0131 0.5391,0.0351 0.6192,0.0488 0.094,0.016 0.1397,0.009 0.1292,-0.021 -0.01,-0.0252 -0.1907,-0.259751 -0.4039,-0.521181 -0.248,-0.304179 -0.4267,-0.570839 -0.4962,-0.740569 l -0.1085,-0.26521 -0.442,-0.23612 -0.442,-0.2362 -1.3229,0.103719 -1.3229,0.103711 -0.5356,0.3257 -0.5357,0.32578 -0.1203,0.38265 c -0.066,0.21048 -0.1206,0.40771 -0.1211,0.43825 -6.1e-4,0.0306 0.1451,0.23714 0.3237,0.45911 l 0.3246,0.403589 -0.046,0.488381 c -0.026,0.26862 -0.066,0.637319 -0.089,0.819379 -0.042,0.32413 -0.039,0.341981 0.131,0.85875 0.096,0.290271 0.174,0.546371 0.174,0.569051 0,0.0227 -0.3906,0.79901 -0.8679,1.72523 -0.7776,1.508659 -2.6818,4.923739 -2.87,5.147019 -0.072,0.085 -2.1302,0.88435 -2.2066,0.85681 -0.02,-0.007 0.062,-0.25521 0.1827,-0.55129 l 0.2189,-0.53835 0.9726,-1.13171 c 0.5928,-0.689589 1.1758,-1.42147 1.4924,-1.87345 0.2857,-0.40795 0.9781,-1.39413 1.5386,-2.19149 l 1.0191,-1.44975 -0.1706,-0.507809 -0.1706,-0.50782 v -0.89222 c 0,-0.88728 -0.013,-1.028331 -0.095,-1.028331 -0.024,0 -0.033,0.0258 -0.021,0.0573 0.012,0.0315 -0.017,0.486691 -0.064,1.0115 l -0.086,0.95422 0.1589,0.47678 c 0.087,0.262241 0.1503,0.5096 0.1398,0.5497 -0.022,0.0848 -1.1511,1.666661 -2.4078,3.374 -0.9941,1.35045 -2.3098,2.89969 -2.9161,3.43357 -0.1464,0.12895 -0.456,0.3378 -0.6557,0.46583 l -2.1384,-15.342729 z m 2.0864,2.43494 -0.4583,0.34092 c -0.4472,0.33265 -0.4611,0.34807 -0.5767,0.64257 -0.068,0.1744 -0.1247,0.2693 -0.1332,0.22476 -0.018,-0.0944 -0.077,-0.0746 -0.3282,0.11095 -0.1693,0.12487 -0.421,0.47938 -0.3669,0.51673 0.011,0.008 0.2018,0.004 0.4236,-0.009 l 0.4034,-0.0224 0.1652,-0.32301 c 0.1777,-0.34756 0.2068,-0.35249 0.1052,-0.0177 -0.1065,0.35103 -0.1449,0.33153 0.5918,0.30046 l 0.6567,-0.0277 0.2369,0.215599 c 0.1303,0.118571 0.266,0.215951 0.3015,0.21643 0.035,4.77e-4 0.1421,-0.10908 0.2369,-0.243519 0.095,-0.13444 0.1875,-0.26952 0.2061,-0.30013 0.024,-0.0396 -0.044,-0.0924 -0.2368,-0.18321 l -0.2708,-0.12752 0.1938,0.0224 c 0.1066,0.0123 0.2374,0.0435 0.2906,0.0693 0.053,0.0258 0.1087,0.0351 0.1232,0.0206 0.018,-0.0185 -0.5117,-1.09267 -0.604,-1.22381 0,-0.005 -0.2205,-0.0522 -0.4829,-0.105821 z m 2.4585,0.75091 c -0.1416,0.001 -0.8229,0.14521 -0.8594,0.18169 -0.013,0.0133 0.01,0.12643 0.043,0.25151 0.037,0.12508 0.068,0.24996 0.068,0.27759 0,0.0276 -0.1281,0.22008 -0.2846,0.42764 -0.2466,0.32693 -0.2786,0.38973 -0.2388,0.46954 0.025,0.0507 0.101,0.23755 0.1684,0.4152 0.1527,0.40272 0.8619,1.33506 1.0155,1.33502 0.059,-10e-6 0.165,-0.0828 0.287,-0.22333 0.3318,-0.38231 0.3242,-0.3597 0.1826,-0.54188 -0.2033,-0.26133 -0.2072,-0.30117 -0.012,-0.1176 0.1651,0.15508 0.1802,0.16153 0.1521,0.0646 -0.026,-0.0901 -0.022,-0.0985 0.028,-0.0515 0.049,0.0469 0.071,0.0185 0.1326,-0.17227 l 0.074,-0.22846 -0.026,0.32301 c -0.014,0.17765 -0.038,0.35599 -0.053,0.39636 -0.015,0.0404 -0.1483,0.20874 -0.2964,0.37415 -0.2133,0.23827 -0.2982,0.3035 -0.4088,0.31418 -0.1324,0.0128 -0.139,0.0217 -0.1261,0.17025 l 0.014,0.15671 -0.5416,0.30627 c -0.2978,0.16843 -0.5826,0.30626 -0.6327,0.30626 -0.079,0 -0.088,0.0178 -0.064,0.13459 0.015,0.074 0.027,0.15768 0.027,0.18598 0,0.10707 0.3195,0.41843 0.6011,0.58571 0.2857,0.16974 0.2994,0.17316 0.5776,0.14468 l 0.2849,-0.0292 0.3562,-0.37096 c 0.1959,-0.20401 0.5059,-0.46777 0.6889,-0.58621 0.183,-0.11843 0.333,-0.23847 0.3333,-0.26673 5e-4,-0.0283 -0.04,-0.12032 -0.09,-0.20457 -0.1,-0.16954 -0.083,-0.19708 0.044,-0.0702 0.1202,0.1202 0.2458,0.0702 0.3001,-0.11944 0.04,-0.14068 0.043,-0.12993 0.022,0.1011 -0.013,0.14213 -0.032,0.28748 -0.043,0.32301 -0.011,0.0355 -0.1962,0.1712 -0.4116,0.30148 -0.2713,0.16416 -0.4792,0.33308 -0.6772,0.55029 -0.1571,0.17237 -0.3788,0.38143 -0.4926,0.46458 l -0.2069,0.15115 0.3146,0.29803 c 0.3099,0.29362 0.318,0.29807 0.5514,0.29945 0.2223,10e-4 0.2791,-0.0233 0.9259,-0.40258 h 1e-4 c 0.5502,-0.32259 0.6884,-0.4221 0.6857,-0.49393 0,-0.0639 0.011,-0.0779 0.047,-0.0482 0.097,0.0804 0.1037,-0.0136 0.01,-0.14645 -0.068,-0.0968 -0.073,-0.11733 -0.019,-0.074 0.041,0.033 0.083,0.0516 0.093,0.0415 0.01,-0.0101 0.032,-0.40174 0.049,-0.87027 l 0.03,-0.85194 -0.2617,-0.26631 c -0.2304,-0.23435 -0.2994,-0.3491 -0.5752,-0.9554 -0.1724,-0.37899 -0.3308,-0.70104 -0.352,-0.71566 -0.021,-0.0146 -0.1567,-0.039 -0.3012,-0.0541 -0.1445,-0.0151 -0.2762,-0.0494 -0.2928,-0.0762 -0.017,-0.0268 -0.043,-0.21562 -0.06,-0.41966 -0.016,-0.20405 -0.04,-0.41422 -0.052,-0.4671 -0.033,-0.13753 -0.5735,-0.52862 -0.7295,-0.52733 z m -4.6011,8.88415 c 0.018,0.006 -0.145,0.30859 -0.2166,0.39594 -0.039,0.0474 -0.018,-0.0108 0.047,-0.1292 0.065,-0.11844 0.1357,-0.23472 0.1581,-0.25841 0.01,-0.006 0.01,-0.009 0.012,-0.008 z m 1.5463,0.75428 c 0.037,0.002 0.085,0.01 0.1529,0.0236 0.1185,0.0243 0.2154,0.0569 0.2154,0.0726 0,0.0157 -0.096,0.0955 -0.2126,0.17731 -0.1597,0.111771 -0.3489,0.341311 -0.7595,0.92133 -0.5758,0.813351 -0.7498,1.02957 -0.5697,0.707851 0.06,-0.10659 0.3078,-0.55235 0.5515,-0.99056 0.2437,-0.438211 0.4693,-0.827361 0.5013,-0.86472 0.03,-0.0355 0.059,-0.0503 0.1207,-0.0474 z"
       id="path2620-1"
       inkscape:connector-curvature="0"
       sodipodi:nodetypes="ccccccccccccccccccccsccsccccsccscsccccccccccccccccccccccccscccccscccccccccccccccscscccccccccssccccsccccccccccccccscccccccccccccccccsccscccccccccccccccscscccccccccccccccccccccccccccscccccccccccccscccccc" />
  </g>
</svg>
