<svg viewBox="0 0 8.4307661 3.431952" xmlns="http://www.w3.org/2000/svg"><g transform="matrix(.18871418 .1854489 -.1854489 .18871418 54.013492 -54.700167)"><path d="m17.673342 273.19678s-.583362 5.16886-5.472543 10.05804l.000085.00009c-.0022.002-.0046.004-.0069.007l-.520749.52075-.56629-.56629-1.1463248 1.14633.5662898.56628-.7038111.70382-.5662895-.56629-1.1463289 1.14633.5662895.56629-.7038108.7038-.5662895-.56628-1.1463289 1.14632.5662895.56629-3.232771 3.23278c-.9128627.91286-1.9678189 1.05072-1.9678189 1.05072l2.0634269 2.06343s.1378579-1.05496 1.0507239-1.96782l.9158889-.91589c.1141138.87097.5040943 1.71208 1.1705535 2.37855 1.6082978 1.60829 4.2336394 1.60847 5.8419364.00009l.566246.56625 1.146329-1.14633-.566246-.56625.703812-.70381.566245.56625 1.146325-1.14633-.566246-.56625.703812-.70381.566245.56625 1.146329-1.14633-.566245-.56624.520748-.52075c1.608298-1.6083 1.608119-4.23364-.000096-5.84194-.579779-.57978-1.291739-.95049-2.040544-1.11225 3.941716-2.82871 7.40996-3.22077 7.40996-3.22077zm-9.7003751 16.57853 3.5492801 3.54928c-.993036.99304-2.5562447.99286-3.5492801-.0001-.9930355-.99303-.9930355-2.55606 0-3.5491zm1.1463289-1.14633.7038071-.70381 3.5492831 3.54928-.70381.70381zm1.8501362-1.85014.703811-.70381 3.549279 3.54928-.703811.70381zm1.85014-1.85013.520749-.52075c.993036-.99304 2.556108-.99309 3.549144-.00005.993035.99304.993171 2.55629.000097 3.54933l-.520749.52075z"/><path d="m24.621337 270.87173-2.839028 3.39832.630544.63054 3.354813-2.88253z"/><path d="m27.058532 274.13547-4.157823 1.52351.230793.86134 4.346617-.81894z"/><path d="m21.001869 269.21873-.759515 4.36254.861336.2308 1.46409-4.17375z"/></g></svg>
