<svg viewBox="0 0 223.44609 68.37697" xmlns="http://www.w3.org/2000/svg"><path d="m1688.5195-379.92212c-1.1372-3.23529-2.7842-5.88233-3.6862-5.88233-10.8119.32269-17.6302.3249-24.0888 1.1674-6.9335 12.15818-14.009 11.14627-15.8719 3.73454-.7842-3.13725-2.6077-4.90194-5.0783-4.90194-8.8293-.0122-13.9743-.21203-20.0979-.0196-2.9608 2.33332-5.3922 5.49017-5.3922 7.01958 0 4.64704-13.1764 3.68626-14.6863-1.05882-.6862-2.13725-3.6077-5.01959-6.5097-6.39213-5.1569-2.47058-5.2941-3.03921-6.4902-25.05873-.6667-12.39211-1.3333-23.64697-1.4706-25.01951-.196-1.98039-13.8822-2.47058-64.8036-2.35294l-64.5489.13725-2.0195 5.7843c-1.0981 3.17646-2.8627 5.78429-3.9216 5.78429-4.8431 0-8.098-2.76469-8.098-6.88232 0-4.33333-.8039-4.56861-19.1175-5.64704-69.5233-4.15686-79.1586-6.50978-95.1781-23.2156-12.2941-12.82348-18.5764-25.60775-21.0098-42.76063-3.2372-22.82932 1.1001-42.23905 12.9883-58.12527 2.5686-3.43332 4.6705-6.53527 4.6705-6.89409s-10.996-.81568-24.4352-1.01568c-13.4391-.20001-28.1096-1.35294-32.6019-2.56274-5.8137-1.5647-8.7745-1.59216-10.2705-.0961-2.7626 2.76272-12.198 2.69018-16.7117-.12745-2.8882-1.80393-5.2666-1.23922-12.3999 2.94116-4.8549 2.84508-11.8373 5.19998-15.5176 5.23527-3.6804.0334-8.4039 1.35686-10.4967 2.94117-2.0933 1.58235-6.1742 2.87842-9.0685 2.87842-5.8249 0-6.3486-1.35294-8.7445-22.57443-.7984-7.07252-.4361-15.11366.9058-20.09795 1.8726-6.95489 3.0348-8.30782 7.1326-8.30782 2.6924 0 6.8495 1.2549 9.238 2.78822 2.3883 1.53333 8.5098 3.39411 13.6019 4.13528 5.7608.83922 11.2529 3.19803 14.5392 6.24312 4.9039 4.54508 5.8058 4.72154 12.6255 2.47058 4.0391-1.33333 9.5685-1.86666 12.2861-1.18431 2.7157.68235 7.3882.30784 10.3804-.82941 3.5706-1.35686 47.6156-2.18627 128.0858-2.4098 67.4311-.18627 138.2936-.61961 157.4308-.96274 41.3265.0458 49.3384 3.51394 45.6727-32.85171-6.5031-1.98857-5.2353-13.898-2.5685-17.11759 3.1567-3.7941 21.7778-4.40108 24.9151-.62666 3.0392 3.65881.647 16.81561-3.0392 16.81561-1.9216 0-2.7255 2.60195-2.7255 8.8235 1.091 15.37756 5.2369 22.52674 15.7278 23.3261 11.2308-.7207 18.7174-24.494 12.3309-38.95153-3.1568-6.6431-3.1372-7.05684.4903-9.8078 5.8431-4.40783 16.0488-4.04016 21.3572.20206 4.3517 3.64938 5.0234 11.35614-1.8671 14.4469-2.2353 0-2.9412 2.4098-2.9412 9.91956.6658 17.03712 9.0243 23.22294 15.6862 23.48065 9.8744-.0246 17.4224-18.75534 17.647-24.28456 0-5.54704-.9803-9.06859-2.6862-9.72545-3.3922-1.30196-5.0981-9.79213-2.7844-13.90976 1.9805-3.55293 21.9999-4.55095 24.0783-1.19999 2.0392 3.29998-1.2156 15.71955-4.1176 15.71955-1.9608 0-2.7255 2.73724-2.7255 9.7431 1.0634 21.68346 22.9225 22.76355 47.4705 20.78816 76.4507-2.33529 210.509-9.44507 261.5284-13.86858 18.2353-1.58235 39.3332-3.38626 46.8822-4.00979 45.1958-3.73724 84.2741-13.99407 112.5878-29.55675 20.7842-11.42544 34.8429-23.3254 39.2155-33.18615 4.9803-11.27466 9.196-12.96916 15.0979-6.08919 8.549 9.94173 12.0001 32.61557 13.3922 88.20751 1.353 52.94882-3.0784 93.38003-11.647 106.43881-4.6079 7.03919-8.6079 5.70586-13.0784-4.3843-5.1176-11.59407-13.4902-19.02933-34.6469-30.80773-34.0392-18.95679-64.8429-25.90774-124.529-28.10773l-34.9803-1.28823 1.3923 17.56268c8.8987 29.37239-21.315 91.34412-50.2156 105.47608-3.0588-2.76469-16.3332-2.94117-130.0583-1.66666l-126.6465 1.43136v25.39207c0 24.58814-.157 25.5097-4.7843 29.15675-2.6275 2.07842-5.3334 5.50978-6.0197 7.64703-.8627 2.70587-2.9803 3.86273-7.0783 3.86273-4.7452 0-6.2353-1.11765-7.9021-5.88233zm-189.2345-120.39184c21.7451-.45099 49.0876-.35185 61.8522-.44596l24.1082-.72855-.4116-23.03913c-.2157-12.67053-.8628-29.1097-1.4315-36.53123l-1.0196-13.49211-100.2152 1.36078c-114.9434-.0133-113.9199.47231-132.5384 14.29161-13.6537 12.30038-12.2896 21.44464-12.2853 34.32254 1.7266 8.22433 3.3274 18.0311 14.0215 22.6176 10.8677 3.30276 26.547 4.6211 41.589 4.59111 38.5445-1.32703 66.924-2.34791 106.3307-2.94666zm376.0771-3.12945c24.5832-.51118 27.2265-9.16792 28.0118-18.19095-.7542-8.66133-.1631-12.16697-.365-21.26721.9755-30.14323-50.9275-24.37995-92.9799-23.64356l-91.5292-.81568-1.0392 14.79995c-.5686 8.13918-1.6078 23.10383-2.3137 33.25476l-1.2549 18.46268 72.2547-1.3c39.745-.71175 79.9016-1.29607 89.2154-1.29999z" transform="matrix(.2116947945 0 0 .2116947945 -250.52874980435 147.55947334735)"/></svg>
