<svg viewBox="0 0 532 134.00002" xmlns="http://www.w3.org/2000/svg"><g fill="#fff" transform="matrix(1.3333333 0 0 -1.3333333 -27.499997 212.49999)"><path d="m0 0h-17v34h-16v-34h-17v67h17v-15h22l11-11zm-57 34h-22v-16h22v-18h-28l-11 11v30l11 11h28zm-46 0h-15v-16h15v-18h-22l-11 11v56h18v-15h15zm-40 25h-18v8h18zm0-59h-18v52h18zm-24 12-12-12h-56v52h18v-34h7v34h18v-34h7v34h18zm-74 22h-16v-16h16v-18h-22l-11 11v56h17v-15h16zm233 25h-17v15h-32l-15-15h-16l-9-8v8h-14v15h-56v-15h-68l-15 15h-31v-66.091l15-14.909 25-15h21v4l8-4h40l7 9 1-9h26l1 9 9-9h24l1 9 8-9h26l9 9v-9h14l12 9v-9h16l25 17v49z" transform="translate(412.625 85.375)"/><path d="m27.374998 159.375-6.75-17.25001v-70.500002h24.000001v-12.75h13.5l12.75 12.75h19.500001l26.25 26.25v61.500012zm80.250002-57.00001-15-15.000002h-24.000001l-12.75-12.75v12.75h-20.250001v63.000012h72.000002zm-15 30.75v-26.25h-9v26.25zm-24.000001 0v-26.25h-9v26.25z" fill-rule="evenodd" stroke-width=".75"/></g></svg>
