<?xml version="1.0" encoding="UTF-8" standalone="no"?>
<!-- Created with Inkscape (http://www.inkscape.org/) -->

<svg
   xmlns:dc="http://purl.org/dc/elements/1.1/"
   xmlns:cc="http://creativecommons.org/ns#"
   xmlns:rdf="http://www.w3.org/1999/02/22-rdf-syntax-ns#"
   xmlns:svg="http://www.w3.org/2000/svg"
   xmlns="http://www.w3.org/2000/svg"
   xmlns:sodipodi="http://sodipodi.sourceforge.net/DTD/sodipodi-0.dtd"
   xmlns:inkscape="http://www.inkscape.org/namespaces/inkscape"
   id="svg2"
   version="1.1"
   inkscape:version="0.91 r13725"
   xml:space="preserve"
   width="32.5"
   height="33.75"
   viewBox="0 0 32.5 33.75"
   sodipodi:docname="arrow_down.svg"><metadata
     id="metadata8"><rdf:RDF><cc:Work
         rdf:about=""><dc:format>image/svg+xml</dc:format><dc:type
           rdf:resource="http://purl.org/dc/dcmitype/StillImage" /><dc:title></dc:title></cc:Work></rdf:RDF></metadata><defs
     id="defs6"><clipPath
       clipPathUnits="userSpaceOnUse"
       id="clipPath18"><path
         d="M 0,6 260,6 260,266 0,266 0,6 Z"
         id="path20"
         inkscape:connector-curvature="0" /></clipPath></defs><sodipodi:namedview
     pagecolor="#ffffff"
     bordercolor="#666666"
     borderopacity="1"
     objecttolerance="10"
     gridtolerance="10"
     guidetolerance="10"
     inkscape:pageopacity="0"
     inkscape:pageshadow="2"
     inkscape:window-width="872"
     inkscape:window-height="696"
     id="namedview4"
     showgrid="false"
     inkscape:zoom="6.9925926"
     inkscape:cx="16.25"
     inkscape:cy="16.875"
     inkscape:window-x="710"
     inkscape:window-y="252"
     inkscape:window-maximized="0"
     inkscape:current-layer="g10" /><g
     id="g10"
     inkscape:groupmode="layer"
     inkscape:label="ink_ext_XXXXXX"
     transform="matrix(1.25,0,0,-1.25,0,33.75)"><g
       id="g12"
       transform="matrix(0,-0.1,0.1,0,-0.9980235,26.600023)"><g
         id="g14"><g
           id="g16"
           clip-path="url(#clipPath18)"><path
             d="m 116.09,190.84 0,-0.039 c -2.141,1.961 -4.961,3.211 -8.078,3.211 -6.641,0 -11.9925,-5.391 -11.9925,-11.992 0,-3.52 1.5196,-6.641 3.9024,-8.829 l -0.043,-0.043 38.3591,-35.16 -38.3591,-35.148 0.043,-0.039 c -2.3828,-2.192 -3.9024,-5.2815 -3.9024,-8.7893 0,-6.6406 5.3515,-11.9922 11.9925,-11.9922 3.117,0 5.937,1.211 8.078,3.1602 l 0,-0.0391 48.012,44.0194 c 2.5,2.27 3.91,5.469 3.91,8.828 0,3.364 -1.41,6.563 -3.91,8.871 L 116.09,190.84 Z M 128.012,266 C 57.3008,266 0,208.699 0,137.988 0,67.3281 57.3008,9.98047 128.012,9.98047 198.672,9.98047 256.02,67.3281 256.02,137.988 256.02,208.699 198.672,266 128.012,266 Z m 0,-231.9883 c -57.3518,0 -104.0315,46.6367 -104.0315,103.9763 0,57.352 46.6797,104.032 104.0315,104.032 57.34,0 103.976,-46.68 103.976,-104.032 0,-57.3396 -46.636,-103.9763 -103.976,-103.9763 z"
             style="fill:#000000;fill-opacity:1;fill-rule:evenodd;stroke:none"
             id="path22"
             inkscape:connector-curvature="0" /></g></g></g></g></svg>