<?xml version="1.0" encoding="UTF-8" standalone="no"?>
<!-- Created with Inkscape (http://www.inkscape.org/) -->

<svg
   xmlns:dc="http://purl.org/dc/elements/1.1/"
   xmlns:cc="http://creativecommons.org/ns#"
   xmlns:rdf="http://www.w3.org/1999/02/22-rdf-syntax-ns#"
   xmlns:svg="http://www.w3.org/2000/svg"
   xmlns="http://www.w3.org/2000/svg"
   xmlns:sodipodi="http://sodipodi.sourceforge.net/DTD/sodipodi-0.dtd"
   xmlns:inkscape="http://www.inkscape.org/namespaces/inkscape"
   id="svg2"
   version="1.1"
   inkscape:version="0.91 r13725"
   xml:space="preserve"
   width="957.5"
   height="568.75"
   viewBox="0 0 957.5 568.75"
   sodipodi:docname="cloud.svg"><metadata
     id="metadata8"><rdf:RDF><cc:Work
         rdf:about=""><dc:format>image/svg+xml</dc:format><dc:type
           rdf:resource="http://purl.org/dc/dcmitype/StillImage" /><dc:title></dc:title></cc:Work></rdf:RDF></metadata><defs
     id="defs6"><clipPath
       clipPathUnits="userSpaceOnUse"
       id="clipPath18"><path
         d="m 0,0.398438 7660,0 0,4539.999962 -7660,0 L 0,0.398438 Z"
         id="path20"
         inkscape:connector-curvature="0" /></clipPath></defs><sodipodi:namedview
     pagecolor="#ffffff"
     bordercolor="#666666"
     borderopacity="1"
     objecttolerance="10"
     gridtolerance="10"
     guidetolerance="10"
     inkscape:pageopacity="0"
     inkscape:pageshadow="2"
     inkscape:window-width="1191"
     inkscape:window-height="750"
     id="namedview4"
     showgrid="false"
     inkscape:zoom="0.35718016"
     inkscape:cx="443.3514"
     inkscape:cy="145.78948"
     inkscape:window-x="480"
     inkscape:window-y="90"
     inkscape:window-maximized="0"
     inkscape:current-layer="g10" /><g
     id="g10"
     inkscape:groupmode="layer"
     inkscape:label="ink_ext_XXXXXX"
     transform="matrix(1.25,0,0,-1.25,0,568.75)"><g
       id="g12"
       transform="scale(0.1,0.1)"
       style="fill:#8d0f08;fill-opacity:1;opacity:1"><g
         id="g14"
         style="fill:#8d0f08;fill-opacity:1"><g
           id="g16"
           clip-path="url(#clipPath18)"
           style="fill:#8d0f08;fill-opacity:1"><path
             d="m 6261.6,2796.42 -3.98,0 c -61.6,973.59 -871.21,1743.98 -1860,1743.98 -912.82,0 -1672.03,-656.02 -1832.82,-1521.6 -20.82,0.82 -42.42,1.6 -63.2,1.6 -680,0 -1253.59,-450.39 -1440.82,-1068.79 -28.79,2.38 -58.4,3.99 -87.971,3.99 C 436.02,1955.6 0,1520.4 0,982.781 0,445.199 435.199,10.0117 971.988,10.0117 l 5288.792,0 c 769.61,0 1392.81,623.9763 1392.81,1392.7683 0,768.83 -622.38,1393.64 -1391.99,1393.64 z"
             style="fill:#8d0f08;fill-opacity:1;fill-rule:nonzero;stroke:none"
             id="path22"
             inkscape:connector-curvature="0" /></g></g></g></g></svg>