<?xml version="1.0" encoding="UTF-8" standalone="no"?>
<!-- Created with Inkscape (http://www.inkscape.org/) -->

<svg
   xmlns:dc="http://purl.org/dc/elements/1.1/"
   xmlns:cc="http://creativecommons.org/ns#"
   xmlns:rdf="http://www.w3.org/1999/02/22-rdf-syntax-ns#"
   xmlns:svg="http://www.w3.org/2000/svg"
   xmlns="http://www.w3.org/2000/svg"
   xmlns:sodipodi="http://sodipodi.sourceforge.net/DTD/sodipodi-0.dtd"
   xmlns:inkscape="http://www.inkscape.org/namespaces/inkscape"
   id="svg2"
   version="1.1"
   inkscape:version="0.91 r13725"
   xml:space="preserve"
   width="48.75"
   height="52.5"
   viewBox="0 0 48.75 52.5"
   sodipodi:docname="status_off.svg"><metadata
     id="metadata8"><rdf:RDF><cc:Work
         rdf:about=""><dc:format>image/svg+xml</dc:format><dc:type
           rdf:resource="http://purl.org/dc/dcmitype/StillImage" /><dc:title /></cc:Work></rdf:RDF></metadata><defs
     id="defs6"><clipPath
       clipPathUnits="userSpaceOnUse"
       id="clipPath18"><path
         d="m 0,4.67969 390,0 0,410 -390,0 0,-410 z"
         id="path20"
         inkscape:connector-curvature="0" /></clipPath></defs><sodipodi:namedview
     pagecolor="#ffffff"
     bordercolor="#666666"
     borderopacity="1"
     objecttolerance="10"
     gridtolerance="10"
     guidetolerance="10"
     inkscape:pageopacity="0"
     inkscape:pageshadow="2"
     inkscape:window-width="743"
     inkscape:window-height="480"
     id="namedview4"
     showgrid="false"
     inkscape:zoom="4.4952381"
     inkscape:cx="-10.884534"
     inkscape:cy="24.247881"
     inkscape:window-x="1133"
     inkscape:window-y="137"
     inkscape:window-maximized="0"
     inkscape:current-layer="g10" /><g
     id="g10"
     inkscape:groupmode="layer"
     inkscape:label="ink_ext_XXXXXX"
     transform="matrix(1.25,0,0,-1.25,0,52.5)"><g
       id="g12"
       transform="scale(0.1,0.1)"
       style="fill:#ffffff;fill-opacity:0.39215687"><g
         id="g14"
         style="fill:#ffffff;fill-opacity:0.39215687"><g
           id="g16"
           clip-path="url(#clipPath18)"
           style="fill:#ffffff;fill-opacity:0.39215687"><path
             d="m 0,195.23 c 0,59.25 30,110.86 74.9609,144.489 10.6289,7.929 31.9181,11.441 40.4691,1.293 5.269,-6.25 7.191,-13.793 7.379,-20.942 0.429,-13.281 -13.321,-29.371 -22.77,-38.672 C 77.5,259.172 63.2813,229.051 63.2813,195.031 63.2813,123.82 120.98,69.8398 192.191,69.8398 c 71.25,0 128.981,53.9802 128.981,125.1912 0,36.289 -13.871,68.168 -36.871,90.699 -9.461,9.258 -22.313,25.668 -20.242,38.75 1.171,7.579 4.461,15.079 11.601,20.469 10.59,7.973 31.762,2.27 42.231,-5.859 43.16,-33.629 71.289,-85 71.289,-143.86 C 389.18,90.8516 296.641,9.98828 192.23,9.98828 87.8906,9.98828 0,90.8516 0,195.23 Z"
             style="fill:#ffffff;fill-opacity:0.39215687;fill-rule:evenodd;stroke:none"
             id="path22"
             inkscape:connector-curvature="0" /><path
             d="m 195.98,175.699 c -13.011,0 -31.101,15.231 -31.101,28.281 l 0,181.442 c 0,1.84 0.281,29.258 30.16,29.258 13.051,0 30.191,-6.84 30.191,-29.258 l 0,-181.442 c 0,-13.05 -16.171,-28.281 -29.25,-28.281 z"
             style="fill:#ffffff;fill-opacity:0.39215687;fill-rule:evenodd;stroke:none"
             id="path24"
             inkscape:connector-curvature="0" /></g></g></g></g></svg>