<?xml version="1.0" encoding="UTF-8" standalone="no"?>
<!-- Created with Inkscape (http://www.inkscape.org/) -->

<svg
   xmlns:dc="http://purl.org/dc/elements/1.1/"
   xmlns:cc="http://creativecommons.org/ns#"
   xmlns:rdf="http://www.w3.org/1999/02/22-rdf-syntax-ns#"
   xmlns:svg="http://www.w3.org/2000/svg"
   xmlns="http://www.w3.org/2000/svg"
   xmlns:sodipodi="http://sodipodi.sourceforge.net/DTD/sodipodi-0.dtd"
   xmlns:inkscape="http://www.inkscape.org/namespaces/inkscape"
   id="svg2"
   version="1.1"
   inkscape:version="0.91 r13725"
   xml:space="preserve"
   width="316.25"
   height="251.25"
   viewBox="0 0 316.25 251.25"
   sodipodi:docname="xmasher.svg"><metadata
     id="metadata8"><rdf:RDF><cc:Work
         rdf:about=""><dc:format>image/svg+xml</dc:format><dc:type
           rdf:resource="http://purl.org/dc/dcmitype/StillImage" /><dc:title></dc:title></cc:Work></rdf:RDF></metadata><defs
     id="defs6"><clipPath
       clipPathUnits="userSpaceOnUse"
       id="clipPath18"><path
         d="m 0,1.33984 2530,0 0,1999.99996 -2530,0 L 0,1.33984 Z"
         id="path20"
         inkscape:connector-curvature="0" /></clipPath></defs><sodipodi:namedview
     pagecolor="#ffffff"
     bordercolor="#666666"
     borderopacity="1"
     objecttolerance="10"
     gridtolerance="10"
     guidetolerance="10"
     inkscape:pageopacity="0"
     inkscape:pageshadow="2"
     inkscape:window-width="743"
     inkscape:window-height="480"
     id="namedview4"
     showgrid="false"
     inkscape:zoom="0.93930348"
     inkscape:cx="42.081567"
     inkscape:cy="116.04343"
     inkscape:window-x="898"
     inkscape:window-y="144"
     inkscape:window-maximized="0"
     inkscape:current-layer="g10" /><g
     id="g10"
     inkscape:groupmode="layer"
     inkscape:label="ink_ext_XXXXXX"
     transform="matrix(1.25,0,0,-1.25,0,251.25)"><g
       id="g12"
       transform="scale(0.1,0.1)"
       style="fill:#8d0f08;fill-opacity:1"><g
         id="g14"
         style="fill:#8d0f08;fill-opacity:1"><g
           id="g16"
           clip-path="url(#clipPath18)"
           style="fill:#8d0f08;fill-opacity:1"><path
             d="m 2484.65,2001.34 -2444.65,0 c -22.0703,0 -40,-17.89 -40,-40 L 0,50.0195 c 0,-22.1093 17.9297,-40 40,-40 l 2444.65,0 c 22.11,0 40,17.8907 40,40 l 0,1911.3205 c 0,22.11 -17.89,40 -40,40 z m -200,-1672.418 -550.12,569.687 c -6.09,6.289 -16.05,6.68 -22.62,0.942 L 1330.35,563.691 842.66,1164.2 c -3.172,3.9 -7.781,6.13 -13.012,6.05 -5.078,-0.12 -9.769,-2.54 -12.769,-6.6 L 240,389.629 l 0,1371.711 2044.65,0 0,-1432.418 z"
             style="fill:#8d0f08;fill-opacity:1;fill-rule:nonzero;stroke:none"
             id="path22"
             inkscape:connector-curvature="0" /><path
             d="m 1680.47,1183.57 c 108.32,0 196.25,87.85 196.25,196.21 0,108.36 -87.93,196.29 -196.25,196.29 -108.4,0 -196.21,-87.93 -196.21,-196.29 0,-108.36 87.81,-196.21 196.21,-196.21 z"
             style="fill:#8d0f08;fill-opacity:1;fill-rule:nonzero;stroke:none"
             id="path24"
             inkscape:connector-curvature="0" /></g></g></g></g></svg>